<svg xmlns="http://www.w3.org/2000/svg" viewBox="0 0 47.43 47.43"><defs><style>.cls-1{fill:#222221;}.cls-2{fill:#fff;}</style></defs><g id="Calque_2" data-name="Calque 2"><g id="Capa_1" data-name="Capa 1"><rect class="cls-1" width="47.43" height="47.43" rx="8.47"/><path class="cls-2" d="M20.17,31.58c4.09-.59,5.41-7.26,1.23-8.68C23.67,22,24,18.8,22.67,17,21,14.12,13.15,15.51,10.34,15.2V31.81C12.09,31.74,18.59,32,20.17,31.58ZM13.66,18.09c1.8.32,6.42-1.07,6.46,1.79s-4.73,1.57-6.46,1.87Zm0,10.83V24.5c1.91.29,6.84-1.07,6.8,2.06C20.63,30,15.73,28.66,13.66,28.92Z"/><path class="cls-2" d="M26.78,30.71c3,2.72,9.36,1.68,10.13-2.5H33.63c-1.33,2.57-5.69,1.47-5.49-1.64h8.94C37.39,12.71,18.46,20.82,26.78,30.71Zm2.29-8.16c1.54-1.49,4.73-.54,4.68,1.9H28.22A3.32,3.32,0,0,1,29.07,22.55Z"/><rect class="cls-2" x="27.17" y="16.16" width="7.22" height="1.68"/></g></g></svg>