<svg xmlns="http://www.w3.org/2000/svg" viewBox="0 0 47.43 47.43"><defs><style>.cls-1{fill:#9c9b9b;}.cls-2{fill:#fff;}</style></defs><g id="Calque_2" data-name="Calque 2"><g id="Capa_1" data-name="Capa 1"><rect class="cls-1" width="47.43" height="47.43" rx="8.47"/><path class="cls-2" d="M20.17,31.58a4.56,4.56,0,0,0,3.06-2.14A4.87,4.87,0,0,0,24,26.79a4.4,4.4,0,0,0-.64-2.43A3.63,3.63,0,0,0,21.4,22.9,4,4,0,0,0,22.67,22a3.7,3.7,0,0,0,.77-2.44A4.23,4.23,0,0,0,22.67,17c-.84-1.15-2.28-1.74-4.3-1.77h-8V31.81h7.49A11.46,11.46,0,0,0,20.17,31.58ZM13.66,18.09h3.61a6,6,0,0,1,2,.26,1.46,1.46,0,0,1,.89,1.53,1.57,1.57,0,0,1-.67,1.46,3.4,3.4,0,0,1-1.76.41h-4Zm0,10.83V24.5h4.08a4,4,0,0,1,1.66.28,1.77,1.77,0,0,1,1.06,1.78,2.08,2.08,0,0,1-1.09,2.07,3.84,3.84,0,0,1-1.68.29Z"/><path class="cls-2" d="M26.78,30.71a6.67,6.67,0,0,0,4.32,1.51,6,6,0,0,0,4.62-1.79,3.94,3.94,0,0,0,1.19-2.22H33.63a2.67,2.67,0,0,1-.66.85,2.73,2.73,0,0,1-1.78.56,3.24,3.24,0,0,1-1.77-.46,2.94,2.94,0,0,1-1.28-2.59h8.94A16,16,0,0,0,37,24.13a6,6,0,0,0-1-2.54,4.93,4.93,0,0,0-2.12-1.81A6.86,6.86,0,0,0,31,19.2a6,6,0,0,0-4.4,1.7,6.7,6.7,0,0,0-1.69,4.9Q24.9,29.21,26.78,30.71Zm2.29-8.16a2.53,2.53,0,0,1,1.92-.7,2.82,2.82,0,0,1,1.9.66,2.7,2.7,0,0,1,.86,1.94H28.22A3.32,3.32,0,0,1,29.07,22.55Z"/><rect class="cls-2" x="27.17" y="16.16" width="7.22" height="1.68"/></g></g></svg>