<svg xmlns="http://www.w3.org/2000/svg" xmlns:xlink="http://www.w3.org/1999/xlink" viewBox="0 0 47.43 47.43"><defs><style>.cls-1{fill:url(#Degradado_sin_nombre_2);}.cls-2{fill:#fff;}</style><radialGradient id="Degradado_sin_nombre_2" cx="-1.19" cy="47.58" r="87.69" gradientUnits="userSpaceOnUse"><stop offset="0" stop-color="#f5ec53"/><stop offset="0.24" stop-color="#e48244"/><stop offset="0.4" stop-color="#d15767"/><stop offset="0.49" stop-color="#c84278"/><stop offset="1" stop-color="#192cfa"/></radialGradient></defs><g id="Calque_2" data-name="Calque 2"><g id="Capa_1" data-name="Capa 1"><rect class="cls-1" width="47.43" height="47.43" rx="8.47"/><path class="cls-2" d="M23.71,13.05c3.48,0,3.89,0,5.26.08a7.21,7.21,0,0,1,2.41.45,4,4,0,0,1,1.5,1,4.17,4.17,0,0,1,1,1.5,7.09,7.09,0,0,1,.45,2.41c.06,1.37.07,1.78.07,5.25s0,3.89-.07,5.26a7.15,7.15,0,0,1-.45,2.41,4.26,4.26,0,0,1-2.47,2.47A7.21,7.21,0,0,1,29,34.3c-1.37.06-1.78.07-5.26.07s-3.88,0-5.25-.07a7.09,7.09,0,0,1-2.41-.45,4.17,4.17,0,0,1-1.5-1,4,4,0,0,1-1-1.5A7.15,7.15,0,0,1,13.13,29c-.06-1.37-.08-1.78-.08-5.26s0-3.88.08-5.25a7.09,7.09,0,0,1,.45-2.41,4.26,4.26,0,0,1,2.47-2.47,7.09,7.09,0,0,1,2.41-.45c1.37-.06,1.78-.08,5.25-.08m0-2.34c-3.53,0-4,0-5.36.08a9.45,9.45,0,0,0-3.15.6,6.62,6.62,0,0,0-3.81,3.81,9.45,9.45,0,0,0-.6,3.15c-.06,1.39-.08,1.83-.08,5.36s0,4,.08,5.36a9.52,9.52,0,0,0,.6,3.16,6.44,6.44,0,0,0,1.5,2.3A6.29,6.29,0,0,0,15.2,36a9.68,9.68,0,0,0,3.15.61c1.39.06,1.83.08,5.36.08s4,0,5.36-.08A9.75,9.75,0,0,0,32.23,36a6.66,6.66,0,0,0,3.8-3.8,9.75,9.75,0,0,0,.61-3.16c.06-1.38.08-1.83.08-5.36s0-4-.08-5.36A9.68,9.68,0,0,0,36,15.2a6.29,6.29,0,0,0-1.5-2.31,6.44,6.44,0,0,0-2.3-1.5,9.52,9.52,0,0,0-3.16-.6c-1.38-.06-1.83-.08-5.36-.08"/><path class="cls-2" d="M23.71,17a6.68,6.68,0,1,0,6.68,6.67A6.67,6.67,0,0,0,23.71,17m0,11a4.34,4.34,0,1,1,4.34-4.34,4.33,4.33,0,0,1-4.34,4.34"/><path class="cls-2" d="M32.21,16.77a1.56,1.56,0,1,1-1.56-1.56,1.56,1.56,0,0,1,1.56,1.56"/></g></g></svg>