<svg xmlns="http://www.w3.org/2000/svg" viewBox="0 0 47.43 47.43"><defs><style>.cls-1{fill:#222221;}.cls-2{fill:#fff;}</style></defs><g id="Calque_2" data-name="Calque 2"><g id="Capa_1" data-name="Capa 1"><rect class="cls-1" width="47.43" height="47.43" rx="8.47"/><path class="cls-2" d="M23.71,13.05c9.67-.43,11.1,1,10.66,10.66.44,9.67-1,11.1-10.66,10.66-9.67.44-11.09-1-10.66-10.66C12.62,14,14,12.62,23.71,13.05m0-2.34c-10.65-.73-13.73,2.35-13,13-.73,10.66,2.35,13.74,13,13,10.66.72,13.74-2.35,13-13,.72-10.65-2.35-13.73-13-13"/><path class="cls-2" d="M23.71,17c-8.66-.13-8.66,13.48,0,13.35,8.67.13,8.67-13.48,0-13.35m0,11c-5.62.08-5.62-8.75,0-8.67,5.63-.08,5.63,8.75,0,8.67"/><path class="cls-2" d="M32.21,16.77a1.56,1.56,0,0,1-3.12,0,1.56,1.56,0,0,1,3.12,0"/></g></g></svg>