<svg xmlns="http://www.w3.org/2000/svg" viewBox="0 0 47.43 47.43"><defs><style>.cls-1{fill:#9c9b9b;}.cls-2{fill:#fff;}</style></defs><g id="Calque_2" data-name="Calque 2"><g id="Capa_1" data-name="Capa 1"><rect class="cls-1" width="47.43" height="47.43" rx="8.47"/><path class="cls-2" d="M11.08,31.65A14.74,14.74,0,0,0,33.76,18.56a10.65,10.65,0,0,0,2.59-2.68,10.27,10.27,0,0,1-3,.81,5.18,5.18,0,0,0,2.28-2.87,10.17,10.17,0,0,1-3.29,1.26,5.19,5.19,0,0,0-8.84,4.73,14.66,14.66,0,0,1-10.68-5.42,5.2,5.2,0,0,0,1.6,6.93,5.19,5.19,0,0,1-2.35-.65,5.2,5.2,0,0,0,4.16,5.15,5.11,5.11,0,0,1-2.34.08,5.19,5.19,0,0,0,4.84,3.61A10.42,10.42,0,0,1,11.08,31.65Z"/></g></g></svg>