<svg xmlns="http://www.w3.org/2000/svg" viewBox="0 0 172.67 172.67"><defs><style>.cls-1{fill:#445061;}</style></defs><g id="Calque_2" data-name="Calque 2"><g id="Calque_1-2" data-name="Calque 1"><path class="cls-1" d="M172.67,84.35a85.91,85.91,0,0,0-10.55-39.44c-.64-1.17-1.31-2.33-2-3.46a86.82,86.82,0,0,0-28.87-28.87c-1.13-.69-2.29-1.36-3.46-2A85.91,85.91,0,0,0,88.35,0h-4A85.91,85.91,0,0,0,44.91,10.58c-1.17.64-2.33,1.31-3.46,2A86.82,86.82,0,0,0,12.58,41.45c-.69,1.13-1.36,2.29-2,3.46A85.91,85.91,0,0,0,0,84.35v4a85.91,85.91,0,0,0,10.55,39.44c.64,1.17,1.31,2.33,2,3.46a86.82,86.82,0,0,0,28.87,28.87c1.13.69,2.29,1.36,3.46,2a85.91,85.91,0,0,0,39.44,10.55h4a85.91,85.91,0,0,0,39.44-10.55c1.17-.64,2.33-1.31,3.46-2a86.82,86.82,0,0,0,28.87-28.87c.69-1.13,1.36-2.29,2-3.46a85.91,85.91,0,0,0,10.55-39.44v-2C172.64,85.68,172.69,85,172.67,84.35ZM84.35,4h4a81.82,81.82,0,0,1,37.42,10L107.43,45.85a45.4,45.4,0,0,0-19.08-5.1h-4a45.4,45.4,0,0,0-19.08,5.1L46.93,14.06A81.85,81.85,0,0,1,84.35,4ZM128,84.35v4a41.52,41.52,0,0,1-4.59,17.07c-.61,1.18-1.28,2.33-2,3.45a42.08,42.08,0,0,1-12.5,12.5c-1.12.72-2.27,1.39-3.45,2A41.4,41.4,0,0,1,88.35,128h-4a41.52,41.52,0,0,1-17.07-4.59c-1.18-.61-2.33-1.28-3.45-2a42.08,42.08,0,0,1-12.5-12.5c-.72-1.12-1.39-2.27-2-3.45a41.52,41.52,0,0,1-4.59-17.07v-4a41.52,41.52,0,0,1,4.59-17.07c.61-1.18,1.28-2.33,2-3.45a42.08,42.08,0,0,1,12.5-12.5c1.12-.72,2.27-1.39,3.45-2a41.52,41.52,0,0,1,17.07-4.59h4a41.52,41.52,0,0,1,17.07,4.59c1.18.61,2.33,1.28,3.45,2a42.08,42.08,0,0,1,12.5,12.5c.72,1.12,1.39,2.27,2,3.45A41.39,41.39,0,0,1,128,84.35ZM14.06,125.77a81.82,81.82,0,0,1-10-37.42v-4a81.82,81.82,0,0,1,10-37.42L45.85,65.27a45.4,45.4,0,0,0-5.1,19.08v4a45.4,45.4,0,0,0,5.1,19.08Zm74.29,42.9h-4a81.82,81.82,0,0,1-37.42-10l18.34-31.79A45.4,45.4,0,0,0,84.35,132c.66,0,1.33.05,2,.05s1.34,0,2-.05a45.4,45.4,0,0,0,19.08-5.1l18.34,31.79a81.82,81.82,0,0,1-37.42,10Zm80.32-80.32a81.82,81.82,0,0,1-10,37.42l-31.79-18.34A45.4,45.4,0,0,0,132,88.35c0-.66.05-1.33.05-2s0-1.34-.05-2a45.4,45.4,0,0,0-5.1-19.08l31.79-18.34a81.82,81.82,0,0,1,10,37.42v2c0,.67,0,1.34,0,2Z"/></g></g></svg>