<svg xmlns="http://www.w3.org/2000/svg" viewBox="0 0 224.7 224.7"><defs><style>.cls-1{fill:#222;}</style></defs><g id="Calque_2" data-name="Calque 2"><g id="Calque_1-2" data-name="Calque 1"><path class="cls-1" d="M224.7,224.7H0V0H224.7ZM2,222.7H222.7V2H2Z"/><path class="cls-1" d="M198.67,110.35a85.9,85.9,0,0,0-10.55-39.44c-.64-1.17-1.31-2.33-2-3.46a86.82,86.82,0,0,0-28.87-28.87c-1.13-.69-2.29-1.36-3.46-2A85.9,85.9,0,0,0,114.35,26c-.67,0-1.33,0-2,0s-1.33,0-2,0A85.9,85.9,0,0,0,70.91,36.58c-1.17.64-2.33,1.31-3.46,2A86.82,86.82,0,0,0,38.58,67.45c-.69,1.13-1.36,2.29-2,3.46A85.9,85.9,0,0,0,26,110.35c0,.67,0,1.33,0,2s0,1.33,0,2a85.9,85.9,0,0,0,10.55,39.44c.64,1.17,1.31,2.33,2,3.46a86.82,86.82,0,0,0,28.87,28.87c1.13.69,2.29,1.36,3.46,2a85.9,85.9,0,0,0,39.44,10.55c.67,0,1.33,0,2,0s1.33,0,2,0a85.9,85.9,0,0,0,39.44-10.55c1.17-.64,2.33-1.31,3.46-2a86.82,86.82,0,0,0,28.87-28.87c.69-1.13,1.36-2.29,2-3.46a85.9,85.9,0,0,0,10.55-39.44c0-.67,0-1.33,0-2S198.69,111,198.67,110.35ZM110.35,30c.66,0,1.33,0,2,0s1.34,0,2,0a81.79,81.79,0,0,1,37.42,10L133.43,71.85a45.3,45.3,0,0,0-19.08-5.1c-.66,0-1.33,0-2,0s-1.34,0-2,0a45.3,45.3,0,0,0-19.08,5.1L72.93,40.06A81.79,81.79,0,0,1,110.35,30ZM154,110.35c0,.66,0,1.33,0,2s0,1.34,0,2a41.46,41.46,0,0,1-4.59,17.07,39.21,39.21,0,0,1-2,3.45,42.08,42.08,0,0,1-12.5,12.5,39.21,39.21,0,0,1-3.45,2A41.46,41.46,0,0,1,114.35,154c-.66,0-1.33,0-2,0s-1.34,0-2,0a41.46,41.46,0,0,1-17.07-4.59,39.21,39.21,0,0,1-3.45-2,42.08,42.08,0,0,1-12.5-12.5,39.21,39.21,0,0,1-2-3.45,41.46,41.46,0,0,1-4.59-17.07c0-.66,0-1.33,0-2s0-1.34,0-2a41.46,41.46,0,0,1,4.59-17.07,39.21,39.21,0,0,1,2-3.45,42.08,42.08,0,0,1,12.5-12.5,39.21,39.21,0,0,1,3.45-2,41.46,41.46,0,0,1,17.07-4.59c.66,0,1.33,0,2,0s1.34,0,2,0a41.46,41.46,0,0,1,17.07,4.59,39.21,39.21,0,0,1,3.45,2,42.08,42.08,0,0,1,12.5,12.5,39.21,39.21,0,0,1,2,3.45A41.46,41.46,0,0,1,154,110.35ZM40.06,151.77a81.79,81.79,0,0,1-10-37.42c0-.66,0-1.33,0-2s0-1.34,0-2a81.79,81.79,0,0,1,10-37.42L71.85,91.27a45.3,45.3,0,0,0-5.1,19.08c0,.66,0,1.33,0,2s0,1.34,0,2a45.3,45.3,0,0,0,5.1,19.08Zm74.29,42.9c-.66,0-1.33,0-2,0s-1.34,0-2,0a81.79,81.79,0,0,1-37.42-10l18.34-31.79a45.3,45.3,0,0,0,19.08,5.1c.66,0,1.33.05,2,.05s1.34,0,2-.05a45.3,45.3,0,0,0,19.08-5.1l18.34,31.79A81.79,81.79,0,0,1,114.35,194.67Zm80.32-80.32a81.79,81.79,0,0,1-10,37.42l-31.79-18.34a45.3,45.3,0,0,0,5.1-19.08c0-.66.05-1.33.05-2s0-1.34-.05-2a45.3,45.3,0,0,0-5.1-19.08l31.79-18.34a81.79,81.79,0,0,1,10,37.42c0,.66,0,1.33,0,2S194.69,113.69,194.67,114.35Z"/></g></g></svg>