<svg xmlns="http://www.w3.org/2000/svg" viewBox="0 0 224.7 224.7"><defs><style>.cls-1{fill:#3f5168;}</style></defs><g id="Calque_2" data-name="Calque 2"><g id="Calque_1-2" data-name="Calque 1"><g id="Calque_2-2" data-name="Calque 2"><g id="Calque_1-2-2" data-name="Calque 1-2"><path class="cls-1" d="M224.7,224.7H0V0H224.7ZM2,222.7H222.7V2H2Z"/><path class="cls-1" d="M198.67,110.35a85.91,85.91,0,0,0-10.55-39.44c-.64-1.17-1.31-2.33-2-3.46a86.82,86.82,0,0,0-28.87-28.87c-1.13-.69-2.29-1.36-3.46-2A85.91,85.91,0,0,0,114.35,26h-4A85.91,85.91,0,0,0,70.91,36.58c-1.17.64-2.33,1.31-3.46,2A86.82,86.82,0,0,0,38.58,67.45c-.69,1.13-1.36,2.29-2,3.46A85.91,85.91,0,0,0,26,110.35v4a85.91,85.91,0,0,0,10.55,39.44c.64,1.17,1.31,2.33,2,3.46a86.82,86.82,0,0,0,28.87,28.87c1.13.69,2.29,1.36,3.46,2a85.91,85.91,0,0,0,39.44,10.55h4a85.91,85.91,0,0,0,39.44-10.55c1.17-.64,2.33-1.31,3.46-2a86.82,86.82,0,0,0,28.87-28.87c.69-1.13,1.36-2.29,2-3.46a85.91,85.91,0,0,0,10.55-39.44v-2C198.64,111.68,198.69,111,198.67,110.35ZM110.35,30h4a81.82,81.82,0,0,1,37.42,10L133.43,71.85a45.4,45.4,0,0,0-19.08-5.1h-4a45.4,45.4,0,0,0-19.08,5.1L72.93,40.06A81.85,81.85,0,0,1,110.35,30ZM154,110.35v4a41.52,41.52,0,0,1-4.59,17.07c-.61,1.18-1.28,2.33-2,3.45a42.08,42.08,0,0,1-12.5,12.5c-1.12.72-2.27,1.39-3.45,2A41.4,41.4,0,0,1,114.35,154h-4a41.52,41.52,0,0,1-17.07-4.59c-1.18-.61-2.33-1.28-3.45-2a42.08,42.08,0,0,1-12.5-12.5c-.72-1.12-1.39-2.27-2-3.45a41.52,41.52,0,0,1-4.59-17.07v-4a41.52,41.52,0,0,1,4.59-17.07c.61-1.18,1.28-2.33,2-3.45a42.08,42.08,0,0,1,12.5-12.5c1.12-.72,2.27-1.39,3.45-2a41.52,41.52,0,0,1,17.07-4.59h4a41.52,41.52,0,0,1,17.07,4.59c1.18.61,2.33,1.28,3.45,2a42.08,42.08,0,0,1,12.5,12.5c.72,1.12,1.39,2.27,2,3.45A41.39,41.39,0,0,1,154,110.35ZM40.06,151.77a81.82,81.82,0,0,1-10-37.42v-4a81.82,81.82,0,0,1,10-37.42L71.85,91.27a45.4,45.4,0,0,0-5.1,19.08v4a45.4,45.4,0,0,0,5.1,19.08Zm74.29,42.9h-4a81.82,81.82,0,0,1-37.42-10l18.34-31.79a45.4,45.4,0,0,0,19.08,5.1c.66,0,1.33.05,2,.05s1.34,0,2-.05a45.4,45.4,0,0,0,19.08-5.1l18.34,31.79a81.82,81.82,0,0,1-37.42,10Zm80.32-80.32a81.82,81.82,0,0,1-10,37.42l-31.79-18.34a45.4,45.4,0,0,0,5.1-19.08c0-.66.05-1.33.05-2s0-1.34-.05-2a45.4,45.4,0,0,0-5.1-19.08l31.79-18.34a81.82,81.82,0,0,1,10,37.42v2c0,.67,0,1.34,0,2Z"/></g></g></g></g></svg>