<svg xmlns="http://www.w3.org/2000/svg" viewBox="0 0 89 145.82"><defs><style>.cls-1{fill:#445061;}</style></defs><g id="Calque_2" data-name="Calque 2"><g id="Calque_1-2" data-name="Calque 1"><path class="cls-1" d="M89,82.42V124a21.48,21.48,0,0,1-41.5,7.9,22.91,22.91,0,0,1-1.5-8.2V66.92a16.94,16.94,0,0,1,4.2-11.6c2.3-2.7,4.7-5.4,6.9-8.1a16.47,16.47,0,1,0-25.4-.1c2.2,2.8,4.6,5.4,6.9,8.1A17.62,17.62,0,0,1,43,66.82c0,19.1.1,38.2,0,57.3a21.47,21.47,0,0,1-21.3,21.7h-.5C9.3,145.72,0,136,0,123.82V44.52C0,21.32,18.1,1.62,40.7.12c23.9-1.7,44.5,14.6,47.8,38.1a61.17,61.17,0,0,1,.4,7.4C89,57.82,89,70.12,89,82.42Z"/></g></g></svg>