<svg xmlns="http://www.w3.org/2000/svg" viewBox="0 0 224.7 224.7"><defs><style>.cls-1{fill:#3f5168;}</style></defs><g id="Calque_2" data-name="Calque 2"><g id="Calque_1-2" data-name="Calque 1"><g id="Calque_2-2" data-name="Calque 2"><g id="Calque_2-2-2" data-name="Calque 2-2"><path class="cls-1" d="M112.4,45.5c35.4,0,61.7,36.5,47.4,69.7-9.9,22.9-24.2,42.8-41.8,60.4-2.6,2.6-5.2,5.8-9.5,1.6-20.1-19.7-37-41.7-45.7-68.7C54.6,82.3,73.4,52.8,101.1,47,104.8,46.2,108.6,46,112.4,45.5Zm-.2,36.3A15.55,15.55,0,1,0,128,97.1a15.43,15.43,0,0,0-15.7-15.2.1.1,0,0,0-.1-.1Z"/><path class="cls-1" d="M224.7,224.7H0V0H224.7ZM2,222.7H222.7V2H2Z"/></g></g></g></g></svg>