<svg xmlns="http://www.w3.org/2000/svg" viewBox="0 0 224.7 224.7"><defs><style>.cls-1{fill:#3f5168;}</style></defs><g id="Calque_2" data-name="Calque 2"><g id="Calque_1-2" data-name="Calque 1"><path class="cls-1" d="M156.8,121.9v41.6a21.48,21.48,0,0,1-41.5,7.9,22.91,22.91,0,0,1-1.5-8.2V106.4A16.94,16.94,0,0,1,118,94.8c2.3-2.7,4.7-5.4,6.9-8.1a16.47,16.47,0,1,0-25.4-.1c2.2,2.8,4.6,5.4,6.9,8.1a17.62,17.62,0,0,1,4.4,11.6c0,19.1.1,38.2,0,57.3a21.47,21.47,0,0,1-21.3,21.7H89c-11.9-.1-21.2-9.8-21.2-22V84c0-23.2,18.1-42.9,40.7-44.4,23.9-1.7,44.5,14.6,47.8,38.1a61.17,61.17,0,0,1,.4,7.4C156.8,97.3,156.8,109.6,156.8,121.9Z"/><path class="cls-1" d="M224.7,224.7H0V0H224.7ZM2,222.7H222.7V2H2Z"/></g></g></svg>