<?xml version="1.0" encoding="utf-8"?>
<!-- Generator: Adobe Illustrator 26.0.1, SVG Export Plug-In . SVG Version: 6.00 Build 0)  -->
<svg version="1.1" id="Calque_1" xmlns="http://www.w3.org/2000/svg" xmlns:xlink="http://www.w3.org/1999/xlink" x="0px" y="0px"
	 viewBox="0 0 224.7 224.7" style="enable-background:new 0 0 224.7 224.7;" xml:space="preserve">
<style type="text/css">
	.st0{fill:#222222;}
</style>
<g>
	<path class="st0" d="M156.8,121.9c0,13.9,0,27.8,0,41.6c0.1,11.9-9.4,21.5-21.3,21.6c-8.9,0.1-17-5.4-20.2-13.7
		c-1-2.6-1.5-5.4-1.5-8.2c0-18.9,0-37.9,0-56.8c-0.1-4.3,1.4-8.4,4.2-11.6c2.3-2.7,4.7-5.4,6.9-8.1c5.8-7,4.9-17.4-2.1-23.2
		s-17.4-4.9-23.2,2.1c-5.1,6.1-5.1,14.9-0.1,21c2.2,2.8,4.6,5.4,6.9,8.1c2.8,3.2,4.4,7.3,4.4,11.6c0,19.1,0.1,38.2,0,57.3
		c0.1,11.9-9.4,21.6-21.3,21.7c-0.2,0-0.3,0-0.5,0c-11.9-0.1-21.2-9.8-21.2-22c0-26.4,0-52.9,0-79.3c0-23.2,18.1-42.9,40.7-44.4
		c23.9-1.7,44.5,14.6,47.8,38.1c0.3,2.5,0.4,4.9,0.4,7.4C156.8,97.3,156.8,109.6,156.8,121.9z"/>
</g>
<g>
	<path class="st0" d="M224.7,224.7H0V0h224.7V224.7z M2,222.7h220.7V2H2V222.7z"/>
</g>
</svg>
