<svg xmlns="http://www.w3.org/2000/svg" xmlns:xlink="http://www.w3.org/1999/xlink" viewBox="0 0 961.97 867.12"><defs><style>.cls-1,.cls-11{fill:none;}.cls-2{clip-path:url(#clip-path);}.cls-3{fill:#acdddb;}.cls-4{fill:#4c4c4c;}.cls-5{fill:#fff;}.cls-6{fill:#f9f2e4;}.cls-7{fill:#bbe2c6;}.cls-8{fill:#9ed6ad;}.cls-9{fill:#9cc0f9;}.cls-10,.cls-13{fill:#fdfedb;}.cls-10{stroke:#0b6277;}.cls-10,.cls-11{stroke-miterlimit:10;stroke-width:0.75px;}.cls-11{stroke:#bf824b;}.cls-12{fill:#d25c5c;}.cls-14{fill:#f1e9d7;}.cls-15{font-size:16.61px;}.cls-15,.cls-16,.cls-17,.cls-19,.cls-20,.cls-21{fill:#353535;font-family:LobsterTwo, Lobster Two;}.cls-16,.cls-17{font-size:12px;}.cls-17{letter-spacing:-0.17em;}.cls-18{letter-spacing:0em;}.cls-19{font-size:21px;}.cls-20{font-size:34.41px;}.cls-21{font-size:22.08px;}.cls-22{letter-spacing:-0.01em;}.cls-23{letter-spacing:-0.17em;}</style><clipPath id="clip-path"><rect class="cls-1" x="47.43" y="-47.43" width="867.12" height="961.97" transform="translate(914.54 -47.43) rotate(90)"/></clipPath></defs><g id="Calque_2" data-name="Calque 2"><g id="ecretage"><g class="cls-2"><path class="cls-3" d="M1214.88,102.14V72.48c-8.28-.46-4.15-3.76-15.44-4.43s-15.11,5.78-15.11,5.78c-15.77-1.11-4.89,1.11-20,1.11-5.68,0-9.52.34-12.63,1.31-5.14,1.62-8.2,5-14,11.36-9.34,10.22-7.56,21.55-20,21.33s-12-10.67-8.46-18,2.9-12.45-4-12.89-10.43-16.44-28.43-9.78-26.45,30.45-29.34,33.34-4,7.77-11.33,13.54-35.78,5.79-43.11-2-1.79-21.11-1.79-21.11l-2.21-7s-2.89,1.44-32,7-31.12,9.33-29.33-10.22-8.89-20.45-18-21.11-19.56,9.55-38.46,15.33-24-10.22-21.77-20.44-18.44-34.89-20.23-32-32,4.66-35.33,4.66S785,35.16,767.67,41.38a35.25,35.25,0,0,1-10.32,2.34c-7.91.33-9.52-4.5-13-6.34-4.66-2.44-4.66-6.89-11.12-15.33-3.47-4.56-3.45-6.4-3.11-7l-.43.13c-2.67.67-2.67-1.78-8.23-12.67s-3.56-8.22-11.77-14.88a17.39,17.39,0,0,0-8.94-3.8h-.12l-1.83-.14a20,20,0,0,0-7.11,1.06s-23.11-1.34-31.11.22-10.68,2.44-19.78,1.33-7.57-.44-12.22-2.89-8.68.45-14.68,1.78-9.77,15.78-10,21.33,2.83,9.67,2.33,11.34A62.13,62.13,0,0,0,605,29.61c.17,2.5,2.56,13.94,5.67,17S613.11,54,613,57.44s-.12,11-.12,11-6.77-.45-7.21,3.67-1.89,4-3,5.5-9.21,5.61-9.83,7.16-6.21,1.61-5.44,7.56-2.23,4.89-4.33,5.11-3.67-1.78-4.94-2.67-3.29,1-6.23,1.61-3.23-.83-3.23-.83c-.21,2.33-1,5.17-5.88,8.67s-3.62-4.73-7.39,2.39-12.77,9.22-12.77,9.22c-17.89,2.11-16.46-1.11-16.67-6.11s-.22-5.23-3.44-5.67-9.89-.33-11.56-4.67-4.79-4.11-7.67-6.33-1.89-9.78-1.89-9.78c-21.77-24.22-11.56-38.78-11.56-38.78s2.12,13.89,4.68,20.67,7.65,7.56,7.65,7.56c-.65-7.34,4.79-6.56,4.79-6.56s-2.44-.78-.22-4.55,3.43-7.78,6.22-11.89-.15-14.63,5.78-21.45-3.57-11,1.17-23.55,1.2-12.6,1.2-12.6a36.47,36.47,0,0,0-6.07-14.92l0,0-.12-.17c-.26-.38-.52-.76-.79-1.12s-.63-.85-.95-1.26-.49-.63-.74-.93c-.55-.67-1.1-1.32-1.68-2-.4-.45-.8-.88-1.22-1.31a61.6,61.6,0,0,0-4.5-4.26l-.73-.62q-1.49-1.24-2.94-2.34l-.06-.05-1.39-1c-1-.7-1.9-1.34-2.82-2-2.06-1.37-4-2.51-5.6-3.41l-.48-.27c-.43-.24-.83-.46-1.22-.66l-.59-.3c-1.35-.71-2.32-1.16-2.75-1.35-3-1.34-5.48-1.93-11.85-15.11a34,34,0,0,0-1.8-3.31c-.18-.3-.37-.58-.55-.84s-.36-.51-.53-.73c-3.1-4.06-5-2.37-5.75-2.88-.31-.2-.45-.75-.41-2.17.15-5.92-4.59-12-4.59-12-6.22,3.26-3.41-7.11-8.89-.15-2.84,3.61-4.05,3.84-4.9,2.9s-1.3-2.79-2.52-3.93a4.13,4.13,0,0,1-1.2-2h0a3.34,3.34,0,0,1-.1-.43,7.84,7.84,0,0,1-.07-1.42c0-.74.1-1.31-.11-1.54a.35.35,0,0,0-.28-.11,1.1,1.1,0,0,1-.77-.3,2.06,2.06,0,0,1-.45-.57,17.93,17.93,0,0,1-1.15-3.27c-.74-2.52-10.23-8.6-12.3-10.67l-.31-.3-1-.9c-.44-.39-.86-.78-1.24-1.16-.84-.87-1.43-1.69-1.26-2.46a2.25,2.25,0,0,1,.08-.24.2.2,0,0,0,0-.08.66.66,0,0,1,.12-.17.46.46,0,0,1,.07-.1,1.45,1.45,0,0,1,.21-.22c1.78-1.63-.44-2.67-.89-3.56s-3-4.74-2.52-3.4-3.7,1.63-3.7,1.63h0a6,6,0,0,0,1.18-.71c.1-.1.14-.17.09-.22s-1.13-.06-3.95.68c-3.41.89-3.64-.66-3.47-1.93,0-.17.05-.34.08-.49a1.68,1.68,0,0,0,.06-.27,1.38,1.38,0,0,0,.06-.62c-.07-.09-.26,0-.69.46l-.5.53-.32.35-.25.27c-4,4.08-7.41-.68-7.52.73s-.11.56-3.78,1a12.35,12.35,0,0,1-9.78-2.77,6.18,6.18,0,0,1-1.57-2.21,11.6,11.6,0,0,1-.52-1.36c-.28-.82-.52-1.68-.8-2.53-.08-.25-.17-.49-.25-.73s-.09-.23-.14-.35a11.48,11.48,0,0,0-.64-1.37c-.13-.22-.26-.44-.4-.64a6.9,6.9,0,0,0-.47-.6,4.66,4.66,0,0,0-.54-.55,6.47,6.47,0,0,1-1.94-3.07c0-.19-.1-.38-.14-.57a11.9,11.9,0,0,1-.25-1.87,5.06,5.06,0,0,0-.45-2.26c-.89-1.23-2.44-5.45-1.89-10.23s-2.11-7.77-3-10a10.08,10.08,0,0,0-1.37-2.06c-1.72-2.17-4.52-5.1-5.95-6.57l-.23-.23-.36-.37-.14-.14-.1-.1-.06-.06,0,0a8.1,8.1,0,0,0,.63-3.81,2.72,2.72,0,0,0-.53-1.26,2.08,2.08,0,0,0-.53-.49,3.55,3.55,0,0,1-.31-.23,3.28,3.28,0,0,1-.77-3.13,7.14,7.14,0,0,1,.19-.82c0-.13.07-.24.11-.34a1.31,1.31,0,0,1,.09-.26c0-.13.08-.22.1-.27s0,0,0,.06a.15.15,0,0,0,0,.07c0,.37.19,1,3.49-1.3,4.23-2.89,11.12,1,16.67.33s4.56,0,10.33,1.45c5.46,1.36,11.81-3.42,12.5-4l0,0h0a0,0,0,0,1,0,0s0,0,.06-.06l.11-.09.13-.13c1.45-1.33,7.31-6.69,8.68-7.37,1.56-.78,6.78-.44,6.78-.44s4.33-5.67,13.66-6.78a14.91,14.91,0,0,1,3.27,0c.26,0,.51.05.76.09l.36.06.51.09a8.63,8.63,0,0,1,.88.2l.65.17a23.14,23.14,0,0,1,3.27,1.21l.66.31.63.32c.63.33,1.23.67,1.81,1l-1.25-3.34-.15-.06c-.54-.19-1.09-.38-1.66-.56-.28-.1-.56-.19-.85-.27l-.86-.25c-.29-.09-.58-.17-.88-.24s-.59-.16-.89-.23q-.88-.21-1.8-.39h0c-.5-.09-1-.18-1.5-.25l-.29,0-.79-.1-.43-.05c-.51,0-1-.09-1.52-.11a26.49,26.49,0,0,0-10.4,1.95c-5.66,2.12-10.47,5.27-13.15,5.83-1.85.39-3.95,2.18-6,4.2-.15.15-.3.29-.44.44l-.45.44-.44.44-.88.89-.86.86a17.2,17.2,0,0,1-4.24,3.4c-3.55,1.55-4.44-.22-9.33-1.56s-24.22,0-24.22,0,0-.33-.09-.92c0-.14,0-.28,0-.44,0-.31-.06-.68-.1-1.08s-.05-.64-.09-1-.06-.72-.1-1.12-.05-.53-.07-.81c-.06-.69-.13-1.44-.2-2.22-.14-1.56-.3-3.28-.45-5.07l-.09-1.08c-.1-1.08-.19-2.18-.28-3.27l-.09-1.09c-.09-1.09-.18-2.17-.26-3.22,0-.35-.05-.7-.08-1,0-.68-.1-1.35-.15-2s-.09-1.27-.13-1.87c-.28-3.88-1.65-9.71-3.18-15.26-.53-1.92-1.08-3.8-1.61-5.57l-.35-1.15c-.57-1.89-1.12-3.61-1.57-5-.09-.28-.18-.55-.26-.81s-.17-.5-.24-.72c-.49-1.49-.79-2.37-.79-2.37s.16-2.05.55-5.1c.07-.55.15-1.14.24-1.75,0-.31.09-.63.14-.95s.09-.64.15-1c.32-2,.71-4.15,1.2-6.34.16-.73.34-1.46.52-2.18a41.85,41.85,0,0,1,3.2-8.93q.4-.76.75-1.35c.15-.26.3-.5.44-.71s.27-.4.4-.57.25-.31.36-.44l.17-.17c.52-.53.9-.57,1.15-.29a1.71,1.71,0,0,1,.32.8,10.94,10.94,0,0,1,0,3.22,12.26,12.26,0,0,1-.67,2.84,6.71,6.71,0,0,0-.37,1.26c0,.12-.05.24-.07.36l-.12.73a34.93,34.93,0,0,0-.1,6.1l-1.11,6,5.5-2.88-3.06,4.66,3.07,4.66v12.45h0a4.3,4.3,0,0,1,.54-.73.38.38,0,0,1,.09-.09c.26-.24.54-.38.73-.1a.67.67,0,0,1,.09.14,1.25,1.25,0,0,1,.07.23,1.07,1.07,0,0,1,.06.27,11.06,11.06,0,0,1,0,2.51,16.9,16.9,0,0,0,.83,5.87c.11.38.24.76.36,1.13s.26.74.39,1.09c.21.54.42,1.06.62,1.56.14.33.28.65.42.95.27.62.54,1.17.78,1.66.59,1.21,1,2,1,2h0l3.11-2,4.23,6,.88-5.55v0l1.11,6,2.44,2c2.31-4.33,1.06-11.85-.71-17.26-.13-.39-.26-.77-.39-1.13a27,27,0,0,0-1.2-2.89c-.2-.4-.39-.77-.57-1.08a6.18,6.18,0,0,0-.69-1,20.07,20.07,0,0,1-2.17-2.9,30.28,30.28,0,0,1-1.6-2.88l-3.34-4.88a27.38,27.38,0,0,1-1.49,2.62c-.13.18-.25.35-.36.48s-.39.37-.49.28-.14-.28-.11-.72a12.34,12.34,0,0,0-.23-2.62,0,0,0,0,0,0,0c-.1-.61-.23-1.28-.37-2s-.3-1.41-.47-2.11c-.74-3.17-1.59-6.16-1.59-6.16s-.2-3.29-.76-6.67c-.13-.78-.28-1.57-.45-2.32-.07-.25-.1-.4-.1-.4-.1-.42-.21-.83-.32-1.22a7.86,7.86,0,0,0-1.25-2.72c-2.22-2.67,1.34-29.33,1.34-29.33l-.15-.47c0-.12-.09-.28-.14-.46s-.05-.18-.08-.28c-.09-.31-.19-.68-.3-1.12-.08-.28-.16-.6-.24-.95-.29-1.21-.63-2.77-1-4.72-.62-3.34-1.31-7.81-1.89-13.56,0-.3-.05-.6-.09-.89-1.71-14.68-8-20.8-11.23-27.78-.18-.37-.33-.72-.45-1h0c-.85-2.18-.61-3.23.13-3.9a2.6,2.6,0,0,1,.32-.26,5.58,5.58,0,0,1,.6-.34l.42-.21c.44-.2.93-.4,1.4-.65l.46-.28a4,4,0,0,0,.88-.69,4.43,4.43,0,0,0,.9-1.28,11.58,11.58,0,0,0,1-3.82,18,18,0,0,0-.33-5.33c-.1-.49-.22-1-.36-1.47-.08-.34-.18-.68-.29-1-.16-.49-.33-1-.52-1.48s-.36-.92-.57-1.38a31.18,31.18,0,0,0-2.26-4.17c-.22-.35-.43-.71-.64-1.09l-.37-.71c-2.88-5.77-4.26-14.4-4.72-17.92,0-.25,0-.39,0-.39H-411.11V875.38H1213.15V559.05H413.88s4.68-14.78.9-30.33-2-19.78,5.33-22.89,8.89,5.33,2-34.22-7.33-19.34-17.33-38.89,10.89-12.89,10.22-29.34-12-24-12-24a30.46,30.46,0,0,0-6.89-19.77c0-24.23-8.67-16.23-8-23.34.65-6.9-5-11.28-5.31-11.54l3.76.88.44-2.67,4.88.22,2.23,1.11-2.23,4.67,1.33-1.78,1.12,3.78,1.11-1.78,2.89-2,3.55,2-1.55-5.11-4.45,2s9.79-13.78.23-23.78-4-8.22,1.33-20.44-7.56-20.22-7.56-20.22,15.33-12.23,8.9-23.34-14.22-3.11-14.22-3.11,3.77-11.78,12.22-18.67,5.55-21.55,7.55-35.55,5.34-16.45,37.55-29.11,38.68-.22,40.45-5.78,6.67-8.89,11.34-11.33a10.55,10.55,0,0,1,8.44-.89s-.23-10.89,9.1-13.34,6.46,8.45,19.35,6.23,6.65-4.67,20.65-4.89,23.57-9.78,23.57-9.78c6.43-12.67,13.78-12.22,15.33-15.33s2.77-12,15.56-17.56S617,65.38,617,65.38l5.56,1.56s.65-29.56,1.11-34.22,0-28.67,2.21-34.67,8.45-9.33,12.68-6.89,9.77,4.45,23.11,5.11A121.93,121.93,0,0,1,685.44-.17l-3.11-2.22c16.67-10.45,14.45-2.67,24.45.66S719,17.83,719,17.83a25.41,25.41,0,0,1-2.89,8.66c-2.44,4.45-.23,16.67-.23,16.67l-5.55-1.11-1.33,2,2.21,3.56,3.79-.67s2.21,8.22,4.44,15.11,11.12,7.56,15.12,8.67,7.77,5.11,8.65,2,8.9-3.11,8.9-3.11c-.23-3.34,3.1-12.67,6-12.23s.22,3.56,20.22-3.33-7.12,4.89,8.67-1.11S786.81,32,824.33,42.27s1.34,42.67,32.23,45.34S872.33,76.94,899,69.16s25.78,1.33,19.56,17,10,20.38,15.77,15.94,53.55-11.78,53.55-11.78-5.77,8.89-6.21,13.78c-.31,3.36,5.48,13.13,15,18.76a29,29,0,0,0,10.11,3.78,25.53,25.53,0,0,0,4.91.35c8.71-.22,15.66,3.16,21.82,4.33,5.87,1.12,11,.23,16.33-7.73h0c.6-.92,1.22-1.93,1.84-3.05,11.33-20.48,20.31-20,20.65-20-.13,0-2.21-.22,5.35-15.44,7.77-15.67,16.89-9.22,24-5.89s3.54,14.22-.89,18.45a14,14,0,0,0-4.45,9.33l3.11-1.33-2.88,5.11s6.44-3.34,2,2.66-2,14.23-2,14.23l2.65-3.93.67-3.41,2.45,3.41.23-4.3,2.22,3.34,2.89-1.11-3.11-3.56h3.11l-4.67-5.78s7.78.45,12.88,2.45,8.23,1.11,15.79-4.45,11.77-.89,11.77-.89,7.56-2.44,6.89.45,6,5.33,6,5.33l.45,6.22s1.33-4.89,7.1.45,6.23-2.57,6.23-2.57,8.67,9.23,19.56-2.1,9.77-11.11,15.11-9.33,3.33,0,6.89,1.55c2.25,1,3,.18,3.21-.53v-5.72c-1,.32-3.73.47-9.67.17-16-.81-23.1,4.53-23.1,4.53s-5.11,4.44-13.78,0-12.45-6.22-12.45-6.22a13.22,13.22,0,0,0,9.33-5.34c3.79-5.11,13.35-8.44,27.12-9.33s21.34,0,21.34,0v14.67A7.38,7.38,0,0,1,1214.88,102.14Zm-717,0,2.4-6.55,1.55.88Zm14.83,9.78s-.27-8.33-.21-8.5c0,0,.78-.17,1.11,1.33S512.71,111.94,512.71,111.94Zm27.73,10a3,3,0,0,1-2.88-.72,12.73,12.73,0,0,1,3.11-1.45C541.5,119.72,542.17,121.44,540.44,121.94Zm29.62-7.56-1.73-.33,2.95-1.72Zm10.44-13.72c-3,2.67-5.72,5.45-6.62,7.72s-.94,2.23-3.71,2.67-3.34,2.94-5.06,3-5.61-2.72-9.61-1.78c-.38.09,2.21-5.28,4.83-5.55a24.22,24.22,0,0,0,5.5-1.45,44.86,44.86,0,0,0,3-4.83c.18-.72,1.62-2,3.45-2.06s2.38-2,3.67-1.5,1,2.34,2.56,2.17S583.5,98,580.5,100.66Zm585.38-11.41c-8,6.36-10.29,10.13-14,11.91s-7.74,4.89-18.85,1.56c-.77-.23,8.21-6.89,9.56-11.34s14.22-11.77,21.32-10S1173.88,82.89,1165.88,89.25Z"/><path class="cls-4" d="M416,526.19c-1.13-5.27-1.46-9-1-11.83Z"/><path class="cls-4" d="M1216.82,109.54v450.2l-1.73,316.33H408V801.4s4.84-18.66,5.74-22.23S408,770.3,408,770.3l5.74-16.9V723.17l-13.52-47.1,13.52-26.67-7.34-48.88,9.38-40.78s4.68-14.79.9-30.34c-.27-1.13-.52-2.2-.73-3.21l5.95-6.06,5-3h6.87c.89,0,1.78-11.56,3.86-11.85s0-7.42,0-7.42l-2.07-15.1s-.31-10.38,0-13.34-4.74-13.33-5.33-15.4-5.93-8.89-6.82-13.64S407,418.64,407,418.64c3.93-3.39,10.35-5.34,10-14.57-.67-16.44-12-24-12-24a30.46,30.46,0,0,0-6.89-19.77c0-24.23-8.67-16.23-8-23.35.65-6.89-5-11.28-5.31-11.53l3.76.88.44-2.67,4.88.22,2.23,1.1-2.23,4.68,1.33-1.78,1.12,3.78,1.11-1.78,2.89-2,3.55,2-1.55-5.11-4.45,2s9.79-13.79.23-23.79-4-8.21,1.33-20.43-7.56-20.22-7.56-20.22,15.33-12.23,8.9-23.35-14.22-3.1-14.22-3.1,3.77-11.78,12.22-18.68,5.55-21.54,7.55-35.54,5.34-16.46,37.55-29.11,38.68-.22,40.45-5.78,6.67-8.89,11.34-11.34a10.52,10.52,0,0,1,8.44-.88s-.23-10.89,9.1-13.35,6.46,8.46,19.35,6.23,6.65-4.66,20.65-4.88,23.57-9.78,23.57-9.78c6.43-12.67,13.78-12.22,15.33-15.34s2.77-12,15.56-17.55,11.33-13.78,11.33-13.78l5.56,1.56s.65-29.56,1.11-34.23,0-28.66,2.21-34.66,8.45-9.34,12.68-6.89S650.27-3.7,663.61-3A122.35,122.35,0,0,1,687.38.52L684.27-1.7c16.67-10.45,14.45-2.67,24.45.65s12.22,19.57,12.22,19.57a25.33,25.33,0,0,1-2.89,8.65c-2.44,4.46-.23,16.68-.23,16.68l-5.55-1.11-1.33,2,2.21,3.56,3.79-.67s2.21,8.22,4.44,15.11S732.5,70.3,736.5,71.4s7.77,5.12,8.65,2,8.9-3.1,8.9-3.1c-.23-3.35,3.1-12.67,6-12.23s.22,3.56,20.22-3.33-7.12,4.89,8.67-1.11S788.75,32.69,826.27,43s1.34,42.68,32.23,45.35,15.77-10.67,42.44-18.45,25.78,1.32,19.56,17,10,20.37,15.77,15.94S989.82,91,989.82,91s-5.77,8.9-6.21,13.79c-.31,3.36,5.48,13.13,15,18.76a29,29,0,0,0,10.11,3.78,25.53,25.53,0,0,0,4.91.35c8.71-.23,15.66,3.16,21.82,4.32,5.87,1.13,11,.24,16.33-7.73h0c.6-.91,1.22-1.92,1.84-3,11.33-20.48,20.31-20,20.65-20-.13,0-2.21-.22,5.35-15.43,7.77-15.67,16.89-9.22,24-5.89s3.54,14.22-.89,18.45a14,14,0,0,0-4.45,9.33l3.11-1.33-2.88,5.1s6.44-3.33,2,2.67-2,14.23-2,14.23l2.65-3.93.67-3.42,2.45,3.42.23-4.3,2.22,3.33,2.89-1.1-3.11-3.56h3.11l-4.67-5.79s7.78.45,12.88,2.45,8.23,1.12,15.79-4.45,11.77-.88,11.77-.88,7.56-2.44,6.89.45,6,5.33,6,5.33l.45,6.22s1.33-4.9,7.1.45,6.23-2.58,6.23-2.58,8.67,9.23,19.56-2.09,9.77-11.11,15.11-9.33,3.33,0,6.89,1.55C1215.86,111.06,1216.59,110.25,1216.82,109.54Z"/><path class="cls-4" d="M1214.89-385.94V75.49c-8.29-.46-4.16-3.76-15.44-4.43s-15.12,5.78-15.12,5.78c-15.77-1.11-4.88,1.11-20,1.11-5.67,0-9.52.34-12.62,1.31-5.15,1.62-8.21,5-14,11.36-9.34,10.22-7.56,21.55-20,21.33s-12-10.67-8.45-18,2.89-12.45-4-12.89-10.44-16.44-28.44-9.78-26.45,30.45-29.33,33.34-4,7.77-11.34,13.54-35.78,5.79-43.11-2-1.78-21.11-1.78-21.11l-2.22-7s-2.89,1.44-32,7-31.11,9.33-29.33-10.22-8.89-20.45-18-21.11-19.56,9.55-38.45,15.33-24-10.22-21.77-20.44-18.45-34.89-20.23-32-32,4.66-35.33,4.66S785,38.17,767.67,44.39a35.25,35.25,0,0,1-10.32,2.34c-7.9.33-9.52-4.5-13-6.34-4.66-2.44-4.66-6.89-11.11-15.33-3.48-4.56-3.46-6.4-3.12-7,.65-.26.24-.45,0,0l-.43.13c-2.67.67-2.67-1.78-8.22-12.67s-3.56-8.22-11.78-14.88a17.36,17.36,0,0,0-8.94-3.8h-.12a14.65,14.65,0,0,0-1.83-.14,20.11,20.11,0,0,0-7.11,1.06s-23.11-1.34-31.11.22-10.67,2.44-19.78,1.33-7.56-.44-12.22-2.89-8.67.45-14.67,1.78S604.11,4,603.89,9.5s2.83,9.67,2.33,11.34A62.09,62.09,0,0,0,605,32.62c.17,2.5,2.56,13.94,5.67,17S613.11,57,613,60.45s-.11,11-.11,11-6.78-.45-7.22,3.67-1.89,4-2.95,5.5-9.22,5.61-9.83,7.16-6.22,1.61-5.44,7.56-2.23,4.89-4.34,5.11-3.66-1.78-4.94-2.67-3.28,1-6.22,1.61-3.23-.83-3.23-.83c-.22,2.33-1.05,5.17-5.89,8.67s-3.61-4.73-7.38,2.39-12.78,9.22-12.78,9.22c-17.89,2.11-16.45-1.11-16.67-6.11s-.22-5.23-3.44-5.67-9.89-.33-11.56-4.67-4.78-4.11-7.67-6.33-1.88-9.78-1.88-9.78C479.67,62.06,489.89,47.5,489.89,47.5s2.11,13.89,4.67,20.67,7.66,7.56,7.66,7.56c-.66-7.34,4.78-6.56,4.78-6.56s-2.44-.78-.22-4.55,3.44-7.78,6.22-11.89-.15-14.63,5.78-21.45-3.56-11,1.18-23.55,1.19-12.6,1.19-12.6c-3.56-23.26-31.7-36.59-34.67-37.92S481-44.72,474.63-57.9s-9.18-4-9-9.93-4.59-12-4.59-12c-6.22,3.26-3.41-7.11-8.89-.15s-4.89,1.34-7.41-1-.59-5.49-1.77-5.49-1.63-1.63-2.37-4.14-10.23-8.6-12.3-10.67-5-4-3.26-5.63-.44-2.67-.89-3.56-3-4.74-2.52-3.4-3.7,1.63-3.7,1.63,4.3-2.08-2.67-.26-.66-6.52-4.77-2-7.67-.44-7.78,1-.11.56-3.78,1a12.35,12.35,0,0,1-9.78-2.77c-2.78-2.34-2.22-7.56-5.33-10.34s-1.89-6.55-2.78-7.77-2.44-5.45-1.89-10.23-2.11-7.77-3-10-8.22-9.55-8.22-9.55,1.78-4.11-.44-5.56c-1.52-1-1.23-3-.89-4.18,0-.13.07-.24.11-.34a2.56,2.56,0,0,1,.09-.26c0-.13.08-.22.1-.27s0,0,0,.06a.15.15,0,0,0,0,.07c0,.37.19,1,3.49-1.3,4.23-2.89,11.12,1,16.67.33s4.56,0,10.33,1.45,12.56-4,12.56-4,7.44-6.89,9-7.67,6.78-.44,6.78-.44,4.33-5.67,13.66-6.78,17.78,7.22,19.34,8.22S470.45-185,480.11-185s4.42-8.45,9-2.67,11.24,6.11,14.24,2.45,8.78-4.11,8.78-4.11,1.78-5.56,9.89-7,6.56-2.12,11.78-3.89,26.22,7.44,33.67,7.66,15.33-3.66,25.88-7.66,7.89-12.56,7.89-12.56-2.44-3.67-1.22-16.33,12-15,12-15,6.52-2.37,9.63-5S625.89-258,632-262.5,642.63-268,642.63-268l-1.33-.86-1.19-.77-6.07,4.3s-8.74,2.81-11.11,9-7.71,10.37-12.3,11.4-9.33,8.74-9.33,8.74l-3.85,6.67s-2.23,4.45-.45,7.56,1.93,11.85-1.48,17.18S581-199.24,581-199.24l3.4-6.94c-.26.4-4.39,6.86-7.55,8.72s-14.22,3.71-24.44-2.07-19.56-5.93-20.45-5.63-2.07,3.55-5,5.33-5.63-2.07-12.15,1.48-8.45,7.85-9.56,5.41-13.55-3.78-16.44-2-7.56,1.78-8.45,1.78-4.22-5.78-8.66-.45-9.78,7.11-11.11,6.23S449-194,439.22-194.5a26.49,26.49,0,0,0-10.4,1.95c-5.66,2.12-10.47,5.27-13.15,5.83-4.22.89-9.78,9.11-13.34,10.67s-4.44-.22-9.33-1.56-24.22,0-24.22,0-1.56-16.66-2.22-26.22-8-30.89-8-30.89,1.33-17.33,6-26.22,4,.67,2.89,3.33-.67,8.45-.67,8.45l-1.11,6,5.52-2.89-3.08,4.67,3.08,4.66v12.45s2-3.56,1.59,2.22,4.44,14.22,4.44,14.22l3.11-2,4.23,6,.89-5.55,1.11,6,2.44,2c3.56-6.67-1.33-20.89-3.55-23.34a26.32,26.32,0,0,1-3.78-5.78l-3.34-4.88s-2.66,5.33-2.44,2.66-2.67-12.89-2.67-12.89a66.89,66.89,0,0,0-1.22-9c-.06-.25-.09-.4-.09-.4a10.45,10.45,0,0,0-1.58-3.94c-2.22-2.67,1.34-29.33,1.34-29.33s-2.22-6.23-3.78-21.56c0-.3-.06-.6-.1-.89-1.71-14.68-8-20.8-11.23-27.78s2.66-4.44,4.66-8.66,1.34-11.34-3.33-18.67c-3.7-5.81-5.17-15-5.61-18.62-.12-.94-.17-1.49-.17-1.49Z"/><path class="cls-5" d="M435.73,504.63c-2.08.29-3,11.85-3.86,11.85H425l-5,3-5.95,6.06-1-11.83c.66-4.08,3-6.13,7.05-7.84,7.33-3.11,8.89,5.33,2-34.22-6.47-37.1-7.25-21.62-15.57-35.69-.56-.93-1.14-2-1.76-3.2-4.39-8.58-2.83-12.12.25-14.77,0,0,15.58,17.05,16.47,21.79s6.23,11.56,6.82,13.63,5.63,12.44,5.33,15.41,0,13.33,0,13.33l2.07,15.11S437.8,504.33,435.73,504.63Z"/><path class="cls-6" d="M605.67,79.16,603,89.76,599,92.65l-4,12.57-1.77.21c-1.78.2-9.34,6.9-9.34,6.9a57,57,0,0,1-14.07,7.44c-8.29,3-3.7,1.9-9,4.12s0,2.22,0,2.22,11.11-2.22,14.22-2.22,5.34,0,6.71,2.91,4.85,5.09,4.41,7.31-2.67,8-4.41,8.8-5.82,5-8.93,4-1.78,1.41-5.33.08,0,0-15.11-6.22,0,0-3.11-4-1.78-3.56-5.78-8-1.91,0-1.91,0l-5.65,4.44H519.79c-16.09,0-4.81-2.22-7.3-2.67s-10.38,3.28-8.17,5.78S507,146.92,507,146.92l-13.95,5s5.48,2.66,6.8,1.88,1.79,7,0,14.56,0,9.78,0,12-13.32,8-14.65,9.78,7.55.89,12.44,1.78,0,0,3.11,1.69,2.22,1.66,2.22,1.66L501.65,201l2.22,6.46L507,213.9s1.75,8.21,0,9.54,7.53,7.56,7.53,7.56l.89-5.36a42,42,0,0,0,8.89,2.39c4.44.59,8.44,12.75,8.44,12.75L523,252.33s1.78-1.33,5.34,0,2.66,4,1.33,4.89-1.33,6.22-1.33,6.22,4.89,8.89,6.22,16,0,1.78-5.33,4.61-4.45,4.28-7.11,2.95,0,0-2.31-2.95a23.13,23.13,0,0,0-4.81-4.61s.89,8,0,12.39-4,.95-8,0-1.8-5.28-1.4-7.78-7-2.83-7-2.83l-1.81,7.56s4,11.55,1.81,15.11,1.75,14.22,0,20.44-4.47,11.56-6.23,23.9.87,9.88,2.64,11,5.78,6.39,6.67,8.61-4,3.55-9.31,5.78S483,379,477,382.44s-3.27,8.56-3.27,8.56l3.27,7.11a97.22,97.22,0,0,1,18.89-2.93c8.89-.26,6.23,4.71,2.7,6s-10.19,9.65-10.19,9.65v6.8s7.94-3.56,10.19-5.24,0-5,0-5,15.53,2.23,17.75,3.43c0,0,1.33-12.32,1.78-13.65s10.66-8.49,10.66-12.85c0-2.12.84-2.17,1.71-1.67a8.7,8.7,0,0,1,1.85,1.67l-1.78,4.36s6.22,5.38,8,6.45,4-2,4-2h5.33l12.45,2,5.78,6.93s1.77,4-2.23,8.76-6.66,0-6.66,0l-13.34,1.56-9.77,6.12s-6.72,3.37-14,6.11c-5.15,1.94-10.59,3.57-14.17,3.5-8.66-.18-7.8-.16-13.56,2.22-4.49,1.86-4.39,4.44-4.12,5.48h0a2.15,2.15,0,0,0,.16.46s6.16,2.67,7.94,4,15.88,6.22,15.88,6.22a18.66,18.66,0,0,1,2.39.24,61.16,61.16,0,0,1,6.62,1.43c6.22,1.67,12.44-.33,13.77,0s3.12,9.89,3.12,9.89l-8.45,1.33c-8.44,1.34,0,2.67,0,6.67s0,0-4.67,4.44-6.44,9.34-6.7,11.12-4.18,10.66-3.74,12.44,4.89,6.67,3.46,9.47a10.56,10.56,0,0,1-3,3.86l-2.78,3.11a44.58,44.58,0,0,0,5,5.34c1.77,1.33,0,16.44,0,16.44h-5l-13.62,5.78s-.48,4.89,0,7.11c.33,1.58-5,2.48-9,2.72L485.8,563l6.54,20.74,16.27,116.74,11.86,57.19-6.52-3-3.56,3L515.13,782s3.26,11.56,5.34,14.52,6.22,9.48,6.22,9.48L525,816.33l-2.44,5.56s.89.22-3.85,0-8.89,0-8.89,0-3.94,7.78-4.19,9.26,1.23,8.29,3.3,11.26-1.48,12.44.3,14.51,17.48,10.67,17.48,10.67,6.22,5.93,8.59,4.45,7.41-9.71,7.41-9.71a39.2,39.2,0,0,0,3.55,3.48c1.49,1.19,7.56,9.57,7.56,9.57H406.1V800.72s4.84-18.67,5.74-22.23-5.74-8.88-5.74-8.88l5.74-16.89V722.49l-13.52-47.11,13.52-26.66-7.34-48.89,9.38-40.78s4.68-14.78.9-30.33c-1.7-7-2.28-11.71-1.72-15.05l1,11.83,5.95-6.06,5-3h6.87c.89,0,1.78-11.56,3.86-11.85s0-7.41,0-7.41l-2.07-15.11s-.31-10.37,0-13.33-4.74-13.34-5.33-15.41-5.93-8.89-6.82-13.63S405,418,405,418c3.93-3.39,10.35-5.34,10-14.57-.67-16.44-12-24-12-24a30.46,30.46,0,0,0-6.89-19.77c0-24.23-8.67-16.23-8-23.34.65-6.9-5-11.28-5.31-11.54l3.76.88.44-2.67,4.88.22,2.23,1.11-2.23,4.67,1.33-1.78,1.12,3.78,1.11-1.78,2.89-2,3.55,2-1.55-5.11-4.45,2s9.79-13.78.23-23.78-4-8.22,1.33-20.44-7.56-20.22-7.56-20.22,15.33-12.23,8.9-23.34-14.22-3.11-14.22-3.11,3.77-11.78,12.22-18.67,5.55-21.55,7.55-35.55,5.34-16.45,37.55-29.11,38.68-.22,40.45-5.78,6.67-8.89,11.34-11.33a10.55,10.55,0,0,1,8.44-.89s-.23-10.89,9.1-13.34,6.46,8.45,19.35,6.23,6.65-4.67,20.65-4.89,23.57-9.78,23.57-9.78c6.43-12.67,13.78-12.22,15.33-15.33S592.88,84.77,605.67,79.16Z"/><path class="cls-7" d="M1214.88,108.85v450.2l-1.73,316.33H553.8s-6.07-8.38-7.56-9.57a39.2,39.2,0,0,1-3.55-3.48s-5,8.22-7.41,9.71-8.59-4.45-8.59-4.45S511,859,509.21,856.92s1.77-11.55-.3-14.51-3.56-9.78-3.3-11.26,4.19-9.26,4.19-9.26,4.15-.22,8.89,0,3.85,0,3.85,0l2.44-5.56L526.69,806s-4.15-6.52-6.22-9.48S515.13,782,515.13,782l-4.74-24.29,3.56-3,6.52,3-11.86-57.19L492.34,583.74,485.8,563l3.73-15.06c4.06-.24,9.37-1.14,9-2.72-.47-2.22,0-7.11,0-7.11l13.62-5.78h5s1.77-15.11,0-16.44a44.58,44.58,0,0,1-5-5.34l2.78-3.11a10.56,10.56,0,0,0,3-3.86c1.43-2.8-3-7.69-3.46-9.47s3.48-10.67,3.74-12.44,2-6.67,6.7-11.12,4.67-.44,4.67-4.44-8.44-5.33,0-6.67l8.45-1.33s-1.78-9.56-3.12-9.89-7.55,1.67-13.77,0a61.16,61.16,0,0,0-6.62-1.43,18.66,18.66,0,0,0-2.39-.24s-14.1-4.88-15.88-6.22-7.94-4-7.94-4-1.8-3.57,4-5.95,4.9-2.4,13.56-2.22c3.58.07,9-1.56,14.17-3.5,7.31-2.74,14-6.11,14-6.11l9.77-6.12,13.34-1.56s2.66,4.76,6.66,0,2.23-8.76,2.23-8.76l-5.78-6.93-12.45-2h-5.33s-2.22,3-4,2-8-6.45-8-6.45l1.78-4.36a8.7,8.7,0,0,0-1.85-1.67c-.87-.5-1.71-.45-1.71,1.67,0,4.36-10.22,11.52-10.66,12.85s-1.78,13.65-1.78,13.65c-2.22-1.2-17.75-3.43-17.75-3.43s2.24,3.32,0,5-10.19,5.24-10.19,5.24v-6.8s6.66-8.32,10.19-9.65,6.19-6.3-2.7-6A97.22,97.22,0,0,0,477,398.11L473.71,391s-2.74-5.12,3.27-8.56,10-6.55,15.36-8.77,10.2-3.56,9.31-5.78-4.89-7.45-6.67-8.61-4.39,1.29-2.64-11,4.47-17.68,6.23-23.9-2.2-16.89,0-20.44-1.81-15.11-1.81-15.11l1.81-7.56s7.44.33,7,2.83-2.57,6.84,1.4,7.78,7.09,4.39,8,0,0-12.39,0-12.39a23.13,23.13,0,0,1,4.81,4.61c2.31,2.95-.36,1.62,2.31,2.95s1.77-.12,7.11-2.95,6.66,2.5,5.33-4.61-6.22-16-6.22-16,0-5.33,1.33-6.22,2.22-3.55-1.33-4.89-5.34,0-5.34,0l9.78-11.55s-4-12.16-8.44-12.75a42,42,0,0,1-8.89-2.39l-.89,5.36s-9.27-6.22-7.53-7.56,0-9.54,0-9.54l-3.14-6.46L501.65,201l1.33-5.74s.89,0-2.22-1.66,1.78-.8-3.11-1.69-13.78,0-12.44-1.78,14.63-7.56,14.65-9.78-1.8-4.44,0-12,1.31-15.34,0-14.56-6.8-1.88-6.8-1.88l13.95-5s-.48-8.09-2.69-10.59,5.67-6.22,8.17-5.78-8.79,2.67,7.3,2.67h16.08l5.65-4.44s-2.09-4.45,1.91,0,2.67,4,5.78,8-12-2.23,3.11,4,11.55,4.89,15.11,6.22,2.22-1,5.33-.08,7.2-3.2,8.93-4,4-6.58,4.41-8.8-3-4.4-4.41-7.31-3.59-2.91-6.71-2.91-14.22,2.22-14.22,2.22-5.33,0,0-2.22.75-1.12,9-4.12a57,57,0,0,0,14.07-7.44s7.56-6.7,9.34-6.9l1.77-.21,4-12.57L603,89.76l2.63-10.6C618.44,73.55,617,65.38,617,65.38l5.56,1.56s.65-29.56,1.11-34.22,0-28.67,2.21-34.67,8.45-9.33,12.68-6.89,9.77,4.45,23.11,5.11A121.93,121.93,0,0,1,685.44-.17l-3.11-2.22c16.67-10.45,14.45-2.67,24.45.66S719,17.83,719,17.83a25.41,25.41,0,0,1-2.89,8.66c-2.44,4.45-.23,16.67-.23,16.67l-5.55-1.11-1.33,2,2.21,3.56,3.79-.67s2.21,8.22,4.44,15.11,11.12,7.56,15.12,8.67,7.77,5.11,8.65,2,8.9-3.11,8.9-3.11c-.23-3.34,3.1-12.67,6-12.23s.22,3.56,20.22-3.33-7.12,4.89,8.67-1.11S786.81,32,824.33,42.27s1.34,42.67,32.23,45.34S872.33,76.94,899,69.16s25.78,1.33,19.56,17,10,20.38,15.77,15.94,53.55-11.78,53.55-11.78-5.77,8.89-6.21,13.78c-.31,3.36,5.48,13.13,15,18.76a29,29,0,0,0,10.11,3.78,25.53,25.53,0,0,0,4.91.35c8.71-.22,15.66,3.16,21.82,4.33,5.87,1.12,11,.23,16.33-7.73h0c.6-.92,1.22-1.93,1.84-3.05,11.33-20.48,20.31-20,20.65-20-.13,0-2.21-.22,5.35-15.44,7.77-15.67,16.89-9.22,24-5.89s3.54,14.22-.89,18.45a14,14,0,0,0-4.45,9.33l3.11-1.33-2.88,5.11s6.44-3.34,2,2.66-2,14.23-2,14.23l2.65-3.93.67-3.41,2.45,3.41.23-4.3,2.22,3.34,2.89-1.11-3.11-3.56h3.11l-4.67-5.78s7.78.45,12.88,2.45,8.23,1.11,15.79-4.45,11.77-.89,11.77-.89,7.56-2.44,6.89.45,6,5.33,6,5.33l.45,6.22s1.33-4.89,7.1.45,6.23-2.57,6.23-2.57,8.67,9.23,19.56-2.1,9.77-11.11,15.11-9.33,3.33,0,6.89,1.55C1213.92,110.37,1214.65,109.56,1214.88,108.85Z"/><line class="cls-1" x1="520.07" y1="424.66" x2="514.59" y2="446.79"/><path class="cls-1" d="M477,547.89s-7.34-9.78,0-9.78,8.67,7.11,8.67,7.11-2.67,2.22,0,2.67a21.09,21.09,0,0,0,3.88.05"/><polyline class="cls-1" points="530.47 382.7 603.04 89.76 605.21 88.22 606.98 83.63 606.98 81.67 605.67 79.16"/><polygon class="cls-8" points="505.61 601 539.83 605.89 574.5 572.11 606.5 572.11 621.61 589 642.94 596.56 659.39 600.11 662.05 610.34 683.83 637.89 680.28 660.56 679.83 697.89 685.61 730.34 687.83 760.11 693.91 783.67 701.74 811.22 710.05 843.22 710.05 862.34 643.83 850.34 601.16 842.34 588.72 821.89 551.39 814.34 533.61 717.22 525.91 680.11 515.39 649 514.94 620.56 511.83 610.34 505.61 601"/><path class="cls-9" d="M502.94,684.56,501.61,673l-1.78-7.33-1.26-10,4.37-.89h4.22c.67,0,1.34-6,1.34-6L504.94,645l2.45-3.33,1.11-7.56v-9.78l-4-14,7.78,10,7.33,19.78,6.3,11.56,3.7,3.78,3.55,14.66s-1.77,7.11-1.77,10.67,5.77,24.89,6.66,27.11,0,17.11,0,17.11l1.56,15.78,2.22,19.33,1.33,13.34,4.67,21.77,3.56,16.45v2.66l-7.56-24.44L540.72,777l-7.11-16.44-.89-11.11-1.33-12L525.91,733l-4.3,5.78v-12l3.37-4.45-6.48,1.78,7.41-8.44-5.63-3.34-4-11.33,5.33-4.44-6.22-1.34,1.77-3.11-10.22-20.89Z"/><path class="cls-7" d="M1214.89-388.95V72.48c-8.29-.46-4.16-3.76-15.44-4.43s-15.12,5.78-15.12,5.78c-15.77-1.11-4.88,1.11-20,1.11-5.67,0-9.52.34-12.62,1.31-5.15,1.62-8.21,5-14,11.36-9.34,10.22-7.56,21.55-20,21.33s-12-10.67-8.45-18,2.89-12.45-4-12.89-10.44-16.44-28.44-9.78-26.45,30.45-29.33,33.34-4,7.77-11.34,13.54-35.78,5.79-43.11-2-1.78-21.11-1.78-21.11l-2.22-7s-2.89,1.44-32,7-31.11,9.33-29.33-10.22-8.89-20.45-18-21.11-19.56,9.55-38.45,15.33-24-10.22-21.77-20.44-18.45-34.89-20.23-32-32,4.66-35.33,4.66S785,35.16,767.67,41.38a35.25,35.25,0,0,1-10.32,2.34c-7.9.33-9.52-4.5-13-6.34-4.66-2.44-4.66-6.89-11.11-15.33-3.48-4.56-3.46-6.4-3.12-7,.65-.26.24-.45,0,0l-.43.13c-2.67.67-2.67-1.78-8.22-12.67s-3.56-8.22-11.78-14.88a17.36,17.36,0,0,0-8.94-3.8h-.12a14.65,14.65,0,0,0-1.83-.14,20.11,20.11,0,0,0-7.11,1.06s-23.11-1.34-31.11.22-10.67,2.44-19.78,1.33-7.56-.44-12.22-2.89-8.67.45-14.67,1.78-9.78,15.78-10,21.33,2.83,9.67,2.33,11.34A62.09,62.09,0,0,0,605,29.61c.17,2.5,2.56,13.94,5.67,17S613.11,54,613,57.44s-.11,11-.11,11-6.78-.45-7.22,3.67-1.89,4-2.95,5.5-9.22,5.61-9.83,7.16-6.22,1.61-5.44,7.56-2.23,4.89-4.34,5.11-3.66-1.78-4.94-2.67-3.28,1-6.22,1.61-3.23-.83-3.23-.83c-.22,2.33-1.05,5.17-5.89,8.67s-3.61-4.73-7.38,2.39-12.78,9.22-12.78,9.22c-17.89,2.11-16.45-1.11-16.67-6.11s-.22-5.23-3.44-5.67-9.89-.33-11.56-4.67-4.78-4.11-7.67-6.33-1.88-9.78-1.88-9.78c-21.78-24.22-11.56-38.78-11.56-38.78s2.11,13.89,4.67,20.67,7.66,7.56,7.66,7.56c-.66-7.34,4.78-6.56,4.78-6.56s-2.44-.78-.22-4.55,3.44-7.78,6.22-11.89-.15-14.63,5.78-21.45-3.56-11,1.18-23.55,1.19-12.6,1.19-12.6a36.47,36.47,0,0,0-6.07-14.92l9-16.37V-68.11l6.42-7.14s-2.6-20.42-6.42-23.08l-9-6.56-5.33-2.83-15.5-10.47,3.64-5.4L495-146.67l-5.18-5.05v-7.9l-10.27-16.53-7.45-11.51c2.58-.23,5.32-.4,8-.4,9.67,0,4.42-8.45,9-2.67s11.24,6.11,14.24,2.45,8.78-4.11,8.78-4.11,1.78-5.56,9.89-7,6.56-2.12,11.78-3.89,26.22,7.44,33.67,7.66,15.33-3.66,25.88-7.66,7.89-12.56,7.89-12.56-2.44-3.67-1.22-16.33,12-15,12-15,6.52-2.37,9.63-5,4.3-8.89,10.37-13.34S642.63-271,642.63-271l-1.33-.86-1.19-.77-6.07,4.3s-8.74,2.81-11.11,9-7.71,10.37-12.3,11.4-9.33,8.74-9.33,8.74l-3.85,6.67s-2.23,4.45-.45,7.56,1.93,11.85-1.48,17.18S581-202.25,581-202.25l3.4-6.94c-.26.4-4.39,6.86-7.55,8.72s-14.22,3.71-24.44-2.07-19.56-5.93-20.45-5.63-2.07,3.55-5,5.33-5.63-2.07-12.15,1.48-8.45,7.85-9.56,5.41-13.55-3.78-16.44-2-7.56,1.78-8.45,1.78-4.22-5.78-8.66-.45a23.1,23.1,0,0,1-3.28,3.23l-8.92-13.78L455-212.24,441.93-219,435-222.54l-17.33,9.93-10.75.37-.82-10.3,3.07-8.3-10.64-11.83-3.43-14.94-9.36-10.5-7-14,7.53-12-1.84-4.24v-38.23l-5.86-14.78s-.9-15.44.17-19-.17-18.61-.17-18.61Z"/><path class="cls-10" d="M580.5,100.67c-3,2.67-5.72,5.45-6.61,7.72s-.94,2.23-3.72,2.67-3.34,2.94-5.06,3-5.61-2.72-9.61-1.78c-.38.09,2.22-5.28,4.83-5.55a24,24,0,0,0,5.5-1.45,44.75,44.75,0,0,0,3.06-4.83c.17-.72,1.61-2,3.44-2.06s2.39-2,3.67-1.5,1,2.34,2.56,2.17S583.5,98,580.5,100.67Z"/><path class="cls-10" d="M540.45,122a3,3,0,0,1-2.89-.72,12.73,12.73,0,0,1,3.11-1.45C541.5,119.73,542.17,121.45,540.45,122Z"/><path class="cls-10" d="M512.72,112s-.27-8.33-.22-8.5c0,0,.78-.17,1.11,1.33S512.72,112,512.72,112Z"/><polygon class="cls-10" points="501.83 96.5 497.89 102.17 500.28 95.62 501.83 96.5"/><polygon class="cls-10" points="383.69 293.99 380.26 297.17 380.58 297.82 382.63 302.06 379.52 302.06 375.96 296.95 373.69 295.11 373.3 294.8 372.7 292.87 376.85 294.8 381.74 291.84 384.41 293.32 383.69 293.99"/><path class="cls-10" d="M355.89,215.35s-8-6.49-8.37-12.64,6.65,1.71,8.53,5.82S355.89,215.35,355.89,215.35Z"/><path class="cls-10" d="M344.09,196.9s-3.24-3.93.17-3.24S344.09,196.9,344.09,196.9Z"/><path class="cls-5" d="M355.22,208a5.94,5.94,0,0,1-.14,5.92s-7-5.63-7.26-11S353.59,204.43,355.22,208Z"/><polygon class="cls-5" points="501.83 96.5 497.89 102.17 500.28 95.62 501.83 96.5"/><path class="cls-5" d="M512.72,112s-.27-8.33-.22-8.5c0,0,.78-.17,1.11,1.33S512.72,112,512.72,112Z"/><path class="cls-5" d="M540.45,122a3,3,0,0,1-2.89-.72,12.73,12.73,0,0,1,3.11-1.45C541.5,119.73,542.17,121.45,540.45,122Z"/><path class="cls-5" d="M570.17,111.06c-2.78.44-3.34,2.94-5.06,3s-5.61-2.72-9.61-1.78c-.38.09,2.22-5.28,4.83-5.55a24,24,0,0,0,5.5-1.45,44.75,44.75,0,0,0,3.06-4.83c.17-.72,1.61-2,3.44-2.06s2.39-2,3.67-1.5,1,2.34,2.56,2.17,4.94-1.06,1.94,1.61-5.72,5.45-6.61,7.72S573,110.62,570.17,111.06Z"/><path class="cls-11" d="M477,146.93s-2.44,6.3-2.44,9.41v15.55l-3.11,8-1.78,15.35v36.21l-3.55,32L459.47,275l2.18,9.34-2.18,16-7.6,11.55-2.22,11.56v15.11l.11,10.95"/><path class="cls-11" d="M437,153.77,433,159l-5.12,3.78s-3.53,4.22-2.87,4.89-.08,3.56-.08,3.56l-5.27,6.44-3.55,8.89-2.67,6-2,8.42-2,4.25v6.88s-1.75,5.09-1,6.45.79,10.67.79,10.67l-1,5.55-2.14,9.78,1.33,6.22v3.78l-1.33,9.55,1.55,6.89,2.22,9.34s1.78,8.22,2.45,8.66,2.22,4,2.67,4.67a41.5,41.5,0,0,1,1.55,5.11l3.11,4.22,4,4.45,5.78,4.66s2.44,4.23,2.67,4.89,3.77,4.23,3.77,4.23l5.56,1.33-1.78,8.89-.44,7.78-.89,7.77v4.89s-1.78,5.67-1.56,7.39-1.55,6.83-1.55,6.83l-2,5.56-.45,4.22L431,381.67s-.67,5.11-.45,6.22-.22,9.11-.22,9.11l.44,5.11s-1.77,6-1.77,6.89,1,1.85,0,3.44c-5.23,8,0,1.9,0,1.9"/><path class="cls-11" d="M481,424.44c-.89.12-2.89-8.1-2.89-8.1s-8.23-11.22-8.67-11.5-7.33-12.73-7.56-13.39-6.22-9.78-6.22-9.78L451,370.11v-6.88L449.33,353"/><polyline class="cls-11" points="480.99 426.56 476.98 424.44 471.65 419 463.31 412.44 458.1 408.34 452.54 404.84 447.43 401.67 439.66 399.67 437.43 398.78 433.87 397 430.41 395.19"/><path class="cls-11" d="M431.87,462.11l7.79-2.66h12.66l8.44-3.56s4.89-6.66,5.34-7.33,7.33-2.67,7.33-2.67,10.44-1.11,11.78-1.33,3.55-2.67,3.11-3.56,0-6.66,0-6.66"/><path class="cls-11" d="M918.62-370.33s9.19,11.05,10.08,12.24a73.63,73.63,0,0,0,5.93,5.33l2.37,7.11,15.7,15.26,8,23,15.11,18.07L1001-259.42l45.33,53.33,1.52,13,6.48,16.29,11,5.34,24.89,16.88,14.52,9.78,8.32,3.85,9.46,7.71,10.07-3,15.41,1.33,11.85,4.6,16.89,3,8.59,3.86L1193-108l-9.48,22.82-5.93,8.29-11,10.08-4.09,7.41-15.11,8.29L1128.11-33l.3,30.81L1126,7.24v7.41l-7.78,2.67s-2.45,5.92,0,8l-3.19,10.07s1.52,2.67,0,4.15-2.31,8.81-2.31,8.81l-1.71,2.74"/><polygon class="cls-5" points="568.33 114.06 571.28 112.34 570.06 114.39 568.33 114.06"/><path class="cls-12" d="M305.9,675.19l7.72,4.56,3.85,2.26,3.92,2.16,15.6,8.52.05,0,0,0h0l0,0-8-15.77L327,673l-1.87-4-3.71-7.94L320,667.91l-3.19-3.48-1.59-1.74-2.24-2.46c-1.42-1.51-2.76-3.08-4.1-4.66l-8.08-9.42c-1.34-1.58-2.72-3.12-4-4.73l-3.88-4.84-7.77-9.68a604,604,0,0,1-54.42-82.84c-8-14.46-15-29.43-21.73-44.53-1.65-3.79-3.11-7.65-4.68-11.47l-2.31-5.75c-.77-1.91-1.57-3.81-2.23-5.77l-4.13-11.67L193.51,459c-.63-2-1.22-3.94-1.83-5.91l-3.62-11.84c-.3-1-.62-2-.9-3l-.77-3-1.55-6c-1-4-2.1-8-3.06-12l-2.54-12.11c-.84-4-1.75-8.06-2.39-12.13l-1-6.09-.9-6.12c-1.22-8.15-2.09-16.35-2.85-24.55a426.64,426.64,0,0,1-1.31-49.41,407.85,407.85,0,0,1,14.83-97.49A374.94,374.94,0,0,1,202,162.93,338.62,338.62,0,0,1,253.32,79.1L246,73a348.09,348.09,0,0,0-52.73,86.17,384,384,0,0,0-16.89,47.68,416.41,416.41,0,0,0-15.19,99.75,434.19,434.19,0,0,0,1.33,50.5c.77,8.39,1.65,16.78,2.9,25.11l.92,6.25,1.07,6.23c.66,4.16,1.57,8.27,2.43,12.39l2.6,12.36c1,4.1,2.08,8.16,3.12,12.24l1.58,6.11.79,3.05c.27,1,.6,2,.9,3l3.7,12.07,1.86,6,2.11,5.95,4.21,11.89c.67,2,1.48,3.94,2.26,5.89l2.36,5.85c1.59,3.89,3.09,7.82,4.76,11.68l5.18,11.5,2.59,5.75c.85,1.92,1.85,3.77,2.77,5.66,3.77,7.51,7.39,15.1,11.55,22.41a615.36,615.36,0,0,0,55.24,84.14l7.88,9.82,3.94,4.91c1.31,1.64,2.72,3.2,4.07,4.8l8.19,9.56c1.37,1.59,2.72,3.19,4.15,4.72l2.41,2.64,1.61,1.77,3.23,3.53Z"/><path class="cls-13" d="M730.1,15c.24-.45.65-.26,0,0Z"/><polygon class="cls-13" points="571.28 112.34 570.06 114.39 568.33 114.06 571.28 112.34"/><path class="cls-13" d="M730.1,15c.24-.45.65-.26,0,0Z"/><path class="cls-14" d="M634.28,842.78s-4.76-9.33-4.16-10.45,0-8.66,0-8.66l-5-6.89-3.11-9.11v-6.45l12.23-5.11s9.77-2.44,10.44-2.44,6.89,5.78,6.89,5.78l1.55,7.55,4.23,7.33v6L656,823.22l5.36.89,3.11,1.11,1.33,5.11-2.67,8L656,848.11l-5.31,2h-5.56l-9.11-3.55Z"/><path class="cls-11" d="M559.22-63.57l4.44,12.74L561.44-31.5l10.67,34-4.89,11.33s-5.78,2.28-5.78,7.14S561,42.06,561,42.06s-1.56,5.06,2,5.2,10,.53,10.89,0a10.1,10.1,0,0,1,6.89-.67c3.11.8,8.88,8.36,8.88,8.36a33.55,33.55,0,0,0,9.12,3.92c4.88,1.19,4.22.15,6.44,0a61.71,61.71,0,0,1,7.73.56"/><path class="cls-11" d="M700.73-16.18c3.82.27,12.33.8,16.72.46C723.22-16.16,730.1-5,730.1-5l3.79,15.11s3.55,15.43,7.94,20.87,15.09,12.52,15.52,12.8h0"/><text class="cls-15" transform="translate(449.65 432.87)">Ambilalialika</text><text class="cls-16" transform="translate(905.91 92.66)">Ifanato</text><text class="cls-16" transform="translate(700.31 83.63)">Manorofify</text><text class="cls-17" transform="translate(700.99 28.76)">T<tspan class="cls-18" x="6" y="0">anandava</tspan></text><text class="cls-19" transform="translate(372.7 225.64)">Anakao</text><text class="cls-16" transform="translate(390.38 357.91)">Andranotohoka</text><text class="cls-16" transform="translate(398.11 512.59)">Beheloka</text><text class="cls-19" transform="translate(492.34 88.22)">St Augustin</text><text class="cls-16" transform="translate(390.15 421.44)">Befasy</text><text class="cls-20" transform="translate(361.46 735.6)">Ambola</text><text class="cls-21" transform="translate(507.02 643.09)"><tspan class="cls-22">R</tspan><tspan x="14.24" y="0">éserve naturelle de</tspan><tspan x="0" y="26.5"> </tspan><tspan class="cls-23" x="4.75" y="26.5">T</tspan><tspan x="15.79" y="26.5">simanampetsotsa</tspan></text></g></g></g></svg>