<svg xmlns="http://www.w3.org/2000/svg" xmlns:xlink="http://www.w3.org/1999/xlink" viewBox="0 0 974.67 1054.31"><defs><style>.cls-1,.cls-12{fill:none;}.cls-2{clip-path:url(#clip-path);}.cls-3{fill:#a3d3d3;}.cls-4{fill:#fff;}.cls-5{fill:#d25c5c;}.cls-6{fill:#ffefe1;stroke:#684f2a;}.cls-11,.cls-12,.cls-6{stroke-miterlimit:10;stroke-width:0.75px;}.cls-11,.cls-7{fill:#fdfedb;}.cls-8{fill:#9ed6ad;}.cls-9{fill:#f1e9d7;}.cls-10{fill:#9cc0f9;}.cls-11{stroke:#0b6277;}.cls-12{stroke:#bf824b;}.cls-13,.cls-16{font-size:12px;}.cls-13,.cls-14,.cls-16,.cls-18,.cls-19{fill:#353535;font-family:LobsterTwo, Lobster Two;}.cls-14{font-size:21px;}.cls-15{letter-spacing:-0.17em;}.cls-16{letter-spacing:-0.17em;}.cls-17{letter-spacing:0em;}.cls-18{font-size:34.41px;}.cls-19{font-size:22.08px;}.cls-20{letter-spacing:-0.01em;}.cls-21{letter-spacing:-0.17em;}</style><clipPath id="clip-path"><rect class="cls-1" width="974.67" height="1054.31"/></clipPath></defs><g id="Calque_2" data-name="Calque 2"><g id="ecretage"><g class="cls-2"><path class="cls-3" d="M1277.22,281.07V251.41c-8.29-.46-4.16-3.76-15.44-4.43s-15.12,5.78-15.12,5.78c-15.77-1.11-4.88,1.11-20,1.11-5.67,0-9.52.34-12.62,1.31-5.15,1.62-8.21,5-14,11.36-9.34,10.22-7.56,21.55-20,21.33s-12-10.67-8.45-18,2.89-12.45-4-12.89-10.44-16.44-28.44-9.78-26.45,30.45-29.33,33.34-4,7.77-11.34,13.54-35.78,5.79-43.11-2-1.78-21.11-1.78-21.11l-2.22-7s-2.89,1.44-32,7-31.11,9.33-29.33-10.22-8.89-20.45-18-21.11S952.44,249.2,933.55,255s-24-10.22-21.77-20.44-18.45-34.89-20.23-32-32,4.66-35.33,4.66-8.89,6.89-26.22,13.11a35.25,35.25,0,0,1-10.32,2.34c-7.9.33-9.52-4.5-13-6.34C802,213.87,802,209.42,795.55,201c-3.48-4.56-3.46-6.4-3.12-7l-.43.13c-2.67.67-2.67-1.78-8.22-12.67s-3.56-8.22-11.78-14.88a17.36,17.36,0,0,0-8.94-3.8h-.12l-1.83-.14a20.11,20.11,0,0,0-7.11,1.06s-23.11-1.34-31.11.22-10.67,2.44-19.78,1.33-7.56-.44-12.22-2.89-8.67.45-14.67,1.78-9.78,15.78-10,21.33,2.83,9.67,2.33,11.34a62.09,62.09,0,0,0-1.22,11.78c.17,2.5,2.56,13.94,5.67,17s2.44,7.38,2.33,10.83-.11,11-.11,11-6.78-.45-7.22,3.67-1.89,4.05-3,5.5-9.22,5.61-9.83,7.16-6.22,1.61-5.44,7.56-2.23,4.89-4.34,5.11-3.66-1.78-4.94-2.67-3.28,1-6.22,1.61-3.23-.83-3.23-.83c-.22,2.33-1,5.17-5.89,8.67s-3.61-4.73-7.38,2.39S605,294.76,605,294.76c-17.89,2.11-16.45-1.11-16.67-6.11s-.22-5.23-3.44-5.67-9.89-.33-11.56-4.67-4.78-4.11-7.67-6.33-1.88-9.78-1.88-9.78C542,238,552.22,223.42,552.22,223.42s2.11,13.89,4.67,20.67,7.66,7.56,7.66,7.56c-.66-7.34,4.78-6.56,4.78-6.56s-2.44-.78-.22-4.55,3.44-7.78,6.22-11.89-.15-14.63,5.78-21.45-3.56-11,1.18-23.55,1.19-12.6,1.19-12.6c-3.56-23.26-31.7-36.59-34.67-37.92S543.33,131.2,537,118s-9.18-4-9-9.93-4.59-12-4.59-12c-6.22,3.26-3.41-7.11-8.89-.15s-4.89,1.34-7.41-1-.59-5.49-1.77-5.49-1.63-1.63-2.37-4.14-10.23-8.6-12.3-10.67-5-4-3.26-5.63-.44-2.67-.89-3.56-3-4.74-2.52-3.4-3.7,1.63-3.7,1.63,4.3-2.08-2.67-.26-.66-6.52-4.77-2-7.67-.44-7.78,1-.11.56-3.78,1a12.35,12.35,0,0,1-9.78-2.77c-2.78-2.34-2.22-7.56-5.33-10.34s-1.89-6.55-2.78-7.77-2.44-5.45-1.89-10.23-2.11-7.77-3-10-8.22-9.55-8.22-9.55,1.78-4.11-.44-5.56c-1.52-1-1.23-3-.89-4.18,0-.13.07-.24.11-.34a2.56,2.56,0,0,1,.09-.26c0-.13.08-.22.1-.27s0,0,0,.06a.15.15,0,0,0,0,.07c-.05.37.19,1,3.49-1.3,4.23-2.89,11.12,1,16.67.33s4.56,0,10.33,1.45,12.56-4,12.56-4,7.44-6.89,9-7.67S488-9.35,488-9.35s4.33-5.67,13.66-6.78S519.44-8.91,521-7.91s11.78-1.22,21.44-1.22,4.42-8.45,9-2.67,11.24,6.11,14.24,2.45,8.78-4.11,8.78-4.11,1.78-5.56,9.89-7,6.56-2.12,11.78-3.89,26.22,7.44,33.67,7.66,15.33-3.66,25.88-7.66,7.89-12.56,7.89-12.56-2.44-3.67-1.22-16.33,12-15,12-15,6.52-2.37,9.63-5,4.3-8.89,10.37-13.34S705-92.06,705-92.06l-1.33-.86-1.19-.77-6.07,4.3s-8.74,2.81-11.11,9S677.55-70,673-68.95s-9.33,8.74-9.33,8.74l-3.85,6.67s-2.23,4.45-.45,7.56,1.93,11.85-1.48,17.18-14.52,5.48-14.52,5.48l3.4-6.94c-.26.4-4.39,6.86-7.55,8.72S625-17.83,614.74-23.61s-19.56-5.93-20.45-5.63-2.07,3.55-5,5.33-5.63-2.07-12.15,1.48-8.45,7.85-9.56,5.41S554-20.8,551.11-19s-7.56,1.78-8.45,1.78S538.44-23,534-17.69s-9.78,7.11-11.11,6.23-11.56-6.67-21.34-7.12a26.49,26.49,0,0,0-10.4,1.95c-5.66,2.12-10.47,5.27-13.15,5.83-4.22.89-9.78,9.11-13.34,10.67s-4.44-.22-9.33-1.56-24.22,0-24.22,0-1.56-16.66-2.22-26.22-8-30.89-8-30.89,1.33-17.33,6-26.22,4,.67,2.89,3.33-.67,8.45-.67,8.45l-1.11,6,5.52-2.89-3.08,4.67,3.08,4.66v12.45s2-3.56,1.59,2.22,4.44,14.22,4.44,14.22l3.11-2,4.23,6,.89-5.55,1.11,6,2.44,2c3.56-6.67-1.33-20.89-3.55-23.34A26.32,26.32,0,0,1,444-54.58l-3.34-4.88s-2.66,5.33-2.44,2.66-2.67-12.89-2.67-12.89a66.89,66.89,0,0,0-1.22-9c-.06-.25-.09-.4-.09-.4A10.45,10.45,0,0,0,432.66-83c-2.22-2.67,1.34-29.33,1.34-29.33s-2.22-6.23-3.78-21.56c0-.3-.06-.6-.1-.89-1.71-14.68-8-20.8-11.23-27.78s2.66-4.44,4.66-8.66,1.34-11.34-3.33-18.67c-3.7-5.81-5.34-16.53-5.78-20.11H-348.78V1054.31H1275.48V738H476.22s4.67-14.78.89-30.33-2-19.78,5.33-22.89,8.89,5.33,2-34.22-7.33-19.34-17.33-38.89,10.89-12.89,10.22-29.34-12-24-12-24a30.46,30.46,0,0,0-6.89-19.77c0-24.23-8.66-16.23-8-23.34.65-6.9-5-11.28-5.31-11.54l3.76.88.44-2.67,4.89.22,2.22,1.11-2.22,4.67,1.33-1.78,1.11,3.78,1.12-1.78,2.88-2,3.56,2L462.66,503l-4.44,2s9.78-13.78.22-23.78-4-8.22,1.34-20.44-7.56-20.22-7.56-20.22,15.33-12.23,8.89-23.34-14.22-3.11-14.22-3.11,3.77-11.78,12.22-18.67,5.55-21.55,7.55-35.55,5.34-16.45,37.56-29.11,38.67-.22,40.44-5.78,6.67-8.89,11.34-11.33a10.55,10.55,0,0,1,8.44-.89s-.22-10.89,9.11-13.34,6.45,8.45,19.34,6.23,6.66-4.67,20.66-4.89S637.11,291,637.11,291c6.44-12.67,13.78-12.22,15.33-15.33s2.78-11.95,15.56-17.56,11.33-13.78,11.33-13.78l5.56,1.56s.66-29.56,1.11-34.22S686,183,688.22,177s8.44-9.33,12.67-6.89,9.77,4.45,23.11,5.11a122.12,122.12,0,0,1,23.78,3.56l-3.12-2.22c16.67-10.45,14.45-2.67,24.45.66s12.22,19.56,12.22,19.56a25.41,25.41,0,0,1-2.89,8.66c-2.44,4.45-.22,16.67-.22,16.67L772.66,221l-1.33,2,2.22,3.56,3.78-.67s2.22,8.22,4.45,15.11,11.11,7.56,15.11,8.67,7.77,5.11,8.66,2,8.89-3.11,8.89-3.11c-.22-3.34,3.11-12.67,6-12.23s.22,3.56,20.22-3.33-7.11,4.89,8.67-1.11-.19-20.94,37.33-10.67,1.34,42.67,32.23,45.34,15.77-10.67,42.44-18.45,25.78,1.33,19.56,17,10,20.38,15.77,15.94,53.56-11.78,53.56-11.78-5.78,8.89-6.22,13.78c-.31,3.36,5.48,13.13,15,18.76a29,29,0,0,0,10.11,3.78,25.53,25.53,0,0,0,4.91.35c8.72-.22,15.66,3.16,21.82,4.33,5.87,1.12,11,.23,16.33-7.73h0c.61-.92,1.22-1.93,1.84-3.05,11.33-20.48,20.31-20,20.65-20-.12,0-2.21-.22,5.35-15.44,7.78-15.67,16.89-9.22,24-5.89s3.55,14.22-.89,18.45a14,14,0,0,0-4.45,9.33l3.12-1.33-2.89,5.11s6.44-3.34,2,2.66-2,14.23-2,14.23l2.66-3.93.67-3.41,2.44,3.41.23-4.3,2.22,3.34,2.89-1.11-3.11-3.56H1170l-4.67-5.78s7.78.45,12.89,2.45,8.22,1.11,15.78-4.45,11.78-.89,11.78-.89,7.55-2.44,6.88.45,6,5.33,6,5.33l.45,6.22s1.33-4.89,7.11.45,6.22-2.57,6.22-2.57,8.67,9.23,19.56-2.1,9.78-11.11,15.11-9.33,3.33,0,6.89,1.55c2.26,1,3,.18,3.22-.53v-5.72c-1,.32-3.74.47-9.67.17-16-.81-23.11,4.53-23.11,4.53s-5.11,4.44-13.78,0-12.44-6.22-12.44-6.22a13.22,13.22,0,0,0,9.33-5.34c3.78-5.11,13.34-8.44,27.11-9.33s21.34,0,21.34,0v14.67A7.71,7.71,0,0,1,1277.22,281.07ZM558.22-8.76l-.89-1.11,3-.74ZM556-12.83l2.26-.32-.89,1.57Zm6.41,4.59-2-.3,2.41-2.07,1.67,1Zm-.45-2.56c-1.4-.33-2.59-2.35-2.59-2.35l6-.8S563.33-10.46,561.92-10.8ZM564.07-16l-.66.4-3.08-2.11ZM556-18.13l5.85,2.89-9.7-.74Zm-13.78,4.18H545l-2.74,1.6h-2.16Zm-3.41-1.88c2.82,1,0,2,0,2s-.15,1,.15,1-1.26.89-1.63.89H533.7l-.29-.89S536-16.8,538.81-15.83Zm21.41,296.92,2.39-6.55,1.55.88Zm14.83,9.78s-.27-8.33-.22-8.5c0,0,.78-.17,1.11,1.33S575.05,290.87,575.05,290.87Zm27.73,10a3,3,0,0,1-2.89-.72A12.73,12.73,0,0,1,603,298.7C603.83,298.65,604.5,300.37,602.78,300.87Zm29.61-7.56-1.73-.33,3-1.72Zm10.44-13.72c-3,2.67-5.72,5.45-6.61,7.72s-.94,2.23-3.72,2.67-3.34,2.94-5.06,3-5.61-2.72-9.61-1.78c-.38.09,2.22-5.28,4.83-5.55a24,24,0,0,0,5.5-1.45,44.75,44.75,0,0,0,3.06-4.83c.17-.72,1.61-1.95,3.44-2.06s2.39-2,3.67-1.5,1,2.34,2.56,2.17S645.83,276.92,642.83,279.59Zm585.39-11.41c-8,6.36-10.3,10.13-14,11.91s-7.74,4.89-18.85,1.56c-.77-.23,8.22-6.89,9.56-11.34s14.22-11.77,21.33-10S1236.22,261.82,1228.22,268.18Z"/><path class="cls-4" d="M417.55,386.91a5.94,5.94,0,0,1-.14,5.92s-7-5.63-7.26-11S415.92,383.35,417.55,386.91Z"/><polygon class="cls-4" points="564.16 275.42 560.22 281.09 562.61 274.54 564.16 275.42"/><path class="cls-4" d="M575.05,290.87s-.27-8.33-.22-8.5c0,0,.78-.17,1.11,1.33S575.05,290.87,575.05,290.87Z"/><path class="cls-4" d="M602.78,300.87a3,3,0,0,1-2.89-.72A12.73,12.73,0,0,1,603,298.7C603.83,298.65,604.5,300.37,602.78,300.87Z"/><polygon class="cls-4" points="630.66 292.98 633.61 291.26 632.39 293.31 630.66 292.98"/><path class="cls-4" d="M632.5,290c-2.78.44-3.34,2.94-5.06,3s-5.61-2.72-9.61-1.78c-.38.09,2.22-5.28,4.83-5.55a24,24,0,0,0,5.5-1.45,44.75,44.75,0,0,0,3.06-4.83c.17-.72,1.61-1.95,3.44-2.06s2.39-2,3.67-1.5,1,2.34,2.56,2.17,4.94-1.06,1.94,1.61-5.72,5.45-6.61,7.72S635.28,289.54,632.5,290Z"/><path class="cls-5" d="M368.24,854.11l7.71,4.56,3.85,2.25,3.93,2.16,15.6,8.53.05,0,0,0,0,0,0,0-8-15.77-2-3.91-1.87-4-3.7-7.94-1.5,6.83-3.18-3.48-1.59-1.74-2.25-2.46c-1.41-1.51-2.75-3.08-4.1-4.66l-8.08-9.42c-1.33-1.58-2.71-3.12-4-4.74l-3.88-4.84-7.77-9.68A604.27,604.27,0,0,1,293,723c-8-14.46-15-29.43-21.72-44.53-1.65-3.79-3.12-7.65-4.68-11.47l-2.31-5.75c-.77-1.91-1.58-3.82-2.23-5.77l-4.14-11.68L255.85,638c-.64-2-1.22-3.94-1.83-5.92l-3.63-11.83c-.3-1-.61-2-.9-3l-.77-3-1.55-6c-1-4-2.09-8-3.06-12l-2.54-12.11c-.84-4-1.75-8.06-2.39-12.13l-1.05-6.09-.9-6.12c-1.22-8.15-2.09-16.35-2.84-24.56a422,422,0,0,1-1.31-49.4,406.51,406.51,0,0,1,14.83-97.49,376.52,376.52,0,0,1,16.46-46.51A338.66,338.66,0,0,1,315.66,258l-7.33-6.15A348.39,348.39,0,0,0,255.6,338a385.62,385.62,0,0,0-16.88,47.68,417.09,417.09,0,0,0-15.2,99.75,434.24,434.24,0,0,0,1.33,50.5c.77,8.39,1.66,16.77,2.91,25.11l.91,6.25,1.08,6.23c.65,4.16,1.57,8.27,2.43,12.39l2.6,12.36c1,4.09,2.08,8.16,3.11,12.23l1.58,6.12.79,3.05c.28,1,.61,2,.91,3l3.7,12.07,1.85,6,2.11,5.95,4.22,11.89c.67,2,1.47,3.94,2.26,5.89l2.35,5.85c1.59,3.89,3.09,7.82,4.76,11.68l5.18,11.5,2.59,5.75c.85,1.92,1.85,3.77,2.77,5.66,3.78,7.51,7.4,15.1,11.55,22.4a614.92,614.92,0,0,0,55.25,84.15l7.88,9.82,3.94,4.9c1.3,1.65,2.71,3.2,4.06,4.81l8.2,9.55c1.36,1.6,2.71,3.2,4.15,4.73l2.4,2.64,1.62,1.76,3.22,3.54Z"/><path class="cls-6" d="M1277.22-210V251.41c-8.29-.46-4.16-3.76-15.44-4.43s-15.12,5.78-15.12,5.78c-15.77-1.11-4.88,1.11-20,1.11-5.67,0-9.52.34-12.62,1.31-5.15,1.62-8.21,5-14,11.36-9.34,10.22-7.56,21.55-20,21.33s-12-10.67-8.45-18,2.89-12.45-4-12.89-10.44-16.44-28.44-9.78-26.45,30.45-29.33,33.34-4,7.77-11.34,13.54-35.78,5.79-43.11-2-1.78-21.11-1.78-21.11l-2.22-7s-2.89,1.44-32,7-31.11,9.33-29.33-10.22-8.89-20.45-18-21.11S952.44,249.2,933.55,255s-24-10.22-21.77-20.44-18.45-34.89-20.23-32-32,4.66-35.33,4.66-8.89,6.89-26.22,13.11a35.25,35.25,0,0,1-10.32,2.34c-7.9.33-9.52-4.5-13-6.34C802,213.87,802,209.42,795.55,201c-3.48-4.56-3.46-6.4-3.12-7,.65-.26.24-.45,0,0l-.43.13c-2.67.67-2.67-1.78-8.22-12.67s-3.56-8.22-11.78-14.88a17.36,17.36,0,0,0-8.94-3.8h-.12a14.65,14.65,0,0,0-1.83-.14,20.11,20.11,0,0,0-7.11,1.06s-23.11-1.34-31.11.22-10.67,2.44-19.78,1.33-7.56-.44-12.22-2.89-8.67.45-14.67,1.78-9.78,15.78-10,21.33,2.83,9.67,2.33,11.34a62.09,62.09,0,0,0-1.22,11.78c.17,2.5,2.56,13.94,5.67,17s2.44,7.38,2.33,10.83-.11,11-.11,11-6.78-.45-7.22,3.67-1.89,4.05-3,5.5-9.22,5.61-9.83,7.16-6.22,1.61-5.44,7.56-2.23,4.89-4.34,5.11-3.66-1.78-4.94-2.67-3.28,1-6.22,1.61-3.23-.83-3.23-.83c-.22,2.33-1,5.17-5.89,8.67s-3.61-4.73-7.38,2.39S605,294.76,605,294.76c-17.89,2.11-16.45-1.11-16.67-6.11s-.22-5.23-3.44-5.67-9.89-.33-11.56-4.67-4.78-4.11-7.67-6.33-1.88-9.78-1.88-9.78C542,238,552.22,223.42,552.22,223.42s2.11,13.89,4.67,20.67,7.66,7.56,7.66,7.56c-.66-7.34,4.78-6.56,4.78-6.56s-2.44-.78-.22-4.55,3.44-7.78,6.22-11.89-.15-14.63,5.78-21.45-3.56-11,1.18-23.55,1.19-12.6,1.19-12.6c-3.56-23.26-31.7-36.59-34.67-37.92S543.33,131.2,537,118s-9.18-4-9-9.93-4.59-12-4.59-12c-6.22,3.26-3.41-7.11-8.89-.15s-4.89,1.34-7.41-1-.59-5.49-1.77-5.49-1.63-1.63-2.37-4.14-10.23-8.6-12.3-10.67-5-4-3.26-5.63-.44-2.67-.89-3.56-3-4.74-2.52-3.4-3.7,1.63-3.7,1.63,4.3-2.08-2.67-.26-.66-6.52-4.77-2-7.67-.44-7.78,1-.11.56-3.78,1a12.35,12.35,0,0,1-9.78-2.77c-2.78-2.34-2.22-7.56-5.33-10.34s-1.89-6.55-2.78-7.77-2.44-5.45-1.89-10.23-2.11-7.77-3-10-8.22-9.55-8.22-9.55,1.78-4.11-.44-5.56c-1.52-1-1.23-3-.89-4.18,0-.13.07-.24.11-.34a2.56,2.56,0,0,1,.09-.26c0-.13.08-.22.1-.27s0,0,0,.06a.15.15,0,0,0,0,.07c-.05.37.19,1,3.49-1.3,4.23-2.89,11.12,1,16.67.33s4.56,0,10.33,1.45,12.56-4,12.56-4,7.44-6.89,9-7.67S488-9.35,488-9.35s4.33-5.67,13.66-6.78S519.44-8.91,521-7.91s11.78-1.22,21.44-1.22,4.42-8.45,9-2.67,11.24,6.11,14.24,2.45,8.78-4.11,8.78-4.11,1.78-5.56,9.89-7,6.56-2.12,11.78-3.89,26.22,7.44,33.67,7.66,15.33-3.66,25.88-7.66,7.89-12.56,7.89-12.56-2.44-3.67-1.22-16.33,12-15,12-15,6.52-2.37,9.63-5,4.3-8.89,10.37-13.34S705-92.06,705-92.06l-1.33-.86-1.19-.77-6.07,4.3s-8.74,2.81-11.11,9S677.55-70,673-68.95s-9.33,8.74-9.33,8.74l-3.85,6.67s-2.23,4.45-.45,7.56,1.93,11.85-1.48,17.18-14.52,5.48-14.52,5.48l3.4-6.94c-.26.4-4.39,6.86-7.55,8.72S625-17.83,614.74-23.61s-19.56-5.93-20.45-5.63-2.07,3.55-5,5.33-5.63-2.07-12.15,1.48-8.45,7.85-9.56,5.41S554-20.8,551.11-19s-7.56,1.78-8.45,1.78S538.44-23,534-17.69s-9.78,7.11-11.11,6.23-11.56-6.67-21.34-7.12a26.49,26.49,0,0,0-10.4,1.95c-5.66,2.12-10.47,5.27-13.15,5.83-4.22.89-9.78,9.11-13.34,10.67s-4.44-.22-9.33-1.56-24.22,0-24.22,0-1.56-16.66-2.22-26.22-8-30.89-8-30.89,1.33-17.33,6-26.22,4,.67,2.89,3.33-.67,8.45-.67,8.45l-1.11,6,5.52-2.89-3.08,4.67,3.08,4.66v12.45s2-3.56,1.59,2.22,4.44,14.22,4.44,14.22l3.11-2,4.23,6,.89-5.55,1.11,6,2.44,2c3.56-6.67-1.33-20.89-3.55-23.34A26.32,26.32,0,0,1,444-54.58l-3.34-4.88s-2.66,5.33-2.44,2.66-2.67-12.89-2.67-12.89a66.89,66.89,0,0,0-1.22-9c-.06-.25-.09-.4-.09-.4A10.45,10.45,0,0,0,432.66-83c-2.22-2.67,1.34-29.33,1.34-29.33s-2.22-6.23-3.78-21.56c0-.3-.06-.6-.1-.89-1.71-14.68-8-20.8-11.23-27.78s2.66-4.44,4.66-8.66,1.34-11.34-3.33-18.67c-3.7-5.81-5.17-15-5.61-18.62-.12-.94-.17-1.49-.17-1.49Z"/><path class="cls-6" d="M1277.22,287.78V738l-1.74,316.33h-807V979.65s4.85-18.67,5.74-22.23-5.74-8.88-5.74-8.88l5.74-16.89V901.42l-13.52-47.11,13.52-26.66-7.34-48.89L476.22,738s4.67-14.78.89-30.33-2-19.78,5.33-22.89,8.89,5.33,2-34.22-7.33-19.34-17.33-38.89,10.89-12.89,10.22-29.34-12-24-12-24a30.46,30.46,0,0,0-6.89-19.77c0-24.23-8.66-16.23-8-23.34.65-6.9-5-11.28-5.31-11.54l3.76.88.44-2.67,4.89.22,2.22,1.11-2.22,4.67,1.33-1.78,1.11,3.78,1.12-1.78,2.88-2,3.56,2L462.66,503l-4.44,2s9.78-13.78.22-23.78-4-8.22,1.34-20.44-7.56-20.22-7.56-20.22,15.33-12.23,8.89-23.34-14.22-3.11-14.22-3.11,3.77-11.78,12.22-18.67,5.55-21.55,7.55-35.55,5.34-16.45,37.56-29.11,38.67-.22,40.44-5.78,6.67-8.89,11.34-11.33a10.55,10.55,0,0,1,8.44-.89s-.22-10.89,9.11-13.34,6.45,8.45,19.34,6.23,6.66-4.67,20.66-4.89S637.11,291,637.11,291c6.44-12.67,13.78-12.22,15.33-15.33s2.78-11.95,15.56-17.56,11.33-13.78,11.33-13.78l5.56,1.56s.66-29.56,1.11-34.22S686,183,688.22,177s8.44-9.33,12.67-6.89,9.77,4.45,23.11,5.11a122.12,122.12,0,0,1,23.78,3.56l-3.12-2.22c16.67-10.45,14.45-2.67,24.45.66s12.22,19.56,12.22,19.56a25.41,25.41,0,0,1-2.89,8.66c-2.44,4.45-.22,16.67-.22,16.67L772.66,221l-1.33,2,2.22,3.56,3.78-.67s2.22,8.22,4.45,15.11,11.11,7.56,15.11,8.67,7.77,5.11,8.66,2,8.89-3.11,8.89-3.11c-.22-3.34,3.11-12.67,6-12.23s.22,3.56,20.22-3.33-7.11,4.89,8.67-1.11-.19-20.94,37.33-10.67,1.34,42.67,32.23,45.34,15.77-10.67,42.44-18.45,25.78,1.33,19.56,17,10,20.38,15.77,15.94,53.56-11.78,53.56-11.78-5.78,8.89-6.22,13.78c-.31,3.36,5.48,13.13,15,18.76a29,29,0,0,0,10.11,3.78,25.53,25.53,0,0,0,4.91.35c8.72-.22,15.66,3.16,21.82,4.33,5.87,1.12,11,.23,16.33-7.73h0c.61-.92,1.22-1.93,1.84-3.05,11.33-20.48,20.31-20,20.65-20-.12,0-2.21-.22,5.35-15.44,7.78-15.67,16.89-9.22,24-5.89s3.55,14.22-.89,18.45a14,14,0,0,0-4.45,9.33l3.12-1.33-2.89,5.11s6.44-3.34,2,2.66-2,14.23-2,14.23l2.66-3.93.67-3.41,2.44,3.41.23-4.3,2.22,3.34,2.89-1.11-3.11-3.56H1170l-4.67-5.78s7.78.45,12.89,2.45,8.22,1.11,15.78-4.45,11.78-.89,11.78-.89,7.55-2.44,6.88.45,6,5.33,6,5.33l.45,6.22s1.33-4.89,7.11.45,6.22-2.57,6.22-2.57,8.67,9.23,19.56-2.1,9.78-11.11,15.11-9.33,3.33,0,6.89,1.55C1276.26,289.3,1277,288.49,1277.22,287.78Z"/><path class="cls-7" d="M792.43,194c.24-.45.65-.26,0,0Z"/><polygon class="cls-7" points="633.61 291.26 632.39 293.31 630.66 292.98 633.61 291.26"/><path class="cls-7" d="M792.43,194c.24-.45.65-.26,0,0Z"/><polygon class="cls-8" points="567.94 779.92 602.17 784.81 636.83 751.03 668.83 751.03 683.94 767.92 705.28 775.48 721.72 779.03 724.39 789.25 746.17 816.81 742.61 839.48 742.17 876.81 747.94 909.25 750.17 939.03 756.24 962.59 764.07 990.14 772.39 1022.14 772.39 1041.25 706.17 1029.25 663.5 1021.25 651.06 1000.81 613.72 993.25 595.94 896.14 588.25 859.03 577.72 827.92 577.28 799.48 574.17 789.25 567.94 779.92"/><path class="cls-9" d="M696.61,1021.7s-4.76-9.34-4.16-10.45,0-8.66,0-8.66l-5-6.89-3.11-9.11v-6.45L696.61,975s9.78-2.44,10.45-2.44,6.88,5.77,6.88,5.77l1.56,7.56,4.22,7.33v6l-1.36,2.89,5.36.89,3.11,1.11,1.34,5.11-2.67,8-7.14,9.78-5.3,2H707.5l-9.11-3.55Z"/><path class="cls-10" d="M565.28,863.48l-1.34-11.56-1.77-7.33-1.27-10,4.38-.89h4.22c.67,0,1.33-6,1.33-6l-3.55-3.78,2.44-3.33,1.11-7.56v-9.78l-4-14,7.78,10L581.94,819l6.3,11.56,3.7,3.77L595.5,849s-1.78,7.11-1.78,10.67,5.78,24.89,6.67,27.11,0,17.11,0,17.11l1.55,15.78L604.17,939l1.33,13.33,4.67,21.78,3.55,16.45v2.66l-7.55-24.44-3.11-12.89-7.12-16.44-.88-11.12-1.34-12-5.48-4.44-4.3,5.78v-12l3.37-4.45L580.83,903l7.41-8.44-5.63-3.34-4-11.33,5.33-4.44-6.22-1.34L579.5,871l-10.22-20.89Z"/><path class="cls-11" d="M642.83,279.59c-3,2.67-5.72,5.45-6.61,7.72s-.94,2.23-3.72,2.67-3.34,2.94-5.06,3-5.61-2.72-9.61-1.78c-.38.09,2.22-5.28,4.83-5.55a24,24,0,0,0,5.5-1.45,44.75,44.75,0,0,0,3.06-4.83c.17-.72,1.61-1.95,3.44-2.06s2.39-2,3.67-1.5,1,2.34,2.56,2.17S645.83,276.92,642.83,279.59Z"/><path class="cls-11" d="M602.78,300.87a3,3,0,0,1-2.89-.72A12.73,12.73,0,0,1,603,298.7C603.83,298.65,604.5,300.37,602.78,300.87Z"/><path class="cls-11" d="M575.05,290.87s-.27-8.33-.22-8.5c0,0,.78-.17,1.11,1.33S575.05,290.87,575.05,290.87Z"/><polygon class="cls-11" points="564.16 275.42 560.22 281.09 562.61 274.54 564.16 275.42"/><polygon class="cls-11" points="446.02 472.91 442.59 476.09 442.91 476.74 444.96 480.98 441.85 480.98 438.29 475.87 436.02 474.03 435.63 473.72 435.03 471.79 439.18 473.72 444.07 470.76 446.74 472.24 446.02 472.91"/><path class="cls-11" d="M418.22,394.27s-8-6.49-8.37-12.64,6.66,1.71,8.54,5.82S418.22,394.27,418.22,394.27Z"/><path class="cls-11" d="M406.43,375.82s-3.24-3.93.17-3.24S406.43,375.82,406.43,375.82Z"/><path class="cls-12" d="M1005.26-210s-58.67,44.77-62.52,43.29-8.59-3-19,1.78-13,5.63-16.59,9.78-3.56,0-3.56,0l-3.26,3.7-4.44-1.33s-8,2.07-8.6,3.55.89,5.63-1.48,7.41-3.26,7.11-3.26,7.11a42.81,42.81,0,0,1-1.48,12.45c-1.78,5.92-6.22,11.85-6.22,11.85s-4.15,1.78-7.41,9.48-6.22,15.11-12.74,23.11-16.89,29.33-16.89,29.33A16.93,16.93,0,0,1,826.59-42c-7.4.89-10.07,4.15-10.07,4.15s-3.56,1.48-11,3.85-7.71,3.85-12.45,7.41-15.41,8.3-15.41,8.3S777.41-6.43,768.22.38,763.48,9,759,13.72s-25.78,23.4-25.78,23.4l-12.74,2.37s-4.13-4.14-7.55-4.14-6.08-3.26-8.75,0S674,53.81,668.37,60.73s-11.56,14-10.67,14S639,94.61,639,94.61s-1.19,13-5,15.7-12.44,5-12.44,5-14.82-1.49-16.6,0a70.17,70.17,0,0,1-6.22,4.14l-2.67-3.55-3.55.89s-21.93-3.26-24.59-4.45-15-13.92-17-13.92-13.12,2.66-14.22,2.37-6.15-8.59-6.15-8.59S527,79.49,525.56,78s-15.2-14.52-17.82-15.11"/><path class="cls-12" d="M491.93,63.35c.44.59,3.55,5.48,3.55,5.48l7.26-.59"/><path class="cls-12" d="M501,66.09s9.34-2.45,10.08-2.15"/><line class="cls-12" x1="511.04" y1="60.61" x2="511.04" y2="71.2"/><line class="cls-12" x1="529.41" y1="73.57" x2="521.36" y2="74.03"/><path class="cls-12" d="M577.41,61.42l-1.34,1.93s-8.44-.6-9.92-1S557,50.75,557,50.75l-6.11-3.4s-38.37-13-39.85-13.63l2.07-4-2.81,4.14-7.56,2.52-10.81,9.34-9.19,3.85,1.63,1.18,5.93-2.22-1.11-4.45h2.35l1.72,5.34"/><path class="cls-12" d="M473.85-1.64s-1.63,5.28-1,8.54.46,23.56.46,23.56l3.4,2.81h6.07l4.59-6.07"/><polyline class="cls-12" points="469.26 39.49 469.26 42.16 472.69 44.08"/><polyline class="cls-12" points="473.27 30.46 473.27 35.94 475.93 41.79"/><polyline class="cls-12" points="482.74 41.79 482 38.16 483.51 32.26"/><path class="cls-12" d="M473.27,35.31,482,38.16l5.33.37.67,2.33s11.78-10.22,14.11-13.44S507.8,17,508.85,16.09,535.44,4.92,535.44,4.92"/><polygon class="cls-12" points="485.11 45.53 488 40.87 489.19 44.08 485.11 45.53"/><path class="cls-12" d="M557.75,103.67l5.25-1.81,7.22-7.27,2.34-5.34h4.94l4.5-1.89a32.71,32.71,0,0,1,2.5,5.06,19.35,19.35,0,0,0,1.89,3.89"/><path class="cls-12" d="M621.56,115.35,626,128.09l-2.22,19.33,10.66,34-4.88,11.33s-5.78,2.28-5.78,7.14-.45,21.09-.45,21.09-1.55,5.06,2,5.2,10,.53,10.89,0a10.11,10.11,0,0,1,6.89-.67c3.11.8,8.89,8.35,8.89,8.35a33.26,33.26,0,0,0,9.11,3.93c4.89,1.19,4.22.15,6.45,0a61.71,61.71,0,0,1,7.73.56"/><path class="cls-12" d="M626,128.09l11.33,5.11.89,2.59,5.11-2.37,3.11,2.37,4.13,2.3,2.76,1.55h3.56l2.79,2h3.88l4.22,1.34,1.11,2.22,4.89-1.11h4.66l2.89,5.33s1.52,2.48,4,1.91,5.19-1,5.19-1"/><path class="cls-12" d="M763.06,162.74c3.82.27,12.33.8,16.72.46,5.77-.44,12.65,10.67,12.65,10.67L796.22,189s3.55,15.43,7.94,20.87,15.09,12.52,15.52,12.8h0"/><text class="cls-13" transform="translate(526.48 4.92)">Miary</text><text class="cls-14" transform="translate(460.44 60.61)"><tspan class="cls-15">T</tspan><tspan x="10.46" y="0">oliaria</tspan></text><text class="cls-13" transform="translate(968.24 271.58)">Ifanato</text><text class="cls-13" transform="translate(762.64 262.55)">Manorofify</text><text class="cls-16" transform="translate(763.33 207.68)">T<tspan class="cls-17" x="6" y="0">anandava</tspan></text><text class="cls-13" transform="translate(659.91 160.23)">Ambohimahavelona </text><text class="cls-14" transform="translate(435.04 404.56)">Anakao</text><text class="cls-13" transform="translate(452.71 536.83)">Andranotohoka</text><text class="cls-13" transform="translate(460.44 691.51)">Beheloka</text><text class="cls-14" transform="translate(554.68 267.14)">St Augustin</text><text class="cls-13" transform="translate(452.48 600.36)">Befasy</text><text class="cls-18" transform="translate(423.8 914.51)">Ambola</text><text class="cls-19" transform="translate(569.35 822.01)"><tspan class="cls-20">R</tspan><tspan x="14.24" y="0">éserve naturelle de</tspan><tspan x="0" y="26.5"> </tspan><tspan class="cls-21" x="4.75" y="26.5">T</tspan><tspan x="15.79" y="26.5">simanampetsotsa</tspan></text></g></g></g></svg>