<svg xmlns="http://www.w3.org/2000/svg" xmlns:xlink="http://www.w3.org/1999/xlink" viewBox="0 0 961.97 867.12"><defs><style>.cls-1,.cls-12{fill:none;}.cls-2{clip-path:url(#clip-path);}.cls-3{fill:#acdddb;}.cls-4{fill:#a3d3d3;}.cls-5{fill:#cc4747;}.cls-6{fill:#4c4c4c;}.cls-7{fill:#ffefe1;}.cls-8{fill:#fff;}.cls-9{fill:#f9f2e4;}.cls-10{fill:#bbe2c6;}.cls-11,.cls-13{fill:#fdfedb;}.cls-11{stroke:#0b6277;}.cls-11,.cls-12{stroke-miterlimit:10;stroke-width:0.75px;}.cls-12{stroke:#bf824b;}.cls-14{font-size:16.61px;}.cls-14,.cls-15,.cls-16,.cls-18{fill:#353535;font-family:LobsterTwo, Lobster Two;}.cls-15,.cls-18{font-size:12px;}.cls-16{font-size:21px;}.cls-17{letter-spacing:-0.17em;}.cls-18{letter-spacing:-0.17em;}.cls-19{letter-spacing:0em;}</style><clipPath id="clip-path"><rect class="cls-1" x="47.43" y="-47.43" width="867.12" height="961.97" transform="translate(914.54 -47.43) rotate(90)"/></clipPath></defs><g id="Calque_2" data-name="Calque 2"><g id="ecretage"><g class="cls-2"><path class="cls-3" d="M1247.49,446.83V417.17c-8.28-.46-4.15-3.76-15.44-4.43s-15.11,5.78-15.11,5.78c-15.77-1.11-4.89,1.11-20,1.11-5.68,0-9.52.34-12.63,1.31-5.14,1.62-8.2,5-14,11.36-9.34,10.22-7.56,21.55-20,21.33s-12-10.67-8.46-18,2.9-12.45-4-12.89-10.43-16.44-28.43-9.78-26.45,30.45-29.34,33.34-4,7.77-11.33,13.54-35.78,5.79-43.11-2-1.79-21.11-1.79-21.11l-2.21-7s-2.89,1.44-32,7-31.12,9.33-29.33-10.22-8.89-20.45-18-21.11-19.56,9.55-38.46,15.33-24-10.22-21.77-20.44-18.44-34.89-20.23-32-32,4.66-35.33,4.66-8.88,6.89-26.21,13.11A35.25,35.25,0,0,1,790,388.41c-7.91.33-9.52-4.5-13-6.34-4.66-2.44-4.66-6.89-11.12-15.33-3.47-4.56-3.45-6.4-3.11-7l-.43.13c-2.67.67-2.67-1.78-8.23-12.67s-3.56-8.22-11.77-14.88a17.39,17.39,0,0,0-8.94-3.8h-.12l-1.83-.14a20,20,0,0,0-7.11,1.06s-23.11-1.34-31.11.22-10.68,2.44-19.78,1.33-7.57-.44-12.22-2.89-8.68.45-14.68,1.78-9.77,15.78-10,21.33,2.83,9.67,2.33,11.34a62.13,62.13,0,0,0-1.21,11.78c.17,2.5,2.56,13.94,5.67,17s2.44,7.38,2.33,10.83-.12,11-.12,11-6.77-.45-7.21,3.67-1.89,4.05-3,5.5-9.21,5.61-9.83,7.16-6.21,1.61-5.44,7.56-2.23,4.89-4.33,5.11-3.67-1.78-4.94-2.67-3.29,1-6.23,1.61-3.23-.83-3.23-.83c-.21,2.33-1,5.17-5.88,8.67s-3.62-4.73-7.39,2.39-12.77,9.22-12.77,9.22c-17.89,2.11-16.46-1.11-16.67-6.11s-.22-5.23-3.44-5.67-9.89-.33-11.56-4.67-4.79-4.11-7.67-6.33-1.89-9.78-1.89-9.78c-21.77-24.22-11.56-38.78-11.56-38.78s2.12,13.89,4.68,20.67,7.65,7.56,7.65,7.56c-.65-7.34,4.79-6.56,4.79-6.56s-2.44-.78-.22-4.55,3.43-7.78,6.22-11.89-.15-14.63,5.78-21.45-3.57-11,1.17-23.55,1.2-12.6,1.2-12.6a36.47,36.47,0,0,0-6.07-14.92l0,0-.12-.17c-.26-.38-.52-.76-.79-1.12s-.63-.85-1-1.26-.49-.63-.74-.93c-.55-.67-1.1-1.32-1.68-1.95-.4-.45-.8-.88-1.22-1.31a61.6,61.6,0,0,0-4.5-4.26l-.73-.62Q535.46,309,534,307.9l-.06,0-1.39-1c-1-.7-1.9-1.34-2.82-1.95-2.06-1.37-4-2.51-5.6-3.41l-.48-.27c-.43-.24-.83-.46-1.22-.66l-.59-.3c-1.35-.71-2.32-1.16-2.75-1.35-3-1.34-5.48-1.93-11.85-15.11a34,34,0,0,0-1.8-3.31c-.18-.3-.37-.58-.55-.84s-.36-.51-.53-.73c-3.1-4.06-5-2.37-5.75-2.88-.31-.2-.45-.75-.41-2.17.15-5.92-4.59-12-4.59-12-6.22,3.26-3.41-7.11-8.89-.15-2.84,3.61-4.05,3.84-4.9,2.9s-1.3-2.79-2.52-3.93a4.13,4.13,0,0,1-1.2-2h0a3.34,3.34,0,0,1-.1-.43,7.84,7.84,0,0,1-.07-1.42c0-.74.1-1.31-.11-1.54a.35.35,0,0,0-.28-.11,1.1,1.1,0,0,1-.77-.3,2.06,2.06,0,0,1-.45-.57,17.93,17.93,0,0,1-1.15-3.27c-.74-2.52-10.23-8.6-12.3-10.67l-.31-.3-1-.9c-.44-.39-.86-.78-1.24-1.16-.84-.87-1.43-1.69-1.26-2.46a2.25,2.25,0,0,1,.08-.24.2.2,0,0,0,0-.08.66.66,0,0,1,.12-.17.46.46,0,0,1,.07-.1,1.45,1.45,0,0,1,.21-.22c1.78-1.63-.44-2.67-.89-3.56s-3-4.74-2.52-3.4-3.7,1.63-3.7,1.63h0a6,6,0,0,0,1.18-.71c.1-.1.14-.17.09-.22s-1.13-.06-3.95.68c-3.41.89-3.64-.66-3.47-1.93,0-.17.05-.34.08-.49a1.68,1.68,0,0,0,.06-.27,1.38,1.38,0,0,0,.06-.62c-.07-.09-.26,0-.69.46l-.5.53-.32.35-.25.27c-4,4.08-7.41-.68-7.52.73s-.11.56-3.78,1a12.35,12.35,0,0,1-9.78-2.77,6.18,6.18,0,0,1-1.57-2.21,11.6,11.6,0,0,1-.52-1.36c-.28-.82-.52-1.68-.8-2.53-.08-.25-.17-.49-.25-.73s-.09-.23-.14-.35a11.48,11.48,0,0,0-.64-1.37c-.13-.22-.26-.44-.4-.64a6.9,6.9,0,0,0-.47-.6,4.66,4.66,0,0,0-.54-.55,6.47,6.47,0,0,1-1.94-3.07c-.05-.19-.1-.38-.14-.57a11.9,11.9,0,0,1-.25-1.87,5.06,5.06,0,0,0-.45-2.26c-.89-1.23-2.44-5.45-1.89-10.23s-2.11-7.77-3-10a10.08,10.08,0,0,0-1.37-2.06c-1.72-2.17-4.52-5.1-6-6.57l-.23-.23-.36-.37-.14-.14-.1-.1-.06-.06,0,0a8.1,8.1,0,0,0,.63-3.81,2.72,2.72,0,0,0-.53-1.26,2.08,2.08,0,0,0-.53-.49,3.55,3.55,0,0,1-.31-.23,3.28,3.28,0,0,1-.77-3.13,7.14,7.14,0,0,1,.19-.82c0-.13.07-.24.11-.34a1.31,1.31,0,0,1,.09-.26c0-.13.08-.22.1-.27s0,0,0,.06a.15.15,0,0,0,0,.07c-.05.37.19,1,3.49-1.3,4.23-2.89,11.12,1,16.67.33s4.56,0,10.33,1.45c5.46,1.36,11.81-3.42,12.5-4l0,0h0a0,0,0,0,1,0,0s0,0,.06-.06l.11-.09a.8.8,0,0,1,.13-.13c1.45-1.33,7.31-6.69,8.68-7.37,1.56-.78,6.78-.44,6.78-.44s4.33-5.67,13.66-6.78a14.91,14.91,0,0,1,3.27,0c.26,0,.51,0,.76.09l.36.06.51.09a8.63,8.63,0,0,1,.88.2l.65.17a23.14,23.14,0,0,1,3.27,1.21l.66.31.63.32c.63.33,1.23.67,1.81,1l-1.25-3.34-.15-.06c-.54-.19-1.09-.38-1.66-.56-.28-.1-.56-.19-.85-.27l-.86-.25c-.29-.09-.58-.17-.88-.24s-.59-.16-.89-.23q-.88-.21-1.8-.39h0c-.5-.09-1-.18-1.5-.25l-.29,0-.79-.1-.43-.05c-.51,0-1-.09-1.52-.11a26.49,26.49,0,0,0-10.4,1.95c-5.66,2.12-10.47,5.27-13.15,5.83-1.85.39-3.95,2.18-6,4.2-.15.15-.3.29-.44.44l-.45.44-.44.44-.88.89-.86.86a17.2,17.2,0,0,1-4.24,3.4c-3.55,1.55-4.44-.22-9.33-1.56s-24.22,0-24.22,0,0-.33-.09-.92c0-.14,0-.28,0-.44,0-.31-.06-.68-.1-1.08s-.05-.64-.09-1-.06-.72-.1-1.12-.05-.53-.07-.81c-.06-.69-.13-1.44-.2-2.22-.14-1.56-.3-3.28-.45-5.07l-.09-1.08c-.1-1.08-.19-2.18-.28-3.27l-.09-1.09c-.09-1.09-.18-2.17-.26-3.22,0-.35,0-.7-.08-1-.05-.68-.1-1.35-.15-2s-.09-1.27-.13-1.87c-.28-3.88-1.65-9.71-3.18-15.26-.53-1.92-1.08-3.8-1.61-5.57l-.35-1.15c-.57-1.89-1.12-3.61-1.57-5-.09-.28-.18-.55-.26-.81s-.17-.5-.24-.72c-.49-1.49-.79-2.37-.79-2.37s.16-2,.55-5.1c.07-.55.15-1.14.24-1.75,0-.31.09-.63.14-1s.09-.64.15-1c.32-2,.71-4.15,1.2-6.34.16-.73.34-1.46.52-2.18a41.85,41.85,0,0,1,3.2-8.93q.4-.76.75-1.35c.15-.26.3-.5.44-.71s.27-.4.4-.57.25-.31.36-.44a1.35,1.35,0,0,1,.17-.17c.52-.53.9-.57,1.15-.29a1.71,1.71,0,0,1,.32.8,10.94,10.94,0,0,1,0,3.22,12.26,12.26,0,0,1-.67,2.84,6.71,6.71,0,0,0-.37,1.26c0,.12-.05.24-.07.36l-.12.73a34.93,34.93,0,0,0-.1,6.1l-1.11,6,5.5-2.88-3.06,4.66,3.07,4.66v12.45h0a4.3,4.3,0,0,1,.54-.73.38.38,0,0,1,.09-.09c.26-.24.54-.38.73-.1a.67.67,0,0,1,.09.14,1.25,1.25,0,0,1,.07.23,1.07,1.07,0,0,1,.06.27,11.06,11.06,0,0,1,0,2.51,16.9,16.9,0,0,0,.83,5.87c.11.38.24.76.36,1.13s.26.74.39,1.09c.21.54.42,1.06.62,1.56.14.33.28.65.42.95.27.62.54,1.17.78,1.66.59,1.21,1,2,1,2h0l3.11-2,4.23,6,.88-5.55v0l1.11,6,2.44,2c2.31-4.33,1.06-11.85-.71-17.26-.13-.39-.26-.77-.39-1.13a27,27,0,0,0-1.2-2.89c-.2-.4-.39-.77-.57-1.08a6.18,6.18,0,0,0-.69-1,20.07,20.07,0,0,1-2.17-2.9,30.28,30.28,0,0,1-1.6-2.88l-3.34-4.88a27.38,27.38,0,0,1-1.49,2.62c-.13.18-.25.35-.36.48s-.39.37-.49.28-.14-.28-.11-.72a12.34,12.34,0,0,0-.23-2.62,0,0,0,0,0,0,0c-.1-.61-.23-1.28-.37-2s-.3-1.41-.47-2.11c-.74-3.17-1.59-6.16-1.59-6.16s-.2-3.29-.76-6.67c-.13-.78-.28-1.57-.45-2.32-.07-.25-.1-.4-.1-.4-.1-.42-.21-.83-.32-1.22a7.86,7.86,0,0,0-1.25-2.72c-2.22-2.67,1.34-29.33,1.34-29.33l-.15-.47c0-.12-.09-.28-.14-.46s-.05-.18-.08-.28c-.09-.31-.19-.68-.3-1.12-.08-.28-.16-.6-.24-.95-.29-1.21-.63-2.77-1-4.72-.62-3.34-1.31-7.81-1.89-13.56,0-.3-.05-.6-.09-.89-1.71-14.68-8-20.8-11.23-27.78-.18-.37-.33-.72-.45-1a0,0,0,0,0,0,0c-.85-2.18-.61-3.23.13-3.9a2.6,2.6,0,0,1,.32-.26,5.58,5.58,0,0,1,.6-.34l.42-.21c.44-.2.93-.4,1.4-.65l.46-.28a4,4,0,0,0,.88-.69,4.43,4.43,0,0,0,.9-1.28,11.58,11.58,0,0,0,1-3.82,18,18,0,0,0-.33-5.33c-.1-.49-.22-1-.36-1.47-.08-.34-.18-.68-.29-1s-.33-1-.52-1.48-.36-.92-.57-1.38a31.18,31.18,0,0,0-2.26-4.17c-.22-.35-.43-.71-.64-1.09l-.37-.71c-2.88-5.77-4.26-14.4-4.72-17.92,0-.25,0-.39,0-.39H-378.5V1220.07H1245.76V903.74H446.49s4.68-14.78.9-30.33-2-19.78,5.33-22.89,8.89,5.33,2-34.22-7.33-19.34-17.33-38.89,10.89-12.89,10.22-29.34-12-24-12-24a30.46,30.46,0,0,0-6.89-19.77c0-24.23-8.67-16.23-8-23.34.65-6.9-5-11.28-5.31-11.54l3.76.88.44-2.67,4.88.22,2.23,1.11-2.23,4.67,1.33-1.78,1.12,3.78,1.11-1.78,2.89-2,3.55,2-1.55-5.11-4.45,2s9.79-13.78.23-23.78-4-8.22,1.33-20.44-7.56-20.22-7.56-20.22,15.33-12.23,8.9-23.34-14.22-3.11-14.22-3.11,3.77-11.78,12.22-18.67,5.55-21.55,7.55-35.55,5.34-16.45,37.55-29.11,38.68-.22,40.45-5.78,6.67-8.89,11.34-11.33a10.55,10.55,0,0,1,8.44-.89s-.23-10.89,9.1-13.34,6.46,8.45,19.35,6.23,6.65-4.67,20.65-4.89,23.57-9.78,23.57-9.78c6.43-12.67,13.78-12.22,15.33-15.33s2.77-12,15.56-17.56,11.33-13.78,11.33-13.78l5.56,1.56s.65-29.56,1.11-34.22,0-28.67,2.21-34.67,8.45-9.33,12.68-6.89,9.77,4.45,23.11,5.11a121.93,121.93,0,0,1,23.77,3.56l-3.11-2.22c16.67-10.45,14.45-2.67,24.45.66s12.22,19.56,12.22,19.56a25.41,25.41,0,0,1-2.89,8.66c-2.44,4.45-.23,16.67-.23,16.67l-5.55-1.11-1.33,2,2.21,3.56,3.79-.67s2.21,8.22,4.44,15.11,11.12,7.56,15.12,8.67,7.77,5.11,8.65,2,8.9-3.11,8.9-3.11c-.23-3.34,3.1-12.67,6-12.23s.22,3.56,20.22-3.33-7.12,4.89,8.67-1.11-.19-20.94,37.33-10.67,1.34,42.67,32.23,45.34,15.77-10.67,42.44-18.45,25.78,1.33,19.56,16.95,10,20.38,15.77,15.94S1020.49,435,1020.49,435s-5.77,8.89-6.21,13.78c-.31,3.36,5.48,13.13,15,18.76a29,29,0,0,0,10.11,3.78,25.53,25.53,0,0,0,4.91.35c8.71-.22,15.66,3.16,21.82,4.33,5.87,1.12,11,.23,16.33-7.73h0c.6-.92,1.22-1.93,1.84-3.05,11.33-20.48,20.31-20,20.65-20-.13,0-2.21-.22,5.35-15.44,7.77-15.67,16.89-9.22,24-5.89s3.54,14.22-.89,18.45a14,14,0,0,0-4.45,9.33l3.11-1.33-2.88,5.11s6.44-3.34,2,2.66-2,14.23-2,14.23l2.65-3.93.67-3.41,2.45,3.41.23-4.3,2.22,3.34,2.89-1.11-3.11-3.56h3.11l-4.67-5.78s7.78.45,12.88,2.45,8.23,1.11,15.79-4.45,11.77-.89,11.77-.89,7.56-2.44,6.89.45,6,5.33,6,5.33l.45,6.22s1.33-4.89,7.1.45,6.23-2.57,6.23-2.57,8.67,9.23,19.56-2.1,9.77-11.11,15.11-9.33,3.33,0,6.89,1.55c2.25,1,3,.18,3.21-.53v-5.72c-1,.32-3.73.47-9.67.17-16-.81-23.1,4.53-23.1,4.53s-5.11,4.44-13.78,0-12.45-6.22-12.45-6.22a13.22,13.22,0,0,0,9.33-5.34c3.79-5.11,13.35-8.44,27.12-9.33s21.34,0,21.34,0V446.3A7.38,7.38,0,0,1,1247.49,446.83Zm-717,0,2.4-6.55,1.55.88Zm14.83,9.78s-.27-8.33-.21-8.5c0,0,.78-.17,1.11,1.33S545.32,456.63,545.32,456.63Zm27.73,10a3,3,0,0,1-2.88-.72,12.73,12.73,0,0,1,3.11-1.45C574.11,464.41,574.78,466.13,573.05,466.63Zm29.62-7.56-1.73-.33,2.95-1.72Zm10.44-13.72c-3,2.67-5.72,5.45-6.62,7.72s-.94,2.23-3.71,2.67-3.34,2.94-5.06,3-5.61-2.72-9.61-1.78c-.38.09,2.21-5.28,4.83-5.55a24.22,24.22,0,0,0,5.5-1.45,44.86,44.86,0,0,0,3-4.83c.18-.72,1.62-1.95,3.45-2.06s2.38-2,3.67-1.5,1,2.34,2.56,2.17S616.11,442.68,613.11,445.35Zm585.38-11.41c-8,6.36-10.29,10.13-14,11.91s-7.74,4.89-18.85,1.56c-.77-.23,8.21-6.89,9.56-11.34s14.22-11.77,21.32-10S1206.49,427.58,1198.49,433.94Z"/><path class="cls-4" d="M673.91,72.84l-1.19-.77-6.07,4.3s-8.74,2.81-11.12,9-7.71,10.37-12.29,11.4-9.33,8.74-9.33,8.74l-3.86,6.67s-2.23,4.45-.44,7.56,1.92,11.85-1.48,17.18-14.52,5.48-14.52,5.48l3.4-6.94c-.27.4-4.39,6.86-7.55,8.72s-14.22,3.71-24.45-2.07-19.55-5.93-20.45-5.63-2.07,3.55-5,5.33-5.62-2.07-12.14,1.48-8.45,7.85-9.57,5.41-13.54-3.78-16.43-2-7.57,1.78-8.45,1.78-4.22-5.78-8.66-.45A23.1,23.1,0,0,1,501,151.3c-3.5,2.8-6.83,3.67-7.83,3a54.91,54.91,0,0,0-9.68-4.56l1.25,3.34a70,70,0,0,1,6.54,4.77c1.11.72,6.75-.23,13.43-.82,2.58-.23,5.32-.4,8-.4,9.67,0,4.42-8.45,9-2.67s11.24,6.11,14.24,2.45,8.78-4.11,8.78-4.11,1.77-5.56,9.89-7,6.56-2.12,11.78-3.89,26.22,7.44,33.66,7.66,15.34-3.66,25.89-7.66,7.88-12.56,7.88-12.56-2.43-3.67-1.21-16.33,11.95-15,11.95-15,6.53-2.37,9.64-5,4.29-8.89,10.36-13.34,10.68-5.48,10.68-5.48ZM509.09,151.93s-.15,1,.15,1-1.26.89-1.63.89H504l-.29-.89s2.59-4,5.4-3S509.09,151.93,509.09,151.93Zm3.4,1.48h-2.15l2.15-1.6h2.75Zm21.86-3.63-.66.4-3.08-2.11Zm-11.92,0,3.85-2.15,5.85,2.89Zm6.06,2.83-.88,1.57-1.37-1.25Zm0,4.39-.88-1.11,3-.74Zm4.16.52-2-.3,2.4-2.07,1.68,1ZM532.2,155c-1.41-.33-2.59-2.35-2.59-2.35l6-.8S533.61,155.3,532.2,155Z"/><path class="cls-5" d="M424.7,246.28l-3.11,5.44-1.52,2.71-1.42,2.75c-.94,1.83-1.88,3.63-2.77,5.47l-2.57,5.54c-.8-2.24-1.59-4.48-2.35-6.75l-2.35,2.08-1.16,1-.3.26-2,1.95-.17.16-.1.1a106.68,106.68,0,0,0-21,32.63,146.85,146.85,0,0,0-10.29,40.56,245.48,245.48,0,0,0-.73,42.28c.85,14.13,2.47,28.3,4.24,42.44s3.9,28.21,6.74,42.11a333.19,333.19,0,0,0,10.81,41.06l1.71,5,1.87,5,1,2.64.14.36.6,1.44,1.21,2.89q2.5-2.55,5.05-5l-.11,6.11c0,2,.07,4.07.11,6.13l.08,3.1.18,3.09.43,6.25-4.8-4.08-2.42-2.08-2.33-2.16c-1.55-1.46-3.15-2.91-4.7-4.41l-4.55-4.58c2.41.07,4.82.11,7.2.13l-1.23-3-.62-1.47-.15-.38-1-2.71-1.91-5.07-1.76-5.13a339.71,339.71,0,0,1-11-41.83c-2.88-14.11-5-28.34-6.8-42.56s-3.43-28.48-4.29-42.88a252.37,252.37,0,0,1,.75-43.36A153.8,153.8,0,0,1,378,297.21a114.14,114.14,0,0,1,20.2-32.34c.75-.82,1.51-1.64,2.29-2.44l.3-.29,1.5-1.42.6-.58.29-.26,1.2-1.08,2.4-2.12c-2.16-1-4.33-2-6.53-3l6.1-2.15c2.05-.67,4.11-1.29,6.15-1.91l3-.92,3.08-.83Z"/><path class="cls-6" d="M448.59,870.88c-1.13-5.27-1.46-9-1-11.83Z"/><path class="cls-6" d="M1249.42,454.23v450.2l-1.73,316.33H440.64v-74.67s4.84-18.66,5.74-22.23-5.74-8.87-5.74-8.87l5.74-16.9v-30.23l-13.52-47.1,13.52-26.67L439,945.21l9.38-40.78s4.68-14.79.9-30.34c-.27-1.13-.52-2.2-.73-3.21l6-6.06,5-3h6.87c.89,0,1.78-11.56,3.86-11.85s0-7.42,0-7.42l-2.07-15.1s-.31-10.38,0-13.34-4.74-13.33-5.33-15.4-5.93-8.89-6.82-13.64-16.47-21.78-16.47-21.78c3.93-3.39,10.35-5.34,10-14.57-.67-16.44-12-24-12-24A30.46,30.46,0,0,0,430.65,705c0-24.23-8.67-16.23-8-23.35.65-6.89-5-11.28-5.31-11.53l3.76.88.44-2.67,4.88.22,2.23,1.1-2.23,4.68,1.33-1.78,1.12,3.78,1.11-1.78,2.89-2,3.55,2-1.55-5.11-4.45,2s9.79-13.79.23-23.79-4-8.21,1.33-20.43S424.42,607,424.42,607s15.33-12.23,8.9-23.35-14.22-3.1-14.22-3.1,3.77-11.78,12.22-18.68,5.55-21.54,7.55-35.54,5.34-16.46,37.55-29.11,38.68-.22,40.45-5.78,6.67-8.89,11.34-11.34a10.52,10.52,0,0,1,8.44-.88s-.23-10.89,9.1-13.35,6.46,8.46,19.35,6.23,6.65-4.66,20.65-4.88,23.57-9.78,23.57-9.78c6.43-12.67,13.78-12.22,15.33-15.34s2.77-11.95,15.56-17.55,11.33-13.78,11.33-13.78l5.56,1.56s.65-29.56,1.11-34.23,0-28.66,2.21-34.66,8.45-9.34,12.68-6.89,9.77,4.45,23.11,5.1A122.35,122.35,0,0,1,720,345.21L716.87,343c16.67-10.45,14.45-2.67,24.45.65s12.22,19.57,12.22,19.57a25.33,25.33,0,0,1-2.89,8.65c-2.44,4.46-.23,16.68-.23,16.68l-5.55-1.11-1.33,2,2.21,3.56,3.79-.67s2.21,8.22,4.44,15.11,11.12,7.56,15.12,8.66,7.77,5.12,8.65,2,8.9-3.1,8.9-3.1c-.23-3.35,3.1-12.67,6-12.23s.22,3.56,20.22-3.33-7.12,4.89,8.67-1.11-.19-20.94,37.33-10.68,1.34,42.68,32.23,45.35,15.77-10.67,42.44-18.45,25.78,1.32,19.56,16.95,10,20.37,15.77,15.94,53.55-11.79,53.55-11.79-5.77,8.9-6.21,13.79c-.31,3.36,5.48,13.13,15,18.76A29,29,0,0,0,1041.3,472a25.53,25.53,0,0,0,4.91.35c8.71-.23,15.66,3.16,21.82,4.32,5.87,1.13,11,.24,16.33-7.73h0c.6-.91,1.22-1.92,1.84-3.05,11.33-20.48,20.31-20,20.65-20-.13,0-2.21-.22,5.35-15.43,7.77-15.67,16.89-9.22,24-5.89s3.54,14.22-.89,18.45a14,14,0,0,0-4.45,9.33L1134,451l-2.88,5.1s6.44-3.33,2,2.67-2,14.23-2,14.23l2.65-3.93.67-3.42,2.45,3.42.23-4.3,2.22,3.33,2.89-1.1-3.11-3.56h3.11l-4.67-5.79s7.78.45,12.88,2.45,8.23,1.12,15.79-4.45,11.77-.88,11.77-.88,7.56-2.44,6.89.45,6,5.33,6,5.33l.45,6.22s1.33-4.9,7.1.45,6.23-2.58,6.23-2.58,8.67,9.23,19.56-2.09,9.77-11.11,15.11-9.33,3.33,0,6.89,1.55C1248.46,455.75,1249.19,454.94,1249.42,454.23Z"/><path class="cls-6" d="M1247.49-41.26V420.17c-8.29-.46-4.16-3.76-15.44-4.43s-15.12,5.78-15.12,5.78c-15.77-1.11-4.88,1.11-20,1.11-5.67,0-9.52.34-12.62,1.31-5.15,1.62-8.21,5-14,11.36-9.34,10.22-7.56,21.55-20,21.33s-12-10.67-8.45-18,2.89-12.45-4-12.89-10.44-16.44-28.44-9.78-26.45,30.45-29.33,33.34-4,7.77-11.34,13.54-35.78,5.79-43.11-2-1.78-21.11-1.78-21.11l-2.22-7s-2.89,1.44-32,7-31.11,9.33-29.33-10.22-8.89-20.45-18-21.11-19.56,9.55-38.45,15.33-24-10.22-21.77-20.44-18.45-34.89-20.23-32-32,4.66-35.33,4.66-8.89,6.89-26.22,13.11A35.25,35.25,0,0,1,790,391.41c-7.9.33-9.52-4.5-13-6.34-4.66-2.44-4.66-6.89-11.11-15.33-3.48-4.56-3.46-6.4-3.12-7,.65-.26.24-.45,0,0l-.43.13c-2.67.67-2.67-1.78-8.22-12.67s-3.56-8.22-11.78-14.88a17.36,17.36,0,0,0-8.94-3.8h-.12a14.65,14.65,0,0,0-1.83-.14,20.11,20.11,0,0,0-7.11,1.06s-23.11-1.34-31.11.22-10.67,2.44-19.78,1.33-7.56-.44-12.22-2.89-8.67.45-14.67,1.78-9.78,15.78-10,21.33,2.83,9.67,2.33,11.34a62.09,62.09,0,0,0-1.22,11.78c.17,2.5,2.56,13.94,5.67,17s2.44,7.38,2.33,10.83-.11,11-.11,11-6.78-.45-7.22,3.67-1.89,4.05-2.95,5.5-9.22,5.61-9.83,7.16-6.22,1.61-5.44,7.56-2.23,4.89-4.34,5.11-3.66-1.78-4.94-2.67-3.28,1-6.22,1.61-3.23-.83-3.23-.83c-.22,2.33-1.05,5.17-5.89,8.67s-3.61-4.73-7.38,2.39-12.78,9.22-12.78,9.22c-17.89,2.11-16.45-1.11-16.67-6.11s-.22-5.23-3.44-5.67-9.89-.33-11.56-4.67-4.78-4.11-7.67-6.33-1.88-9.78-1.88-9.78c-21.78-24.22-11.56-38.78-11.56-38.78s2.11,13.89,4.67,20.67,7.66,7.56,7.66,7.56c-.66-7.34,4.78-6.56,4.78-6.56s-2.44-.78-.22-4.55,3.44-7.78,6.22-11.89-.15-14.63,5.78-21.45-3.56-11,1.18-23.55,1.19-12.6,1.19-12.6c-3.56-23.26-31.7-36.59-34.67-37.92s-5.48-1.93-11.85-15.11-9.18-4-9-9.93-4.59-12-4.59-12c-6.22,3.26-3.41-7.11-8.89-.15s-4.89,1.34-7.41-1-.59-5.49-1.77-5.49-1.63-1.63-2.37-4.14-10.23-8.6-12.3-10.67-5-4-3.26-5.63-.44-2.67-.89-3.56-3-4.74-2.52-3.4-3.7,1.63-3.7,1.63,4.3-2.08-2.67-.26-.66-6.52-4.77-2-7.67-.44-7.78,1-.11.56-3.78,1a12.35,12.35,0,0,1-9.78-2.77c-2.78-2.34-2.22-7.56-5.33-10.34s-1.89-6.55-2.78-7.77-2.44-5.45-1.89-10.23-2.11-7.77-3-10-8.22-9.55-8.22-9.55,1.78-4.11-.44-5.56c-1.52-1-1.23-3-.89-4.18,0-.13.07-.24.11-.34a2.56,2.56,0,0,1,.09-.26c0-.13.08-.22.1-.27s0,0,0,.06a.15.15,0,0,0,0,.07c-.05.37.19,1,3.49-1.3,4.23-2.89,11.12,1,16.67.33s4.56,0,10.33,1.45,12.56-4,12.56-4,7.44-6.89,9-7.67,6.78-.44,6.78-.44,4.33-5.67,13.66-6.78,17.78,7.22,19.34,8.22,11.78-1.22,21.44-1.22,4.42-8.45,9-2.67,11.24,6.11,14.24,2.45,8.78-4.11,8.78-4.11,1.78-5.56,9.89-7,6.56-2.12,11.78-3.89,26.22,7.44,33.67,7.66,15.33-3.66,25.88-7.66,7.89-12.56,7.89-12.56-2.44-3.67-1.22-16.33,12-15,12-15,6.52-2.37,9.63-5,4.3-8.89,10.37-13.34,10.67-5.48,10.67-5.48l-1.33-.86-1.19-.77-6.07,4.3s-8.74,2.81-11.11,9-7.71,10.37-12.3,11.4-9.33,8.74-9.33,8.74l-3.85,6.67s-2.23,4.45-.45,7.56,1.93,11.85-1.48,17.18-14.52,5.48-14.52,5.48l3.4-6.94c-.26.4-4.39,6.86-7.55,8.72s-14.22,3.71-24.44-2.07-19.56-5.93-20.45-5.63-2.07,3.55-5,5.33-5.63-2.07-12.15,1.48-8.45,7.85-9.56,5.41-13.55-3.78-16.44-2-7.56,1.78-8.45,1.78-4.22-5.78-8.66-.45-9.78,7.11-11.11,6.23-11.56-6.67-21.34-7.12a26.49,26.49,0,0,0-10.4,1.95c-5.66,2.12-10.47,5.27-13.15,5.83-4.22.89-9.78,9.11-13.34,10.67s-4.44-.22-9.33-1.56-24.22,0-24.22,0-1.56-16.66-2.22-26.22-8-30.89-8-30.89,1.33-17.33,6-26.22,4,.67,2.89,3.33-.67,8.45-.67,8.45l-1.11,6,5.52-2.89-3.08,4.67,3.08,4.66v12.45s2-3.56,1.59,2.22,4.44,14.22,4.44,14.22l3.11-2,4.23,6,.89-5.55,1.11,6,2.44,2c3.56-6.67-1.33-20.89-3.55-23.34a26.32,26.32,0,0,1-3.78-5.78l-3.34-4.88s-2.66,5.33-2.44,2.66-2.67-12.89-2.67-12.89a66.89,66.89,0,0,0-1.22-9c-.06-.25-.09-.4-.09-.4a10.45,10.45,0,0,0-1.58-3.94c-2.22-2.67,1.34-29.33,1.34-29.33s-2.22-6.23-3.78-21.56c0-.3-.06-.6-.1-.89-1.71-14.68-8-20.8-11.23-27.78s2.66-4.44,4.66-8.66,1.34-11.34-3.33-18.67c-3.7-5.81-5.17-15-5.61-18.62-.12-.94-.17-1.49-.17-1.49Z"/><path class="cls-7" d="M399.17,137.85c-.28-3.88-1.65-9.71-3.18-15.26-.53-1.92-1.08-3.8-1.61-5.57-.11-.39-.23-.78-.35-1.15-.57-1.89-1.12-3.61-1.57-5-.09-.28-.18-.55-.26-.81s-.17-.5-.24-.72c-.49-1.49-.79-2.37-.79-2.37s.16-2,.55-5.1c.07-.55.15-1.14.24-1.75.05-.31.09-.63.14-1l.15-1c.32-2,.72-4.15,1.2-6.34.17-.73.34-1.46.52-2.18a41.85,41.85,0,0,1,3.2-8.93q.4-.76.75-1.35c.15-.26.3-.5.44-.71s.28-.4.4-.57.25-.31.36-.44l.17-.17c.52-.53.9-.57,1.15-.29a1.57,1.57,0,0,1,.32.8,10.94,10.94,0,0,1,0,3.22,12.31,12.31,0,0,1-.66,2.84,7.52,7.52,0,0,0-.38,1.26c0,.12-.05.24-.07.36l-.12.73a34.93,34.93,0,0,0-.1,6.1l-1.11,6,5.5-2.88h0l-3.08,4.67L403.8,105v12.45a4.56,4.56,0,0,1,.54-.74l.09-.09c.26-.24.54-.38.73-.1a.67.67,0,0,1,.09.14,1.25,1.25,0,0,1,.07.23,1.07,1.07,0,0,1,.06.27,11.06,11.06,0,0,1,0,2.51,16.9,16.9,0,0,0,.83,5.87c.11.38.24.76.36,1.13s.26.74.39,1.09c.21.54.42,1.06.62,1.56.14.33.28.65.42.95.28.62.54,1.17.78,1.66.6,1.21,1,2,1,2l3.11-2,4.23,6,.89-5.52,1.11,6,2.44,2c2.31-4.33,1.06-11.85-.71-17.26-.13-.39-.26-.77-.39-1.13a27,27,0,0,0-1.2-2.89,11.81,11.81,0,0,0-.57-1.08,5.62,5.62,0,0,0-.68-1,22.65,22.65,0,0,1-2.18-2.9,30.28,30.28,0,0,1-1.6-2.88l-3.34-4.88a27.38,27.38,0,0,1-1.49,2.62c-.13.18-.25.35-.36.48s-.39.37-.49.28-.14-.29-.1-.72a11.84,11.84,0,0,0-.24-2.62,0,0,0,0,0,0,0c-.09-.62-.22-1.28-.37-2s-.3-1.41-.47-2.11c-.74-3.17-1.58-6.16-1.58-6.16s-.2-3.29-.77-6.67c-.13-.78-.28-1.57-.45-2.32-.06-.25-.09-.4-.09-.4-.1-.42-.21-.83-.33-1.22a7.86,7.86,0,0,0-1.25-2.72c-2.22-2.67,1.34-29.33,1.34-29.33l-.15-.47c0-.12-.09-.28-.14-.46s-.05-.18-.08-.28c-.09-.31-.19-.68-.3-1.12l-.24-.95c-.29-1.21-.63-2.77-1-4.72-.61-3.34-1.29-7.81-1.88-13.56,0-.3-.06-.6-.1-.89-1.71-14.68-8-20.8-11.23-27.78-.18-.38-.32-.72-.45-1a0,0,0,0,0,0,0c-.84-2.17-.6-3.22.13-3.9l.32-.26a5.58,5.58,0,0,1,.6-.34l.42-.21c.44-.2.93-.4,1.4-.65a4.34,4.34,0,0,0,.46-.28,4,4,0,0,0,.88-.69,4.32,4.32,0,0,0,.91-1.28,11.28,11.28,0,0,0,1-3.82,18,18,0,0,0-.33-5.33q-.15-.72-.36-1.47c-.08-.34-.18-.68-.29-1s-.33-1-.52-1.48-.36-.92-.57-1.38a31.08,31.08,0,0,0-2.25-4.17c-.22-.35-.44-.71-.65-1.09l-.37-.71c-3-5.76-4.19-13.59-4.59-16.82-.06-.47-.1-.84-.13-1.1s0-.39,0-.39h26.44s1.24,15.06.17,18.61-.17,19-.17,19L417,8.13V46.36l1.84,4.24-7.53,12,7,14,9.36,10.5L431.14,102l10.64,11.83-3.07,8.3.82,10.3,10.75-.37,17.33-9.93,6.93,3.57,13,6.73,4.49,5.07L501,151.3c-3.5,2.8-6.83,3.67-7.83,3a54.91,54.91,0,0,0-9.68-4.56h0l-.15,0c-.54-.2-1.09-.39-1.66-.56-.28-.1-.56-.19-.85-.27s-.57-.18-.86-.25-.58-.17-.88-.24-.59-.16-.89-.23c-.59-.15-1.2-.28-1.8-.39h0c-.5-.1-1-.18-1.5-.25l-.29,0c-.26,0-.53-.08-.79-.1l-.43-.05c-.51,0-1-.09-1.52-.11a26.49,26.49,0,0,0-10.4,1.95c-5.66,2.12-10.47,5.27-13.15,5.83-1.85.39-3.95,2.18-6,4.2-.15.15-.3.29-.44.44l-.45.44-.44.44-.88.89-.86.86a17.2,17.2,0,0,1-4.24,3.4c-3.55,1.55-4.44-.22-9.33-1.56s-24.22,0-24.22,0,0-.33-.09-.92c0-.14,0-.28,0-.44,0-.31-.06-.68-.1-1.08s-.05-.64-.09-1-.06-.72-.1-1.12,0-.53-.07-.81c-.06-.69-.13-1.44-.2-2.22-.14-1.56-.29-3.28-.45-5.07l-.09-1.08c-.09-1.08-.18-2.18-.28-3.27l-.09-1.09c-.09-1.09-.17-2.17-.26-3.22,0-.35,0-.7-.08-1-.05-.68-.1-1.35-.15-2S399.21,138.45,399.17,137.85Z"/><path class="cls-7" d="M563.08,269.44l-6.42,7.14v28.94l-9,16.37,0,0-.12-.17c-.26-.38-.52-.76-.79-1.12s-.63-.85-1-1.26-.49-.63-.74-.93c-.55-.67-1.1-1.32-1.68-1.95-.39-.45-.8-.88-1.22-1.31a61.6,61.6,0,0,0-4.5-4.26c-.25-.22-.49-.43-.73-.62-1-.83-2-1.61-2.94-2.34l-.06,0c-.47-.36-.93-.7-1.39-1q-1.45-1.05-2.82-1.95c-2.06-1.37-4-2.51-5.6-3.41q-.24-.15-.48-.27c-.43-.24-.83-.46-1.22-.66l-.59-.3c-1.35-.71-2.32-1.16-2.75-1.35-3-1.34-5.48-1.93-11.85-15.11a34,34,0,0,0-1.8-3.31c-.18-.3-.37-.58-.55-.84s-.35-.51-.53-.73c-3.1-4.06-5-2.37-5.75-2.88-.31-.2-.44-.75-.41-2.17.15-5.92-4.59-12-4.59-12-6.22,3.26-3.41-7.11-8.89-.15-2.84,3.61-4.05,3.84-4.9,2.9s-1.29-2.79-2.51-3.93h0a4.39,4.39,0,0,1-1.2-2h0c0-.14-.07-.29-.1-.43a7.84,7.84,0,0,1-.07-1.42c0-.75.11-1.32-.11-1.54a.35.35,0,0,0-.28-.11,1.1,1.1,0,0,1-.77-.3,2.27,2.27,0,0,1-.45-.57,17.93,17.93,0,0,1-1.15-3.27c-.74-2.52-10.23-8.6-12.3-10.67l-.31-.3c-.32-.31-.65-.61-1-.9s-.86-.78-1.24-1.16c-.84-.87-1.43-1.69-1.26-2.46a2.25,2.25,0,0,1,.08-.24.2.2,0,0,0,0-.08,1.36,1.36,0,0,1,.12-.17.46.46,0,0,1,.07-.1,2.13,2.13,0,0,1,.21-.22c1.78-1.63-.44-2.67-.89-3.56s-3-4.74-2.52-3.4-3.7,1.63-3.7,1.63h0a6,6,0,0,0,1.18-.71c.11-.09.16-.18.09-.22s-1.13-.06-3.95.68c-3.41.89-3.64-.66-3.47-1.93,0-.17.06-.34.08-.49a1.68,1.68,0,0,0,.06-.27c.07-.33.12-.57.06-.62s-.26,0-.69.46l-.5.53-.31.35-.26.27c-4,4.08-7.41-.68-7.52.73s-.11.56-3.78,1a12.35,12.35,0,0,1-9.78-2.77,6.18,6.18,0,0,1-1.57-2.21c-.19-.43-.36-.89-.52-1.36-.27-.82-.52-1.68-.8-2.53-.08-.25-.16-.49-.25-.73s-.09-.23-.14-.35a9,9,0,0,0-.64-1.37,6.89,6.89,0,0,0-.4-.64,5.39,5.39,0,0,0-.47-.6,4.66,4.66,0,0,0-.54-.55,6.47,6.47,0,0,1-1.94-3.07c-.05-.19-.1-.38-.14-.57a14.84,14.84,0,0,1-.25-1.87,5.06,5.06,0,0,0-.45-2.26c-.89-1.23-2.44-5.45-1.89-10.23s-2.11-7.77-3-10a10.08,10.08,0,0,0-1.37-2.06c-1.71-2.18-4.52-5.11-6-6.57a2.49,2.49,0,0,0-.23-.23,4.36,4.36,0,0,0-.36-.37l-.14-.14a.46.46,0,0,0-.1-.1.28.28,0,0,0-.06-.06v0a8.15,8.15,0,0,0,.62-3.81,2.62,2.62,0,0,0-.53-1.26,2.08,2.08,0,0,0-.53-.49,3.55,3.55,0,0,1-.31-.23,3.34,3.34,0,0,1-.77-3.13,7.14,7.14,0,0,1,.19-.82c0-.13.07-.24.11-.34a2.56,2.56,0,0,1,.09-.26c0-.13.08-.22.1-.27s0,0,0,.06a.15.15,0,0,0,0,.07c-.05.37.19,1,3.49-1.3,4.23-2.89,11.12,1,16.67.33s4.56,0,10.33,1.45c5.46,1.36,11.81-3.42,12.5-4l0,0h0l0,0a.17.17,0,0,0,.06-.06l.11-.09.13-.13c1.45-1.33,7.31-6.69,8.68-7.37,1.56-.78,6.78-.44,6.78-.44s4.33-5.67,13.66-6.78a14.91,14.91,0,0,1,3.27,0c.26,0,.51,0,.76.09l.36.06.51.09a8.63,8.63,0,0,1,.88.2l.65.17a23.14,23.14,0,0,1,3.27,1.21l.66.31.63.32c.63.33,1.23.67,1.81,1a70,70,0,0,1,6.54,4.77c1.11.72,6.75-.23,13.43-.82l7.45,11.51,10.27,16.53V193l5.18,5.05,2.88,23.08-3.64,5.4L542.35,237l5.33,2.83,9,6.56C560.48,249,563.08,269.44,563.08,269.44Z"/><path class="cls-8" d="M468.34,849.32c-2.08.29-3,11.85-3.86,11.85h-6.87l-5,3-5.95,6.06-1-11.83c.66-4.08,3-6.13,7.05-7.84,7.33-3.11,8.89,5.33,2-34.22-6.47-37.1-7.25-21.62-15.57-35.69-.56-.93-1.14-2-1.76-3.2-4.39-8.58-2.83-12.12.25-14.77,0,0,15.58,17.05,16.47,21.79s6.23,11.56,6.82,13.63,5.63,12.44,5.33,15.41,0,13.33,0,13.33l2.07,15.11S470.41,849,468.34,849.32Z"/><path class="cls-9" d="M638.28,423.85l-2.63,10.6-4.06,2.89-4,12.57-1.77.21c-1.78.2-9.34,6.9-9.34,6.9a57,57,0,0,1-14.07,7.44c-8.29,3-3.7,1.9-9,4.12s0,2.22,0,2.22,11.11-2.22,14.22-2.22,5.34,0,6.71,2.91,4.85,5.09,4.41,7.31-2.67,8-4.41,8.8-5.82,5-8.93,4-1.78,1.41-5.33.08,0,0-15.11-6.22,0,0-3.11-4-1.78-3.56-5.78-8-1.91,0-1.91,0l-5.65,4.44H552.4c-16.09,0-4.81-2.22-7.3-2.67s-10.38,3.28-8.17,5.78,2.69,10.59,2.69,10.59l-14,5s5.48,2.66,6.8,1.88,1.79,7,0,14.56,0,9.78,0,12-13.32,8-14.65,9.78,7.55.89,12.44,1.78,0,0,3.11,1.69,2.22,1.66,2.22,1.66l-1.33,5.74,2.22,6.46,3.14,6.46s1.75,8.21,0,9.54,7.53,7.56,7.53,7.56l.89-5.36a42,42,0,0,0,8.89,2.39c4.44.59,8.44,12.75,8.44,12.75L555.59,597s1.78-1.33,5.34,0,2.66,4,1.33,4.89-1.33,6.22-1.33,6.22,4.89,8.89,6.22,16,0,1.78-5.33,4.61-4.45,4.28-7.11,3,0,0-2.31-3a23.13,23.13,0,0,0-4.81-4.61s.89,8,0,12.39-4,1-8,0-1.8-5.28-1.4-7.78-7-2.83-7-2.83l-1.81,7.56s4,11.55,1.81,15.11,1.75,14.22,0,20.44-4.47,11.56-6.23,23.9.87,9.88,2.64,11.05,5.78,6.39,6.67,8.61-4,3.55-9.31,5.78-9.36,5.33-15.36,8.77-3.27,8.56-3.27,8.56l3.27,7.11a97.22,97.22,0,0,1,18.89-2.93c8.89-.26,6.23,4.71,2.7,6S521,755.56,521,755.56v6.8s7.94-3.56,10.19-5.24,0-5,0-5,15.53,2.23,17.75,3.43c0,0,1.33-12.32,1.78-13.65s10.66-8.49,10.66-12.85c0-2.12.84-2.17,1.71-1.67a8.7,8.7,0,0,1,1.85,1.67l-1.78,4.36s6.22,5.38,8,6.45,4-2,4-2h5.33l12.45,2,5.78,6.93s1.77,4-2.23,8.76-6.66,0-6.66,0l-13.34,1.56-9.77,6.12s-6.72,3.37-14,6.11c-5.15,1.94-10.59,3.57-14.17,3.5-8.66-.18-7.8-.16-13.56,2.22-4.49,1.86-4.39,4.44-4.12,5.48h0a2.15,2.15,0,0,0,.16.46s6.16,2.67,7.94,4,15.88,6.22,15.88,6.22a18.66,18.66,0,0,1,2.39.24,61.16,61.16,0,0,1,6.62,1.43c6.22,1.67,12.44-.33,13.77,0s3.12,9.89,3.12,9.89l-8.45,1.33c-8.44,1.34,0,2.67,0,6.67s0,0-4.67,4.44-6.44,9.34-6.7,11.12-4.18,10.66-3.74,12.44,4.89,6.67,3.46,9.47a10.56,10.56,0,0,1-3,3.86l-2.78,3.11a44.58,44.58,0,0,0,5,5.34c1.77,1.33,0,16.44,0,16.44h-5l-13.62,5.78s-.48,4.89,0,7.11c.33,1.58-5,2.48-9,2.72l-3.73,15.06L525,928.43l16.27,116.74,11.86,57.19-6.52-3-3.56,3,4.74,24.29s3.26,11.56,5.34,14.52,6.22,9.48,6.22,9.48L557.59,1161l-2.44,5.56s.89.22-3.85,0-8.89,0-8.89,0-3.94,7.78-4.19,9.26,1.23,8.29,3.3,11.26-1.48,12.44.3,14.51,17.48,10.67,17.48,10.67,6.22,5.93,8.59,4.45,7.41-9.71,7.41-9.71a39.2,39.2,0,0,0,3.55,3.48c1.49,1.19,7.56,9.57,7.56,9.57H438.71v-74.66s4.84-18.67,5.74-22.23-5.74-8.88-5.74-8.88l5.74-16.89v-30.23l-13.52-47.11,13.52-26.66-7.34-48.89,9.38-40.78s4.68-14.78.9-30.33c-1.7-7-2.28-11.71-1.72-15l1,11.83,5.95-6.06,5-3h6.87c.89,0,1.78-11.56,3.86-11.85s0-7.41,0-7.41l-2.07-15.11s-.31-10.37,0-13.33-4.74-13.34-5.33-15.41-5.93-8.89-6.82-13.63-16.47-21.79-16.47-21.79c3.93-3.39,10.35-5.34,10-14.57-.67-16.44-12-24-12-24a30.46,30.46,0,0,0-6.89-19.77c0-24.23-8.67-16.23-8-23.34.65-6.9-5-11.28-5.31-11.54l3.76.88.44-2.67,4.88.22,2.23,1.11-2.23,4.67,1.33-1.78,1.12,3.78,1.11-1.78,2.89-2,3.55,2-1.55-5.11-4.45,2s9.79-13.78.23-23.78-4-8.22,1.33-20.44-7.56-20.22-7.56-20.22,15.33-12.23,8.9-23.34-14.22-3.11-14.22-3.11,3.77-11.78,12.22-18.67,5.55-21.55,7.55-35.55,5.34-16.45,37.55-29.11,38.68-.22,40.45-5.78,6.67-8.89,11.34-11.33a10.55,10.55,0,0,1,8.44-.89s-.23-10.89,9.1-13.34,6.46,8.45,19.35,6.23,6.65-4.67,20.65-4.89,23.57-9.78,23.57-9.78c6.43-12.67,13.78-12.22,15.33-15.33S625.49,429.46,638.28,423.85Z"/><path class="cls-10" d="M1247.49,453.54v450.2l-1.73,316.33H586.41s-6.07-8.38-7.56-9.57a39.2,39.2,0,0,1-3.55-3.48s-5,8.22-7.41,9.71-8.59-4.45-8.59-4.45-15.71-8.59-17.48-10.67,1.77-11.55-.3-14.51-3.56-9.78-3.3-11.26,4.19-9.26,4.19-9.26,4.15-.22,8.89,0,3.85,0,3.85,0l2.44-5.56,1.71-10.37s-4.15-6.52-6.22-9.48-5.34-14.52-5.34-14.52L543,1102.36l3.56-3,6.52,3-11.86-57.19L525,928.43l-6.54-20.74,3.73-15.06c4.06-.24,9.37-1.14,9-2.72-.47-2.22,0-7.11,0-7.11L544.81,877h5s1.77-15.11,0-16.44a44.58,44.58,0,0,1-5-5.34l2.78-3.11a10.56,10.56,0,0,0,3-3.86c1.43-2.8-3-7.69-3.46-9.47s3.48-10.67,3.74-12.44,2-6.67,6.7-11.12,4.67-.44,4.67-4.44-8.44-5.33,0-6.67l8.45-1.33s-1.78-9.56-3.12-9.89-7.55,1.67-13.77,0a61.16,61.16,0,0,0-6.62-1.43,18.66,18.66,0,0,0-2.39-.24s-14.1-4.88-15.88-6.22-7.94-4-7.94-4-1.8-3.57,4-5.95,4.9-2.4,13.56-2.22c3.58.07,9-1.56,14.17-3.5,7.31-2.74,14-6.11,14-6.11l9.77-6.12,13.34-1.56s2.66,4.76,6.66,0,2.23-8.76,2.23-8.76l-5.78-6.93-12.45-2h-5.33s-2.22,3-4,2-8-6.45-8-6.45l1.78-4.36a8.7,8.7,0,0,0-1.85-1.67c-.87-.5-1.71-.45-1.71,1.67,0,4.36-10.22,11.52-10.66,12.85s-1.78,13.65-1.78,13.65c-2.22-1.2-17.75-3.43-17.75-3.43s2.24,3.32,0,5S521,762.36,521,762.36v-6.8s6.66-8.32,10.19-9.65,6.19-6.3-2.7-6a97.22,97.22,0,0,0-18.89,2.93l-3.27-7.11s-2.74-5.12,3.27-8.56,10.05-6.55,15.36-8.77,10.2-3.56,9.31-5.78-4.89-7.45-6.67-8.61-4.39,1.29-2.64-11.05,4.47-17.68,6.23-23.9-2.2-16.89,0-20.44-1.81-15.11-1.81-15.11l1.81-7.56s7.44.33,7,2.83-2.57,6.84,1.4,7.78,7.09,4.39,8,0,0-12.39,0-12.39a23.13,23.13,0,0,1,4.81,4.61c2.31,3-.36,1.62,2.31,3s1.77-.12,7.11-3,6.66,2.5,5.33-4.61-6.22-16-6.22-16,0-5.33,1.33-6.22,2.22-3.55-1.33-4.89-5.34,0-5.34,0l9.78-11.55s-4-12.16-8.44-12.75a42,42,0,0,1-8.89-2.39l-.89,5.36s-9.27-6.22-7.53-7.56,0-9.54,0-9.54l-3.14-6.46-2.22-6.46,1.33-5.74s.89,0-2.22-1.66,1.78-.8-3.11-1.69-13.78,0-12.44-1.78,14.63-7.56,14.65-9.78-1.8-4.44,0-12,1.31-15.34,0-14.56-6.8-1.88-6.8-1.88l14-5s-.48-8.09-2.69-10.59,5.67-6.22,8.17-5.78-8.79,2.67,7.3,2.67h16.08l5.65-4.44s-2.09-4.45,1.91,0,2.67,4,5.78,8-12-2.23,3.11,4,11.55,4.89,15.11,6.22,2.22-1,5.33-.08,7.2-3.2,8.93-4,4-6.58,4.41-8.8-3-4.4-4.41-7.31-3.59-2.91-6.71-2.91-14.22,2.22-14.22,2.22-5.33,0,0-2.22.75-1.12,9-4.12A57,57,0,0,0,616.48,457s7.56-6.7,9.34-6.9l1.77-.21,4-12.57,4.06-2.89,2.63-10.6c12.77-5.61,11.33-13.78,11.33-13.78l5.56,1.56s.65-29.56,1.11-34.22,0-28.67,2.21-34.67,8.45-9.33,12.68-6.89,9.77,4.45,23.11,5.11a121.93,121.93,0,0,1,23.77,3.56l-3.11-2.22c16.67-10.45,14.45-2.67,24.45.66s12.22,19.56,12.22,19.56a25.41,25.41,0,0,1-2.89,8.66c-2.44,4.45-.23,16.67-.23,16.67l-5.55-1.11-1.33,2,2.21,3.56,3.79-.67s2.21,8.22,4.44,15.11,11.12,7.56,15.12,8.67,7.77,5.11,8.65,2,8.9-3.11,8.9-3.11c-.23-3.34,3.1-12.67,6-12.23s.22,3.56,20.22-3.33-7.12,4.89,8.67-1.11-.19-20.94,37.33-10.67,1.34,42.67,32.23,45.34,15.77-10.67,42.44-18.45,25.78,1.33,19.56,16.95,10,20.38,15.77,15.94S1020.49,435,1020.49,435s-5.77,8.89-6.21,13.78c-.31,3.36,5.48,13.13,15,18.76a29,29,0,0,0,10.11,3.78,25.53,25.53,0,0,0,4.91.35c8.71-.22,15.66,3.16,21.82,4.33,5.87,1.12,11,.23,16.33-7.73h0c.6-.92,1.22-1.93,1.84-3.05,11.33-20.48,20.31-20,20.65-20-.13,0-2.21-.22,5.35-15.44,7.77-15.67,16.89-9.22,24-5.89s3.54,14.22-.89,18.45a14,14,0,0,0-4.45,9.33l3.11-1.33-2.88,5.11s6.44-3.34,2,2.66-2,14.23-2,14.23l2.65-3.93.67-3.41,2.45,3.41.23-4.3,2.22,3.34,2.89-1.11-3.11-3.56h3.11l-4.67-5.78s7.78.45,12.88,2.45,8.23,1.11,15.79-4.45,11.77-.89,11.77-.89,7.56-2.44,6.89.45,6,5.33,6,5.33l.45,6.22s1.33-4.89,7.1.45,6.23-2.57,6.23-2.57,8.67,9.23,19.56-2.1,9.77-11.11,15.11-9.33,3.33,0,6.89,1.55C1246.53,455.06,1247.26,454.25,1247.49,453.54Z"/><line class="cls-1" x1="552.68" y1="769.35" x2="547.2" y2="791.48"/><polyline class="cls-1" points="563.08 727.39 635.65 434.45 637.82 432.91 639.59 428.32 639.59 426.36 638.28 423.85"/><path class="cls-10" d="M1247.5-44.26V417.17c-8.29-.46-4.16-3.76-15.44-4.43s-15.12,5.78-15.12,5.78c-15.77-1.11-4.88,1.11-20,1.11-5.67,0-9.52.34-12.62,1.31-5.15,1.62-8.21,5-14,11.36-9.34,10.22-7.56,21.55-20,21.33s-12-10.67-8.45-18,2.89-12.45-4-12.89-10.44-16.44-28.44-9.78-26.45,30.45-29.33,33.34-4,7.77-11.34,13.54-35.78,5.79-43.11-2-1.78-21.11-1.78-21.11l-2.22-7s-2.89,1.44-32,7-31.11,9.33-29.33-10.22-8.89-20.45-18-21.11-19.56,9.55-38.45,15.33-24-10.22-21.77-20.44-18.45-34.89-20.23-32-32,4.66-35.33,4.66-8.89,6.89-26.22,13.11A35.25,35.25,0,0,1,790,388.41c-7.9.33-9.52-4.5-13-6.34-4.66-2.44-4.66-6.89-11.11-15.33-3.48-4.56-3.46-6.4-3.12-7,.65-.26.24-.45,0,0l-.43.13c-2.67.67-2.67-1.78-8.22-12.67S750.5,339,742.28,332.3a17.36,17.36,0,0,0-8.94-3.8h-.12a14.65,14.65,0,0,0-1.83-.14,20.11,20.11,0,0,0-7.11,1.06s-23.11-1.34-31.11.22-10.67,2.44-19.78,1.33-7.56-.44-12.22-2.89-8.67.45-14.67,1.78-9.78,15.78-10,21.33,2.83,9.67,2.33,11.34a62.09,62.09,0,0,0-1.22,11.78c.17,2.5,2.56,13.94,5.67,17s2.44,7.38,2.33,10.83-.11,11-.11,11-6.78-.45-7.22,3.67-1.89,4.05-2.95,5.5-9.22,5.61-9.83,7.16-6.22,1.61-5.44,7.56-2.23,4.89-4.34,5.11-3.66-1.78-4.94-2.67-3.28,1-6.22,1.61-3.23-.83-3.23-.83c-.22,2.33-1.05,5.17-5.89,8.67s-3.61-4.73-7.38,2.39-12.78,9.22-12.78,9.22c-17.89,2.11-16.45-1.11-16.67-6.11s-.22-5.23-3.44-5.67-9.89-.33-11.56-4.67-4.78-4.11-7.67-6.33-1.88-9.78-1.88-9.78c-21.78-24.22-11.56-38.78-11.56-38.78s2.11,13.89,4.67,20.67,7.66,7.56,7.66,7.56c-.66-7.34,4.78-6.56,4.78-6.56s-2.44-.78-.22-4.55,3.44-7.78,6.22-11.89-.15-14.63,5.78-21.45-3.56-11,1.18-23.55,1.19-12.6,1.19-12.6a36.47,36.47,0,0,0-6.07-14.92l9-16.37V276.58l6.42-7.14s-2.6-20.42-6.42-23.08l-9-6.56L542.35,237l-15.5-10.47,3.64-5.4L527.61,198,522.43,193v-7.9l-10.27-16.53L504.71,157c2.58-.23,5.32-.4,8-.4,9.67,0,4.42-8.45,9-2.67s11.24,6.11,14.24,2.45,8.78-4.11,8.78-4.11,1.78-5.56,9.89-7,6.56-2.12,11.78-3.89,26.22,7.44,33.67,7.66,15.33-3.66,25.88-7.66,7.89-12.56,7.89-12.56-2.44-3.67-1.22-16.33,12-15,12-15,6.52-2.37,9.63-5,4.3-8.89,10.37-13.34,10.67-5.48,10.67-5.48l-1.33-.86-1.19-.77-6.07,4.3s-8.74,2.81-11.11,9-7.71,10.37-12.3,11.4-9.33,8.74-9.33,8.74l-3.85,6.67s-2.23,4.45-.45,7.56,1.93,11.85-1.48,17.18-14.52,5.48-14.52,5.48l3.4-6.94c-.26.4-4.39,6.86-7.55,8.72s-14.22,3.71-24.44-2.07-19.56-5.93-20.45-5.63-2.07,3.55-5,5.33-5.63-2.07-12.15,1.48-8.45,7.85-9.56,5.41-13.55-3.78-16.44-2-7.56,1.78-8.45,1.78-4.22-5.78-8.66-.45A23.1,23.1,0,0,1,501,151.3l-8.92-13.78-4.49-5.07-13-6.73-6.93-3.57-17.33,9.93-10.75.37-.82-10.3,3.07-8.3L431.14,102l-3.43-14.94-9.36-10.5-7-14,7.53-12L417,46.36V8.13L411.16-6.65s-.9-15.44.17-19-.17-18.61-.17-18.61Z"/><path class="cls-7" d="M547.69,321.89h0v0Z"/><path class="cls-11" d="M509.08,151.93s-.15,1,.15,1-1.26.89-1.63.89H504l-.29-.89s2.59-4,5.4-3S509.08,151.93,509.08,151.93Z"/><polygon class="cls-11" points="515.23 151.81 512.49 153.41 510.33 153.41 512.49 151.81 515.23 151.81"/><polygon class="cls-11" points="532.12 150.52 522.42 149.78 526.27 147.63 532.12 150.52"/><polygon class="cls-11" points="534.34 149.78 533.68 150.18 530.6 148.07 534.34 149.78"/><path class="cls-11" d="M535.6,151.81s-2,3.49-3.41,3.15-2.59-2.35-2.59-2.35Z"/><polygon class="cls-11" points="528.49 152.61 527.6 154.18 526.23 152.93 528.49 152.61"/><polygon class="cls-11" points="530.6 155.15 528.49 157 527.6 155.89 530.6 155.15"/><polygon class="cls-11" points="534.68 156.18 532.64 157.52 530.6 157.22 533.01 155.15 534.68 156.18"/><path class="cls-11" d="M613.1,445.35c-3,2.67-5.72,5.45-6.61,7.72s-.94,2.23-3.72,2.67-3.34,2.94-5.06,3S592.1,456,588.1,457c-.38.09,2.22-5.28,4.83-5.55a24,24,0,0,0,5.5-1.45,44.75,44.75,0,0,0,3.06-4.83c.17-.72,1.61-1.95,3.44-2.06s2.39-2,3.67-1.5,1,2.34,2.56,2.17S616.1,442.68,613.1,445.35Z"/><path class="cls-11" d="M573.05,466.63a3,3,0,0,1-2.89-.72,12.73,12.73,0,0,1,3.11-1.45C574.1,464.41,574.77,466.13,573.05,466.63Z"/><path class="cls-11" d="M545.32,456.63s-.27-8.33-.22-8.5c0,0,.78-.17,1.11,1.33S545.32,456.63,545.32,456.63Z"/><polygon class="cls-11" points="534.43 441.18 530.49 446.85 532.88 440.3 534.43 441.18"/><polygon class="cls-11" points="416.29 638.67 412.86 641.85 413.18 642.5 415.23 646.74 412.12 646.74 408.56 641.63 406.29 639.79 405.9 639.48 405.3 637.55 409.45 639.48 414.34 636.52 417.01 638 416.29 638.67"/><path class="cls-11" d="M388.49,560s-8-6.5-8.37-12.64,6.66,1.7,8.54,5.81S388.49,560,388.49,560Z"/><path class="cls-11" d="M376.7,541.59s-3.24-3.94.17-3.25S376.7,541.59,376.7,541.59Z"/><path class="cls-8" d="M387.82,552.67a5.94,5.94,0,0,1-.14,5.92s-7-5.63-7.26-11S386.19,549.11,387.82,552.67Z"/><polygon class="cls-8" points="534.43 441.18 530.49 446.85 532.88 440.3 534.43 441.18"/><path class="cls-8" d="M545.32,456.63s-.27-8.33-.22-8.5c0,0,.78-.17,1.11,1.33S545.32,456.63,545.32,456.63Z"/><path class="cls-8" d="M573.05,466.63a3,3,0,0,1-2.89-.72,12.73,12.73,0,0,1,3.11-1.45C574.1,464.41,574.77,466.13,573.05,466.63Z"/><path class="cls-8" d="M602.77,455.74c-2.78.44-3.34,2.94-5.06,3S592.1,456,588.1,457c-.38.09,2.22-5.28,4.83-5.55a24,24,0,0,0,5.5-1.45,44.75,44.75,0,0,0,3.06-4.83c.17-.72,1.61-1.95,3.44-2.06s2.39-2,3.67-1.5,1,2.34,2.56,2.17,4.94-1.06,1.94,1.61-5.72,5.45-6.61,7.72S605.55,455.3,602.77,455.74Z"/><path class="cls-12" d="M509.58,491.61s-2.43,6.3-2.43,9.41v15.55l-3.12,8-1.77,15.35v36.21l-3.56,32-6.62,11.56,2.18,9.33-2.18,16-7.6,11.55-2.22,11.56v15.11l.11,11"/><path class="cls-12" d="M469.59,498.46l-4,5.23-5.11,3.77s-3.53,4.23-2.88,4.89-.08,3.56-.08,3.56l-5.26,6.44-3.56,8.89-2.67,6-2,8.42-2,4.25v6.89s-1.75,5.08-1,6.45.78,10.66.78,10.66l-1,5.55-2.14,9.78,1.33,6.22v3.78l-1.33,9.56,1.56,6.89,2.22,9.33s1.78,8.22,2.44,8.67,2.23,4,2.67,4.66a41.8,41.8,0,0,1,1.56,5.11l3.11,4.23,4,4.44L462,656.8s2.45,4.22,2.67,4.89,3.78,4.22,3.78,4.22l5.55,1.33-1.77,8.89-.45,7.78-.89,7.78v4.88s-1.77,5.67-1.55,7.39-1.56,6.84-1.56,6.84l-2,5.55-.44,4.22-1.78,5.78s-.67,5.11-.44,6.22-.23,9.12-.23,9.12l.45,5.11s-1.78,6-1.78,6.89,1,1.84,0,3.43c-5.22,8,0,1.9,0,1.9"/><path class="cls-12" d="M513.59,769.12c-.89.12-2.89-8.1-2.89-8.1s-8.22-11.22-8.67-11.5-7.33-12.72-7.55-13.39-6.22-9.78-6.22-9.78l-4.67-11.55v-6.89l-1.65-10.2"/><polyline class="cls-12" points="513.59 771.24 509.58 769.12 504.26 763.69 495.92 757.12 490.7 753.02 485.15 749.52 480.04 746.35 472.27 744.35 470.04 743.46 466.48 741.69 463.02 739.87"/><path class="cls-12" d="M464.48,806.8l7.79-2.67h12.65l8.45-3.56s4.89-6.66,5.33-7.33,7.33-2.67,7.33-2.67,10.45-1.11,11.78-1.33,3.56-2.67,3.11-3.55,0-6.67,0-6.67"/><path class="cls-12" d="M643.23,96.81s-.15-5.63-1.92-6.81-8.3-.41-6.52-3.32A8.09,8.09,0,0,0,636,81.11a5.88,5.88,0,0,1-1.49-2.67c-.28-1.48,2.09-4.74,2.09-4.74s-3-3.55-.3-4.44,8.59-2.67,8.59-4.15a34.62,34.62,0,0,1,0-5.51,12.05,12.05,0,0,0,0-3.67s3.56-2.67,2.08-4.15.72-3.85.36-5.93-4.51-3-5.1-3.85,4.06-4.15,5.14-3.85-4.55-3.26-1.59-5.93,5-6.52,6.22-8.29-.59-12.15,0-13.34A43,43,0,0,1,660.27.22c5-4.74-1.78-8.89-1.78-8.89s3.85.89,5.34-1.78,2.37-13.92,4.44-15.7a26.15,26.15,0,0,0,3.56-3.8s-6.23-4.49-3-6.57,6.52-3.93,6.82-7.74"/><path class="cls-12" d="M673.9,72.84s15.41.27,23.41-3.29S719,56.61,729.36,50.93s15.95-7.75,18.91-12.49S756.86,18,766.05,16.81s18.37-.59,20.44-12.74-.89-20.44,8.3-24.89,13-8.59,12.74-13.33,11.85-10.11,11.85-10.11"/><path class="cls-12" d="M975.53-44.26S916.86.52,913-1s-8.59-3-19,1.77-13,5.63-16.6,9.78-3.55,0-3.55,0l-3.26,3.7L866.2,13s-8,2.08-8.6,3.56.89,5.63-1.48,7.41S852.86,31,852.86,31a42.76,42.76,0,0,1-1.48,12.44c-1.78,5.93-6.22,11.85-6.22,11.85s-4.15,1.78-7.41,9.48S831.53,79.93,825,87.93s-16.89,29.33-16.89,29.33a16.93,16.93,0,0,1-11.26,6.52c-7.41.89-10.07,4.15-10.07,4.15s-3.56,1.48-11,3.85-7.71,3.85-12.45,7.4-15.41,8.3-15.41,8.3-.29,11.85-9.48,18.67-4.74,8.59-9.18,13.33-25.78,23.41-25.78,23.41l-12.74,2.37s-4.13-4.15-7.55-4.15-6.08-3.26-8.75,0-30.22,18.46-35.85,25.38-11.56,14-10.67,14-18.66,19.85-18.66,19.85-1.19,13-5,15.7-12.44,5-12.44,5-14.82-1.48-16.6,0a72.59,72.59,0,0,1-6.22,4.15l-2.67-3.56-3.55.89s-21.93-3.26-24.59-4.44-15-13.93-17-13.93-13.12,2.67-14.22,2.37-6.15-8.59-6.15-8.59-3.55-12.74-5-14.22-15.2-14.52-17.83-15.11"/><path class="cls-12" d="M951.23-25.65s9.19,11.06,10.08,12.24a72.36,72.36,0,0,0,5.92,5.34L969.6-1l15.71,15.25,8,23,15.11,18.07,25.18,29.93,45.34,53.33,1.51,13,6.49,16.3,11,5.33,24.89,16.89,14.52,9.78,8.31,3.85,9.46,7.7,10.08-3,15.41,1.33,11.85,4.59,16.89,3,8.59,3.85,7.7,15.41-9.48,22.81-5.92,8.3-11,10.07-4.09,7.41L1180,293.55l-19.26,18.08.3,30.81-2.37,9.49v7.4l-7.78,2.67s-2.44,5.93,0,8l-3.18,10.07s1.52,2.67,0,4.15-2.32,8.82-2.32,8.82l-1.7,2.74"/><path class="cls-8" d="M509.08,151.93s-.15,1,.15,1-1.26.89-1.63.89H504l-.29-.89s2.59-4,5.4-3S509.08,151.93,509.08,151.93Z"/><polygon class="cls-8" points="515.23 151.81 512.49 153.41 510.33 153.41 512.49 151.81 515.23 151.81"/><polygon class="cls-8" points="528.49 152.61 527.6 154.18 526.23 152.93 528.49 152.61"/><polygon class="cls-8" points="528.49 157 527.6 155.89 530.6 155.15 528.49 157"/><polygon class="cls-8" points="526.27 147.63 532.12 150.52 522.42 149.78 526.27 147.63"/><polygon class="cls-8" points="530.6 148.07 534.34 149.78 533.68 150.18 530.6 148.07"/><polygon class="cls-8" points="532.64 157.52 530.6 157.22 533.01 155.15 534.68 156.18 532.64 157.52"/><path class="cls-8" d="M535.6,151.81s-2,3.49-3.41,3.15-2.59-2.35-2.59-2.35Z"/><polygon class="cls-8" points="600.93 458.74 603.88 457.02 602.66 459.07 600.93 458.74"/><path class="cls-13" d="M762.7,359.72c.24-.45.65-.26,0,0Z"/><polygon class="cls-13" points="603.88 457.02 602.66 459.07 600.93 458.74 603.88 457.02"/><path class="cls-13" d="M762.7,359.72c.24-.45.65-.26,0,0Z"/><path class="cls-12" d="M400.39,31s4.32-6.29,4.92-9S400,11.93,402,6.3s.7-19.71.91-24-6.75-26.56-6.75-26.56"/><path class="cls-12" d="M404.6,87.08a10,10,0,0,0,3.22,5.29c2.61,1.95,2.08,8,5.63,13a31.5,31.5,0,0,1,4.6,11.54"/><path class="cls-12" d="M421.6,140.3s-4.89,6.73-1.63,9.48,8.58,3.31,16.59,4.8"/><path class="cls-12" d="M461.42,149.13a24.84,24.84,0,0,1,.39-5.34c.53-2.79,1.72-5.79,4.39-6.68a107.41,107.41,0,0,0,11.8-5"/><path class="cls-12" d="M478,138s-.84-1.78-6.47,1.48a43,43,0,0,1-9.72,4.31"/><path class="cls-12" d="M462.2,229.11c.44.59,3.55,5.48,3.55,5.48L473,234"/><path class="cls-12" d="M471.23,231.85s9.34-2.44,10.08-2.15"/><line class="cls-12" x1="481.31" y1="226.37" x2="481.31" y2="236.96"/><line class="cls-12" x1="499.68" y1="239.33" x2="491.63" y2="239.79"/><path class="cls-12" d="M547.68,227.18l-1.34,1.93s-8.44-.59-9.92-1-9.15-11.63-9.15-11.63l-6.11-3.41s-38.37-13-39.85-13.63l2.07-4-2.81,4.15L473,202.15l-10.81,9.33L453,215.33l1.63,1.19,5.93-2.22-1.11-4.45h2.35l1.72,5.33"/><path class="cls-12" d="M444.12,164.12s-1.63,5.29-1,8.55.46,23.55.46,23.55l3.4,2.82H453L457.6,193"/><polyline class="cls-12" points="439.53 205.26 439.53 207.93 442.95 209.85"/><polyline class="cls-12" points="443.54 196.22 443.54 201.7 446.2 207.55"/><polyline class="cls-12" points="453.01 207.55 452.27 203.93 453.78 198.02"/><path class="cls-12" d="M443.54,201.07l8.73,2.86,5.33.37.67,2.33s11.78-10.22,14.11-13.45,5.69-10.44,6.74-11.33,26.59-11.16,26.59-11.16"/><polygon class="cls-12" points="455.38 211.3 458.27 206.63 459.46 209.85 455.38 211.3"/><path class="cls-12" d="M528,269.43l5.25-1.8,7.22-7.28,2.34-5.33h4.94l4.5-1.89a33,33,0,0,1,2.5,5.05,19.35,19.35,0,0,0,1.89,3.89"/><path class="cls-12" d="M591.83,281.11l4.44,12.74-2.22,19.33,10.66,34-4.88,11.34s-5.78,2.27-5.78,7.13-.45,21.09-.45,21.09-1.55,5.07,2,5.2,10,.53,10.89,0a10.17,10.17,0,0,1,6.89-.67c3.11.8,8.89,8.36,8.89,8.36a33.4,33.4,0,0,0,9.11,3.92c4.89,1.19,4.22.15,6.45,0a63.17,63.17,0,0,1,7.73.57"/><path class="cls-12" d="M596.27,293.85,607.6,299l.89,2.6,5.11-2.38,3.11,2.38,4.13,2.29,2.76,1.56h3.56l2.79,2h3.88l4.22,1.33,1.11,2.22,4.89-1.11h4.66l2.89,5.33s1.52,2.48,4,1.91,5.19-.95,5.19-.95"/><path class="cls-12" d="M733.33,328.5c3.82.27,12.33.8,16.72.46,5.77-.44,12.65,10.67,12.65,10.67l3.79,15.11s3.55,15.43,7.94,20.87,15.09,12.52,15.52,12.8h0"/><text class="cls-14" transform="translate(482.26 777.56)">Ambilalialika</text><text class="cls-15" transform="translate(496.75 170.69)">Miary</text><text class="cls-15" transform="translate(395.1 162.63)">Belalanda</text><text class="cls-16" transform="translate(430.71 226.37)"><tspan class="cls-17">T</tspan><tspan x="10.46" y="0">oliaria</tspan></text><text class="cls-15" transform="translate(620.84 105.42)">Behompy</text><text class="cls-15" transform="translate(701.28 59.6)">Ampanihy</text><text class="cls-15" transform="translate(938.51 437.34)">Ifanato</text><text class="cls-15" transform="translate(732.91 428.32)">Manorofify</text><text class="cls-18" transform="translate(733.6 373.45)">T<tspan class="cls-19" x="6" y="0">anandava</tspan></text><text class="cls-15" transform="translate(630.18 325.99)">Ambohimahavelona </text><text class="cls-16" transform="translate(405.31 570.32)">Anakao</text><text class="cls-15" transform="translate(422.98 702.59)">Andranotohoka</text><text class="cls-15" transform="translate(430.71 857.27)">Beheloka</text><text class="cls-16" transform="translate(524.95 432.9)">St Augustin</text><text class="cls-15" transform="translate(422.75 766.12)">Befasy</text></g></g></g></svg>