<svg xmlns="http://www.w3.org/2000/svg" xmlns:xlink="http://www.w3.org/1999/xlink" viewBox="0 0 764.39 848.01"><defs><style>.cls-1,.cls-9{fill:none;}.cls-2{clip-path:url(#clip-path);}.cls-3{fill:#fff;}.cls-4{fill:#a3d3d3;}.cls-5{fill:#d25c5c;}.cls-6{fill:#ffefe1;stroke:#684f2a;}.cls-6,.cls-8,.cls-9{stroke-miterlimit:10;stroke-width:0.75px;}.cls-7,.cls-8{fill:#fdfedb;}.cls-8{stroke:#0b6277;}.cls-9{stroke:#bf824b;}.cls-10,.cls-14{font-size:12px;}.cls-10,.cls-11,.cls-13,.cls-14{fill:#353535;font-family:LobsterTwo, Lobster Two;}.cls-11{font-size:21px;}.cls-12{letter-spacing:-0.17em;}.cls-13{font-size:29.18px;}.cls-14{letter-spacing:-0.17em;}.cls-15{letter-spacing:0em;}</style><clipPath id="clip-path"><rect class="cls-1" width="764.39" height="848.01"/></clipPath></defs><g id="Calque_2" data-name="Calque 2"><g id="ecretage"><g class="cls-2"><path class="cls-3" d="M308.61,695.56a5.94,5.94,0,0,1-.14,5.92s-7-5.63-7.26-11S307,692,308.61,695.56Z"/><path class="cls-3" d="M429.87,294.82s-.15,1,.15,1-1.26.89-1.63.89h-3.63l-.29-.89s2.59-4,5.4-3S429.87,294.82,429.87,294.82Z"/><polygon class="cls-3" points="436.02 294.7 433.28 296.3 431.12 296.3 433.28 294.7 436.02 294.7"/><polygon class="cls-3" points="449.28 295.5 448.39 297.07 447.02 295.82 449.28 295.5"/><polygon class="cls-3" points="449.28 299.89 448.39 298.78 451.39 298.04 449.28 299.89"/><polygon class="cls-3" points="447.06 290.52 452.91 293.41 443.21 292.67 447.06 290.52"/><polygon class="cls-3" points="451.39 290.96 455.13 292.67 454.47 293.07 451.39 290.96"/><polygon class="cls-3" points="455.22 584.07 451.28 589.74 453.67 583.19 455.22 584.07"/><polygon class="cls-3" points="453.43 300.41 451.39 300.11 453.8 298.04 455.47 299.07 453.43 300.41"/><path class="cls-3" d="M456.39,294.7s-2,3.49-3.41,3.15-2.59-2.35-2.59-2.35Z"/><path class="cls-3" d="M466.11,599.52s-.27-8.33-.22-8.5c0,0,.78-.17,1.11,1.33S466.11,599.52,466.11,599.52Z"/><path class="cls-3" d="M493.84,609.52a3,3,0,0,1-2.89-.72,12.73,12.73,0,0,1,3.11-1.45C494.89,607.3,495.56,609,493.84,609.52Z"/><polygon class="cls-3" points="521.72 601.63 524.67 599.91 523.45 601.96 521.72 601.63"/><path class="cls-3" d="M523.56,598.63c-2.78.44-3.34,2.94-5.06,3s-5.61-2.72-9.61-1.78c-.38.09,2.22-5.28,4.83-5.55a24,24,0,0,0,5.5-1.45,44.75,44.75,0,0,0,3.06-4.83c.17-.72,1.61-1.95,3.44-2.06s2.39-2,3.67-1.5,1,2.34,2.56,2.17,4.94-1.06,1.94,1.61-5.72,5.45-6.61,7.72S526.34,598.19,523.56,598.63Z"/><path class="cls-4" d="M1168.39-16.71H-457.72V1046.63h825s4.67-14.78.89-30.33-2-19.78,5.33-22.89,8.89,5.33,2-34.22-7.33-19.34-17.33-38.89,10.89-12.89,10.22-29.34-12-24-12-24a30.46,30.46,0,0,0-6.89-19.77c0-24.23-8.66-16.23-8-23.34.65-6.9-5-11.28-5.31-11.54l3.76.88.44-2.67,4.89.22,2.22,1.11-2.22,4.67,1.33-1.78,1.11,3.78,1.12-1.78,2.88-2,3.56,2-1.56-5.11-4.44,2s9.78-13.78.22-23.78-4-8.22,1.34-20.44-7.56-20.22-7.56-20.22,15.33-12.23,8.89-23.34S338,722.74,338,722.74s3.77-11.78,12.22-18.67,5.55-21.55,7.55-35.55,5.34-16.45,37.56-29.11,38.67-.22,40.44-5.78,6.67-8.89,11.34-11.33a10.55,10.55,0,0,1,8.44-.89s-.22-10.89,9.11-13.34,6.45,8.45,19.34,6.23,6.66-4.67,20.66-4.89,23.56-9.78,23.56-9.78C534.61,587,542,587.41,543.5,584.3s2.78-11.95,15.56-17.56S570.39,553,570.39,553l5.56,1.56s.66-29.56,1.11-34.22,0-28.67,2.22-34.67,8.44-9.33,12.67-6.89,9.77,4.45,23.11,5.11a122.12,122.12,0,0,1,23.78,3.56l-3.12-2.22c16.67-10.45,14.45-2.67,24.45.66s12.22,19.56,12.22,19.56a25.41,25.41,0,0,1-2.89,8.66c-2.44,4.45-.22,16.67-.22,16.67l-5.56-1.11-1.33,2,2.22,3.56,3.78-.67s2.22,8.22,4.45,15.11S684,557.19,688,558.3s7.77,5.11,8.66,2,8.89-3.11,8.89-3.11c-.22-3.34,3.11-12.67,6-12.23s.22,3.56,20.22-3.33-7.11,4.89,8.67-1.11-.19-20.94,37.33-10.67,1.34,42.67,32.23,45.34,15.77-10.67,42.44-18.45,25.78,1.33,19.56,17,10,20.38,15.77,15.94,53.56-11.78,53.56-11.78-5.78,8.89-6.22,13.78c-.31,3.36,5.48,13.13,15,18.76a29,29,0,0,0,10.11,3.78,25.53,25.53,0,0,0,4.91.35c8.72-.22,15.66,3.16,21.82,4.33,5.87,1.12,11,.23,16.33-7.73h0c.61-.92,1.22-1.93,1.84-3,11.33-20.48,20.31-20,20.65-20-.12,0-2.21-.22,5.35-15.44,7.78-15.67,16.89-9.22,24-5.89s3.55,14.22-.89,18.45a14,14,0,0,0-4.45,9.33l3.12-1.33L1050,598.3s6.44-3.34,2,2.66-2,14.23-2,14.23l2.66-3.93.67-3.41,2.44,3.41.23-4.3,2.22,3.34,2.89-1.11-3.11-3.56h3.11l-4.67-5.78s7.78.45,12.89,2.45,8.22,1.11,15.78-4.45,11.78-.89,11.78-.89,7.55-2.44,6.88.45,6,5.33,6,5.33l.45,6.22s1.33-4.89,7.11.45,6.22-2.57,6.22-2.57,8.67,9.23,19.56-2.1,9.78-11.11,15.11-9.33,3.33,0,6.89,1.55c2.26,1,3,.18,3.22-.53v-5.72c-1,.32-3.74.47-9.67.17-16-.81-23.11,4.53-23.11,4.53s-5.11,4.44-13.78,0-12.44-6.22-12.44-6.22a13.22,13.22,0,0,0,9.33-5.34c3.78-5.11,13.34-8.44,27.11-9.33s21.34,0,21.34,0v14.67a7.71,7.71,0,0,1,1.22.53V560.06c-8.29-.46-4.16-3.76-15.44-4.43s-15.12,5.78-15.12,5.78c-15.77-1.11-4.88,1.11-20,1.11-5.67,0-9.52.34-12.62,1.31-5.15,1.62-8.21,5-14,11.36-9.34,10.22-7.56,21.55-20,21.33s-12-10.67-8.45-18,2.89-12.45-4-12.89-10.44-16.44-28.44-9.78-26.45,30.45-29.33,33.34-4,7.77-11.34,13.54-35.78,5.79-43.11-2-1.78-21.11-1.78-21.11l-2.22-7s-2.89,1.44-32,7-31.11,9.33-29.33-10.22-8.89-20.45-18-21.11-19.56,9.55-38.45,15.33-24-10.22-21.77-20.44-18.45-34.89-20.23-32-32,4.66-35.33,4.66-8.89,6.89-26.22,13.11a35.25,35.25,0,0,1-10.32,2.34c-7.9.33-9.52-4.5-13-6.34-4.66-2.44-4.66-6.89-11.11-15.33-3.48-4.56-3.46-6.4-3.12-7l-.43.13c-2.67.67-2.67-1.78-8.22-12.67s-3.56-8.22-11.78-14.88a17.36,17.36,0,0,0-8.94-3.8H654l-1.83-.14a20.11,20.11,0,0,0-7.11,1.06S622,471,614,472.52s-10.67,2.44-19.78,1.33-7.56-.44-12.22-2.89-8.67.45-14.67,1.78-9.78,15.78-10,21.33,2.83,9.67,2.33,11.34a62.09,62.09,0,0,0-1.22,11.78c.17,2.5,2.56,13.94,5.67,17s2.44,7.38,2.33,10.83-.11,11-.11,11-6.78-.45-7.22,3.67-1.89,4-2.95,5.5-9.22,5.61-9.83,7.16-6.22,1.61-5.44,7.56-2.23,4.89-4.34,5.11-3.66-1.78-4.94-2.67-3.28,1-6.22,1.61-3.23-.83-3.23-.83c-.22,2.33-1.05,5.17-5.89,8.67s-3.61-4.73-7.38,2.39-12.78,9.22-12.78,9.22c-17.89,2.11-16.45-1.11-16.67-6.11s-.22-5.23-3.44-5.67-9.89-.33-11.56-4.67-4.78-4.11-7.67-6.33-1.88-9.78-1.88-9.78c-21.78-24.22-11.56-38.78-11.56-38.78S445.39,546,448,552.74s7.66,7.56,7.66,7.56c-.66-7.34,4.78-6.56,4.78-6.56s-2.44-.78-.22-4.55,3.44-7.78,6.22-11.89-.15-14.63,5.78-21.45-3.56-11,1.18-23.55,1.19-12.6,1.19-12.6c-3.56-23.26-31.7-36.59-34.67-37.92s-5.48-1.93-11.85-15.11-9.18-4-9-9.93-4.59-12-4.59-12c-6.22,3.26-3.41-7.11-8.89-.15s-4.89,1.34-7.41-1-.59-5.49-1.77-5.49-1.63-1.63-2.37-4.14-10.23-8.6-12.3-10.67-5-4-3.26-5.63-.44-2.67-.89-3.56-3-4.74-2.52-3.4-3.7,1.63-3.7,1.63,4.3-2.08-2.67-.26-.66-6.52-4.77-2-7.67-.44-7.78,1-.11.56-3.78,1a12.35,12.35,0,0,1-9.78-2.77c-2.78-2.34-2.22-7.56-5.33-10.34s-1.89-6.55-2.78-7.77S332,345.74,332.5,341s-2.11-7.77-3-10-8.22-9.55-8.22-9.55,1.78-4.11-.44-5.56c-1.52-1-1.23-3-.89-4.18,0-.13.07-.24.11-.34a2.56,2.56,0,0,1,.09-.26c0-.13.08-.22.1-.27s0,0,0,.06a.15.15,0,0,0,0,.07c-.05.37.19,1,3.49-1.3,4.23-2.89,11.12,1,16.67.33s4.56,0,10.33,1.45,12.56-4,12.56-4,7.44-6.89,9-7.67,6.78-.44,6.78-.44,4.33-5.67,13.66-6.78,17.78,7.22,19.34,8.22,11.78-1.22,21.44-1.22,4.42-8.45,9-2.67,11.24,6.11,14.24,2.45,8.78-4.11,8.78-4.11,1.78-5.56,9.89-7,6.56-2.12,11.78-3.89,26.22,7.44,33.67,7.66,15.33-3.66,25.88-7.66,7.89-12.56,7.89-12.56-2.44-3.67-1.22-16.33,12-15,12-15,6.52-2.37,9.63-5,4.3-8.89,10.37-13.34S596,216.59,596,216.59l-1.33-.86L593.5,215l-6.07,4.3s-8.74,2.81-11.11,9-7.71,10.37-12.3,11.4-9.33,8.74-9.33,8.74l-3.85,6.67s-2.23,4.45-.45,7.56,1.93,11.85-1.48,17.18-14.52,5.48-14.52,5.48l3.4-6.94c-.26.4-4.39,6.86-7.55,8.72S516,290.82,505.8,285s-19.56-5.93-20.45-5.63-2.07,3.55-5,5.33-5.63-2.07-12.15,1.48-8.45,7.85-9.56,5.41-13.55-3.78-16.44-2-7.56,1.78-8.45,1.78-4.22-5.78-8.66-.45-9.78,7.11-11.11,6.23-11.56-6.67-21.34-7.12a26.49,26.49,0,0,0-10.4,1.95c-5.66,2.12-10.47,5.27-13.15,5.83-4.22.89-9.78,9.11-13.34,10.67s-4.44-.22-9.33-1.56-24.22,0-24.22,0-1.56-16.66-2.22-26.22-8-30.89-8-30.89,1.33-17.33,6-26.22,4,.67,2.89,3.33-.67,8.45-.67,8.45l-1.11,6,5.52-2.89-3.08,4.67,3.08,4.66V260.3s2-3.56,1.59,2.22,4.44,14.22,4.44,14.22l3.11-2,4.23,6,.89-5.55,1.11,6,2.44,2c3.56-6.67-1.33-20.89-3.55-23.34a26.32,26.32,0,0,1-3.78-5.78l-3.34-4.88s-2.66,5.33-2.44,2.66S326.61,239,326.61,239a66.89,66.89,0,0,0-1.22-9c-.06-.25-.09-.4-.09-.4a10.45,10.45,0,0,0-1.58-3.94c-2.22-2.67,1.34-29.33,1.34-29.33s-2.22-6.23-3.78-21.56c0-.3-.06-.6-.1-.89-1.71-14.68-8-20.8-11.23-27.78s2.66-4.44,4.66-8.66,1.34-11.34-3.33-18.67c-3.7-5.81-5.34-16.53-5.78-20.11h862.89ZM1096,579c1.33-4.44,14.22-11.77,21.33-10s10,1.51,2,7.87-10.3,10.13-14,11.91-7.74,4.89-18.85,1.56C1085.62,590.07,1094.61,583.41,1096,579Zm-572.5,23-1.73-.33,2.95-1.72Zm-9.73-7.66a24,24,0,0,0,5.5-1.45,44.75,44.75,0,0,0,3.06-4.83c.17-.72,1.61-1.95,3.44-2.06s2.39-2,3.67-1.5,1,2.34,2.56,2.17,4.94-1.06,1.94,1.61-5.72,5.45-6.61,7.72-.94,2.23-3.72,2.67-3.34,2.94-5.06,3-5.61-2.72-9.61-1.78C508.51,599.94,511.11,594.57,513.72,594.3Zm-19.66,13.05c.83-.05,1.5,1.67-.22,2.17a3,3,0,0,1-2.89-.72A12.73,12.73,0,0,1,494.06,607.35ZM465.89,591s.78-.17,1.11,1.33-.89,7.17-.89,7.17S465.84,591.19,465.89,591Zm-12.22-7.83,1.55.88-3.94,5.67Zm-4.39-283.3-.89-1.11,3-.74ZM447,295.82l2.26-.32-.89,1.57Zm6.41,4.59-2-.3L453.8,298l1.67,1Zm-.45-2.56c-1.4-.33-2.59-2.35-2.59-2.35l6-.8S454.39,298.19,453,297.85Zm2.15-5.18-.66.4L451.39,291Zm-8.07-2.15,5.85,2.89-9.7-.74Zm-13.78,4.18H436l-2.74,1.6h-2.16Zm-3.41-1.88c2.82,1,0,2,0,2s-.15,1,.15,1-1.26.89-1.63.89h-3.63l-.29-.89S427.06,291.85,429.87,292.82Z"/><path class="cls-5" d="M262,178.35a170.53,170.53,0,0,1,12.83-32l0-.05,0,0v0l0,0a182.26,182.26,0,0,0-30.15,20.2l3.54-.14,3.57-.06c-.48.66-1,1.31-1.43,2l-1.35,2-1.35,2-.71,1.06c-.41.62-.84,1.22-1.22,1.84L243.44,179c-1.58,2.48-3,5-4.48,7.58-11.6,20.45-20.33,42.13-28.48,63.76s-15.95,43.44-22.5,65.76-11.38,45.11-15.75,67.76l9.38,1.83c4.37-22.6,9.09-45,15.54-66.89s14.19-43.53,22.27-65,16.65-42.7,27.83-62.4c1.41-2.44,2.78-4.92,4.3-7.29l2.23-3.6c.36-.61.77-1.18,1.16-1.77l.71-1.06,1.29-1.93,1.3-1.93c.43-.64.9-1.25,1.35-1.88l1.17,3.24Z"/><path class="cls-6" d="M1168.28,596.43v450.2h-801s4.67-14.78.89-30.33-2-19.78,5.33-22.89,8.89,5.33,2-34.22-7.33-19.34-17.33-38.89,10.89-12.89,10.22-29.34-12-24-12-24a30.46,30.46,0,0,0-6.89-19.77c0-24.23-8.66-16.23-8-23.34.65-6.9-5-11.28-5.31-11.54l3.76.88.44-2.67,4.89.22,2.22,1.11-2.22,4.67,1.33-1.78,1.11,3.78,1.12-1.78,2.88-2,3.56,2-1.56-5.11-4.44,2s9.78-13.78.22-23.78-4-8.22,1.34-20.44-7.56-20.22-7.56-20.22,15.33-12.23,8.89-23.34S338,722.74,338,722.74s3.77-11.78,12.22-18.67,5.55-21.55,7.55-35.55,5.34-16.45,37.56-29.11,38.67-.22,40.44-5.78,6.67-8.89,11.34-11.33a10.55,10.55,0,0,1,8.44-.89s-.22-10.89,9.11-13.34,6.45,8.45,19.34,6.23,6.66-4.67,20.66-4.89,23.56-9.78,23.56-9.78C534.61,587,542,587.41,543.5,584.3s2.78-11.95,15.56-17.56S570.39,553,570.39,553l5.56,1.56s.66-29.56,1.11-34.22,0-28.67,2.22-34.67,8.44-9.33,12.67-6.89,9.77,4.45,23.11,5.11a122.12,122.12,0,0,1,23.78,3.56l-3.12-2.22c16.67-10.45,14.45-2.67,24.45.66s12.22,19.56,12.22,19.56a25.41,25.41,0,0,1-2.89,8.66c-2.44,4.45-.22,16.67-.22,16.67l-5.56-1.11-1.33,2,2.22,3.56,3.78-.67s2.22,8.22,4.45,15.11S684,557.19,688,558.3s7.77,5.11,8.66,2,8.89-3.11,8.89-3.11c-.22-3.34,3.11-12.67,6-12.23s.22,3.56,20.22-3.33-7.11,4.89,8.67-1.11-.19-20.94,37.33-10.67,1.34,42.67,32.23,45.34,15.77-10.67,42.44-18.45,25.78,1.33,19.56,17,10,20.38,15.77,15.94,53.56-11.78,53.56-11.78-5.78,8.89-6.22,13.78c-.31,3.36,5.48,13.13,15,18.76a29,29,0,0,0,10.11,3.78,25.53,25.53,0,0,0,4.91.35c8.72-.22,15.66,3.16,21.82,4.33,5.87,1.12,11,.23,16.33-7.73h0c.61-.92,1.22-1.93,1.84-3,11.33-20.48,20.31-20,20.65-20-.12,0-2.21-.22,5.35-15.44,7.78-15.67,16.89-9.22,24-5.89s3.55,14.22-.89,18.45a14,14,0,0,0-4.45,9.33l3.12-1.33L1050,598.3s6.44-3.34,2,2.66-2,14.23-2,14.23l2.66-3.93.67-3.41,2.44,3.41.23-4.3,2.22,3.34,2.89-1.11-3.11-3.56h3.11l-4.67-5.78s7.78.45,12.89,2.45,8.22,1.11,15.78-4.45,11.78-.89,11.78-.89,7.55-2.44,6.88.45,6,5.33,6,5.33l.45,6.22s1.33-4.89,7.11.45,6.22-2.57,6.22-2.57,8.67,9.23,19.56-2.1,9.78-11.11,15.11-9.33,3.33,0,6.89,1.55C1167.32,598,1168.05,597.14,1168.28,596.43Z"/><path class="cls-7" d="M683.49,502.61c.24-.45.65-.26,0,0Z"/><polygon class="cls-7" points="524.67 599.91 523.45 601.96 521.72 601.63 524.67 599.91"/><path class="cls-7" d="M683.49,502.61c.24-.45.65-.26,0,0Z"/><path class="cls-6" d="M1168.39-16.71l-.11,115.34V560.06c-8.29-.46-4.16-3.76-15.44-4.43s-15.12,5.78-15.12,5.78c-15.77-1.11-4.88,1.11-20,1.11-5.67,0-9.52.34-12.62,1.31-5.15,1.62-8.21,5-14,11.36-9.34,10.22-7.56,21.55-20,21.33s-12-10.67-8.45-18,2.89-12.45-4-12.89-10.44-16.44-28.44-9.78-26.45,30.45-29.33,33.34-4,7.77-11.34,13.54-35.78,5.79-43.11-2-1.78-21.11-1.78-21.11l-2.22-7s-2.89,1.44-32,7-31.11,9.33-29.33-10.22-8.89-20.45-18-21.11-19.56,9.55-38.45,15.33-24-10.22-21.77-20.44-18.45-34.89-20.23-32-32,4.66-35.33,4.66-8.89,6.89-26.22,13.11a35.25,35.25,0,0,1-10.32,2.34c-7.9.33-9.52-4.5-13-6.34-4.66-2.44-4.66-6.89-11.11-15.33-3.48-4.56-3.46-6.4-3.12-7,.65-.26.24-.45,0,0l-.43.13c-2.67.67-2.67-1.78-8.22-12.67s-3.56-8.22-11.78-14.88a17.36,17.36,0,0,0-8.94-3.8H654a14.65,14.65,0,0,0-1.83-.14,20.11,20.11,0,0,0-7.11,1.06S622,471,614,472.52s-10.67,2.44-19.78,1.33-7.56-.44-12.22-2.89-8.67.45-14.67,1.78-9.78,15.78-10,21.33,2.83,9.67,2.33,11.34a62.09,62.09,0,0,0-1.22,11.78c.17,2.5,2.56,13.94,5.67,17s2.44,7.38,2.33,10.83-.11,11-.11,11-6.78-.45-7.22,3.67-1.89,4-2.95,5.5-9.22,5.61-9.83,7.16-6.22,1.61-5.44,7.56-2.23,4.89-4.34,5.11-3.66-1.78-4.94-2.67-3.28,1-6.22,1.61-3.23-.83-3.23-.83c-.22,2.33-1.05,5.17-5.89,8.67s-3.61-4.73-7.38,2.39-12.78,9.22-12.78,9.22c-17.89,2.11-16.45-1.11-16.67-6.11s-.22-5.23-3.44-5.67-9.89-.33-11.56-4.67-4.78-4.11-7.67-6.33-1.88-9.78-1.88-9.78c-21.78-24.22-11.56-38.78-11.56-38.78S445.39,546,448,552.74s7.66,7.56,7.66,7.56c-.66-7.34,4.78-6.56,4.78-6.56s-2.44-.78-.22-4.55,3.44-7.78,6.22-11.89-.15-14.63,5.78-21.45-3.56-11,1.18-23.55,1.19-12.6,1.19-12.6c-3.56-23.26-31.7-36.59-34.67-37.92s-5.48-1.93-11.85-15.11-9.18-4-9-9.93-4.59-12-4.59-12c-6.22,3.26-3.41-7.11-8.89-.15s-4.89,1.34-7.41-1-.59-5.49-1.77-5.49-1.63-1.63-2.37-4.14-10.23-8.6-12.3-10.67-5-4-3.26-5.63-.44-2.67-.89-3.56-3-4.74-2.52-3.4-3.7,1.63-3.7,1.63,4.3-2.08-2.67-.26-.66-6.52-4.77-2-7.67-.44-7.78,1-.11.56-3.78,1a12.35,12.35,0,0,1-9.78-2.77c-2.78-2.34-2.22-7.56-5.33-10.34s-1.89-6.55-2.78-7.77S332,345.74,332.5,341s-2.11-7.77-3-10-8.22-9.55-8.22-9.55,1.78-4.11-.44-5.56c-1.52-1-1.23-3-.89-4.18,0-.13.07-.24.11-.34a2.56,2.56,0,0,1,.09-.26c0-.13.08-.22.1-.27s0,0,0,.06a.15.15,0,0,0,0,.07c-.05.37.19,1,3.49-1.3,4.23-2.89,11.12,1,16.67.33s4.56,0,10.33,1.45,12.56-4,12.56-4,7.44-6.89,9-7.67,6.78-.44,6.78-.44,4.33-5.67,13.66-6.78,17.78,7.22,19.34,8.22,11.78-1.22,21.44-1.22,4.42-8.45,9-2.67,11.24,6.11,14.24,2.45,8.78-4.11,8.78-4.11,1.78-5.56,9.89-7,6.56-2.12,11.78-3.89,26.22,7.44,33.67,7.66,15.33-3.66,25.88-7.66,7.89-12.56,7.89-12.56-2.44-3.67-1.22-16.33,12-15,12-15,6.52-2.37,9.63-5,4.3-8.89,10.37-13.34S596,216.59,596,216.59l-1.33-.86L593.5,215l-6.07,4.3s-8.74,2.81-11.11,9-7.71,10.37-12.3,11.4-9.33,8.74-9.33,8.74l-3.85,6.67s-2.23,4.45-.45,7.56,1.93,11.85-1.48,17.18-14.52,5.48-14.52,5.48l3.4-6.94c-.26.4-4.39,6.86-7.55,8.72S516,290.82,505.8,285s-19.56-5.93-20.45-5.63-2.07,3.55-5,5.33-5.63-2.07-12.15,1.48-8.45,7.85-9.56,5.41-13.55-3.78-16.44-2-7.56,1.78-8.45,1.78-4.22-5.78-8.66-.45-9.78,7.11-11.11,6.23-11.56-6.67-21.34-7.12a26.49,26.49,0,0,0-10.4,1.95c-5.66,2.12-10.47,5.27-13.15,5.83-4.22.89-9.78,9.11-13.34,10.67s-4.44-.22-9.33-1.56-24.22,0-24.22,0-1.56-16.66-2.22-26.22-8-30.89-8-30.89,1.33-17.33,6-26.22,4,.67,2.89,3.33-.67,8.45-.67,8.45l-1.11,6,5.52-2.89-3.08,4.67,3.08,4.66V260.3s2-3.56,1.59,2.22,4.44,14.22,4.44,14.22l3.11-2,4.23,6,.89-5.55,1.11,6,2.44,2c3.56-6.67-1.33-20.89-3.55-23.34a26.32,26.32,0,0,1-3.78-5.78l-3.34-4.88s-2.66,5.33-2.44,2.66S326.61,239,326.61,239a66.89,66.89,0,0,0-1.22-9c-.06-.25-.09-.4-.09-.4a10.45,10.45,0,0,0-1.58-3.94c-2.22-2.67,1.34-29.33,1.34-29.33s-2.22-6.23-3.78-21.56c0-.3-.06-.6-.1-.89-1.71-14.68-8-20.8-11.23-27.78s2.66-4.44,4.66-8.66,1.34-11.34-3.33-18.67c-3.7-5.81-5.17-15-5.61-18.62,0-.18,0-.34-.06-.49h-.11a129.71,129.71,0,0,1-1-19.81c.23-12.83,5.11-12,5.11-15.34S306.72,54,308.05,52.7s-1.56-5.33-1.44-7.11-11-24.22-11.22-25.11-4.22-7.33-5.11-7.78,0-8.88,0-8.88L286.05-1.3l-12.88-9.55-4-5.86Z"/><path class="cls-8" d="M429.87,294.82s-.15,1,.15,1-1.26.89-1.63.89h-3.63l-.29-.89s2.59-4,5.4-3S429.87,294.82,429.87,294.82Z"/><polygon class="cls-8" points="436.02 294.7 433.28 296.3 431.12 296.3 433.28 294.7 436.02 294.7"/><polygon class="cls-8" points="452.91 293.41 443.21 292.67 447.06 290.52 452.91 293.41"/><polygon class="cls-8" points="455.13 292.67 454.47 293.07 451.39 290.96 455.13 292.67"/><path class="cls-8" d="M456.39,294.7s-2,3.49-3.41,3.15-2.59-2.35-2.59-2.35Z"/><polygon class="cls-8" points="449.28 295.5 448.39 297.07 447.02 295.82 449.28 295.5"/><polygon class="cls-8" points="451.39 298.04 449.28 299.89 448.39 298.78 451.39 298.04"/><polygon class="cls-8" points="455.47 299.07 453.43 300.41 451.39 300.11 453.8 298.04 455.47 299.07"/><path class="cls-8" d="M533.89,588.24c-3,2.67-5.72,5.45-6.61,7.72s-.94,2.23-3.72,2.67-3.34,2.94-5.06,3-5.61-2.72-9.61-1.78c-.38.09,2.22-5.28,4.83-5.55a24,24,0,0,0,5.5-1.45,44.75,44.75,0,0,0,3.06-4.83c.17-.72,1.61-1.95,3.44-2.06s2.39-2,3.67-1.5,1,2.34,2.56,2.17S536.89,585.57,533.89,588.24Z"/><path class="cls-8" d="M493.84,609.52a3,3,0,0,1-2.89-.72,12.73,12.73,0,0,1,3.11-1.45C494.89,607.3,495.56,609,493.84,609.52Z"/><path class="cls-8" d="M466.11,599.52s-.27-8.33-.22-8.5c0,0,.78-.17,1.11,1.33S466.11,599.52,466.11,599.52Z"/><polygon class="cls-8" points="455.22 584.07 451.28 589.74 453.67 583.19 455.22 584.07"/><polygon class="cls-8" points="337.08 781.56 333.65 784.74 333.97 785.39 336.02 789.63 332.91 789.63 329.35 784.52 327.08 782.68 326.69 782.37 326.09 780.44 330.24 782.37 335.13 779.41 337.8 780.89 337.08 781.56"/><path class="cls-8" d="M309.28,702.93s-8-6.49-8.37-12.64,6.66,1.71,8.54,5.81S309.28,702.93,309.28,702.93Z"/><path class="cls-8" d="M297.49,684.48s-3.24-3.93.17-3.24S297.49,684.48,297.49,684.48Z"/><path class="cls-9" d="M321.18,173.85s4.32-6.29,4.92-9-5.36-10.07-3.35-15.7.7-19.71.91-24-6.75-26.56-6.75-26.56-5-9.7-5-10.31-.59-8.32,0-11.28,4.21-16.59,4.21-16.59l-2.43-18-7.11-15.23-10.08-16V1.19l42.37-17.9"/><path class="cls-9" d="M325.39,230a10,10,0,0,0,3.22,5.29c2.61,2,2.08,8,5.63,13.05a31.5,31.5,0,0,1,4.6,11.54"/><path class="cls-9" d="M342.39,283.19s-4.89,6.74-1.63,9.48,8.58,3.32,16.59,4.81"/><path class="cls-9" d="M382.21,292a24.84,24.84,0,0,1,.39-5.34c.53-2.78,1.72-5.79,4.39-6.68a106.72,106.72,0,0,0,11.81-5"/><path class="cls-9" d="M398.8,280.89s-.85-1.78-6.48,1.48a43,43,0,0,1-9.72,4.31"/><path class="cls-9" d="M564,239.7s-.15-5.62-1.92-6.81-8.3-.41-6.52-3.31a8.12,8.12,0,0,0,1.18-5.58,5.88,5.88,0,0,1-1.49-2.66c-.28-1.48,2.09-4.74,2.09-4.74s-3-3.56-.3-4.45,8.59-2.67,8.59-4.15a34.62,34.62,0,0,1,0-5.51,12.05,12.05,0,0,0,0-3.67s3.56-2.67,2.08-4.15.72-3.85.36-5.93-4.51-3-5.1-3.85,4.06-4.15,5.14-3.85-4.55-3.26-1.59-5.93,5-6.51,6.22-8.29-.59-12.15,0-13.34a43.18,43.18,0,0,1,8.3-10.37c5-4.74-1.78-8.88-1.78-8.88s3.85.88,5.34-1.78,2.37-13.93,4.44-15.71a25.58,25.58,0,0,0,3.56-3.8s-6.23-4.49-3-6.57,6.52-3.92,6.82-7.74V85.93l12.3-15.41s3.56-16,3.56-17.78-3.56-6.27,0-10.25,19.55-20,19.55-20l5.34-20.74V-13l4.14-10.67"/><path class="cls-9" d="M594.69,215.73s15.41.27,23.41-3.28,21.73-12.95,32-18.62,16-7.75,18.91-12.49,8.59-20.45,17.78-21.63,18.37-.6,20.44-12.74-.89-20.45,8.3-24.89,13-8.6,12.74-13.34,11.85-10.11,11.85-10.11"/><path class="cls-9" d="M398.8,371.56c2.62.59,16.33,13.63,17.82,15.11s5,14.22,5,14.22,5,8.3,6.15,8.59S440,407.11,442,407.11s14.3,12.75,17,13.93,24.59,4.44,24.59,4.44l3.55-.88,2.67,3.55A72.59,72.59,0,0,0,496,424c1.78-1.48,16.6,0,16.6,0s8.59-2.37,12.44-5,5-15.71,5-15.71,19.55-19.85,18.66-19.85,5-7.11,10.67-14,33.19-22.12,35.85-25.38,5.34,0,8.75,0,7.55,4.15,7.55,4.15l12.74-2.37s21.33-18.67,25.78-23.41,0-6.51,9.18-13.33,9.48-18.67,9.48-18.67,10.67-4.74,15.41-8.29,5-5,12.45-7.41,11-3.85,11-3.85,2.66-3.26,10.07-4.15a16.93,16.93,0,0,0,11.26-6.52s10.37-21.33,16.89-29.33,9.48-15.41,12.74-23.11,7.41-9.48,7.41-9.48,4.44-5.93,6.22-11.86a42.73,42.73,0,0,0,1.48-12.44s.89-5.33,3.26-7.11.89-5.93,1.48-7.41,8.6-3.55,8.6-3.55l4.44,1.32,3.26-3.7s0,4.15,3.55,0,6.23-5,16.6-9.77,15.11-3.26,19-1.78,62.52-43.3,62.52-43.3l31.27-32.55s34.3-32,33.59-35.56,3.72-20.44,7.28-24.89S996-23.7,996-23.7"/><path class="cls-9" d="M383,372c.44.6,3.55,5.48,3.55,5.48l7.26-.59"/><path class="cls-9" d="M392,374.74s9.34-2.44,10.08-2.14"/><line class="cls-9" x1="402.1" y1="369.26" x2="402.1" y2="379.86"/><line class="cls-9" x1="420.47" y1="382.23" x2="412.42" y2="382.69"/><path class="cls-9" d="M468.47,370.08,467.13,372s-8.44-.59-9.92-1-9.15-11.63-9.15-11.63L442,356s-38.37-13-39.85-13.63l2.07-4-2.81,4.15L393.8,345,383,354.37l-9.19,3.86,1.63,1.18,5.93-2.22-1.11-4.45h2.35l1.72,5.34"/><path class="cls-9" d="M364.91,307s-1.63,5.29-1,8.55.46,23.55.46,23.55l3.4,2.82h6.07l4.59-6.07"/><polyline class="cls-9" points="360.32 348.15 360.32 350.82 363.75 352.74"/><polyline class="cls-9" points="364.33 339.11 364.33 344.6 366.99 350.45"/><polyline class="cls-9" points="373.8 350.45 373.06 346.82 374.57 340.91"/><path class="cls-9" d="M364.33,344l8.73,2.85,5.33.37.67,2.33s11.78-10.22,14.11-13.44,5.69-10.45,6.74-11.34,26.59-11.16,26.59-11.16"/><polygon class="cls-9" points="376.17 354.19 379.06 349.52 380.25 352.74 376.17 354.19"/><path class="cls-9" d="M448.81,412.33l5.25-1.81,7.22-7.28,2.34-5.33h4.94l4.5-1.89a32.71,32.71,0,0,1,2.5,5.06,19.35,19.35,0,0,0,1.89,3.89"/><path class="cls-9" d="M512.62,424l4.44,12.74-2.22,19.34,10.66,34-4.88,11.33s-5.78,2.27-5.78,7.14-.45,21.08-.45,21.08-1.55,5.07,2,5.2,10,.54,10.89,0a10.19,10.19,0,0,1,6.89-.66c3.11.8,8.89,8.35,8.89,8.35a33.61,33.61,0,0,0,9.11,3.93c4.89,1.18,4.22.15,6.45,0a61.71,61.71,0,0,1,7.73.56"/><path class="cls-9" d="M517.06,436.74l11.33,5.12.89,2.59,5.11-2.37,3.11,2.37,4.13,2.29,2.76,1.56H548l2.79,2h3.88l4.22,1.33,1.11,2.23,4.89-1.12h4.66l2.89,5.34s1.52,2.47,4,1.9,5.19-1,5.19-1"/><path class="cls-9" d="M654.12,471.39c3.82.27,12.33.8,16.72.46,5.77-.44,12.65,10.67,12.65,10.67l3.79,15.11s3.55,15.43,7.94,20.87,15.09,12.52,15.52,12.8h0"/><text class="cls-10" transform="translate(417.54 313.58)">Miary</text><text class="cls-10" transform="translate(315.89 305.52)">Belalanda</text><text class="cls-11" transform="translate(351.5 369.26)"><tspan class="cls-12">T</tspan><tspan x="10.46" y="0">oliaria</tspan></text><text class="cls-10" transform="translate(541.63 248.32)">Behompy</text><text class="cls-10" transform="translate(622.07 202.49)">Ampanihy</text><text class="cls-13" transform="translate(279.75 118.32)">Ifaty</text><text class="cls-10" transform="translate(653.7 571.21)">Manorofify</text><text class="cls-14" transform="translate(654.39 516.34)">T<tspan class="cls-15" x="6" y="0">anandava</tspan></text><text class="cls-10" transform="translate(550.97 468.89)">Ambohimahavelona </text><text class="cls-11" transform="translate(326.1 713.22)">Anakao</text><text class="cls-10" transform="translate(343.77 845.49)">Andranotohoka</text><text class="cls-11" transform="translate(445.74 575.8)">St Augustin</text><rect class="cls-1" x="-105.86" y="-9.14" width="970.33" height="758.16"/></g></g></g></svg>