<svg xmlns="http://www.w3.org/2000/svg" viewBox="0 0 1627.92 1265.36"><defs><style>.cls-1{fill:#acdddb;}.cls-2{fill:#a3d3d3;}.cls-3{fill:#cc4747;}.cls-4{fill:#4c4c4c;}.cls-5{fill:#ffefe1;}.cls-6{fill:#fff;}.cls-7{fill:#f9f2e4;}.cls-8{fill:#bbe2c6;}.cls-13,.cls-16,.cls-9{fill:none;}.cls-10{fill:#9ed6ad;}.cls-11{fill:#9cc0f9;}.cls-12,.cls-14{fill:#fdfedb;}.cls-12{stroke:#0b6277;}.cls-12,.cls-13,.cls-16{stroke-miterlimit:10;}.cls-12,.cls-13{stroke-width:0.75px;}.cls-13{stroke:#bf824b;}.cls-15{fill:#f1e9d7;}.cls-16{stroke:#1e668e;stroke-width:0.5px;}.cls-17{fill:#5e5241;}.cls-18{font-size:16.61px;}.cls-18,.cls-19,.cls-20,.cls-22,.cls-25,.cls-27,.cls-28{fill:#353535;font-family:LobsterTwo, Lobster Two;}.cls-19,.cls-22,.cls-25{font-size:12px;}.cls-20{font-size:21px;}.cls-21{letter-spacing:-0.17em;}.cls-22{letter-spacing:-0.03em;}.cls-23{letter-spacing:0em;}.cls-24{letter-spacing:-0.05em;}.cls-25{letter-spacing:-0.17em;}.cls-26{letter-spacing:0em;}.cls-27{font-size:34.41px;}.cls-28{font-size:22.08px;}.cls-29{letter-spacing:-0.01em;}.cls-30{letter-spacing:-0.17em;}</style></defs><g id="Calque_2" data-name="Calque 2"><g id="eau"><path class="cls-1" d="M1626,491.43V461.77c-8.28-.46-4.15-3.76-15.44-4.43s-15.11,5.78-15.11,5.78c-15.77-1.11-4.89,1.11-20,1.11-5.68,0-9.52.34-12.63,1.31-5.14,1.62-8.2,5-14,11.36-9.34,10.22-7.56,21.55-20,21.33s-12-10.67-8.46-18,2.9-12.45-4-12.89-10.43-16.44-28.43-9.78-26.45,30.45-29.34,33.34-4,7.77-11.33,13.54-35.78,5.79-43.11-2-1.79-21.11-1.79-21.11l-2.21-7s-2.89,1.44-32,7-31.12,9.33-29.33-10.22-8.89-20.45-18-21.11-19.56,9.55-38.46,15.33-24-10.22-21.77-20.44-18.44-34.89-20.23-32-32,4.66-35.33,4.66-8.88,6.89-26.21,13.11a35.25,35.25,0,0,1-10.32,2.34c-7.91.33-9.52-4.5-13-6.34-4.66-2.44-4.66-6.89-11.12-15.33-3.47-4.56-3.45-6.4-3.11-7l-.43.13c-2.67.67-2.67-1.78-8.23-12.67s-3.56-8.22-11.77-14.88a17.39,17.39,0,0,0-8.94-3.8h-.12l-1.83-.14a20,20,0,0,0-7.11,1.06s-23.11-1.34-31.11.22-10.68,2.44-19.78,1.33-7.57-.44-12.22-2.89-8.68.45-14.68,1.78-9.77,15.78-10,21.33,2.83,9.67,2.33,11.34a62.13,62.13,0,0,0-1.21,11.78c.17,2.5,2.56,13.94,5.67,17s2.44,7.38,2.33,10.83-.12,11-.12,11-6.77-.45-7.21,3.67-1.89,4.05-3,5.5-9.21,5.61-9.83,7.16-6.21,1.61-5.44,7.56-2.23,4.89-4.33,5.11-3.67-1.78-4.94-2.67-3.29,1-6.23,1.61-3.23-.83-3.23-.83c-.21,2.33-1,5.17-5.88,8.67s-3.62-4.73-7.39,2.39-12.77,9.22-12.77,9.22c-17.89,2.11-16.46-1.11-16.67-6.11s-.22-5.23-3.44-5.67-9.89-.33-11.56-4.67-4.79-4.11-7.67-6.33-1.89-9.78-1.89-9.78C890.78,448.34,901,433.78,901,433.78s2.12,13.89,4.68,20.67,7.65,7.56,7.65,7.56c-.65-7.34,4.79-6.56,4.79-6.56s-2.44-.78-.22-4.55,3.43-7.78,6.22-11.89-.15-14.63,5.78-21.45-3.57-11,1.17-23.55,1.2-12.6,1.2-12.6a36.47,36.47,0,0,0-6.07-14.92l0,0-.12-.17c-.26-.38-.52-.76-.79-1.12s-.63-.85-1-1.26-.49-.63-.74-.93c-.55-.67-1.1-1.32-1.68-2-.4-.45-.8-.88-1.22-1.31a61.6,61.6,0,0,0-4.5-4.26l-.73-.62q-1.49-1.24-2.94-2.34l-.06-.05-1.39-1c-1-.7-1.9-1.34-2.82-1.95-2.06-1.37-4-2.51-5.6-3.41l-.48-.27c-.43-.24-.83-.46-1.22-.66l-.59-.3c-1.35-.71-2.32-1.16-2.75-1.35-3-1.34-5.48-1.93-11.85-15.11a34,34,0,0,0-1.8-3.31c-.18-.3-.37-.58-.55-.84s-.36-.51-.53-.73c-3.1-4.06-5-2.37-5.75-2.88-.31-.2-.45-.75-.41-2.17.15-5.92-4.59-12-4.59-12-6.22,3.26-3.41-7.11-8.89-.15-2.84,3.61-4.05,3.84-4.9,2.9s-1.3-2.79-2.52-3.93a4.13,4.13,0,0,1-1.2-2h0a3.34,3.34,0,0,1-.1-.43,7.84,7.84,0,0,1-.07-1.42c0-.74.1-1.31-.11-1.54a.35.35,0,0,0-.28-.11,1.1,1.1,0,0,1-.77-.3,2.06,2.06,0,0,1-.45-.57,17.93,17.93,0,0,1-1.15-3.27c-.74-2.52-10.23-8.6-12.3-10.67l-.31-.3-1-.9c-.44-.39-.86-.78-1.24-1.16-.84-.87-1.43-1.69-1.26-2.46a2.25,2.25,0,0,1,.08-.24.2.2,0,0,0,0-.08.66.66,0,0,1,.12-.17.46.46,0,0,1,.07-.1,1.45,1.45,0,0,1,.21-.22c1.78-1.63-.44-2.67-.89-3.56s-3-4.74-2.52-3.4S829,274,829,274h0a6,6,0,0,0,1.18-.71c.1-.1.14-.17.09-.22s-1.13-.06-3.95.68c-3.41.89-3.64-.66-3.47-1.93,0-.17,0-.34.08-.49a1.68,1.68,0,0,0,.06-.27,1.38,1.38,0,0,0,.06-.62c-.07-.09-.26,0-.69.46l-.5.53-.32.35-.25.27c-4,4.08-7.41-.68-7.52.73s-.11.56-3.78,1a12.35,12.35,0,0,1-9.78-2.77,6.18,6.18,0,0,1-1.57-2.21,11.6,11.6,0,0,1-.52-1.36c-.28-.82-.52-1.68-.8-2.53-.08-.25-.17-.49-.25-.73s-.09-.23-.14-.35a11.48,11.48,0,0,0-.64-1.37c-.13-.22-.26-.44-.4-.64a6.9,6.9,0,0,0-.47-.6,4.66,4.66,0,0,0-.54-.55A6.47,6.47,0,0,1,793,257.6c-.05-.19-.1-.38-.14-.57a11.9,11.9,0,0,1-.25-1.87,5.06,5.06,0,0,0-.45-2.26c-.89-1.23-2.44-5.45-1.89-10.23s-2.11-7.77-3-10a10.08,10.08,0,0,0-1.37-2.06c-1.72-2.17-4.52-5.1-6-6.57l-.23-.23-.36-.37-.14-.14-.1-.1-.06-.06,0,0a8.1,8.1,0,0,0,.63-3.81,2.72,2.72,0,0,0-.53-1.26,2.08,2.08,0,0,0-.53-.49,3.55,3.55,0,0,1-.31-.23,3.28,3.28,0,0,1-.77-3.13,7.14,7.14,0,0,1,.19-.82c0-.13.07-.24.11-.34a1.31,1.31,0,0,1,.09-.26c0-.13.08-.22.1-.27s0,0,0,.06a.15.15,0,0,0,0,.07c-.05.37.19,1,3.49-1.3,4.23-2.89,11.12,1,16.67.33s4.56,0,10.33,1.45c5.46,1.36,11.81-3.42,12.5-4l0,0h0a0,0,0,0,1,0,0l.06-.06.11-.09a.8.8,0,0,1,.13-.13c1.45-1.33,7.31-6.69,8.68-7.37,1.56-.78,6.78-.44,6.78-.44s4.33-5.67,13.66-6.78a14.91,14.91,0,0,1,3.27,0c.26,0,.51,0,.76.09a2.25,2.25,0,0,1,.36.06l.51.09a8.63,8.63,0,0,1,.88.2l.65.17a23.14,23.14,0,0,1,3.27,1.21l.66.31.63.32c.63.33,1.23.67,1.81,1L862,194.34l-.15-.06c-.54-.19-1.09-.38-1.66-.56-.28-.1-.56-.19-.85-.27l-.86-.25c-.29-.09-.58-.17-.88-.24s-.59-.16-.89-.23q-.88-.21-1.8-.39h0c-.5-.09-1-.18-1.5-.25l-.29,0-.79-.1-.43-.05c-.51,0-1-.09-1.52-.11a26.49,26.49,0,0,0-10.4,1.95c-5.66,2.12-10.47,5.27-13.15,5.83-1.85.39-3.95,2.18-6,4.2l-.44.44-.45.44c-.15.15-.29.3-.44.44l-.88.89-.86.86a17.2,17.2,0,0,1-4.24,3.4c-3.55,1.55-4.44-.22-9.33-1.56s-24.22,0-24.22,0,0-.33-.09-.92c0-.14,0-.28,0-.44,0-.31-.06-.68-.1-1.08s0-.64-.09-1-.06-.72-.1-1.12-.05-.53-.07-.81c-.06-.69-.13-1.44-.2-2.22-.14-1.56-.3-3.28-.45-5.07l-.09-1.08c-.1-1.08-.19-2.18-.28-3.27l-.09-1.09c-.09-1.09-.18-2.17-.26-3.22,0-.35,0-.7-.08-1-.05-.68-.1-1.35-.15-2s-.09-1.27-.13-1.87c-.28-3.88-1.65-9.71-3.18-15.26-.53-1.92-1.08-3.8-1.61-5.57l-.35-1.15c-.57-1.89-1.12-3.61-1.57-5-.09-.28-.18-.55-.26-.81s-.17-.5-.24-.72c-.49-1.49-.79-2.37-.79-2.37s.16-2.05.55-5.1c.07-.55.15-1.14.24-1.75,0-.31.09-.63.14-1s.09-.64.15-1c.32-2,.71-4.15,1.2-6.34.16-.73.34-1.46.52-2.18a41.85,41.85,0,0,1,3.2-8.93q.41-.77.75-1.35c.15-.26.3-.5.44-.71s.27-.4.4-.57.25-.31.36-.44a1.35,1.35,0,0,1,.17-.17c.52-.53.9-.57,1.15-.29a1.71,1.71,0,0,1,.32.8,10.94,10.94,0,0,1,0,3.22,12.26,12.26,0,0,1-.67,2.84,6.71,6.71,0,0,0-.37,1.26c0,.12,0,.24-.07.36L778,131a34.93,34.93,0,0,0-.1,6.1l-1.11,6,5.5-2.88-3.06,4.66,3.07,4.66V162h0a4.3,4.3,0,0,1,.54-.73.38.38,0,0,1,.09-.09c.26-.24.54-.38.73-.1a.67.67,0,0,1,.09.14,1.25,1.25,0,0,1,.07.23,1.07,1.07,0,0,1,.06.27,11.06,11.06,0,0,1,0,2.51,16.9,16.9,0,0,0,.83,5.87c.11.38.24.76.36,1.13s.26.74.39,1.09c.21.54.42,1.06.62,1.56.14.33.28.65.42,1,.27.62.54,1.17.78,1.66.59,1.21,1,2,1,2h0l3.11-2,4.23,6,.88-5.55v0l1.11,6,2.44,2c2.31-4.33,1.06-11.85-.71-17.26-.13-.39-.26-.77-.39-1.13a27,27,0,0,0-1.2-2.89c-.2-.4-.39-.77-.57-1.08a6.18,6.18,0,0,0-.69-1,20.07,20.07,0,0,1-2.17-2.9,30.28,30.28,0,0,1-1.6-2.88l-3.34-4.88a27.38,27.38,0,0,1-1.49,2.62c-.13.18-.25.35-.36.48s-.39.37-.49.28-.14-.28-.11-.72a12.34,12.34,0,0,0-.23-2.62,0,0,0,0,0,0,0c-.1-.61-.23-1.28-.37-2s-.3-1.41-.47-2.11c-.74-3.17-1.59-6.16-1.59-6.16s-.2-3.29-.76-6.67c-.13-.78-.28-1.57-.45-2.32-.07-.25-.1-.4-.1-.4-.1-.42-.21-.83-.32-1.22a7.86,7.86,0,0,0-1.25-2.72c-2.22-2.67,1.34-29.33,1.34-29.33l-.15-.47c0-.12-.09-.28-.14-.46s0-.18-.08-.28c-.09-.31-.19-.68-.3-1.12-.08-.28-.16-.6-.24-1-.29-1.21-.63-2.77-1-4.72-.62-3.34-1.31-7.81-1.89-13.56,0-.3,0-.6-.09-.89-1.71-14.68-8-20.8-11.23-27.78-.18-.37-.33-.72-.45-1a0,0,0,0,0,0,0c-.85-2.18-.61-3.23.13-3.9a2.6,2.6,0,0,1,.32-.26,5.58,5.58,0,0,1,.6-.34l.42-.21c.44-.2.93-.4,1.4-.65l.46-.28a4,4,0,0,0,.88-.69,4.43,4.43,0,0,0,.9-1.28,11.58,11.58,0,0,0,1-3.82A18,18,0,0,0,773,30c-.1-.49-.22-1-.36-1.47-.08-.34-.18-.68-.29-1-.16-.49-.33-1-.52-1.48s-.36-.92-.57-1.38A31.18,31.18,0,0,0,769,20.45c-.22-.35-.43-.71-.64-1.09l-.37-.71c-2.88-5.77-4.26-14.4-4.72-17.92,0-.25,0-.39,0-.39H0V1264.67H1624.26V948.34H825s4.68-14.78.9-30.33-2-19.78,5.33-22.89,8.89,5.33,2-34.22-7.33-19.34-17.33-38.89,10.89-12.89,10.22-29.34-12-24-12-24a30.46,30.46,0,0,0-6.89-19.77c0-24.23-8.67-16.23-8-23.34.65-6.9-5-11.28-5.31-11.54l3.76.88.44-2.67,4.88.22,2.23,1.11L803,718.23l1.33-1.78,1.12,3.78,1.11-1.78,2.89-2,3.55,2-1.55-5.11-4.45,2s9.79-13.78.23-23.78-4-8.22,1.33-20.44S801,650.9,801,650.9s15.33-12.23,8.9-23.34-14.22-3.11-14.22-3.11,3.77-11.78,12.22-18.67,5.55-21.55,7.55-35.55,5.34-16.45,37.55-29.11,38.68-.22,40.45-5.78,6.67-8.89,11.34-11.33a10.55,10.55,0,0,1,8.44-.89s-.23-10.89,9.1-13.34,6.46,8.45,19.35,6.23,6.65-4.67,20.65-4.89,23.57-9.78,23.57-9.78c6.43-12.67,13.78-12.22,15.33-15.33s2.77-11.95,15.56-17.56,11.33-13.78,11.33-13.78l5.56,1.56s.65-29.56,1.11-34.22,0-28.67,2.21-34.67,8.45-9.33,12.68-6.89,9.77,4.45,23.11,5.11a121.93,121.93,0,0,1,23.77,3.56l-3.11-2.22c16.67-10.45,14.45-2.67,24.45.66s12.22,19.56,12.22,19.56a25.41,25.41,0,0,1-2.89,8.66c-2.44,4.45-.23,16.67-.23,16.67l-5.55-1.11-1.33,2,2.21,3.56,3.79-.67s2.21,8.22,4.44,15.11,11.12,7.56,15.12,8.67,7.77,5.11,8.65,2,8.9-3.11,8.9-3.11c-.23-3.34,3.1-12.67,6-12.23s.22,3.56,20.22-3.33-7.12,4.89,8.67-1.11-.19-20.94,37.33-10.67,1.34,42.67,32.23,45.34,15.77-10.67,42.44-18.45,25.78,1.33,19.56,16.95,10,20.38,15.77,15.94S1399,479.56,1399,479.56s-5.77,8.89-6.21,13.78c-.31,3.36,5.48,13.13,15,18.76a29,29,0,0,0,10.11,3.78,25.53,25.53,0,0,0,4.91.35c8.71-.22,15.66,3.16,21.82,4.33,5.87,1.12,11,.23,16.33-7.73h0c.6-.92,1.22-1.93,1.84-3.05,11.33-20.48,20.31-20,20.65-20-.13,0-2.21-.22,5.35-15.44,7.77-15.67,16.89-9.22,24-5.89s3.54,14.22-.89,18.45a14,14,0,0,0-4.45,9.33l3.11-1.33-2.88,5.11s6.44-3.34,2,2.66-2,14.23-2,14.23l2.65-3.93.67-3.41,2.45,3.41.23-4.3,2.22,3.34,2.89-1.11-3.11-3.56h3.11l-4.67-5.78s7.78.45,12.88,2.45,8.23,1.11,15.79-4.45,11.77-.89,11.77-.89,7.56-2.44,6.89.45,6,5.33,6,5.33l.45,6.22s1.33-4.89,7.1.45,6.23-2.57,6.23-2.57,8.67,9.23,19.56-2.1,9.77-11.11,15.11-9.33,3.33,0,6.89,1.55c2.25,1,3,.18,3.21-.53v-5.72c-1,.32-3.73.47-9.67.17-16-.81-23.1,4.53-23.1,4.53s-5.11,4.44-13.78,0S1567,490.9,1567,490.9a13.22,13.22,0,0,0,9.33-5.34c3.79-5.11,13.35-8.44,27.12-9.33s21.34,0,21.34,0V490.9A7.38,7.38,0,0,1,1626,491.43Zm-717,0,2.4-6.55,1.55.88Zm14.83,9.78s-.27-8.33-.21-8.5c0,0,.78-.17,1.11,1.33S923.82,501.23,923.82,501.23Zm27.73,10a3,3,0,0,1-2.88-.72,12.73,12.73,0,0,1,3.11-1.45C952.61,509,953.28,510.73,951.55,511.23Zm29.62-7.56-1.73-.33,2.95-1.72ZM991.61,490c-3,2.67-5.72,5.45-6.62,7.72s-.94,2.23-3.71,2.67-3.34,2.94-5.06,3-5.61-2.72-9.61-1.78c-.38.09,2.21-5.28,4.83-5.55a24.22,24.22,0,0,0,5.5-1.45,44.86,44.86,0,0,0,3-4.83c.18-.72,1.62-2,3.45-2.06s2.38-2,3.67-1.5,1,2.34,2.56,2.17S994.61,487.28,991.61,490ZM1577,478.54c-8,6.36-10.29,10.13-14,11.91s-7.74,4.89-18.85,1.56c-.77-.23,8.21-6.89,9.56-11.34s14.22-11.77,21.32-10S1585,472.18,1577,478.54Z"/><path class="cls-2" d="M1052.41,117.44l-1.19-.77-6.07,4.3s-8.74,2.81-11.12,9-7.71,10.37-12.29,11.4-9.33,8.74-9.33,8.74l-3.86,6.67s-2.23,4.45-.44,7.56,1.92,11.85-1.48,17.18S992.11,187,992.11,187l3.4-6.94c-.27.4-4.39,6.86-7.55,8.72s-14.22,3.71-24.45-2.07-19.55-5.93-20.45-5.63-2.07,3.55-5,5.33-5.62-2.07-12.14,1.48-8.45,7.85-9.57,5.41-13.54-3.78-16.43-2-7.57,1.78-8.45,1.78-4.22-5.78-8.66-.45a23.1,23.1,0,0,1-3.28,3.23c-3.5,2.8-6.83,3.67-7.83,3a54.91,54.91,0,0,0-9.68-4.56l1.25,3.34a70,70,0,0,1,6.54,4.77c1.11.72,6.75-.23,13.43-.82,2.58-.23,5.32-.4,8-.4,9.67,0,4.42-8.45,9-2.67s11.24,6.11,14.24,2.45,8.78-4.11,8.78-4.11,1.77-5.56,9.89-7,6.56-2.12,11.78-3.89,26.22,7.44,33.66,7.66,15.34-3.66,25.89-7.66,7.88-12.56,7.88-12.56-2.43-3.67-1.21-16.33,11.95-15,11.95-15,6.53-2.37,9.64-5,4.29-8.89,10.36-13.34,10.68-5.48,10.68-5.48ZM887.59,196.53s-.15,1,.15,1-1.26.89-1.63.89h-3.63l-.29-.89s2.59-4,5.4-3S887.59,196.53,887.59,196.53ZM891,198h-2.15l2.15-1.6h2.75Zm21.86-3.63-.66.4-3.08-2.11Zm-11.92,0,3.85-2.15,5.85,2.89Zm6.06,2.83-.88,1.57-1.37-1.25Zm0,4.39-.88-1.11,3-.74Zm4.16.52-2-.3,2.4-2.07,1.68,1Zm-.45-2.56c-1.41-.33-2.59-2.35-2.59-2.35l6-.8S912.11,199.9,910.7,199.56Z"/></g><g id="fleches"><path class="cls-3" d="M803.2,290.89l-3.11,5.43L798.58,299l-1.42,2.75c-.95,1.83-1.88,3.64-2.78,5.47l-2.57,5.54q-1.2-3.35-2.35-6.74l-2.34,2.07-1.16,1-.3.26-2,1.95-.17.16-.1.1a106.64,106.64,0,0,0-21,32.64,147,147,0,0,0-10.29,40.55,247.53,247.53,0,0,0-.73,42.28c.85,14.14,2.47,28.31,4.25,42.44s3.89,28.21,6.73,42.12a331.77,331.77,0,0,0,10.82,41.05l1.7,5,1.87,5,1,2.64.15.37.6,1.44,1.2,2.89c1.68-1.71,3.35-3.39,5.05-5l-.11,6.1c0,2,.07,4.07.11,6.13l.08,3.1.18,3.09.43,6.25-4.79-4.08-2.42-2.08-2.34-2.15c-1.55-1.46-3.15-2.92-4.69-4.42l-4.56-4.58q3.63.1,7.21.13l-1.23-3-.62-1.48-.16-.38-1-2.7-1.91-5.08-1.76-5.13a341.5,341.5,0,0,1-11-41.83c-2.88-14.11-5-28.33-6.8-42.56s-3.42-28.47-4.29-42.88a253.41,253.41,0,0,1,.76-43.36,153.78,153.78,0,0,1,10.74-42.3,114.5,114.5,0,0,1,20.2-32.34c.75-.82,1.51-1.63,2.29-2.44l.3-.29,1.51-1.42.59-.57.29-.27,1.21-1.08,2.4-2.12c-2.17-1-4.34-2-6.54-3l6.11-2.14c2-.68,4.1-1.3,6.14-1.92l3-.92,3.07-.83Z"/></g><g id="terre"><path class="cls-4" d="M827.09,915.48c-1.13-5.27-1.46-9-1-11.83Z"/><path class="cls-4" d="M1627.92,498.83V949l-1.73,316.33H819.14v-74.67s4.84-18.66,5.74-22.23-5.74-8.87-5.74-8.87l5.74-16.9v-30.23l-13.52-47.1,13.52-26.67-7.34-48.88L826.92,949s4.68-14.79.9-30.34c-.27-1.13-.52-2.2-.73-3.21l5.95-6.06,5-3h6.87c.89,0,1.78-11.56,3.86-11.85s0-7.42,0-7.42l-2.06-15.1s-.32-10.38,0-13.34-4.73-13.33-5.33-15.4-5.92-8.89-6.82-13.64-16.47-21.78-16.47-21.78c3.93-3.39,10.35-5.34,10-14.57-.67-16.44-12-24-12-24a30.46,30.46,0,0,0-6.89-19.77c0-24.23-8.67-16.23-8-23.35.65-6.89-5-11.28-5.31-11.53l3.76.88.44-2.67,4.88.22,2.23,1.1-2.23,4.68,1.33-1.78,1.12,3.78,1.11-1.78,2.89-2,3.55,2L813.37,714l-4.45,2s9.79-13.79.23-23.79-4-8.21,1.33-20.43-7.56-20.22-7.56-20.22,15.33-12.23,8.9-23.35-14.22-3.1-14.22-3.1,3.77-11.78,12.22-18.68,5.55-21.54,7.55-35.54,5.34-16.46,37.55-29.11,38.68-.22,40.45-5.78,6.67-8.89,11.34-11.34a10.52,10.52,0,0,1,8.44-.88s-.23-10.89,9.1-13.35,6.46,8.46,19.35,6.23,6.65-4.66,20.65-4.88S987.82,502,987.82,502c6.43-12.67,13.78-12.22,15.33-15.34s2.77-11.95,15.56-17.55S1030,455.36,1030,455.36l5.56,1.56s.65-29.56,1.11-34.23,0-28.66,2.21-34.66,8.45-9.34,12.68-6.89,9.77,4.45,23.11,5.1a122.35,122.35,0,0,1,23.77,3.57l-3.11-2.22c16.67-10.45,14.45-2.67,24.45.65S1132,407.81,1132,407.81a25.33,25.33,0,0,1-2.89,8.65c-2.44,4.46-.23,16.68-.23,16.68l-5.55-1.11-1.33,2,2.21,3.56,3.79-.67s2.21,8.22,4.44,15.11,11.12,7.56,15.12,8.66,7.77,5.12,8.65,2,8.9-3.1,8.9-3.1c-.23-3.35,3.1-12.67,6-12.23s.22,3.56,20.22-3.33-7.12,4.89,8.67-1.11-.19-20.94,37.33-10.68,1.34,42.68,32.23,45.35,15.77-10.67,42.44-18.45,25.78,1.32,19.56,16.95,10,20.37,15.77,15.94,53.55-11.79,53.55-11.79-5.77,8.9-6.21,13.79c-.31,3.36,5.48,13.13,15,18.76a29,29,0,0,0,10.11,3.78,25.53,25.53,0,0,0,4.91.35c8.71-.23,15.66,3.16,21.82,4.32,5.87,1.13,11,.24,16.33-7.73h0c.61-.91,1.22-1.92,1.84-3.05,11.33-20.48,20.31-20,20.65-20-.13,0-2.21-.22,5.35-15.43,7.77-15.67,16.89-9.22,24-5.89s3.54,14.22-.89,18.45a14,14,0,0,0-4.45,9.33l3.11-1.33-2.88,5.1s6.44-3.33,2,2.67-2,14.23-2,14.23l2.65-3.93.67-3.42,2.45,3.42.23-4.3,2.22,3.33,2.89-1.1L1517.6,508h3.11l-4.67-5.79s7.78.45,12.88,2.45,8.23,1.12,15.79-4.45,11.77-.88,11.77-.88,7.56-2.44,6.89.45,6,5.33,6,5.33l.45,6.22s1.33-4.9,7.1.45,6.23-2.58,6.23-2.58,8.67,9.23,19.56-2.09,9.77-11.11,15.11-9.33,3.33,0,6.89,1.55C1627,500.35,1627.69,499.54,1627.92,498.83Z"/><path class="cls-4" d="M1626,3.34V464.77c-8.29-.46-4.16-3.76-15.44-4.43s-15.12,5.78-15.12,5.78c-15.77-1.11-4.88,1.11-20,1.11-5.67,0-9.52.34-12.62,1.31-5.15,1.62-8.21,5-14,11.36-9.34,10.22-7.56,21.55-20,21.33s-12-10.67-8.45-18,2.89-12.45-4-12.89-10.44-16.44-28.44-9.78-26.45,30.45-29.33,33.34-4,7.77-11.34,13.54-35.78,5.79-43.11-2-1.78-21.11-1.78-21.11l-2.22-7s-2.89,1.44-32,7-31.11,9.33-29.33-10.22-8.89-20.45-18-21.11-19.56,9.55-38.45,15.33-24-10.22-21.77-20.44-18.45-34.89-20.23-32-32,4.66-35.33,4.66-8.89,6.89-26.22,13.11a35.25,35.25,0,0,1-10.32,2.34c-7.9.33-9.52-4.5-13-6.34-4.66-2.44-4.66-6.89-11.11-15.33-3.48-4.56-3.46-6.4-3.12-7,.65-.26.24-.45,0,0l-.43.13c-2.67.67-2.67-1.78-8.22-12.67s-3.56-8.22-11.78-14.88a17.36,17.36,0,0,0-8.94-3.8h-.12a14.65,14.65,0,0,0-1.83-.14,20.11,20.11,0,0,0-7.11,1.06s-23.11-1.34-31.11.22-10.67,2.44-19.78,1.33-7.56-.44-12.22-2.89-8.67.45-14.67,1.78-9.78,15.78-10,21.33,2.83,9.67,2.33,11.34a62.09,62.09,0,0,0-1.22,11.78c.17,2.5,2.56,13.94,5.67,17s2.44,7.38,2.33,10.83-.11,11-.11,11-6.78-.45-7.22,3.67-1.89,4.05-2.95,5.5-9.22,5.61-9.83,7.16-6.22,1.61-5.44,7.56-2.23,4.89-4.34,5.11-3.66-1.78-4.94-2.67-3.28,1-6.22,1.61-3.23-.83-3.23-.83c-.22,2.33-1.05,5.17-5.89,8.67s-3.61-4.73-7.38,2.39-12.78,9.22-12.78,9.22c-17.89,2.11-16.45-1.11-16.67-6.11s-.22-5.23-3.44-5.67-9.89-.33-11.56-4.67-4.78-4.11-7.67-6.33-1.88-9.78-1.88-9.78C890.78,451.34,901,436.78,901,436.78s2.11,13.89,4.67,20.67,7.66,7.56,7.66,7.56c-.66-7.34,4.78-6.56,4.78-6.56s-2.44-.78-.22-4.55,3.44-7.78,6.22-11.89-.15-14.63,5.78-21.45-3.56-11,1.18-23.55,1.19-12.6,1.19-12.6c-3.56-23.26-31.7-36.59-34.67-37.92s-5.48-1.93-11.85-15.11-9.18-4-9-9.93-4.59-12-4.59-12c-6.22,3.26-3.41-7.11-8.89-.15s-4.89,1.34-7.41-1-.59-5.49-1.77-5.49-1.63-1.63-2.37-4.14S841.44,290,839.37,288s-5-4-3.26-5.63-.44-2.67-.89-3.56-3-4.74-2.52-3.4S829,277,829,277s4.3-2.08-2.67-.26-.66-6.52-4.77-2-7.67-.44-7.78,1-.11.56-3.78,1a12.35,12.35,0,0,1-9.78-2.77c-2.78-2.34-2.22-7.56-5.33-10.34s-1.89-6.55-2.78-7.77-2.44-5.45-1.89-10.23-2.11-7.77-3-10-8.22-9.55-8.22-9.55,1.78-4.11-.44-5.56c-1.52-1-1.23-3-.89-4.18,0-.13.07-.24.11-.34a2.56,2.56,0,0,1,.09-.26c0-.13.08-.22.1-.27s0,0,0,.06a.15.15,0,0,0,0,.07c-.05.37.19,1,3.49-1.3,4.23-2.89,11.12,1,16.67.33s4.56,0,10.33,1.45,12.56-4,12.56-4,7.44-6.89,9-7.67,6.78-.44,6.78-.44,4.33-5.67,13.66-6.78,17.78,7.22,19.34,8.22,11.78-1.22,21.44-1.22,4.42-8.45,9-2.67,11.24,6.11,14.24,2.45,8.78-4.11,8.78-4.11,1.78-5.56,9.89-7,6.56-2.12,11.78-3.89,26.22,7.44,33.67,7.66,15.33-3.66,25.88-7.66,7.89-12.56,7.89-12.56-2.44-3.67-1.22-16.33,12-15,12-15,6.52-2.37,9.63-5,4.3-8.89,10.37-13.34,10.67-5.48,10.67-5.48l-1.33-.86-1.19-.77-6.07,4.3s-8.74,2.81-11.11,9-7.71,10.37-12.3,11.4-9.33,8.74-9.33,8.74l-3.85,6.67s-2.23,4.45-.45,7.56,1.93,11.85-1.48,17.18S992.11,190,992.11,190l3.4-6.94c-.26.4-4.39,6.86-7.55,8.72s-14.22,3.71-24.44-2.07-19.56-5.93-20.45-5.63-2.07,3.55-5,5.33-5.63-2.07-12.15,1.48-8.45,7.85-9.56,5.41-13.55-3.78-16.44-2-7.56,1.78-8.45,1.78-4.22-5.78-8.66-.45-9.78,7.11-11.11,6.23-11.56-6.67-21.34-7.12a26.49,26.49,0,0,0-10.4,1.95c-5.66,2.12-10.47,5.27-13.15,5.83-4.22.89-9.78,9.11-13.34,10.67s-4.44-.22-9.33-1.56-24.22,0-24.22,0-1.56-16.66-2.22-26.22-8-30.89-8-30.89,1.33-17.33,6-26.22,4,.67,2.89,3.33-.67,8.45-.67,8.45l-1.11,6,5.52-2.89-3.08,4.67,3.08,4.66V165s2-3.56,1.59,2.22,4.44,14.22,4.44,14.22l3.11-2,4.23,6,.89-5.55,1.11,6,2.44,2c3.56-6.67-1.33-20.89-3.55-23.34a26.32,26.32,0,0,1-3.78-5.78l-3.34-4.88s-2.66,5.33-2.44,2.66-2.67-12.89-2.67-12.89a66.89,66.89,0,0,0-1.22-9c-.06-.25-.09-.4-.09-.4a10.45,10.45,0,0,0-1.58-3.94c-2.22-2.67,1.34-29.33,1.34-29.33s-2.22-6.23-3.78-21.56c0-.3-.06-.6-.1-.89-1.71-14.68-8-20.8-11.23-27.78s2.66-4.44,4.66-8.66,1.34-11.34-3.33-18.67c-3.7-5.81-5.17-15-5.61-18.62-.12-.94-.17-1.49-.17-1.49Z"/><path class="cls-5" d="M777.67,182.45c-.28-3.88-1.65-9.71-3.18-15.26-.53-1.92-1.08-3.8-1.61-5.57-.11-.39-.23-.78-.35-1.15-.57-1.89-1.12-3.61-1.57-5-.09-.28-.18-.55-.26-.81s-.17-.5-.24-.72c-.49-1.49-.79-2.37-.79-2.37s.16-2.05.55-5.1c.07-.55.15-1.14.24-1.75,0-.31.09-.63.14-1l.15-1c.32-2,.72-4.15,1.2-6.34.17-.73.34-1.46.52-2.18a41.85,41.85,0,0,1,3.2-8.93q.41-.77.75-1.35c.15-.26.3-.5.44-.71s.28-.4.4-.57.25-.31.36-.44l.17-.17c.52-.53.9-.57,1.15-.29a1.57,1.57,0,0,1,.32.8,10.94,10.94,0,0,1,0,3.22,12.31,12.31,0,0,1-.66,2.84,7.52,7.52,0,0,0-.38,1.26c0,.12,0,.24-.07.36L778,131a34.93,34.93,0,0,0-.1,6.1l-1.11,6,5.5-2.88h0l-3.08,4.67,3.08,4.66V162a4.56,4.56,0,0,1,.54-.74l.09-.09c.26-.24.54-.38.73-.1a.67.67,0,0,1,.09.14,1.25,1.25,0,0,1,.07.23,1.07,1.07,0,0,1,.06.27,11.06,11.06,0,0,1,0,2.51,16.9,16.9,0,0,0,.83,5.87c.11.38.24.76.36,1.13s.26.74.39,1.09c.21.54.42,1.06.62,1.56.14.33.28.65.42,1,.28.62.54,1.17.78,1.66.6,1.21,1,2,1,2l3.11-2,4.23,6,.89-5.52,1.11,6,2.44,2c2.31-4.33,1.06-11.85-.71-17.26-.13-.39-.26-.77-.39-1.13a27,27,0,0,0-1.2-2.89,11.81,11.81,0,0,0-.57-1.08,5.62,5.62,0,0,0-.68-1,22.65,22.65,0,0,1-2.18-2.9,30.28,30.28,0,0,1-1.6-2.88l-3.34-4.88a27.38,27.38,0,0,1-1.49,2.62c-.13.18-.25.35-.36.48s-.39.37-.49.28-.14-.29-.1-.72a11.84,11.84,0,0,0-.24-2.62,0,0,0,0,0,0,0c-.09-.62-.22-1.28-.37-2s-.3-1.41-.47-2.11c-.74-3.17-1.58-6.16-1.58-6.16s-.2-3.29-.77-6.67c-.13-.78-.28-1.57-.45-2.32-.06-.25-.09-.4-.09-.4-.1-.42-.21-.83-.33-1.22a7.86,7.86,0,0,0-1.25-2.72c-2.22-2.67,1.34-29.33,1.34-29.33l-.15-.47c0-.12-.09-.28-.14-.46s0-.18-.08-.28c-.09-.31-.19-.68-.3-1.12l-.24-1c-.29-1.21-.63-2.77-1-4.72-.61-3.34-1.29-7.81-1.88-13.56,0-.3-.06-.6-.1-.89-1.71-14.68-8-20.8-11.23-27.78-.18-.38-.32-.72-.45-1a0,0,0,0,0,0,0c-.84-2.17-.6-3.22.13-3.9l.32-.26a5.58,5.58,0,0,1,.6-.34l.42-.21c.44-.2.93-.4,1.4-.65a4.34,4.34,0,0,0,.46-.28,4,4,0,0,0,.88-.69,4.32,4.32,0,0,0,.91-1.28,11.28,11.28,0,0,0,1-3.82A18,18,0,0,0,773,30q-.15-.72-.36-1.47c-.08-.34-.18-.68-.29-1-.15-.49-.33-1-.52-1.48s-.36-.92-.57-1.38A31.08,31.08,0,0,0,769,20.45c-.22-.35-.44-.71-.65-1.09l-.37-.71c-3-5.76-4.19-13.59-4.59-16.82-.06-.47-.1-.84-.13-1.1s0-.39,0-.39h26.44s1.24,15.06.17,18.61-.17,19-.17,19l5.86,14.78V91l1.84,4.24-7.53,12,7,14,9.36,10.5,3.43,14.94,10.64,11.83-3.07,8.3.82,10.3,10.75-.37,17.33-9.93,6.93,3.57,13.05,6.73,4.49,5.07,8.92,13.78c-3.5,2.8-6.83,3.67-7.83,3a54.91,54.91,0,0,0-9.68-4.56h0l-.15-.05c-.54-.2-1.09-.39-1.66-.56-.28-.1-.56-.19-.85-.27s-.57-.18-.86-.25-.58-.17-.88-.24-.59-.16-.89-.23c-.59-.15-1.2-.28-1.8-.39h0c-.5-.1-1-.18-1.5-.25l-.29,0c-.26,0-.53-.08-.79-.1l-.43-.05c-.51,0-1-.09-1.52-.11a26.49,26.49,0,0,0-10.4,1.95c-5.66,2.12-10.47,5.27-13.15,5.83-1.85.39-3.95,2.18-6,4.2l-.44.44-.45.44c-.15.15-.29.3-.44.44l-.88.89-.86.86a17.2,17.2,0,0,1-4.24,3.4c-3.55,1.55-4.44-.22-9.33-1.56s-24.22,0-24.22,0,0-.33-.09-.92c0-.14,0-.28,0-.44,0-.31-.06-.68-.1-1.08s0-.64-.09-1-.06-.72-.1-1.12,0-.53-.07-.81c-.06-.69-.13-1.44-.2-2.22-.14-1.56-.29-3.28-.45-5.07l-.09-1.08c-.09-1.08-.18-2.18-.28-3.27l-.09-1.09c-.09-1.09-.17-2.17-.26-3.22,0-.35,0-.7-.08-1-.05-.68-.1-1.35-.15-2S777.71,183.05,777.67,182.45Z"/><path class="cls-5" d="M941.58,314l-6.42,7.14v28.94l-9,16.37,0,0-.12-.17c-.26-.38-.52-.76-.79-1.12s-.63-.85-1-1.26-.49-.63-.74-.93c-.55-.67-1.1-1.32-1.68-2-.39-.45-.8-.88-1.22-1.31a61.6,61.6,0,0,0-4.5-4.26c-.25-.22-.49-.43-.73-.62-1-.83-2-1.61-2.94-2.34l-.06-.05c-.47-.36-.93-.7-1.39-1q-1.45-1.05-2.82-1.95c-2.06-1.37-4-2.51-5.6-3.41l-.48-.27c-.43-.24-.83-.46-1.22-.66l-.59-.3c-1.35-.71-2.32-1.16-2.75-1.35-3-1.34-5.48-1.93-11.85-15.11a34,34,0,0,0-1.8-3.31c-.18-.3-.37-.58-.55-.84s-.35-.51-.53-.73c-3.1-4.06-5-2.37-5.75-2.88-.31-.2-.44-.75-.41-2.17.15-5.92-4.59-12-4.59-12-6.22,3.26-3.41-7.11-8.89-.15-2.84,3.61-4.05,3.84-4.9,2.9s-1.29-2.79-2.51-3.93h0a4.39,4.39,0,0,1-1.2-2h0c0-.14-.07-.29-.1-.43a7.84,7.84,0,0,1-.07-1.42c0-.75.11-1.32-.11-1.54a.35.35,0,0,0-.28-.11,1.1,1.1,0,0,1-.77-.3,2.27,2.27,0,0,1-.45-.57,17.93,17.93,0,0,1-1.15-3.27c-.74-2.52-10.23-8.6-12.3-10.67l-.31-.3c-.32-.31-.65-.61-1-.9s-.86-.78-1.24-1.16c-.84-.87-1.43-1.69-1.26-2.46a2.25,2.25,0,0,1,.08-.24.2.2,0,0,0,0-.08,1.36,1.36,0,0,1,.12-.17.46.46,0,0,1,.07-.1,2.13,2.13,0,0,1,.21-.22c1.78-1.63-.44-2.67-.89-3.56s-3-4.74-2.52-3.4S829,274,829,274h0a6,6,0,0,0,1.18-.71c.11-.09.16-.18.09-.22s-1.13-.06-3.95.68c-3.41.89-3.64-.66-3.47-1.93,0-.17.06-.34.08-.49a1.68,1.68,0,0,0,.06-.27c.07-.33.12-.57.06-.62s-.26,0-.69.46l-.5.53-.31.35-.26.27c-4,4.08-7.41-.68-7.52.73s-.11.56-3.78,1a12.35,12.35,0,0,1-9.78-2.77,6.18,6.18,0,0,1-1.57-2.21c-.19-.43-.36-.89-.52-1.36-.27-.82-.52-1.68-.8-2.53-.08-.25-.16-.49-.25-.73s-.09-.23-.14-.35a9,9,0,0,0-.64-1.37,6.89,6.89,0,0,0-.4-.64,5.39,5.39,0,0,0-.47-.6,4.66,4.66,0,0,0-.54-.55A6.47,6.47,0,0,1,793,257.6c-.05-.19-.1-.38-.14-.57a14.84,14.84,0,0,1-.25-1.87,5.06,5.06,0,0,0-.45-2.26c-.89-1.23-2.44-5.45-1.89-10.23s-2.11-7.77-3-10a10.08,10.08,0,0,0-1.37-2.06c-1.71-2.18-4.52-5.11-6-6.57a2.49,2.49,0,0,0-.23-.23,4.36,4.36,0,0,0-.36-.37,1.82,1.82,0,0,0-.14-.14l-.1-.1-.06-.06v0a8.15,8.15,0,0,0,.62-3.81,2.62,2.62,0,0,0-.53-1.26,2.08,2.08,0,0,0-.53-.49,3.55,3.55,0,0,1-.31-.23,3.34,3.34,0,0,1-.77-3.13,7.14,7.14,0,0,1,.19-.82c0-.13.07-.24.11-.34a2.56,2.56,0,0,1,.09-.26c0-.13.08-.22.1-.27s0,0,0,.06a.15.15,0,0,0,0,.07c-.05.37.19,1,3.49-1.3,4.23-2.89,11.12,1,16.67.33s4.56,0,10.33,1.45c5.46,1.36,11.81-3.42,12.5-4l0,0h0l0,0,.06-.06.11-.09.13-.13c1.45-1.33,7.31-6.69,8.68-7.37,1.56-.78,6.78-.44,6.78-.44s4.33-5.67,13.66-6.78a14.91,14.91,0,0,1,3.27,0c.26,0,.51,0,.76.09a2.25,2.25,0,0,1,.36.06l.51.09a8.63,8.63,0,0,1,.88.2l.65.17a23.14,23.14,0,0,1,3.27,1.21l.66.31.63.32c.63.33,1.23.67,1.81,1a70,70,0,0,1,6.54,4.77c1.11.72,6.75-.23,13.43-.82l7.45,11.51,10.27,16.53v7.9l5.18,5.05L909,265.7l-3.64,5.4,15.5,10.47,5.33,2.83,9,6.56C939,293.62,941.58,314,941.58,314Z"/><path class="cls-6" d="M846.84,893.92c-2.08.29-3,11.85-3.86,11.85h-6.87l-5,3-6,6.06-1-11.83c.66-4.08,3-6.13,7.05-7.84,7.33-3.11,8.89,5.33,2-34.22-6.47-37.1-7.25-21.62-15.57-35.69-.56-.93-1.14-2-1.76-3.2-4.39-8.58-2.83-12.12.25-14.77,0,0,15.58,17,16.47,21.79s6.23,11.56,6.82,13.63,5.63,12.44,5.33,15.41,0,13.33,0,13.33l2.07,15.11S848.91,893.62,846.84,893.92Z"/><path class="cls-7" d="M1016.78,468.45l-2.63,10.6-4.06,2.89-4,12.57-1.77.21c-1.78.2-9.34,6.9-9.34,6.9a57,57,0,0,1-14.07,7.44c-8.29,3-3.7,1.9-9,4.12s0,2.22,0,2.22,11.11-2.22,14.22-2.22,5.34,0,6.71,2.91,4.85,5.09,4.41,7.31-2.67,8-4.41,8.8-5.82,5-8.93,4-1.78,1.41-5.33.08,0,0-15.11-6.22,0,0-3.11-4-1.78-3.56-5.78-8-1.91,0-1.91,0L947,522.51H930.9c-16.09,0-4.81-2.22-7.3-2.67s-10.38,3.28-8.17,5.78,2.69,10.59,2.69,10.59l-14,5s5.48,2.66,6.8,1.88,1.79,7,0,14.56,0,9.78,0,12-13.32,8-14.65,9.78,7.55.89,12.44,1.78,0,0,3.11,1.69,2.22,1.66,2.22,1.66l-1.33,5.74,2.22,6.46,3.14,6.46s1.75,8.21,0,9.54,7.53,7.56,7.53,7.56l.89-5.36a42,42,0,0,0,8.89,2.39c4.44.59,8.44,12.75,8.44,12.75l-9.78,11.55s1.78-1.33,5.34,0,2.66,4,1.33,4.89-1.33,6.22-1.33,6.22,4.89,8.89,6.22,16,0,1.78-5.33,4.61-4.45,4.28-7.11,2.95,0,0-2.31-2.95a23.13,23.13,0,0,0-4.81-4.61s.89,8,0,12.39-4,1-8,0-1.8-5.28-1.4-7.78-7-2.83-7-2.83l-1.81,7.56s4,11.55,1.81,15.11,1.75,14.22,0,20.44-4.47,11.56-6.23,23.9.87,9.88,2.64,11.05,5.78,6.39,6.67,8.61-4,3.55-9.31,5.78-9.36,5.33-15.36,8.77-3.27,8.56-3.27,8.56l3.27,7.11A97.22,97.22,0,0,1,907,784.47c8.89-.26,6.23,4.71,2.7,6s-10.19,9.65-10.19,9.65V807s7.94-3.56,10.19-5.24,0-5,0-5,15.53,2.23,17.75,3.43c0,0,1.33-12.32,1.78-13.65s10.66-8.49,10.66-12.85c0-2.12.84-2.17,1.71-1.67a8.7,8.7,0,0,1,1.85,1.67L941.65,778s6.22,5.38,8,6.45,4-2,4-2H959l12.45,2,5.78,6.93s1.77,4-2.23,8.76-6.66,0-6.66,0L955,801.72l-9.77,6.12s-6.72,3.37-14,6.11c-5.15,1.94-10.59,3.57-14.17,3.5-8.66-.18-7.8-.16-13.56,2.22-4.49,1.86-4.39,4.44-4.12,5.48h0a2.15,2.15,0,0,0,.16.46s6.16,2.67,7.94,4,15.88,6.22,15.88,6.22a18.66,18.66,0,0,1,2.39.24,61.16,61.16,0,0,1,6.62,1.43c6.22,1.67,12.44-.33,13.77,0s3.12,9.89,3.12,9.89l-8.45,1.33c-8.44,1.34,0,2.67,0,6.67s0,0-4.67,4.44-6.44,9.34-6.7,11.12-4.18,10.66-3.74,12.44,4.89,6.67,3.46,9.47a10.56,10.56,0,0,1-3,3.86l-2.78,3.11a44.58,44.58,0,0,0,5,5.34c1.77,1.33,0,16.44,0,16.44h-5l-13.62,5.78s-.48,4.89,0,7.11c.33,1.58-5,2.48-9,2.72l-3.73,15.06L903.45,973l16.27,116.74L931.58,1147l-6.52-3-3.56,3,4.74,24.29s3.26,11.56,5.34,14.52,6.22,9.48,6.22,9.48l-1.71,10.37-2.44,5.56s.89.22-3.85,0-8.89,0-8.89,0-3.94,7.78-4.19,9.26,1.23,8.29,3.3,11.26-1.48,12.44.3,14.51,17.48,10.67,17.48,10.67,6.22,5.93,8.59,4.45,7.41-9.71,7.41-9.71a39.2,39.2,0,0,0,3.55,3.48c1.49,1.19,7.56,9.57,7.56,9.57H817.21V1190s4.84-18.67,5.74-22.23-5.74-8.88-5.74-8.88L823,1142v-30.23l-13.52-47.11L823,1038l-7.34-48.89L825,948.34s4.68-14.78.9-30.33c-1.7-7-2.28-11.71-1.72-15l1,11.83,6-6.06,5-3H843c.89,0,1.78-11.56,3.86-11.85s0-7.41,0-7.41l-2.07-15.11s-.31-10.37,0-13.33-4.74-13.34-5.33-15.41-5.93-8.89-6.82-13.63-16.47-21.79-16.47-21.79c3.93-3.39,10.35-5.34,10-14.57-.67-16.44-12-24-12-24a30.46,30.46,0,0,0-6.89-19.77c0-24.23-8.67-16.23-8-23.34.65-6.9-5-11.28-5.31-11.54l3.76.88.44-2.67,4.88.22,2.23,1.11L803,718.23l1.33-1.78,1.12,3.78,1.11-1.78,2.89-2,3.55,2-1.55-5.11-4.45,2s9.79-13.78.23-23.78-4-8.22,1.33-20.44S801,650.9,801,650.9s15.33-12.23,8.9-23.34-14.22-3.11-14.22-3.11,3.77-11.78,12.22-18.67,5.55-21.55,7.55-35.55,5.34-16.45,37.55-29.11,38.68-.22,40.45-5.78,6.67-8.89,11.34-11.33a10.55,10.55,0,0,1,8.44-.89s-.23-10.89,9.1-13.34,6.46,8.45,19.35,6.23,6.65-4.67,20.65-4.89,23.57-9.78,23.57-9.78c6.43-12.67,13.78-12.22,15.33-15.33S1004,474.06,1016.78,468.45Z"/><path class="cls-8" d="M1626,498.14v450.2l-1.73,316.33H964.91s-6.07-8.38-7.56-9.57a39.2,39.2,0,0,1-3.55-3.48s-5,8.22-7.41,9.71-8.59-4.45-8.59-4.45-15.71-8.59-17.48-10.67,1.77-11.55-.3-14.51-3.56-9.78-3.3-11.26,4.19-9.26,4.19-9.26,4.15-.22,8.89,0,3.85,0,3.85,0l2.44-5.56,1.71-10.37s-4.15-6.52-6.22-9.48-5.34-14.52-5.34-14.52L921.5,1147l3.56-3,6.52,3-11.86-57.19L903.45,973l-6.54-20.74,3.73-15.06c4.06-.24,9.37-1.14,9-2.72-.47-2.22,0-7.11,0-7.11l13.62-5.78h5s1.77-15.11,0-16.44a44.58,44.58,0,0,1-5-5.34l2.78-3.11a10.56,10.56,0,0,0,3-3.86c1.43-2.8-3-7.69-3.46-9.47s3.48-10.67,3.74-12.44,2-6.67,6.7-11.12,4.67-.44,4.67-4.44-8.44-5.33,0-6.67l8.45-1.33s-1.78-9.56-3.12-9.89-7.55,1.67-13.77,0a61.16,61.16,0,0,0-6.62-1.43,18.66,18.66,0,0,0-2.39-.24s-14.1-4.88-15.88-6.22-7.94-4-7.94-4-1.8-3.57,4-6,4.9-2.4,13.56-2.22c3.58.07,9-1.56,14.17-3.5,7.31-2.74,14-6.11,14-6.11l9.77-6.12,13.34-1.56s2.66,4.76,6.66,0,2.23-8.76,2.23-8.76l-5.78-6.93-12.45-2h-5.33s-2.22,3-4,2-8-6.45-8-6.45l1.78-4.36a8.7,8.7,0,0,0-1.85-1.67c-.87-.5-1.71-.45-1.71,1.67,0,4.36-10.22,11.52-10.66,12.85s-1.78,13.65-1.78,13.65c-2.22-1.2-17.75-3.43-17.75-3.43s2.24,3.32,0,5S899.49,807,899.49,807v-6.8s6.66-8.32,10.19-9.65,6.19-6.3-2.7-6a97.22,97.22,0,0,0-18.89,2.93l-3.27-7.11s-2.74-5.12,3.27-8.56,10-6.55,15.36-8.77,10.2-3.56,9.31-5.78-4.89-7.45-6.67-8.61-4.39,1.29-2.64-11.05,4.47-17.68,6.23-23.9-2.2-16.89,0-20.44-1.81-15.11-1.81-15.11l1.81-7.56s7.44.33,7,2.83-2.57,6.84,1.4,7.78,7.09,4.39,8,0,0-12.39,0-12.39a23.13,23.13,0,0,1,4.81,4.61c2.31,2.95-.36,1.62,2.31,2.95s1.77-.12,7.11-2.95,6.66,2.5,5.33-4.61-6.22-16-6.22-16,0-5.33,1.33-6.22,2.22-3.55-1.33-4.89-5.34,0-5.34,0l9.78-11.55s-4-12.16-8.44-12.75a42,42,0,0,1-8.89-2.39l-.89,5.36s-9.27-6.22-7.53-7.56,0-9.54,0-9.54L915,596.73l-2.22-6.46,1.33-5.74s.89,0-2.22-1.66,1.78-.8-3.11-1.69-13.78,0-12.44-1.78S911,571.84,911,569.62s-1.8-4.44,0-12,1.31-15.34,0-14.56-6.8-1.88-6.8-1.88l14-5s-.48-8.09-2.69-10.59,5.67-6.22,8.17-5.78-8.79,2.67,7.3,2.67H947l5.65-4.44s-2.09-4.45,1.91,0,2.67,4,5.78,8-12-2.23,3.11,4S975,535,978.54,536.29s2.22-1,5.33-.08,7.2-3.2,8.93-4,4-6.58,4.41-8.8-3-4.4-4.41-7.31-3.59-2.91-6.71-2.91-14.22,2.22-14.22,2.22-5.33,0,0-2.22.75-1.12,9-4.12A57,57,0,0,0,995,501.62s7.56-6.7,9.34-6.9l1.77-.21,4-12.57,4.06-2.89,2.63-10.6c12.77-5.61,11.33-13.78,11.33-13.78l5.56,1.56s.65-29.56,1.11-34.22,0-28.67,2.21-34.67,8.45-9.33,12.68-6.89,9.77,4.45,23.11,5.11a121.93,121.93,0,0,1,23.77,3.56l-3.11-2.22c16.67-10.45,14.45-2.67,24.45.66s12.22,19.56,12.22,19.56a25.41,25.41,0,0,1-2.89,8.66c-2.44,4.45-.23,16.67-.23,16.67l-5.55-1.11-1.33,2,2.21,3.56,3.79-.67s2.21,8.22,4.44,15.11,11.12,7.56,15.12,8.67,7.77,5.11,8.65,2,8.9-3.11,8.9-3.11c-.23-3.34,3.1-12.67,6-12.23s.22,3.56,20.22-3.33-7.12,4.89,8.67-1.11-.19-20.94,37.33-10.67,1.34,42.67,32.23,45.34,15.77-10.67,42.44-18.45,25.78,1.33,19.56,16.95,10,20.38,15.77,15.94S1399,479.56,1399,479.56s-5.77,8.89-6.21,13.78c-.31,3.36,5.48,13.13,15,18.76a29,29,0,0,0,10.11,3.78,25.53,25.53,0,0,0,4.91.35c8.71-.22,15.66,3.16,21.82,4.33,5.87,1.12,11,.23,16.33-7.73h0c.6-.92,1.22-1.93,1.84-3.05,11.33-20.48,20.31-20,20.65-20-.13,0-2.21-.22,5.35-15.44,7.77-15.67,16.89-9.22,24-5.89s3.54,14.22-.89,18.45a14,14,0,0,0-4.45,9.33l3.11-1.33-2.88,5.11s6.44-3.34,2,2.66-2,14.23-2,14.23l2.65-3.93.67-3.41,2.45,3.41.23-4.3,2.22,3.34,2.89-1.11-3.11-3.56h3.11l-4.67-5.78s7.78.45,12.88,2.45,8.23,1.11,15.79-4.45,11.77-.89,11.77-.89,7.56-2.44,6.89.45,6,5.33,6,5.33l.45,6.22s1.33-4.89,7.1.45,6.23-2.57,6.23-2.57,8.67,9.23,19.56-2.1,9.77-11.11,15.11-9.33,3.33,0,6.89,1.55C1625,499.66,1625.76,498.85,1626,498.14Z"/><line class="cls-9" x1="931.18" y1="813.95" x2="925.7" y2="836.08"/><path class="cls-9" d="M888.09,937.18s-7.34-9.78,0-9.78,8.67,7.11,8.67,7.11-2.67,2.22,0,2.67a21.09,21.09,0,0,0,3.88.05"/><polyline class="cls-9" points="941.58 771.99 1014.15 479.05 1016.32 477.51 1018.09 472.92 1018.09 470.96 1016.78 468.45"/><polygon class="cls-10" points="916.72 990.29 950.94 995.18 985.61 961.4 1017.61 961.4 1032.72 978.29 1054.05 985.84 1070.5 989.4 1073.16 999.62 1094.94 1027.18 1091.38 1049.84 1090.94 1087.18 1096.72 1119.62 1098.94 1149.4 1105.02 1172.95 1112.85 1200.51 1121.16 1232.51 1121.16 1251.62 1054.94 1239.62 1012.27 1231.62 999.83 1211.18 962.5 1203.62 944.72 1106.51 937.02 1069.4 926.5 1038.29 926.05 1009.84 922.94 999.62 916.72 990.29"/><path class="cls-11" d="M914.05,1073.84l-1.33-11.55-1.78-7.34-1.26-10,4.37-.88h4.22c.67,0,1.34-6,1.34-6l-3.56-3.78,2.45-3.34,1.11-7.55v-9.78l-4-14,7.77,10,7.34,19.78L937,1041l3.7,3.78,3.55,14.67s-1.77,7.11-1.77,10.67,5.77,24.88,6.66,27.11,0,17.11,0,17.11l1.56,15.78,2.22,19.33,1.33,13.33,4.67,21.78L962.5,1201v2.67l-7.56-24.44-3.11-12.89-7.11-16.45-.89-11.11-1.33-12-5.48-4.44-4.3,5.78v-12l3.37-4.45-6.48,1.78L937,1105l-5.64-3.33-4-11.33,5.34-4.45-6.22-1.33,1.77-3.11-10.22-20.89Z"/><path class="cls-8" d="M1626,.34V461.77c-8.29-.46-4.16-3.76-15.44-4.43s-15.12,5.78-15.12,5.78c-15.77-1.11-4.88,1.11-20,1.11-5.67,0-9.52.34-12.62,1.31-5.15,1.62-8.21,5-14,11.36-9.34,10.22-7.56,21.55-20,21.33s-12-10.67-8.45-18,2.89-12.45-4-12.89-10.44-16.44-28.44-9.78-26.45,30.45-29.33,33.34-4,7.77-11.34,13.54-35.78,5.79-43.11-2-1.78-21.11-1.78-21.11l-2.22-7s-2.89,1.44-32,7-31.11,9.33-29.33-10.22-8.89-20.45-18-21.11-19.56,9.55-38.45,15.33-24-10.22-21.77-20.44-18.45-34.89-20.23-32-32,4.66-35.33,4.66-8.89,6.89-26.22,13.11a35.25,35.25,0,0,1-10.32,2.34c-7.9.33-9.52-4.5-13-6.34-4.66-2.44-4.66-6.89-11.11-15.33-3.48-4.56-3.46-6.4-3.12-7,.65-.26.24-.45,0,0l-.43.13c-2.67.67-2.67-1.78-8.22-12.67s-3.56-8.22-11.78-14.88a17.36,17.36,0,0,0-8.94-3.8h-.12a14.65,14.65,0,0,0-1.83-.14,20.11,20.11,0,0,0-7.11,1.06s-23.11-1.34-31.11.22-10.67,2.44-19.78,1.33-7.56-.44-12.22-2.89-8.67.45-14.67,1.78-9.78,15.78-10,21.33,2.83,9.67,2.33,11.34a62.09,62.09,0,0,0-1.22,11.78c.17,2.5,2.56,13.94,5.67,17s2.44,7.38,2.33,10.83-.11,11-.11,11-6.78-.45-7.22,3.67-1.89,4.05-2.95,5.5-9.22,5.61-9.83,7.16-6.22,1.61-5.44,7.56-2.23,4.89-4.34,5.11-3.66-1.78-4.94-2.67-3.28,1-6.22,1.61-3.23-.83-3.23-.83c-.22,2.33-1.05,5.17-5.89,8.67s-3.61-4.73-7.38,2.39-12.78,9.22-12.78,9.22c-17.89,2.11-16.45-1.11-16.67-6.11s-.22-5.23-3.44-5.67-9.89-.33-11.56-4.67-4.78-4.11-7.67-6.33-1.88-9.78-1.88-9.78C890.78,448.34,901,433.78,901,433.78s2.11,13.89,4.67,20.67,7.66,7.56,7.66,7.56c-.66-7.34,4.78-6.56,4.78-6.56s-2.44-.78-.22-4.55,3.44-7.78,6.22-11.89-.15-14.63,5.78-21.45-3.56-11,1.18-23.55,1.19-12.6,1.19-12.6a36.47,36.47,0,0,0-6.07-14.92l9-16.37V321.18l6.42-7.14S939,293.62,935.16,291l-9-6.56-5.33-2.83-15.5-10.47,3.64-5.4-2.88-23.08-5.18-5.05v-7.9l-10.27-16.53-7.45-11.51c2.58-.23,5.32-.4,8-.4,9.67,0,4.42-8.45,9-2.67s11.24,6.11,14.24,2.45,8.78-4.11,8.78-4.11,1.78-5.56,9.89-7,6.56-2.12,11.78-3.89,26.22,7.44,33.67,7.66,15.33-3.66,25.88-7.66,7.89-12.56,7.89-12.56-2.44-3.67-1.22-16.33,12-15,12-15,6.52-2.37,9.63-5,4.3-8.89,10.37-13.34,10.67-5.48,10.67-5.48l-1.33-.86-1.19-.77-6.07,4.3s-8.74,2.81-11.11,9-7.71,10.37-12.3,11.4-9.33,8.74-9.33,8.74l-3.85,6.67s-2.23,4.45-.45,7.56,1.93,11.85-1.48,17.18S992.11,187,992.11,187l3.4-6.94c-.26.4-4.39,6.86-7.55,8.72s-14.22,3.71-24.44-2.07-19.56-5.93-20.45-5.63-2.07,3.55-5,5.33-5.63-2.07-12.15,1.48-8.45,7.85-9.56,5.41-13.55-3.78-16.44-2-7.56,1.78-8.45,1.78-4.22-5.78-8.66-.45a23.1,23.1,0,0,1-3.28,3.23l-8.92-13.78-4.49-5.07L853,170.32l-6.93-3.57-17.33,9.93-10.75.37-.82-10.3,3.07-8.3-10.64-11.83-3.43-14.94-9.36-10.5-7-14,7.53-12L795.52,91V52.73L789.66,38s-.9-15.44.17-19S789.66.34,789.66.34Z"/><path class="cls-5" d="M926.19,366.49h0v0Z"/></g><g id="iles"><path class="cls-12" d="M887.59,196.53s-.15,1,.15,1-1.26.89-1.63.89h-3.63l-.29-.89s2.59-4,5.4-3S887.59,196.53,887.59,196.53Z"/><polygon class="cls-12" points="893.74 196.41 891 198.01 888.84 198.01 891 196.41 893.74 196.41"/><polygon class="cls-12" points="910.63 195.12 900.93 194.38 904.78 192.23 910.63 195.12"/><polygon class="cls-12" points="912.85 194.38 912.19 194.78 909.11 192.67 912.85 194.38"/><path class="cls-12" d="M914.11,196.41s-2,3.49-3.41,3.15-2.59-2.35-2.59-2.35Z"/><polygon class="cls-12" points="907 197.21 906.11 198.78 904.74 197.53 907 197.21"/><polygon class="cls-12" points="909.11 199.75 907 201.6 906.11 200.49 909.11 199.75"/><polygon class="cls-12" points="913.19 200.78 911.15 202.12 909.11 201.82 911.52 199.75 913.19 200.78"/><path class="cls-12" d="M991.61,490c-3,2.67-5.72,5.45-6.61,7.72s-.94,2.23-3.72,2.67-3.34,2.94-5.06,3-5.61-2.72-9.61-1.78c-.38.09,2.22-5.28,4.83-5.55a24,24,0,0,0,5.5-1.45,44.75,44.75,0,0,0,3.06-4.83c.17-.72,1.61-2,3.44-2.06s2.39-2,3.67-1.5,1,2.34,2.56,2.17S994.61,487.28,991.61,490Z"/><path class="cls-12" d="M951.56,511.23a3,3,0,0,1-2.89-.72,12.73,12.73,0,0,1,3.11-1.45C952.61,509,953.28,510.73,951.56,511.23Z"/><path class="cls-12" d="M923.83,501.23s-.27-8.33-.22-8.5c0,0,.78-.17,1.11,1.33S923.83,501.23,923.83,501.23Z"/><polygon class="cls-12" points="912.94 485.78 909 491.45 911.39 484.9 912.94 485.78"/><path class="cls-12" d="M1577,478.54c-8,6.36-10.3,10.13-14,11.91s-7.74,4.89-18.85,1.56c-.77-.23,8.22-6.89,9.56-11.34s14.22-11.77,21.33-10S1585,472.18,1577,478.54Z"/><path class="cls-12" d="M1626.11,492.38l-.11,0c-1,.32-3.74.47-9.67.17-16-.81-23.11,4.53-23.11,4.53s-5.11,4.44-13.78,0S1567,490.9,1567,490.9a13.22,13.22,0,0,0,9.33-5.34c3.78-5.11,13.34-8.44,27.11-9.33s21.34,0,21.34,0V490.9a7.71,7.71,0,0,1,1.22.53l.11.07C1626.58,491.79,1626.83,492.13,1626.11,492.38Z"/><polygon class="cls-12" points="794.8 683.27 791.37 686.45 791.69 687.1 793.74 691.34 790.63 691.34 787.07 686.23 784.8 684.39 784.41 684.08 783.81 682.15 787.96 684.08 792.85 681.12 795.52 682.6 794.8 683.27"/><path class="cls-12" d="M767,604.64s-8-6.49-8.37-12.64,6.65,1.71,8.53,5.81S767,604.64,767,604.64Z"/><path class="cls-12" d="M755.2,586.19s-3.24-3.93.17-3.24S755.2,586.19,755.2,586.19Z"/><path class="cls-6" d="M766.33,597.27a5.94,5.94,0,0,1-.14,5.92s-7-5.63-7.26-11S764.7,593.71,766.33,597.27Z"/><polygon class="cls-6" points="912.94 485.78 909 491.45 911.39 484.9 912.94 485.78"/><path class="cls-6" d="M923.83,501.23s-.27-8.33-.22-8.5c0,0,.78-.17,1.11,1.33S923.83,501.23,923.83,501.23Z"/><path class="cls-6" d="M951.56,511.23a3,3,0,0,1-2.89-.72,12.73,12.73,0,0,1,3.11-1.45C952.61,509,953.28,510.73,951.56,511.23Z"/><path class="cls-6" d="M981.28,500.34c-2.78.44-3.34,2.94-5.06,3s-5.61-2.72-9.61-1.78c-.38.09,2.22-5.28,4.83-5.55a24,24,0,0,0,5.5-1.45,44.75,44.75,0,0,0,3.06-4.83c.17-.72,1.61-2,3.44-2.06s2.39-2,3.67-1.5,1,2.34,2.56,2.17,4.94-1.06,1.94,1.61-5.72,5.45-6.61,7.72S984.06,499.9,981.28,500.34Z"/><path class="cls-6" d="M1544.11,492c-.77-.23,8.22-6.89,9.56-11.34s14.22-11.77,21.33-10,10,1.51,2,7.87-10.3,10.13-14,11.91S1555.22,495.34,1544.11,492Z"/><path class="cls-6" d="M1624.78,490.9a7.71,7.71,0,0,1,1.22.53v1c-1,.32-3.74.47-9.67.17-16-.81-23.11,4.53-23.11,4.53s-5.11,4.44-13.78,0S1567,490.9,1567,490.9a13.22,13.22,0,0,0,9.33-5.34c3.78-5.11,13.34-8.44,27.11-9.33s21.34,0,21.34,0Z"/></g><g id="routes"><path class="cls-13" d="M888.09,536.21s-2.44,6.3-2.44,9.41v15.56l-3.11,8-1.78,15.35v36.2l-3.55,32-6.63,11.56,2.18,9.33-2.18,16L863,701.18l-2.22,11.55v15.11l.11,11"/><path class="cls-13" d="M848.09,543.06l-4,5.23L839,552.07s-3.53,4.22-2.87,4.89-.08,3.55-.08,3.55L830.76,567l-3.55,8.88-2.67,6-2,8.43-2,4.24v6.89s-1.75,5.08-1,6.45.79,10.66.79,10.66l-1,5.56-2.14,9.77,1.33,6.23v3.77l-1.33,9.56,1.55,6.89,2.22,9.33s1.78,8.22,2.45,8.67,2.22,4,2.66,4.67a39.62,39.62,0,0,1,1.56,5.11l3.11,4.22,4,4.44,5.78,4.67s2.44,4.22,2.67,4.89,3.77,4.22,3.77,4.22l5.56,1.33-1.78,8.89-.44,7.78-.89,7.78v4.89s-1.78,5.66-1.56,7.38-1.55,6.84-1.55,6.84l-2,5.56-.45,4.22L842.09,771a42.83,42.83,0,0,0-.44,6.22c.22,1.11-.22,9.11-.22,9.11l.44,5.11s-1.78,6-1.78,6.89,1,1.84,0,3.43c-5.22,8,0,1.9,0,1.9"/><path class="cls-13" d="M892.09,813.72c-.88.12-2.88-8.1-2.88-8.1s-8.23-11.22-8.67-11.5-7.33-12.72-7.56-13.39-6.22-9.77-6.22-9.77l-4.67-11.56v-6.89l-1.65-10.2"/><polyline class="cls-13" points="892.09 815.84 888.09 813.72 882.76 808.29 874.42 801.72 869.21 797.62 863.65 794.12 858.54 790.96 850.77 788.96 848.54 788.07 844.98 786.29 841.52 784.47"/><path class="cls-13" d="M843,851.4l7.79-2.67h12.66l8.44-3.55s4.89-6.67,5.34-7.34,7.33-2.66,7.33-2.66,10.44-1.11,11.78-1.34,3.55-2.66,3.11-3.55,0-6.67,0-6.67"/><path class="cls-13" d="M1021.74,141.41s-.15-5.62-1.93-6.81-8.3-.41-6.52-3.31a8.16,8.16,0,0,0,1.19-5.58,5.88,5.88,0,0,1-1.49-2.66c-.29-1.48,2.08-4.74,2.08-4.74s-3-3.56-.3-4.45,8.6-2.67,8.6-4.15a33.47,33.47,0,0,1,0-5.51,12.46,12.46,0,0,0,0-3.67s3.55-2.67,2.07-4.15.72-3.85.36-5.93-4.51-3-5.1-3.85,4.06-4.15,5.14-3.85-4.55-3.26-1.58-5.93,5-6.51,6.22-8.29-.6-12.15,0-13.34a43,43,0,0,1,8.29-10.37c5-4.74-1.77-8.88-1.77-8.88s3.85.88,5.33-1.78,2.37-13.93,4.44-15.71a25,25,0,0,0,3.56-3.8s-6.22-4.49-3-6.57,6.51-3.92,6.81-7.74"/><path class="cls-13" d="M1052.4,117.44s15.41.27,23.41-3.28,21.73-13,32-18.62,16-7.75,18.91-12.49,8.6-20.45,17.78-21.63,18.37-.6,20.45-12.74-.89-20.45,8.29-24.89,13-8.6,12.74-13.34S1197.88.34,1197.88.34"/><path class="cls-13" d="M1354,.34s-58.66,44.78-62.52,43.3-8.59-3-19,1.78-13,5.63-16.59,9.77-3.56,0-3.56,0l-3.26,3.7-4.44-1.32s-8,2.07-8.59,3.55.89,5.63-1.48,7.41-3.26,7.11-3.26,7.11a42.93,42.93,0,0,1-1.49,12.44c-1.77,5.93-6.22,11.86-6.22,11.86s-4.15,1.77-7.4,9.48-6.23,15.11-12.75,23.11-16.88,29.33-16.88,29.33a17,17,0,0,1-11.26,6.52c-7.41.89-10.08,4.15-10.08,4.15s-3.55,1.48-11,3.85-7.7,3.85-12.45,7.41-15.4,8.29-15.4,8.29-.3,11.86-9.48,18.67-4.74,8.59-9.19,13.33S1082,247.49,1082,247.49l-12.74,2.37s-4.13-4.15-7.55-4.15-6.08-3.26-8.74,0-30.23,18.47-35.86,25.38-11.55,14-10.66,14S987.81,305,987.81,305s-1.18,13-5,15.71-12.44,5-12.44,5-14.82-1.48-16.59,0a72.26,72.26,0,0,1-6.23,4.15l-2.66-3.55-3.56.88s-21.92-3.25-24.59-4.44-15-13.93-17-13.93-13.12,2.67-14.23,2.37-6.14-8.59-6.14-8.59-3.56-12.74-5-14.22-15.2-14.52-17.82-15.11"/><path class="cls-13" d="M1329.73,19s9.19,11.06,10.08,12.24a72.19,72.19,0,0,0,5.93,5.34l2.37,7.11,15.7,15.25,8,23,15.11,18.08,25.19,29.92,45.33,53.33,1.52,13,6.48,16.3,11,5.33,24.89,16.89,14.52,9.78,8.32,3.85,9.46,7.7,10.07-3,15.41,1.33,11.85,4.6,16.89,3,8.59,3.85,7.71,15.41-9.48,22.81-5.93,8.3-11,10.07-4.09,7.41-15.11,8.3-19.26,18.07.29,30.82-2.37,9.48v7.41l-7.77,2.66s-2.45,5.93,0,8l-3.19,10.08s1.52,2.66,0,4.14-2.32,8.82-2.32,8.82l-1.7,2.74"/><path class="cls-13" d="M1505.88,498.14s2.23,8.76,0,15.87-2.66,18.19-2.66,18.19l1.83,8.48,4.39,11.11,1.78,12.44,8.44,10.67,9.71,5.78s12.87,34.66,14.69,36,4.49,24.89,4.49,28-1.78,12,.45,19.31,7.55,15.8,7.55,15.8"/><path class="cls-13" d="M1577,685.12s3,8.89,4.82,11.11,1.41,3.56,2.3,8.89,11.11,13.78,12.67,22.22,10.88,25.34,11.33,34.23,8,16,2.22,35.55-6.67,33.33-6.67,33.33l8.84,2.23v15.55l8.5,8.89,5,4.89"/><polyline class="cls-13" points="1603.66 830.45 1593 832.68 1584.55 838.45 1576.99 842.9 1563.22 842.9 1556.55 845.57 1552.11 855.34 1543.22 862.01 1516.55 922.01 1529.88 948.34"/><path class="cls-6" d="M887.59,196.53s-.15,1,.15,1-1.26.89-1.63.89h-3.63l-.29-.89s2.59-4,5.4-3S887.59,196.53,887.59,196.53Z"/><polygon class="cls-6" points="893.74 196.41 891 198.01 888.84 198.01 891 196.41 893.74 196.41"/><polygon class="cls-6" points="907 197.21 906.11 198.78 904.74 197.53 907 197.21"/><polygon class="cls-6" points="907 201.6 906.11 200.49 909.11 199.75 907 201.6"/><polygon class="cls-6" points="904.78 192.23 910.63 195.12 900.93 194.38 904.78 192.23"/><polygon class="cls-6" points="909.11 192.67 912.85 194.38 912.19 194.78 909.11 192.67"/><polygon class="cls-6" points="911.15 202.12 909.11 201.82 911.52 199.75 913.19 200.78 911.15 202.12"/><path class="cls-6" d="M914.11,196.41s-2,3.49-3.41,3.15-2.59-2.35-2.59-2.35Z"/><polygon class="cls-6" points="979.44 503.34 982.39 501.62 981.17 503.67 979.44 503.34"/><path class="cls-14" d="M1141.21,404.32c.24-.45.65-.26,0,0Z"/><path class="cls-14" d="M1626,498.14V461.77h.11v35.56A2.25,2.25,0,0,1,1626,498.14Z"/><polygon class="cls-14" points="982.39 501.62 981.17 503.67 979.44 503.34 982.39 501.62"/><path class="cls-14" d="M1141.21,404.32c.24-.45.65-.26,0,0Z"/><path class="cls-15" d="M1045.38,1232.07s-4.76-9.34-4.15-10.45,0-8.67,0-8.67l-5-6.88-3.11-9.12v-6.44l12.22-5.11s9.78-2.45,10.45-2.45,6.89,5.78,6.89,5.78l1.55,7.56,4.23,7.33v6l-1.36,2.89,5.36.89,3.11,1.11,1.33,5.11-2.67,8-7.13,9.78-5.31,2h-5.56l-9.11-3.56Z"/><path class="cls-13" d="M778.9,75.56s4.32-6.29,4.91-9-5.36-10.07-3.35-15.7.7-19.71.91-24S774.63.34,774.63.34"/><path class="cls-13" d="M783.11,131.68a10,10,0,0,0,3.22,5.29c2.61,1.95,2.08,8,5.63,13.05a31.5,31.5,0,0,1,4.6,11.54"/><path class="cls-13" d="M800.11,184.9s-4.89,6.74-1.63,9.48,8.58,3.32,16.58,4.81"/><path class="cls-13" d="M839.93,193.73a25.2,25.2,0,0,1,.38-5.34c.53-2.78,1.72-5.79,4.39-6.68a106.72,106.72,0,0,0,11.81-5"/><path class="cls-13" d="M856.51,182.6s-.85-1.78-6.48,1.48a43,43,0,0,1-9.72,4.31"/><path class="cls-13" d="M840.7,273.71c.44.6,3.56,5.48,3.56,5.48l7.25-.59"/><path class="cls-13" d="M849.74,276.45s9.33-2.44,10.07-2.14"/><line class="cls-13" x1="859.81" y1="270.97" x2="859.81" y2="281.57"/><line class="cls-13" x1="878.18" y1="283.94" x2="870.13" y2="284.4"/><path class="cls-13" d="M926.18,271.79l-1.33,1.92s-8.45-.59-9.93-1-9.15-11.63-9.15-11.63l-6.11-3.41s-38.37-13-39.85-13.63l2.07-4-2.81,4.15-7.56,2.52-10.81,9.33-9.19,3.86,1.63,1.18,5.93-2.22-1.1-4.45h2.34l1.72,5.34"/><path class="cls-13" d="M822.63,208.72s-1.63,5.29-1,8.55.45,23.55.45,23.55l3.4,2.82h6.07l4.6-6.07"/><polyline class="cls-13" points="818.03 249.86 818.03 252.53 821.46 254.45"/><polyline class="cls-13" points="822.04 240.82 822.04 246.31 824.7 252.16"/><polyline class="cls-13" points="831.51 252.16 830.77 248.53 832.28 242.62"/><path class="cls-13" d="M822,245.68l8.73,2.85,5.34.37.66,2.33s11.78-10.22,14.11-13.44,5.7-10.45,6.74-11.34,26.6-11.16,26.6-11.16"/><polygon class="cls-13" points="833.88 255.9 836.77 251.23 837.97 254.45 833.88 255.9"/><path class="cls-13" d="M906.53,314l5.24-1.81L919,305l2.33-5.33h4.94l4.5-1.89a31.82,31.82,0,0,1,2.5,5.06,19.35,19.35,0,0,0,1.89,3.89"/><path class="cls-13" d="M1523.88,437.64l5.49,1.41,3.85.29,3.63,2.74,1.33,2.37h6.89s6.59,6.08,11.41,6.08,13.78-.52,13.78-.52,7.33-5.26,11.18-5.78,14.74-4.07,15-3.85,6.3,1.19,8.74,2.52,4.45.67,7.19,1.55,5.33,2.15,7.7,1.71a41.37,41.37,0,0,1,6.08-.45"/><path class="cls-13" d="M970.33,325.71l4.44,12.74-2.22,19.34,10.67,34-4.89,11.33s-5.78,2.27-5.78,7.14-.44,21.08-.44,21.08-1.56,5.07,2,5.2,10,.54,10.89,0a10.15,10.15,0,0,1,6.88-.66c3.12.8,8.89,8.35,8.89,8.35a33.78,33.78,0,0,0,9.11,3.93c4.89,1.18,4.23.15,6.45,0a61.71,61.71,0,0,1,7.73.56"/><path class="cls-13" d="M974.77,338.45l11.34,5.12.89,2.59,5.11-2.37,3.11,2.37,4.13,2.29,2.76,1.56h3.55l2.79,2h3.88l4.22,1.33,1.11,2.23,4.89-1.12h4.67l2.89,5.34s1.51,2.47,4,1.9,5.19-.95,5.19-.95"/><path class="cls-13" d="M1111.84,373.1c3.82.27,12.33.8,16.72.46,5.77-.44,12.65,10.67,12.65,10.67l3.79,15.11s3.55,15.43,7.94,20.87,15.09,12.52,15.52,12.8h0"/></g><g id="Fleuves"><polyline class="cls-16" points="1402.33 481.34 1406.18 481.34 1408.26 476.53 1410.18 471.49 1415.81 462.45 1417.29 456.97 1419.52 454.01 1420.55 451.72 1421.74 450.53 1426.18 449.27"/><path class="cls-16" d="M1493.74,454.75l2.22-4.22.59-3,3.56-2.81,1.63-3.81V434.6l1.33-7.11s3-3.55,2.67-5.48-3.26-3-4.3-4-2.37-11.6-2.37-11.6,0-4.14-1.93-6.51a25.79,25.79,0,0,0-4.74-4.3l-1.77-2.82-3.41-.74-3.85-4.59h-4.3a17,17,0,0,1-2.67-1l-1.33-1.33h-1.93V381l2.08-2.37-1.48-2.66v-.89l-1.48-.74-2.23-2.52s-1.77-.45-2.22,0-1.93-1.19-1.93-1.19l-2.51-2.37.74-3.11-3-3.55s-2.74-2.67-2.18-3,1.15-3.11,1.15-3.11l-1.15-3.11,2.18-2.81-2.18-4.45"/><path class="cls-16" d="M1532.7,158.45v2.82s.89.59,0,1.63-1,4.29.39,5.63-3.65,1.18-3.5,3,2.07,2.67,0,5.48a21.39,21.39,0,0,0-3,5.63l-.89,2.82-1.61,3.55-.76,3.41-2.82,2.37a54,54,0,0,0-2.59,5.93c-.45,1.63,1.85,8,1.55,9.77s-3.11.3-1.92,3.12,1.18,3.11.59,4.44.59,4.15.59,4.15,5.34,8.15,6.82,9.48,2.56,2.22,3,3.26,3.75,2.67,3.75,2.67"/><path class="cls-16" d="M1546.48,187.34h5.33s1.78-2.66,2.22-2.66h7.26s4-2.67,4.74-1.78,3.11.89,3.85.74.15,2.37,2.23,2.07,4.73-.44,4.88-1.33,0,.38,2.67-.77a6.9,6.9,0,0,0,3.56-3.53s4,2.37,4.74,1.34,3.7-1.34,3.7-1.34,8.15-.89,8.45-1.33a30.38,30.38,0,0,1,5.33-4.15c2.22-1.33,5.48,1.48,6.37-2.37s8-3.85,8-3.85l6.19-1.63"/><path class="cls-16" d="M1499.07,406.45A29.46,29.46,0,0,0,1500,396c-.52-6,4.34-9.11,5.8-11.78s.12-19.33-1-21.55-3.18-5.56-2-8,6-17.11,7.14-21.56,3.56-5.11,5.34-8.89,1.49-18,2.08-22.44-3.86-5.56-2.53-8,12.23-10,12.23-14.67,1.83-18,4.58-24.67c2.74-2.23-1.55-6.51-2.72-8.14s1.47-3.71,2.8-5.63.3-4.45.3-6.37-3.85-4.45-3-6.08,7-4.89,7-4.89-.3-9.33,1.33-9.33,6.08-3.85,7.13-4.59.87-4.89.13-9,1.93-13,1.93-13a16.73,16.73,0,0,1-.6-8.59c1-4.15,5-2.52,4.6-3.26s1.48-7,3.26-10.52-.3-11.11-.62-13.33,1.21-4.89.32-7.41.15-6.66,2.37-10.81.74-9.19.74-9.19,6.37-1,6.08-5-2.52-7.11,1.33-8.88,4.3-2.08,3.41-6.11,2.51-4.71,3.85-5.89-3.11-4-1.19-8.15,4.89-3.71,7-3.71,3.27-3.4,3.41-6.07,1.78-1.78.45-6.07,2.81-16,2.81-16a25.08,25.08,0,0,0,3.11-9.19c.45-4.74-7.85-12.74-7.85-12.74l2.64-3.56s1.66-10.37,0-11.25-4.15-6.38-3.71-11.41,7.41-8.32,7.41-8.32"/><path class="cls-16" d="M1407.75,512.1s-2.61,4.87-1.57,6.5-2.67,4.7-2.67,4.7l-1.92,4.78"/><path class="cls-16" d="M1417.87,515.89a2.57,2.57,0,0,0,1.64,3.6c2.82.89,3.27,1.63,1.49,6.15a32.09,32.09,0,0,1-3.37,6.68s-4.49.65-4.34,2.43-3.7,3.56-3.7,3.56,2.37,2.66,1.48,4.44-4.8,3.26-6.4,2.67-4.41,2.22-5.9,2.66"/><path class="cls-16" d="M1408.55,551.19a9.71,9.71,0,0,0,1.87-3.11c.5-1.63-.94-3.79-.94-3.79"/><path class="cls-16" d="M1418.9,530.22s.47,3.79,2.1,5,4.29,1,4.29,2.08-.44,6.05,1.48,7,3.26,1.72,3.56,3.79,4.15,2.67,3,4.6-5,4-5,5.18.88,5.63,2.66,5.33,3-2.34,4.45,0,4.44,2.06,3.4,4-4.29,5.49-2.81,5.63,1.92-2.37,4.59-1.33,7,6.08,7.56,9.78,1.18,7.7,1.18,7.7a8.11,8.11,0,0,0,1.63,2.37c.89.74,2.37,1,2.52,2.67s1,2.52,1.48,3.7.3,2.37-2.07,2.23-3.11-1.19-4.74,1.48-2.37,3.85-2.37,3.85"/><path class="cls-16" d="M1477.89,671.93l-1.78-2.52-2.07-2.07.15-1.93-1.78-3.4v-3.86l-2.82-1.92-1.63-5-3.26-3.55H1462l.44-2.67,1.63-.74-.3-2.37,1.34-1.93-1.78-2.81s1.93.59,2.07-2.82,0-6.66,1.63-9.48c1.17-2-.32-5-1.65-6.61a4.45,4.45,0,0,0-1.31-1.24c-1-.44-1.92-3.26-1.48-4.44s3.7-2.52,5.48-4.6,1.19-5.78,2.08-8.59-1.19-10.67-1.49-13.63a61.15,61.15,0,0,1,0-7.41c0-1.18,3.41-7.26,3.41-7.26s5.63-4,7.56-5,3.55-3,5.35-5.19-.46-3.26-.76-5a13.83,13.83,0,0,0-2.52-5.33,2.88,2.88,0,0,1-.47-2.12A16.48,16.48,0,0,1,1482,545c.74-2.37.15-4.89-.45-8.3a3.57,3.57,0,0,1,.29-2.52c.66-1.17,2.06-1.83,3.14-3.94,1.65-3.2-.17-6.13,0-8.2s-3.13-1.78-4.76-3.41-5.33-3.26-8.89-4.59-10.13-1.19-10.43-1.18"/><polyline class="cls-16" points="1463.22 547.74 1462.33 544.29 1459.01 541.57 1454.11 539.57 1450.55 534.9 1448.55 533.34 1444.11 524.68 1444.6 520.56"/><path class="cls-16" d="M1542.77,529.42l-2.59-.89-2-1.85s-.74-1.48-1.7-1-1.93,1-2.45.89-1.4-1.2-1.77-1a11.25,11.25,0,0,0-1.41,1.91c-.3.39-1.93.32-2.15.61a18.77,18.77,0,0,1-1.41,1.34l-.81-1.95a9.91,9.91,0,0,0-3,1.5c-.66.74-2.66,2.67-2.88,2.89a18,18,0,0,1-2.3,1h-2.15l-1,2.6-2.88-.37-4.75,1-3.25.93-5.63.56-4.89-.45-5.34.89s-4.93-3.14-5.77-3.41-.75-.45-.75-.45"/><path class="cls-16" d="M1481.27,548.33a15.5,15.5,0,0,0,2.06-.93c.11-.17,1.94-.45,2.38-1.11s1.29-1.67,1.29-1.67,1.33.56,1.5,1.56,1,1.89,1,2.94a24.74,24.74,0,0,1-.22,3.22s1.11,2.73,1.33,3.23a34.2,34.2,0,0,1,.67,4.16c0,.22.83,3.34.83,3.78s-.83,2.67-1.16,3.83a4.32,4.32,0,0,0,.27,3.17c.39.44,1.06,1.89.56,2.44s-1.17.62-.33,1.84a19.58,19.58,0,0,1,1.83,4.33c.55,1.56.05,3.67-.5,4.06"/><path class="cls-16" d="M1494.48,537.19s-.32,2.71.85,3.1,2,.22,1.89,2.05-.61,4,0,4.11,2,.73,2.61.28,1.67-1.33,2-1.05a6.7,6.7,0,0,1,.89,2.33c0,.28-.34,1.67,0,2.28s0,1.78.5,2.44,1.39,1.17,1.28,2.28a4.37,4.37,0,0,0,.33,2.72,2.44,2.44,0,0,1,.11,2.39c-.39,1.06-.67,3.17,0,3.39a11.47,11.47,0,0,1,2.67.83,8.08,8.08,0,0,0,2.33.73,1.89,1.89,0,0,1,2,1c.5,1.22.33,3.66.89,4s.89,1.17,0,1.67-1.24,2.05-.51,2.44,1.12,3.34.79,4.22.32,3.67.27,3.89-.23,1.95,0,2.11a3,3,0,0,1,0,2.23c-.33.39-.11,1.61,0,2.05a7.71,7.71,0,0,1-.44,2.95,10.91,10.91,0,0,0-.5,2.33"/><path class="cls-16" d="M1624.26,671.94a9.21,9.21,0,0,1-3.71-2.08c-1.78-1.63-3.41-4-4.44-4.44s-2.52,1.3-3.71-1.43a27.77,27.77,0,0,0-3.7-5.68s-1.33-4.3-1.78-4.45a8.18,8.18,0,0,1-2.66-.74c-.89-.59-2.08-3.55-2.08-3.55l-.69-3.12s.5-2.37,0-2.81a34.06,34.06,0,0,1-2.27-3.7,1.64,1.64,0,0,0-.74-1.63c-.89-.45-1.34-2.37-1.34-3.12a7.31,7.31,0,0,0-1-2.37l-3.71-2.07-3-3.7-.74-2.08s-2.52-2.37-2.82-2.81-1.92-1.93-1.92-2.52v-2.22s-3.41-.74-3.41-1.63v-3.71s-1.78-.74-2.07-1.63a24.23,24.23,0,0,1-.89-3.55c-.15-1-.15-.45-2.52-1.63s-1.78-.3-2.81-2.37-3.56-3.11-2.82-3.85-3.11-1-3.56-1.93,1,.3-.74-1.78-2.66-2.81-3.26-2.22.75,1.63-1.62,1.78-1.19,1.92-3-.3-.59-.59-2.22-2.22-2.67-.59-3.41-2.37a16.2,16.2,0,0,0-1.18-2.37l-1.34-2.67s-.59-1.33-1.33-2.66l-.74-1.34a10.49,10.49,0,0,0-4.3-.89c-2.51,0-5.63-2.51-5.63-2.51l-1.92,1.18s-.89,0-.89-.44v-3l-2.07-.74h-2.38s-1.92.15-1.62-2.37.67-3.35,0-4.49-1-2.25-1.45-2.14,0-2.41,0-2.41l-1.18-2.66a10.3,10.3,0,0,0-2.22,0c-.74.15-4.3,1.63-4.3,1.63s-.89-.45-1.63-.74-2.07-1-2.07-1l-3,1.4"/><path class="cls-16" d="M1534.18,608.82c-1-1.33-.3-4.59,0-5.63s-.53-5-.53-5l-1.1-4.15.14-4.52,1.56-1.26,2,1.48,1.62,2.67s.6,1.19.75,1.63"/><path class="cls-16" d="M1529,574.39a3.9,3.9,0,0,0,.86,4.8,9.27,9.27,0,0,1,2.67,5h-1.85l3.55,4"/><path class="cls-16" d="M1465.41,618.21a35.63,35.63,0,0,1,4.7,1.8c1.11.67,3.21,1.78,3.21,1.78h3v3.11s2.22,2.89,3.11,2.89a31.74,31.74,0,0,1,4.44,1.11l1.14,2.44,2.4,1.11h3.13v8.45s.67,3.11,0,3.78,0,2.44,1.33,2.66,5.12,1.34,5.12,1.34v1.77l1.11,4.45,3.33,1.78v4.66H1504l5.86-2.66h2.44s-2.23,1.55,0,1.77,4.68,2.45,4.68,2.45l4.88,1.09h1.56s0-.45,1.56,0,4.8,0,6.4,0,1.87.66,2.85,0,4.38,0,4.38,0v1.58a5.22,5.22,0,0,1,0,2.22c-.3.89-1.86,2.22-1,2.44s-.22,2.89-.22,2.89l1.32.89-2,3.33h1.86v3.34h1.48l-1.48,2.44,3,2h1.11v4.45l2.67.44a6.79,6.79,0,0,1,1.11,2.22c0,.67,2.41,1.56,2.41,1.56l-1.52,3.78v1.11l3.56,1.77,1.11,2.67a4.34,4.34,0,0,1,3.55,2.45c1.34,2.44,2,1.11,2.67,3.11a7,7,0,0,1,0,4,7.09,7.09,0,0,0,2.89,2.44V718c1.78.67,2.44,3.78,2.44,3.78v3.33l1.11,3.11-1.11,4.45,1.11,1.33-3.11,4,3.11.89s-3.33,4.22-1.77,4.67,5.29,3.63,5.29,3.63h10.48a13.65,13.65,0,0,0,3.56,0c.89-.3,4.44,1,4.44,1l3.11,3.11s0,2.89,1.34,2.67,5.33,1.78,5.33,1.78.09-.45,1.93-.45a4.11,4.11,0,0,1,3,1.56"/><path class="cls-16" d="M1558.33,840.68c-1.11-.23-4.67-.23-3.78-1.34a24.37,24.37,0,0,0,2-3.33l-.18-4.22s-1.82-.89-2.93-1.34-4.07-1.33-4.48-2-2-4.22-2-4.22l2-1.55-2-5.56v-2.67l2.88-3.73.67-3.6-.22-7.33-5.11-1.56,1.78-2.89,2-6-3.74-.22-6.89-4-.45-5.33-3.33-1.11v-3.34h-3.33l-4.89-1.77-1.33-1.12-2-1.55-4.45-.22-2-.67-.89-2-3.34-.89-6.66-1.78-3.55-3.55-1.11-2.22-4.89-1.78-2.67-2.22s-1.33,0,0-1.34.22-7,.22-7l1.78-5.41,2-5.11-1.11-3.11.22-3.56.45-3.56s-3.56-.88-1.12-2a3.29,3.29,0,0,0,1.78-3.77s-3.11,1.77-2.66,0a23.73,23.73,0,0,1,1.55-4s.45-3.56,1.78-5.34l1.33-1.77.89-4.23.89-2.44-1.11-2.67a5.84,5.84,0,0,1,2.89-.89h2.44l-2.44-3.55-2-2,2-4.89V684l4.66-5.78-1.12-4.44-3.54-3.34,2.22-2.44-4-4v-2.65"/><path class="cls-16" d="M1548.28,773.57c-.28.22-8.06,0-8.06,0l-2.11-1.67-3-2.89-3-2.22-6.52-.45-3.71.67-2.44-.67-4.5,1.48"/><path class="cls-16" d="M1584.55,450.53c-.15-.52-2.74-5.08-2.74-5.08l-2.15-7.14-.59-7.71"/><path class="cls-16" d="M1590.63,427.79c0-.74.29-3.56,1-4.45s-1-4.44-1-4.44l-2.82-3.41,1-.74.15-1.93-2.21-1.48s-.72-3,0-4.15,0-4,0-4"/><path class="cls-16" d="M1607.81,409.12l.74,4.3.89,4.63-.81,1.44a16.26,16.26,0,0,0,1.7,3.11c.44.3-2.07,5.19-2.07,5.19s-.45,3-.45,3.4a36.16,36.16,0,0,0,2.57,4.3l3.06,4.15-1.11,4.81"/><path class="cls-16" d="M1562.82,465.54l1-2.2s2.37-2.37,3.19-2.22,3.18.65,3.18.65l4.82-3.17,2.88,1.78"/><path class="cls-16" d="M1556.4,360.68c-.29.44-1.63,2.37-2.22,3.26s-4.44,1.48-4.44,1.48v3.7l-3-.74v3.56l-.59,2.07-3.25-.74a16.58,16.58,0,0,0,0,3.85c.29.89,1.47,2.39.58,2.53s-4,2.37-4,3.1-.77,7.57-.77,7.57l-1.56-3.72-1.77,6.22-2.67,1.34-.59,5.18-5,2.37-3.19,3.26,8.67-1.78,3.85-5.77,3.74-2.67,4.86.59,4.44-3.26"/></g><g id="titemontagne"><path class="cls-17" d="M1394.33,420.53c-.59.29-3.85.44-2.67,5s-1.92,1.92-1.18,3.7,5,3.41,5,3.41,4,2.81,1.49,3.4,2.66-2.37,4.29-2.37,10.08,3.41,12-.89,2.22-1.92-2.37-7.7-4.74-6.14-1.63-7.07,8.3,1,9.93-1.23,5.78-.29,6.37,0,1.48-3.11-1.63-5.63-7.7,1-7.7,1l-4.89-2.66-3.1,2.22s-2.83,1.48-3.27,1.33.29-1,1.92-3.55-1.48-5.34-2.22-3.12a29.31,29.31,0,0,0-1.63,7.41c0,1.93-2.67.89-3.26-.74s.3-4,1.33-6.52-6.22-.29-6.22-.29-4.82-3.12-4.56.29,3.08,5.63,2.93,7.85-3.26,3.05-1.92,3.6A10.77,10.77,0,0,1,1394.33,420.53Z"/></g><g id="Villes"><text class="cls-18" transform="translate(860.76 822.16)">Ambilalialika</text><text class="cls-19" transform="translate(875.25 215.29)">Miary</text><text class="cls-19" transform="translate(773.6 207.23)">Belalanda</text><text class="cls-20" transform="translate(809.22 270.97)"><tspan class="cls-21">T</tspan><tspan x="10.46" y="0">oliaria</tspan></text><text class="cls-19" transform="translate(999.35 150.03)">Behompy</text><text class="cls-19" transform="translate(1079.78 104.2)">Ampanihy</text><text class="cls-19" transform="translate(747.9 14.65)">Mangily</text><text class="cls-19" transform="translate(1289.68 25.52)">Andranovory</text><text class="cls-22" transform="translate(1447.14 230.07)">V<tspan class="cls-23" x="7.33" y="0">atolatsaka</tspan></text><text class="cls-19" transform="translate(1553.99 295.51)">Inanavy</text><text class="cls-19" transform="translate(1485.02 346.16)"><tspan class="cls-24">F</tspan><tspan x="6.05" y="0">enoanivo </tspan></text><text class="cls-19" transform="translate(1506.76 449.27)">Iotry</text><text class="cls-25" transform="translate(1458.96 487.15)">T<tspan class="cls-23" x="6" y="0">ameantsoa</tspan></text><text class="cls-19" transform="translate(1421.23 532.2)">Anaralava</text><text class="cls-19" transform="translate(1317.02 481.94)">Ifanato</text><text class="cls-19" transform="translate(1111.42 472.92)">Manorofify</text><text class="cls-25" transform="translate(1112.1 418.05)">T<tspan class="cls-26" x="6" y="0">anandava</tspan></text><text class="cls-19" transform="translate(1008.68 370.6)">Ambohimahavelona </text><text class="cls-20" transform="translate(783.81 614.93)">Anakao</text><text class="cls-19" transform="translate(801.49 747.2)">Andranotohoka</text><text class="cls-19" transform="translate(809.22 901.87)">Beheloka</text><text class="cls-19" transform="translate(1548.28 685.12)">Betioka</text><text class="cls-20" transform="translate(903.45 477.51)">St Augustin</text><text class="cls-19" transform="translate(801.26 810.72)">Befasy</text><text class="cls-27" transform="translate(772.57 1124.88)">Ambola</text><text class="cls-28" transform="translate(918.12 1032.38)"><tspan class="cls-29">R</tspan><tspan x="14.24" y="0">serve naturelle de</tspan><tspan x="0" y="26.5"> </tspan><tspan class="cls-30" x="4.75" y="26.5">T</tspan><tspan x="15.79" y="26.5">simanampetsotsa</tspan></text></g></g></svg>