<svg xmlns="http://www.w3.org/2000/svg" viewBox="0 0 1626.94 948.75"><defs><style>.cls-1{fill:#a3d3d3;}.cls-2{fill:#fff;}.cls-3{fill:#cc4747;}.cls-4{fill:#ffefe1;stroke:#684f2a;}.cls-16,.cls-4,.cls-6,.cls-7{stroke-miterlimit:10;}.cls-4,.cls-6,.cls-7{stroke-width:0.75px;}.cls-5,.cls-6{fill:#fdfedb;}.cls-6{stroke:#0b6277;}.cls-16,.cls-7{fill:none;}.cls-7{stroke:#bf824b;}.cls-11,.cls-14,.cls-8{font-size:12px;}.cls-11,.cls-14,.cls-8,.cls-9{fill:#353535;font-family:LobsterTwo, Lobster Two;}.cls-9{font-size:21px;}.cls-10{letter-spacing:-0.17em;}.cls-11{letter-spacing:-0.03em;}.cls-12{letter-spacing:0em;}.cls-13{letter-spacing:-0.05em;}.cls-14{letter-spacing:-0.17em;}.cls-15{letter-spacing:0em;}.cls-16{stroke:#1e668e;stroke-width:0.5px;}.cls-17{fill:#bad4c3;}</style></defs><g id="Calque_2" data-name="Calque 2"><g id="eau"><path class="cls-1" d="M1626,491.47V461.8c-8.29-.46-4.16-3.76-15.44-4.42s-15.12,5.78-15.12,5.78c-15.77-1.12-4.88,1.11-20,1.11-5.67,0-9.52.33-12.62,1.31-5.15,1.62-8.21,5-14,11.35-9.34,10.23-7.56,21.55-20,21.34s-12-10.68-8.45-18,2.89-12.45-4-12.89-10.44-16.45-28.44-9.79-26.45,30.45-29.33,33.34-4,7.78-11.34,13.54-35.78,5.8-43.11-2-1.78-21.1-1.78-21.1l-2.22-7s-2.89,1.44-32,7-31.11,9.33-29.33-10.22-8.89-20.45-18-21.12-19.56,9.55-38.45,15.34-24-10.22-21.77-20.45-18.45-34.89-20.23-32-32,4.66-35.33,4.66-8.89,6.89-26.22,13.12a34.86,34.86,0,0,1-10.32,2.33c-7.9.34-9.52-4.5-13-6.33-4.66-2.44-4.66-6.89-11.11-15.33-3.48-4.56-3.46-6.41-3.12-7a3.28,3.28,0,0,1-.43.13c-2.67.68-2.67-1.77-8.22-12.66s-3.56-8.23-11.78-14.89a17.26,17.26,0,0,0-8.94-3.79.25.25,0,0,0-.12,0l-1.83-.14a20.39,20.39,0,0,0-7.11,1.06s-23.11-1.33-31.11.23-10.67,2.44-19.78,1.32-7.56-.43-12.22-2.88-8.67.45-14.67,1.77-9.78,15.79-10,21.34,2.83,9.66,2.33,11.34a62,62,0,0,0-1.22,11.77c.17,2.5,2.56,13.95,5.67,17s2.44,7.39,2.33,10.84-.11,11-.11,11-6.78-.45-7.22,3.66-1.89,4.05-2.95,5.5-9.22,5.61-9.83,7.16-6.22,1.62-5.44,7.57-2.23,4.88-4.34,5.11-3.66-1.79-4.94-2.68-3.28,1-6.22,1.62-3.23-.83-3.23-.83c-.22,2.33-1.05,5.16-5.89,8.66s-3.61-4.72-7.38,2.39-12.78,9.23-12.78,9.23c-17.89,2.11-16.45-1.12-16.67-6.12s-.22-5.22-3.44-5.66-9.89-.34-11.56-4.67-4.78-4.12-7.67-6.33-1.88-9.79-1.88-9.79C890.78,448.38,901,433.82,901,433.82s2.11,13.89,4.67,20.66,7.66,7.56,7.66,7.56c-.66-7.33,4.78-6.56,4.78-6.56s-2.44-.77-.22-4.55,3.44-7.77,6.22-11.89-.15-14.63,5.78-21.45-3.56-10.95,1.18-23.55,1.19-12.59,1.19-12.59c-3.56-23.27-31.7-36.6-34.67-37.92s-5.48-1.94-11.85-15.12-9.18-4-9-9.93-4.59-12-4.59-12c-6.22,3.26-3.41-7.1-8.89-.14s-4.89,1.33-7.41-1-.59-5.48-1.77-5.48-1.63-1.64-2.37-4.15-10.23-8.59-12.3-10.66-5-4-3.26-5.63-.44-2.67-.89-3.56-3-4.74-2.52-3.41S829,274,829,274s4.3-2.07-2.67-.26-.66-6.51-4.77-2-7.67-.44-7.78,1-.11.56-3.78,1a12.32,12.32,0,0,1-9.78-2.78c-2.78-2.33-2.22-7.56-5.33-10.33s-1.89-6.55-2.78-7.78-2.44-5.45-1.89-10.22-2.11-7.78-3-10-8.22-9.55-8.22-9.55,1.78-4.12-.44-5.57c-1.52-1-1.23-3-.89-4.18a3.17,3.17,0,0,1,.11-.33,1.91,1.91,0,0,1,.09-.26,2.44,2.44,0,0,1,.1-.28.35.35,0,0,1,0,.06.17.17,0,0,0,0,.07c-.05.37.19,1,3.49-1.29,4.23-2.9,11.12,1,16.67.33s4.56,0,10.33,1.45,12.56-4,12.56-4,7.44-6.89,9-7.68,6.78-.44,6.78-.44,4.33-5.66,13.66-6.77,17.78,7.21,19.34,8.21,11.78-1.21,21.44-1.21,4.42-8.45,9-2.68,11.24,6.12,14.24,2.45,8.78-4.11,8.78-4.11,1.78-5.55,9.89-7,6.56-2.11,11.78-3.89,26.22,7.44,33.67,7.67,15.33-3.67,25.88-7.67,7.89-12.56,7.89-12.56-2.44-3.66-1.22-16.32,12-15,12-15,6.52-2.36,9.63-5,4.3-8.89,10.37-13.34,10.67-5.48,10.67-5.48l-1.33-.87-1.19-.76-6.07,4.3s-8.74,2.81-11.11,9-7.71,10.37-12.3,11.41-9.33,8.73-9.33,8.73l-3.85,6.67s-2.23,4.45-.45,7.56,1.93,11.86-1.48,17.18-14.52,5.49-14.52,5.49l3.4-6.94c-.26.39-4.39,6.85-7.55,8.71s-14.22,3.72-24.44-2.07-19.56-5.93-20.45-5.62-2.07,3.55-5,5.32-5.63-2.07-12.15,1.49-8.45,7.85-9.56,5.41-13.55-3.79-16.44-2-7.56,1.78-8.45,1.78-4.22-5.78-8.66-.45-9.78,7.11-11.11,6.22-11.56-6.66-21.34-7.11a26.31,26.31,0,0,0-10.4,2c-5.66,2.12-10.47,5.26-13.15,5.82-4.22.89-9.78,9.12-13.34,10.68s-4.44-.23-9.33-1.56-24.22,0-24.22,0-1.56-16.67-2.22-26.23-8-30.89-8-30.89,1.33-17.32,6-26.21,4,.66,2.89,3.33-.67,8.45-.67,8.45l-1.11,6,5.52-2.89-3.08,4.66,3.08,4.66V162s2-3.56,1.59,2.23,4.44,14.21,4.44,14.21l3.11-2,4.23,6,.89-5.55,1.11,6,2.44,2c3.56-6.66-1.33-20.89-3.55-23.34a26.12,26.12,0,0,1-3.78-5.77l-3.34-4.89s-2.66,5.34-2.44,2.66-2.67-12.88-2.67-12.88a66.89,66.89,0,0,0-1.22-9c-.06-.25-.09-.4-.09-.4a10.38,10.38,0,0,0-1.58-3.94c-2.22-2.67,1.34-29.34,1.34-29.34s-2.22-6.22-3.78-21.56c0-.3-.06-.59-.1-.89-1.71-14.68-8-20.8-11.23-27.77s2.66-4.44,4.66-8.66,1.34-11.34-3.33-18.68C765.3,14.67,763.66,4,763.22.38H0v948H825s4.67-14.79.89-30.34-2-19.77,5.33-22.88,8.89,5.32,2-34.23-7.33-19.34-17.33-38.89,10.89-12.88,10.22-29.33-12-24-12-24a30.5,30.5,0,0,0-6.89-19.78c0-24.22-8.66-16.22-8-23.34.65-6.89-5-11.27-5.31-11.54l3.76.88.44-2.66,4.89.21,2.22,1.11L803,718.27l1.33-1.79,1.11,3.79,1.12-1.79,2.88-2,3.56,2-1.56-5.1-4.44,2s9.78-13.79.22-23.79-4-8.21,1.34-20.43S801,650.93,801,650.93s15.33-12.22,8.89-23.34-14.22-3.11-14.22-3.11,3.77-11.77,12.22-18.66,5.55-21.55,7.55-35.55,5.34-16.45,37.56-29.11,38.67-.23,40.44-5.78,6.67-8.9,11.34-11.34a10.52,10.52,0,0,1,8.44-.88s-.22-10.89,9.11-13.34,6.45,8.45,19.34,6.22,6.66-4.66,20.66-4.88,23.56-9.78,23.56-9.78c6.44-12.67,13.78-12.22,15.33-15.34s2.78-12,15.56-17.56,11.33-13.77,11.33-13.77l5.56,1.56s.66-29.56,1.11-34.23,0-28.66,2.22-34.66,8.44-9.34,12.67-6.9,9.77,4.45,23.11,5.11a122.55,122.55,0,0,1,23.78,3.57l-3.12-2.23c16.67-10.45,14.45-2.66,24.45.66s12.22,19.57,12.22,19.57a25.41,25.41,0,0,1-2.89,8.66c-2.44,4.45-.22,16.66-.22,16.66l-5.56-1.1-1.33,2,2.22,3.55,3.78-.66s2.22,8.21,4.45,15.11,11.11,7.55,15.11,8.66,7.77,5.12,8.66,2,8.89-3.11,8.89-3.11c-.22-3.34,3.11-12.66,6-12.22s.22,3.56,20.22-3.33-7.11,4.89,8.67-1.11-.19-20.94,37.33-10.68,1.34,42.68,32.23,45.34,15.77-10.66,42.44-18.45,25.78,1.34,19.56,16.95,10,20.39,15.77,15.95S1399,479.59,1399,479.59s-5.78,8.89-6.22,13.79c-.31,3.35,5.48,13.13,15,18.76a29.14,29.14,0,0,0,10.11,3.77,26.35,26.35,0,0,0,4.91.36c8.72-.23,15.66,3.15,21.82,4.32,5.87,1.13,11,.24,16.33-7.73h0c.61-.91,1.22-1.93,1.84-3,11.33-20.48,20.31-20,20.65-20-.12,0-2.21-.23,5.35-15.44,7.78-15.67,16.89-9.22,24-5.9s3.55,14.23-.89,18.45a14,14,0,0,0-4.45,9.34l3.12-1.34-2.89,5.11s6.44-3.33,2,2.67-2,14.22-2,14.22l2.66-3.92.67-3.42,2.44,3.42.23-4.3,2.22,3.33,2.89-1.11-3.11-3.55h3.11l-4.67-5.79s7.78.45,12.89,2.45,8.22,1.12,15.78-4.45,11.78-.88,11.78-.88,7.55-2.44,6.88.45,6,5.32,6,5.32l.45,6.23s1.33-4.89,7.11.45,6.22-2.57,6.22-2.57,8.67,9.23,19.56-2.11,9.78-11.1,15.11-9.32,3.33,0,6.89,1.55c2.26,1,3,.18,3.22-.54v-5.71c-1,.32-3.74.46-9.67.16-16-.8-23.11,4.54-23.11,4.54s-5.11,4.43-13.78,0-12.44-6.23-12.44-6.23a13.18,13.18,0,0,0,9.33-5.34c3.78-5.11,13.34-8.43,27.11-9.32s21.34,0,21.34,0v14.66A7.22,7.22,0,0,1,1626,491.47ZM907,201.64l-.89-1.11,3-.75Zm-2.26-4.07,2.26-.33-.89,1.58Zm6.41,4.59-2-.31,2.41-2.07,1.67,1Zm-.45-2.57c-1.4-.32-2.59-2.35-2.59-2.35l6-.79S912.11,199.93,910.7,199.59Zm2.15-5.18-.66.41-3.08-2.11Zm-8.07-2.14,5.85,2.89-9.7-.75ZM891,196.45h2.74L891,198h-2.16Zm-3.41-1.88c2.82,1,0,2,0,2s-.15,1,.15,1-1.26.89-1.63.89h-3.63l-.29-.89S884.78,193.59,887.59,194.57ZM909,491.48l2.39-6.55,1.55.89Zm14.83,9.79s-.27-8.34-.22-8.5c0,0,.78-.18,1.11,1.32S923.83,501.27,923.83,501.27Zm27.73,10a3,3,0,0,1-2.89-.73,13.12,13.12,0,0,1,3.11-1.45C952.61,509,953.28,510.77,951.56,511.27Zm29.61-7.56-1.73-.33,2.95-1.72ZM991.61,490c-3,2.68-5.72,5.45-6.61,7.73s-.94,2.22-3.72,2.67-3.34,2.94-5.06,3-5.61-2.72-9.61-1.79c-.38.09,2.22-5.27,4.83-5.55a23.48,23.48,0,0,0,5.5-1.45,45.51,45.51,0,0,0,3.06-4.82c.17-.73,1.61-1.95,3.44-2.06s2.39-2,3.67-1.5,1,2.33,2.56,2.17S994.61,487.32,991.61,490ZM1577,478.58c-8,6.35-10.3,10.13-14,11.9s-7.74,4.9-18.85,1.56c-.77-.22,8.22-6.88,9.56-11.33s14.22-11.78,21.33-10S1585,472.22,1577,478.58Z"/><path class="cls-2" d="M766.33,597.3a5.94,5.94,0,0,1-.14,5.92s-7-5.63-7.26-11S764.7,593.74,766.33,597.3Z"/><path class="cls-2" d="M887.59,196.57s-.15,1,.15,1-1.26.89-1.63.89h-3.63l-.29-.89s2.59-4,5.4-3S887.59,196.57,887.59,196.57Z"/><polygon class="cls-2" points="893.74 196.44 891 198.04 888.84 198.04 891 196.44 893.74 196.44"/><polygon class="cls-2" points="907 197.25 906.11 198.81 904.74 197.56 907 197.25"/><polygon class="cls-2" points="907 201.63 906.11 200.53 909.11 199.78 907 201.63"/><polygon class="cls-2" points="904.78 192.26 910.63 195.16 900.93 194.41 904.78 192.26"/><polygon class="cls-2" points="909.11 192.71 912.85 194.41 912.19 194.81 909.11 192.71"/><polygon class="cls-2" points="912.94 485.81 909 491.49 911.39 484.94 912.94 485.81"/><polygon class="cls-2" points="911.15 202.16 909.11 201.85 911.52 199.78 913.19 200.81 911.15 202.16"/><path class="cls-2" d="M914.11,196.45s-2,3.48-3.41,3.14-2.59-2.35-2.59-2.35Z"/><path class="cls-2" d="M923.83,501.27s-.27-8.34-.22-8.5c0,0,.78-.18,1.11,1.32S923.83,501.27,923.83,501.27Z"/><path class="cls-2" d="M951.56,511.27a3,3,0,0,1-2.89-.73,13.12,13.12,0,0,1,3.11-1.45C952.61,509,953.28,510.77,951.56,511.27Z"/><polygon class="cls-2" points="979.44 503.38 982.39 501.65 981.17 503.7 979.44 503.38"/><path class="cls-2" d="M981.28,500.38c-2.78.44-3.34,2.94-5.06,3s-5.61-2.72-9.61-1.79c-.38.09,2.22-5.27,4.83-5.55a23.48,23.48,0,0,0,5.5-1.45,45.51,45.51,0,0,0,3.06-4.82c.17-.73,1.61-1.95,3.44-2.06s2.39-2,3.67-1.5,1,2.33,2.56,2.17,4.94-1.06,1.94,1.6-5.72,5.45-6.61,7.73S984.06,499.93,981.28,500.38Z"/><path class="cls-2" d="M1544.11,492c-.77-.22,8.22-6.88,9.56-11.33s14.22-11.78,21.33-10,10,1.51,2,7.87-10.3,10.13-14,11.9S1555.22,495.38,1544.11,492Z"/><path class="cls-2" d="M1624.78,490.93a7.22,7.22,0,0,1,1.22.54v1c-1,.32-3.74.46-9.67.16-16-.8-23.11,4.54-23.11,4.54s-5.11,4.43-13.78,0-12.44-6.23-12.44-6.23a13.18,13.18,0,0,0,9.33-5.34c3.78-5.11,13.34-8.43,27.11-9.32s21.34,0,21.34,0Z"/></g><g id="fleches"><path class="cls-3" d="M815.61,284.13l-3.11,5.44-1.52,2.7L809.56,295c-.94,1.83-1.88,3.63-2.77,5.47L804.22,306c-.8-2.23-1.59-4.47-2.35-6.74l-2.35,2.08-1.16,1-.3.26-2,1.95-.18.16-.1.1a106.56,106.56,0,0,0-21,32.63,146.87,146.87,0,0,0-10.29,40.55,245.61,245.61,0,0,0-.73,42.29c.85,14.13,2.47,28.3,4.24,42.44s3.9,28.21,6.74,42.11A333,333,0,0,0,785.52,546l1.71,5,1.87,5,1,2.64.14.36.6,1.44,1.21,2.89q2.51-2.55,5.05-5l-.11,6.11c0,2,.07,4.06.11,6.12l.08,3.11.18,3.09.43,6.25-4.8-4.08-2.42-2.09-2.33-2.15c-1.55-1.46-3.15-2.91-4.7-4.41L779,565.59c2.41.07,4.82.11,7.2.13l-1.23-3-.61-1.48-.16-.37-1-2.71-1.91-5.07L779.5,548a339.71,339.71,0,0,1-11-41.83c-2.88-14.12-5-28.34-6.8-42.56s-3.43-28.48-4.29-42.89a252.4,252.4,0,0,1,.75-43.36,153.82,153.82,0,0,1,10.75-42.29,114.14,114.14,0,0,1,20.2-32.34c.75-.82,1.51-1.64,2.29-2.44l.3-.29,1.5-1.42.6-.58.29-.26,1.2-1.08,2.4-2.12c-2.16-1-4.33-2-6.53-3l6.1-2.15c2-.67,4.11-1.3,6.15-1.92l3-.92,3.08-.82Z"/></g><g id="terre"><path class="cls-4" d="M1626,.38V461.8c-8.29-.46-4.16-3.76-15.44-4.42s-15.12,5.78-15.12,5.78c-15.77-1.12-4.88,1.11-20,1.11-5.67,0-9.52.33-12.62,1.31-5.15,1.62-8.21,5-14,11.35-9.34,10.23-7.56,21.55-20,21.34s-12-10.68-8.45-18,2.89-12.45-4-12.89-10.44-16.45-28.44-9.79-26.45,30.45-29.33,33.34-4,7.78-11.34,13.54-35.78,5.8-43.11-2-1.78-21.1-1.78-21.1l-2.22-7s-2.89,1.44-32,7-31.11,9.33-29.33-10.22-8.89-20.45-18-21.12-19.56,9.55-38.45,15.34-24-10.22-21.77-20.45-18.45-34.89-20.23-32-32,4.66-35.33,4.66-8.89,6.89-26.22,13.12a34.86,34.86,0,0,1-10.32,2.33c-7.9.34-9.52-4.5-13-6.33-4.66-2.44-4.66-6.89-11.11-15.33-3.48-4.56-3.46-6.41-3.12-7,.65-.26.24-.44,0,0a3.28,3.28,0,0,1-.43.13c-2.67.68-2.67-1.77-8.22-12.66s-3.56-8.23-11.78-14.89a17.26,17.26,0,0,0-8.94-3.79.25.25,0,0,0-.12,0,14.65,14.65,0,0,0-1.83-.14,20.39,20.39,0,0,0-7.11,1.06s-23.11-1.33-31.11.23-10.67,2.44-19.78,1.32-7.56-.43-12.22-2.88-8.67.45-14.67,1.77-9.78,15.79-10,21.34,2.83,9.66,2.33,11.34a62,62,0,0,0-1.22,11.77c.17,2.5,2.56,13.95,5.67,17s2.44,7.39,2.33,10.84-.11,11-.11,11-6.78-.45-7.22,3.66-1.89,4.05-2.95,5.5-9.22,5.61-9.83,7.16-6.22,1.62-5.44,7.57-2.23,4.88-4.34,5.11-3.66-1.79-4.94-2.68-3.28,1-6.22,1.62-3.23-.83-3.23-.83c-.22,2.33-1.05,5.16-5.89,8.66s-3.61-4.72-7.38,2.39-12.78,9.23-12.78,9.23c-17.89,2.11-16.45-1.12-16.67-6.12s-.22-5.22-3.44-5.66-9.89-.34-11.56-4.67-4.78-4.12-7.67-6.33-1.88-9.79-1.88-9.79C890.78,448.38,901,433.82,901,433.82s2.11,13.89,4.67,20.66,7.66,7.56,7.66,7.56c-.66-7.33,4.78-6.56,4.78-6.56s-2.44-.77-.22-4.55,3.44-7.77,6.22-11.89-.15-14.63,5.78-21.45-3.56-10.95,1.18-23.55,1.19-12.59,1.19-12.59c-3.56-23.27-31.7-36.6-34.67-37.92s-5.48-1.94-11.85-15.12-9.18-4-9-9.93-4.59-12-4.59-12c-6.22,3.26-3.41-7.1-8.89-.14s-4.89,1.33-7.41-1-.59-5.48-1.77-5.48-1.63-1.64-2.37-4.15-10.23-8.59-12.3-10.66-5-4-3.26-5.63-.44-2.67-.89-3.56-3-4.74-2.52-3.41S829,274,829,274s4.3-2.07-2.67-.26-.66-6.51-4.77-2-7.67-.44-7.78,1-.11.56-3.78,1a12.32,12.32,0,0,1-9.78-2.78c-2.78-2.33-2.22-7.56-5.33-10.33s-1.89-6.55-2.78-7.78-2.44-5.45-1.89-10.22-2.11-7.78-3-10-8.22-9.55-8.22-9.55,1.78-4.12-.44-5.57c-1.52-1-1.23-3-.89-4.18a3.17,3.17,0,0,1,.11-.33,1.91,1.91,0,0,1,.09-.26,2.44,2.44,0,0,1,.1-.28.35.35,0,0,1,0,.06.17.17,0,0,0,0,.07c-.05.37.19,1,3.49-1.29,4.23-2.9,11.12,1,16.67.33s4.56,0,10.33,1.45,12.56-4,12.56-4,7.44-6.89,9-7.68,6.78-.44,6.78-.44,4.33-5.66,13.66-6.77,17.78,7.21,19.34,8.21,11.78-1.21,21.44-1.21,4.42-8.45,9-2.68,11.24,6.12,14.24,2.45,8.78-4.11,8.78-4.11,1.78-5.55,9.89-7,6.56-2.11,11.78-3.89,26.22,7.44,33.67,7.67,15.33-3.67,25.88-7.67,7.89-12.56,7.89-12.56-2.44-3.66-1.22-16.32,12-15,12-15,6.52-2.36,9.63-5,4.3-8.89,10.37-13.34,10.67-5.48,10.67-5.48l-1.33-.87-1.19-.76-6.07,4.3s-8.74,2.81-11.11,9-7.71,10.37-12.3,11.41-9.33,8.73-9.33,8.73l-3.85,6.67s-2.23,4.45-.45,7.56,1.93,11.86-1.48,17.18-14.52,5.49-14.52,5.49l3.4-6.94c-.26.39-4.39,6.85-7.55,8.71s-14.22,3.72-24.44-2.07-19.56-5.93-20.45-5.62-2.07,3.55-5,5.32-5.63-2.07-12.15,1.49-8.45,7.85-9.56,5.41-13.55-3.79-16.44-2-7.56,1.78-8.45,1.78-4.22-5.78-8.66-.45-9.78,7.11-11.11,6.22-11.56-6.66-21.34-7.11a26.31,26.31,0,0,0-10.4,2c-5.66,2.12-10.47,5.26-13.15,5.82-4.22.89-9.78,9.12-13.34,10.68s-4.44-.23-9.33-1.56-24.22,0-24.22,0-1.56-16.67-2.22-26.23-8-30.89-8-30.89,1.33-17.32,6-26.21,4,.66,2.89,3.33-.67,8.45-.67,8.45l-1.11,6,5.52-2.89-3.08,4.66,3.08,4.66V162s2-3.56,1.59,2.23,4.44,14.21,4.44,14.21l3.11-2,4.23,6,.89-5.55,1.11,6,2.44,2c3.56-6.66-1.33-20.89-3.55-23.34a26.12,26.12,0,0,1-3.78-5.77l-3.34-4.89s-2.66,5.34-2.44,2.66-2.67-12.88-2.67-12.88a66.89,66.89,0,0,0-1.22-9c-.06-.25-.09-.4-.09-.4a10.38,10.38,0,0,0-1.58-3.94c-2.22-2.67,1.34-29.34,1.34-29.34s-2.22-6.22-3.78-21.56c0-.3-.06-.59-.1-.89-1.71-14.68-8-20.8-11.23-27.77s2.66-4.44,4.66-8.66,1.34-11.34-3.33-18.68c-3.7-5.81-5.17-15-5.61-18.62-.12-.94-.17-1.48-.17-1.48Z"/><path class="cls-4" d="M1626,498.17V948.38H825s4.67-14.79.89-30.34-2-19.77,5.33-22.88,8.89,5.32,2-34.23-7.33-19.34-17.33-38.89,10.89-12.88,10.22-29.33-12-24-12-24a30.5,30.5,0,0,0-6.89-19.78c0-24.22-8.66-16.22-8-23.34.65-6.89-5-11.27-5.31-11.54l3.76.88.44-2.66,4.89.21,2.22,1.11L803,718.27l1.33-1.79,1.11,3.79,1.12-1.79,2.88-2,3.56,2-1.56-5.1-4.44,2s9.78-13.79.22-23.79-4-8.21,1.34-20.43S801,650.93,801,650.93s15.33-12.22,8.89-23.34-14.22-3.11-14.22-3.11,3.77-11.77,12.22-18.66,5.55-21.55,7.55-35.55,5.34-16.45,37.56-29.11,38.67-.23,40.44-5.78,6.67-8.9,11.34-11.34a10.52,10.52,0,0,1,8.44-.88s-.22-10.89,9.11-13.34,6.45,8.45,19.34,6.22,6.66-4.66,20.66-4.88,23.56-9.78,23.56-9.78c6.44-12.67,13.78-12.22,15.33-15.34s2.78-12,15.56-17.56,11.33-13.77,11.33-13.77l5.56,1.56s.66-29.56,1.11-34.23,0-28.66,2.22-34.66,8.44-9.34,12.67-6.9,9.77,4.45,23.11,5.11a122.55,122.55,0,0,1,23.78,3.57l-3.12-2.23c16.67-10.45,14.45-2.66,24.45.66s12.22,19.57,12.22,19.57a25.41,25.41,0,0,1-2.89,8.66c-2.44,4.45-.22,16.66-.22,16.66l-5.56-1.1-1.33,2,2.22,3.55,3.78-.66s2.22,8.21,4.45,15.11,11.11,7.55,15.11,8.66,7.77,5.12,8.66,2,8.89-3.11,8.89-3.11c-.22-3.34,3.11-12.66,6-12.22s.22,3.56,20.22-3.33-7.11,4.89,8.67-1.11-.19-20.94,37.33-10.68,1.34,42.68,32.23,45.34,15.77-10.66,42.44-18.45,25.78,1.34,19.56,16.95,10,20.39,15.77,15.95S1399,479.59,1399,479.59s-5.78,8.89-6.22,13.79c-.31,3.35,5.48,13.13,15,18.76a29.14,29.14,0,0,0,10.11,3.77,26.35,26.35,0,0,0,4.91.36c8.72-.23,15.66,3.15,21.82,4.32,5.87,1.13,11,.24,16.33-7.73h0c.61-.91,1.22-1.93,1.84-3,11.33-20.48,20.31-20,20.65-20-.12,0-2.21-.23,5.35-15.44,7.78-15.67,16.89-9.22,24-5.9s3.55,14.23-.89,18.45a14,14,0,0,0-4.45,9.34l3.12-1.34-2.89,5.11s6.44-3.33,2,2.67-2,14.22-2,14.22l2.66-3.92.67-3.42,2.44,3.42.23-4.3,2.22,3.33,2.89-1.11-3.11-3.55h3.11l-4.67-5.79s7.78.45,12.89,2.45,8.22,1.12,15.78-4.45,11.78-.88,11.78-.88,7.55-2.44,6.88.45,6,5.32,6,5.32l.45,6.23s1.33-4.89,7.11.45,6.22-2.57,6.22-2.57,8.67,9.23,19.56-2.11,9.78-11.1,15.11-9.32,3.33,0,6.89,1.55C1625,499.7,1625.77,498.89,1626,498.17Z"/><path class="cls-5" d="M1141.21,404.35c.24-.44.65-.26,0,0Z"/><path class="cls-5" d="M1626,498.17V461.8a.22.22,0,0,0,.11,0v35.56A2.19,2.19,0,0,1,1626,498.17Z"/><polygon class="cls-5" points="982.39 501.65 981.17 503.7 979.44 503.38 982.39 501.65"/><path class="cls-5" d="M1141.21,404.35c.24-.44.65-.26,0,0Z"/></g><g id="iles"><path class="cls-6" d="M887.59,196.57s-.15,1,.15,1-1.26.89-1.63.89h-3.63l-.29-.89s2.59-4,5.4-3S887.59,196.57,887.59,196.57Z"/><polygon class="cls-6" points="893.74 196.44 891 198.04 888.84 198.04 891 196.44 893.74 196.44"/><polygon class="cls-6" points="910.63 195.16 900.93 194.41 904.78 192.26 910.63 195.16"/><polygon class="cls-6" points="912.85 194.41 912.19 194.81 909.11 192.71 912.85 194.41"/><path class="cls-6" d="M914.11,196.45s-2,3.48-3.41,3.14-2.59-2.35-2.59-2.35Z"/><polygon class="cls-6" points="907 197.25 906.11 198.81 904.74 197.56 907 197.25"/><polygon class="cls-6" points="909.11 199.78 907 201.63 906.11 200.53 909.11 199.78"/><polygon class="cls-6" points="913.19 200.81 911.15 202.16 909.11 201.85 911.52 199.78 913.19 200.81"/><path class="cls-6" d="M991.61,490c-3,2.68-5.72,5.45-6.61,7.73s-.94,2.22-3.72,2.67-3.34,2.94-5.06,3-5.61-2.72-9.61-1.79c-.38.09,2.22-5.27,4.83-5.55a23.48,23.48,0,0,0,5.5-1.45,45.51,45.51,0,0,0,3.06-4.82c.17-.73,1.61-1.95,3.44-2.06s2.39-2,3.67-1.5,1,2.33,2.56,2.17S994.61,487.32,991.61,490Z"/><path class="cls-6" d="M951.56,511.27a3,3,0,0,1-2.89-.73,13.12,13.12,0,0,1,3.11-1.45C952.61,509,953.28,510.77,951.56,511.27Z"/><path class="cls-6" d="M923.83,501.27s-.27-8.34-.22-8.5c0,0,.78-.18,1.11,1.32S923.83,501.27,923.83,501.27Z"/><polygon class="cls-6" points="912.94 485.81 909 491.49 911.39 484.94 912.94 485.81"/><path class="cls-6" d="M1577,478.58c-8,6.35-10.3,10.13-14,11.9s-7.74,4.9-18.85,1.56c-.77-.22,8.22-6.88,9.56-11.33s14.22-11.78,21.33-10S1585,472.22,1577,478.58Z"/><path class="cls-6" d="M1626.11,492.41l-.11,0c-1,.32-3.74.46-9.67.16-16-.8-23.11,4.54-23.11,4.54s-5.11,4.43-13.78,0-12.44-6.23-12.44-6.23a13.18,13.18,0,0,0,9.33-5.34c3.78-5.11,13.34-8.43,27.11-9.32s21.34,0,21.34,0v14.66a7.22,7.22,0,0,1,1.22.54.6.6,0,0,1,.11.06C1626.58,491.83,1626.83,492.16,1626.11,492.41Z"/><polygon class="cls-6" points="794.8 683.3 791.37 686.49 791.69 687.13 793.74 691.38 790.63 691.38 787.07 686.26 784.8 684.42 784.41 684.12 783.81 682.18 787.96 684.12 792.85 681.15 795.52 682.63 794.8 683.3"/><path class="cls-6" d="M767,604.67s-8-6.49-8.37-12.64,6.65,1.71,8.53,5.81S767,604.67,767,604.67Z"/><path class="cls-6" d="M755.21,586.22s-3.25-3.93.17-3.24S755.21,586.22,755.21,586.22Z"/></g><g id="routes"><path class="cls-7" d="M778.9,75.59s4.32-6.29,4.91-9-5.35-10.07-3.34-15.7.69-19.7.91-24S774.63.38,774.63.38"/><path class="cls-7" d="M783.11,131.72a10,10,0,0,0,3.22,5.29c2.61,1.94,2.08,8,5.63,13.05a31.44,31.44,0,0,1,4.6,11.54"/><path class="cls-7" d="M800.11,184.93s-4.89,6.74-1.63,9.48,8.58,3.32,16.59,4.81"/><path class="cls-7" d="M839.93,193.76a24.84,24.84,0,0,1,.39-5.34c.52-2.78,1.72-5.79,4.38-6.67a107,107,0,0,0,11.81-5"/><path class="cls-7" d="M856.51,182.63s-.84-1.77-6.47,1.49a43.14,43.14,0,0,1-9.72,4.3"/><path class="cls-7" d="M1021.74,141.45s-.15-5.63-1.93-6.82-8.29-.41-6.51-3.31a8.16,8.16,0,0,0,1.18-5.57,6,6,0,0,1-1.49-2.67c-.29-1.48,2.08-4.74,2.08-4.74s-3-3.56-.29-4.45,8.59-2.66,8.59-4.14a33.48,33.48,0,0,1,0-5.51,12.11,12.11,0,0,0,0-3.68s3.56-2.67,2.07-4.15.73-3.85.37-5.92-4.51-3-5.11-3.86,4.07-4.14,5.15-3.85-4.55-3.26-1.59-5.92,5-6.52,6.22-8.3-.59-12.15,0-13.33a42.51,42.51,0,0,1,8.3-10.37c5-4.74-1.78-8.89-1.78-8.89s3.85.89,5.33-1.78,2.37-13.93,4.45-15.7a25.52,25.52,0,0,0,3.55-3.81s-6.22-4.49-3-6.56,6.52-3.93,6.82-7.74"/><path class="cls-7" d="M1052.41,117.47s15.4.28,23.4-3.28,21.74-12.94,32.06-18.62,15.94-7.75,18.91-12.49,8.59-20.45,17.78-21.63,18.37-.59,20.44-12.74-.89-20.45,8.3-24.89,13-8.59,12.74-13.33S1197.89.38,1197.89.38"/><path class="cls-7" d="M1354,.38s-58.67,44.77-62.52,43.29-8.59-3-19,1.78-13,5.63-16.6,9.78-3.55,0-3.55,0l-3.26,3.7-4.45-1.33s-8,2.07-8.59,3.55.89,5.63-1.48,7.41-3.26,7.11-3.26,7.11a42.81,42.81,0,0,1-1.48,12.45c-1.78,5.92-6.22,11.85-6.22,11.85s-4.15,1.78-7.41,9.48-6.22,15.11-12.74,23.11-16.89,29.33-16.89,29.33a16.93,16.93,0,0,1-11.26,6.52c-7.41.89-10.07,4.15-10.07,4.15s-3.56,1.48-11,3.85-7.7,3.85-12.44,7.41-15.41,8.3-15.41,8.3-.29,11.85-9.48,18.66-4.74,8.59-9.19,13.34-25.77,23.4-25.77,23.4l-12.74,2.37s-4.14-4.14-7.55-4.14-6.08-3.26-8.75,0-30.22,18.46-35.85,25.37-11.56,14-10.67,14S987.81,305,987.81,305s-1.18,13-5,15.71-12.45,5-12.45,5-14.81-1.49-16.59,0a71.73,71.73,0,0,1-6.22,4.14l-2.67-3.55-3.55.89s-21.93-3.26-24.6-4.45-15-13.92-17-13.92-13.12,2.66-14.23,2.37-6.14-8.6-6.14-8.6-3.56-12.74-5-14.22-15.19-14.52-17.82-15.11"/><path class="cls-7" d="M840.7,273.75c.45.59,3.56,5.48,3.56,5.48l7.26-.6"/><path class="cls-7" d="M849.74,276.49s9.33-2.45,10.07-2.15"/><line class="cls-7" x1="859.81" y1="271" x2="859.81" y2="281.6"/><line class="cls-7" x1="878.19" y1="283.97" x2="870.14" y2="284.43"/><path class="cls-7" d="M926.19,271.82l-1.34,1.93s-8.44-.6-9.92-1-9.15-11.63-9.15-11.63l-6.11-3.4s-38.37-13-39.86-13.63l2.08-4-2.82,4.14-7.55,2.52-10.82,9.34L831.52,260l1.63,1.18,5.92-2.22-1.1-4.45h2.35l1.72,5.34"/><path class="cls-7" d="M822.63,208.76s-1.63,5.28-1,8.54.46,23.56.46,23.56l3.39,2.81h6.08l4.59-6.07"/><polyline class="cls-7" points="818.04 249.89 818.04 252.56 821.46 254.48"/><polyline class="cls-7" points="822.05 240.86 822.05 246.34 824.7 252.19"/><polyline class="cls-7" points="831.52 252.19 830.78 248.56 832.29 242.66"/><path class="cls-7" d="M822.05,245.71l8.73,2.85,5.33.37.67,2.33s11.78-10.22,14.11-13.44,5.69-10.44,6.73-11.33,26.6-11.17,26.6-11.17"/><polygon class="cls-7" points="833.89 255.93 836.78 251.26 837.97 254.48 833.89 255.93"/><path class="cls-7" d="M906.53,314.07l5.25-1.81L919,305l2.33-5.34h4.95l4.5-1.89a32.71,32.71,0,0,1,2.5,5.06,19.35,19.35,0,0,0,1.89,3.89"/><path class="cls-7" d="M1329.74,19s9.19,11.05,10.07,12.24a73.63,73.63,0,0,0,5.93,5.33l2.37,7.11,15.7,15.26,8,23L1386.93,100l25.18,29.92,45.33,53.34,1.52,13,6.48,16.3,11,5.33,24.89,16.89,14.51,9.78,8.32,3.85,9.46,7.71,10.08-3,15.4,1.33,11.86,4.6,16.88,3,8.6,3.85,7.7,15.41-9.48,22.82-5.93,8.29-11,10.08-4.09,7.4-15.11,8.3-19.26,18.07.3,30.82-2.37,9.48V404l-7.78,2.66s-2.44,5.93,0,8l-3.18,10.08s1.52,2.66,0,4.15-2.31,8.81-2.31,8.81l-1.7,2.74"/><path class="cls-7" d="M1523.89,437.67l5.48,1.41,3.85.3,3.63,2.74,1.33,2.37h6.89s6.6,6.07,11.41,6.07,13.78-.52,13.78-.52,7.33-5.26,11.18-5.78,14.75-4.07,15-3.85,6.29,1.19,8.74,2.52,4.44.67,7.18,1.56,5.34,2.14,7.71,1.7a42.19,42.19,0,0,1,6.07-.44"/><path class="cls-7" d="M970.33,325.75l4.45,12.74-2.22,19.33,10.66,34-4.89,11.33s-5.77,2.28-5.77,7.14-.45,21.08-.45,21.08-1.55,5.07,2,5.2,10,.54,10.89,0a10.19,10.19,0,0,1,6.89-.66c3.11.8,8.89,8.35,8.89,8.35a33.61,33.61,0,0,0,9.11,3.93c4.89,1.18,4.22.15,6.44,0a61.54,61.54,0,0,1,7.73.56"/><path class="cls-7" d="M974.78,338.49l11.33,5.11.89,2.59,5.11-2.37,3.11,2.37,4.13,2.3,2.76,1.55h3.56l2.79,2h3.87l4.23,1.33,1.11,2.23,4.89-1.11h4.66l2.89,5.33s1.52,2.48,4,1.9,5.18-.94,5.18-.94"/><path class="cls-7" d="M1111.84,373.14c3.82.26,12.33.79,16.72.46,5.77-.45,12.65,10.67,12.65,10.67l3.79,15.11s3.55,15.43,7.94,20.86,15.09,12.53,15.52,12.81h0"/><path class="cls-7" d="M1505.89,498.17s2.22,8.76,0,15.87-2.67,18.2-2.67,18.2l1.83,8.47,4.39,11.11,1.78,12.44,8.45,10.67,9.7,5.78s12.87,34.66,14.69,36,4.5,24.89,4.5,28-1.78,12,.44,19.32,7.56,15.79,7.56,15.79"/><path class="cls-7" d="M1577,685.15s3,8.89,4.81,11.11,1.41,3.56,2.3,8.89,11.12,13.78,12.67,22.22,10.89,25.34,11.33,34.23,8,16,2.22,35.55-6.66,33.34-6.66,33.34l8.83,2.22v15.55l8.5,8.89,5,4.89"/><polyline class="cls-7" points="1603.67 830.49 1593 832.71 1584.56 838.49 1577 842.93 1563.22 842.93 1556.56 845.6 1552.11 855.38 1543.22 862.04 1516.56 922.04 1529.89 948.38"/></g><g id="Villes"><text class="cls-8" transform="translate(875.26 215.32)">Miary</text><text class="cls-8" transform="translate(773.6 207.26)">Belalanda</text><text class="cls-9" transform="translate(809.22 271)"><tspan class="cls-10">T</tspan><tspan x="10.46" y="0">oliaria</tspan></text><text class="cls-8" transform="translate(999.35 150.06)">Behompy</text><text class="cls-8" transform="translate(1079.78 104.24)">Ampanihy</text><text class="cls-8" transform="translate(747.9 14.68)">Mangily</text><text class="cls-8" transform="translate(1289.68 25.55)">Andranovory</text><text class="cls-11" transform="translate(1447.14 230.1)">V<tspan class="cls-12" x="7.33" y="0">atolatsaka</tspan></text><text class="cls-8" transform="translate(1554 295.54)">Inanavy</text><text class="cls-8" transform="translate(1485.02 346.19)"><tspan class="cls-13">F</tspan><tspan x="6.05" y="0">enoanivo </tspan></text><text class="cls-8" transform="translate(1506.77 449.3)">Iotry</text><text class="cls-14" transform="translate(1458.96 487.18)">T<tspan class="cls-12" x="6" y="0">ameantsoa</tspan></text><text class="cls-8" transform="translate(1421.23 532.24)">Anaralava</text><text class="cls-8" transform="translate(1317.02 481.98)">Ifanato</text><text class="cls-8" transform="translate(1111.42 472.95)">Manorofify</text><text class="cls-14" transform="translate(1112.11 418.08)">T<tspan class="cls-15" x="6" y="0">anandava</tspan></text><text class="cls-8" transform="translate(1008.68 370.63)">Ambohimahavelona </text><text class="cls-9" transform="translate(783.81 614.96)">Anakao</text><text class="cls-8" transform="translate(801.49 747.23)">Andranotohoka</text><text class="cls-8" transform="translate(801.26 810.76)">Befaso</text><text class="cls-8" transform="translate(809.22 901.91)">Beheloka</text><text class="cls-8" transform="translate(1548.28 685.15)">Betioka</text><text class="cls-9" transform="translate(903.46 477.54)">St Augustin</text></g><g id="Fleuves"><polyline class="cls-16" points="1402.33 481.38 1406.18 481.38 1408.27 476.56 1410.18 471.52 1415.82 462.49 1417.3 457 1419.52 454.04 1420.56 451.75 1421.74 450.56 1426.18 449.3"/><path class="cls-16" d="M1493.74,454.78l2.22-4.22.6-3,3.55-2.81,1.63-3.81v-6.27l1.33-7.11s3-3.55,2.67-5.48-3.26-3-4.3-4-2.37-11.59-2.37-11.59,0-4.15-1.92-6.52a26.15,26.15,0,0,0-4.74-4.3l-1.78-2.81-3.41-.74-3.85-4.6h-4.3a16.9,16.9,0,0,1-2.66-1l-1.34-1.34h-1.92V381l2.07-2.37-1.48-2.66v-.89l-1.48-.74-2.22-2.52s-1.78-.44-2.23,0-1.92-1.19-1.92-1.19l-2.52-2.37.74-3.11-3-3.55s-2.74-2.67-2.19-3,1.15-3.11,1.15-3.11l-1.15-3.11,2.19-2.81-2.19-4.45"/><path class="cls-16" d="M1532.7,158.49v2.81s.89.59,0,1.63-1,4.3.4,5.63-3.66,1.19-3.51,3,2.07,2.67,0,5.48a21.76,21.76,0,0,0-3,5.63l-.89,2.82-1.61,3.55-.76,3.41-2.81,2.37a55.54,55.54,0,0,0-2.6,5.93c-.44,1.63,1.85,8,1.56,9.78s-3.11.29-1.93,3.11,1.19,3.11.6,4.44.59,4.15.59,4.15,5.33,8.15,6.81,9.48,2.56,2.22,3,3.26,3.75,2.67,3.75,2.67"/><path class="cls-16" d="M1546.48,187.37h5.33s1.78-2.66,2.23-2.66h7.26s4-2.67,4.74-1.78,3.11.89,3.85.74.15,2.37,2.22,2.08,4.74-.45,4.89-1.34,0,.38,2.67-.77a6.87,6.87,0,0,0,3.55-3.52s4,2.37,4.74,1.33,3.71-1.33,3.71-1.33,8.14-.89,8.44-1.34a30.79,30.79,0,0,1,5.33-4.15c2.23-1.33,5.49,1.49,6.37-2.37s8-3.85,8-3.85l6.19-1.63"/><path class="cls-16" d="M1499.07,406.49A29.54,29.54,0,0,0,1500,396c-.52-6,4.34-9.11,5.8-11.78s.13-19.33-1-21.55-3.19-5.56-2-8,6-17.11,7.15-21.56,3.55-5.11,5.33-8.89,1.5-18,2.08-22.44-3.86-5.56-2.52-8,12.22-10,12.22-14.67,1.84-18,4.59-24.67c2.73-2.23-1.55-6.51-2.72-8.14s1.46-3.71,2.8-5.63.29-4.45.29-6.37-3.85-4.45-3-6.08,7-4.88,7-4.88-.29-9.34,1.34-9.34,6.07-3.85,7.13-4.59.87-4.89.13-9,1.92-13,1.92-13a16.66,16.66,0,0,1-.59-8.59c1-4.15,5-2.52,4.59-3.26s1.48-7,3.26-10.52-.3-11.11-.61-13.33,1.2-4.89.31-7.41.15-6.66,2.37-10.81.75-9.19.75-9.19,6.37-1,6.07-5-2.52-7.11,1.33-8.89,4.3-2.08,3.41-6.1,2.52-4.72,3.85-5.9-3.11-4-1.18-8.15,4.89-3.7,7-3.7,3.26-3.41,3.41-6.08,1.78-1.78.44-6.07,2.82-16,2.82-16a25.28,25.28,0,0,0,3.11-9.19c.44-4.74-7.85-12.74-7.85-12.74l2.64-3.55s1.65-10.37,0-11.26-4.15-6.37-3.7-11.41,7.41-8.32,7.41-8.32"/><path class="cls-16" d="M1407.76,512.14s-2.61,4.86-1.57,6.49-2.67,4.7-2.67,4.7l-1.93,4.79"/><path class="cls-16" d="M1417.87,515.92a2.57,2.57,0,0,0,1.65,3.6c2.81.89,3.26,1.63,1.48,6.15a32.4,32.4,0,0,1-3.37,6.69s-4.48.64-4.33,2.42-3.71,3.56-3.71,3.56,2.37,2.66,1.48,4.44-4.8,3.26-6.4,2.67-4.41,2.22-5.89,2.67"/><path class="cls-16" d="M1408.56,551.23a9.77,9.77,0,0,0,1.86-3.11c.51-1.63-.93-3.79-.93-3.79"/><path class="cls-16" d="M1418.9,530.25s.48,3.79,2.1,5,4.3,1,4.3,2.07-.45,6.05,1.48,7,3.26,1.71,3.55,3.79,4.15,2.66,3,4.59-5,4-5,5.18.89,5.63,2.67,5.34,3-2.35,4.44,0,4.44,2.06,3.41,4-4.3,5.48-2.82,5.63,1.93-2.37,4.6-1.34,7,6.08,7.55,9.78,1.19,7.7,1.19,7.7a8.11,8.11,0,0,0,1.63,2.37c.88.75,2.37,1,2.51,2.67s1,2.52,1.49,3.71.29,2.37-2.08,2.22-3.11-1.19-4.74,1.48-2.37,3.85-2.37,3.85"/><path class="cls-16" d="M1477.89,672l-1.78-2.53-2.07-2.06.15-1.94-1.78-3.39v-3.87l-2.82-1.92-1.63-5-3.26-3.56H1462l.44-2.66,1.63-.75-.3-2.36,1.34-1.93-1.78-2.81s1.93.59,2.07-2.82,0-6.67,1.63-9.49c1.17-2-.32-4.94-1.65-6.6a4.31,4.31,0,0,0-1.31-1.24c-1-.44-1.92-3.26-1.48-4.44s3.7-2.52,5.48-4.6,1.19-5.79,2.08-8.59-1.19-10.68-1.49-13.63a61.1,61.1,0,0,1,0-7.41c0-1.18,3.41-7.26,3.41-7.26s5.63-4,7.56-5,3.55-3,5.35-5.2-.46-3.26-.76-5a13.76,13.76,0,0,0-2.52-5.33,2.89,2.89,0,0,1-.47-2.13A16.55,16.55,0,0,1,1482,545c.74-2.37.15-4.9-.45-8.31a3.59,3.59,0,0,1,.29-2.52c.66-1.17,2.06-1.83,3.14-3.93,1.65-3.2-.17-6.14,0-8.2s-3.13-1.79-4.76-3.41-5.33-3.26-8.89-4.59-10.13-1.2-10.43-1.19"/><polyline class="cls-16" points="1463.22 547.78 1462.33 544.33 1459.01 541.6 1454.11 539.6 1450.56 534.93 1448.56 533.38 1444.11 524.71 1444.6 520.59"/><path class="cls-16" d="M1542.78,529.45l-2.59-.89-2-1.85s-.75-1.48-1.71-1-1.92,1-2.44.89-1.41-1.2-1.78-1a12.43,12.43,0,0,0-1.41,1.91c-.29.39-1.92.32-2.15.62s-1.4,1.33-1.4,1.33l-.82-2a9.89,9.89,0,0,0-3,1.5c-.67.75-2.67,2.67-2.89,2.89a16.32,16.32,0,0,1-2.3,1h-2.14l-1,2.59-2.89-.37-4.74,1-3.26.92-5.63.56-4.89-.45-5.33.89s-4.93-3.14-5.78-3.41-.75-.45-.75-.45"/><path class="cls-16" d="M1481.27,548.37a15.65,15.65,0,0,0,2.06-.94c.11-.17,1.94-.44,2.39-1.11s1.28-1.67,1.28-1.67,1.33.56,1.5,1.56,1,1.89,1.06,2.94a26.07,26.07,0,0,1-.23,3.22s1.11,2.73,1.34,3.23a34,34,0,0,1,.66,4.16c0,.23.84,3.34.84,3.78s-.84,2.67-1.17,3.84a4.35,4.35,0,0,0,.28,3.16c.39.45,1,1.89.55,2.45s-1.16.61-.33,1.83a19.12,19.12,0,0,1,1.83,4.33c.56,1.56.06,3.67-.5,4.06"/><path class="cls-16" d="M1494.49,537.22s-.32,2.71.84,3.1,2,.22,1.89,2.06-.61,4,0,4.11,2.06.72,2.61.27,1.67-1.33,2-1a6.58,6.58,0,0,1,.89,2.33c0,.28-.33,1.67,0,2.28s.06,1.78.5,2.44,1.39,1.17,1.28,2.28a4.52,4.52,0,0,0,.33,2.72,2.42,2.42,0,0,1,.11,2.39c-.38,1.06-.66,3.17,0,3.39a11.32,11.32,0,0,1,2.67.84,8.42,8.42,0,0,0,2.33.72,1.91,1.91,0,0,1,2,1c.5,1.22.34,3.66.89,4s.89,1.17,0,1.67-1.23,2-.5,2.44,1.11,3.34.78,4.23.32,3.66.27,3.88-.22,2,0,2.12a3,3,0,0,1,0,2.22c-.32.39-.11,1.61,0,2a7.71,7.71,0,0,1-.44,3,11.58,11.58,0,0,0-.5,2.33"/><path class="cls-16" d="M1624.26,672a9.14,9.14,0,0,1-3.7-2.08c-1.78-1.63-3.41-4-4.45-4.44s-2.52,1.3-3.7-1.42a28,28,0,0,0-3.71-5.69s-1.33-4.3-1.77-4.45a7.75,7.75,0,0,1-2.67-.74c-.89-.59-2.07-3.55-2.07-3.55l-.69-3.11s.5-2.37,0-2.82a32,32,0,0,1-2.28-3.7,1.65,1.65,0,0,0-.73-1.63c-.9-.45-1.34-2.37-1.34-3.11a7.28,7.28,0,0,0-1-2.37l-3.7-2.08-3-3.7-.74-2.08s-2.51-2.37-2.81-2.81-1.93-1.93-1.93-2.52v-2.22s-3.4-.74-3.4-1.63v-3.7s-1.78-.74-2.08-1.63a26.08,26.08,0,0,1-.89-3.56c-.15-1-.15-.44-2.52-1.63s-1.77-.3-2.81-2.37-3.56-3.11-2.82-3.85-3.11-1-3.55-1.93,1,.3-.74-1.77-2.67-2.82-3.26-2.23.74,1.63-1.63,1.78-1.19,1.93-3-.3-.6-.59-2.23-2.22-2.66-.59-3.4-2.37a16.71,16.71,0,0,0-1.19-2.37l-1.33-2.67s-.59-1.33-1.34-2.66l-.74-1.34a10.5,10.5,0,0,0-4.29-.88c-2.52,0-5.63-2.52-5.63-2.52l-1.93,1.18s-.89,0-.89-.44v-3l-2.07-.75h-2.37s-1.93.15-1.63-2.37.68-3.35,0-4.49-1-2.25-1.45-2.14,0-2.4,0-2.4l-1.19-2.67a10.3,10.3,0,0,0-2.22,0c-.74.15-4.3,1.63-4.3,1.63s-.88-.44-1.63-.74-2.07-1-2.07-1l-3,1.4"/><path class="cls-16" d="M1534.19,608.86c-1-1.34-.3-4.6,0-5.63s-.54-5-.54-5l-1.09-4.15.13-4.52,1.56-1.26,2,1.49,1.63,2.66s.59,1.19.74,1.63"/><path class="cls-16" d="M1529,574.43a3.91,3.91,0,0,0,.87,4.8,9.31,9.31,0,0,1,2.67,5h-1.86l3.55,4"/><path class="cls-16" d="M1465.42,618.24a35.63,35.63,0,0,1,4.69,1.8c1.11.67,3.22,1.78,3.22,1.78h3v3.11s2.23,2.89,3.11,2.89a31.94,31.94,0,0,1,4.45,1.11l1.13,2.44,2.4,1.12h3.14v8.44s.66,3.11,0,3.78,0,2.44,1.33,2.66,5.11,1.34,5.11,1.34v1.78l1.11,4.44,3.33,1.78v4.66H1504l5.87-2.66h2.44s-2.23,1.55,0,1.78,4.67,2.44,4.67,2.44l4.89,1.1h1.55s0-.46,1.56,0,4.8,0,6.4,0,1.88.65,2.85,0,4.38,0,4.38,0v1.57a5,5,0,0,1,0,2.22c-.3.89-1.85,2.22-1,2.44s-.23,2.89-.23,2.89l1.32.89-2,3.33h1.85v3.34h1.48l-1.48,2.44,3,2h1.11v4.45l2.66.44a6.77,6.77,0,0,1,1.12,2.22c0,.67,2.41,1.56,2.41,1.56l-1.53,3.78v1.11l3.56,1.78,1.11,2.66a4.36,4.36,0,0,1,3.56,2.45c1.33,2.44,2,1.11,2.66,3.11a7,7,0,0,1,0,4,7.09,7.09,0,0,0,2.89,2.44V718c1.78.67,2.45,3.78,2.45,3.78v3.33l1.11,3.11-1.11,4.45,1.11,1.33-3.11,4,3.11.89s-3.34,4.22-1.78,4.67,5.29,3.63,5.29,3.63h10.49a13.57,13.57,0,0,0,3.55,0c.89-.3,4.45,1,4.45,1l3.11,3.11s0,2.89,1.33,2.67,5.34,1.78,5.34,1.78.08-.45,1.93-.45a4.14,4.14,0,0,1,3,1.56"/><path class="cls-16" d="M1558.33,840.71c-1.11-.22-4.66-.22-3.77-1.33a26.08,26.08,0,0,0,2-3.34l-.19-4.22s-1.81-.89-2.93-1.33-4.07-1.34-4.47-2-2-4.23-2-4.23l2-1.55-2-5.56v-2.66l2.89-3.73.67-3.61-.23-7.33-5.11-1.56,1.78-2.88,2-6-3.75-.23-6.89-4-.44-5.33-3.33-1.11v-3.33h-3.34l-4.89-1.78-1.33-1.11-2-1.56-4.44-.22-2-.67-.89-2-3.34-.89-6.66-1.77-3.56-3.56L1501,759.6l-4.89-1.78-2.67-2.22s-1.33,0,0-1.34.23-7,.23-7l1.77-5.41,2-5.11-1.11-3.11.23-3.56.44-3.55s-3.56-.89-1.11-2a3.32,3.32,0,0,0,1.78-3.78s-3.11,1.78-2.67,0a23.38,23.38,0,0,1,1.56-4s.44-3.56,1.77-5.33l1.34-1.78.89-4.22.88-2.45-1.11-2.67a5.94,5.94,0,0,1,2.89-.88h2.45l-2.45-3.56-2-2,2-4.89V684l4.67-5.78-1.12-4.44-3.55-3.33,2.22-2.45-4-4v-2.66"/><path class="cls-16" d="M1548.28,773.6c-.28.22-8.06,0-8.06,0l-2.11-1.67-3-2.89-3-2.22-6.52-.44-3.7.66-2.45-.66-4.5,1.47"/><path class="cls-16" d="M1584.56,450.56c-.15-.52-2.75-5.08-2.75-5.08l-2.14-7.14-.6-7.71"/><path class="cls-16" d="M1590.63,427.82c0-.74.3-3.56,1-4.44s-1-4.45-1-4.45l-2.82-3.41,1-.74.15-1.92-2.2-1.48s-.73-3,0-4.15,0-4,0-4"/><path class="cls-16" d="M1607.81,409.15l.75,4.3.88,4.63-.81,1.44a16.84,16.84,0,0,0,1.7,3.11c.45.3-2.07,5.19-2.07,5.19s-.45,3-.45,3.41a36.76,36.76,0,0,0,2.58,4.29l3,4.15-1.11,4.82"/><path class="cls-16" d="M1562.82,465.58l1-2.2s2.38-2.38,3.19-2.23,3.19.65,3.19.65l4.81-3.17,2.89,1.78"/><path class="cls-16" d="M1556.41,360.71c-.3.44-1.63,2.37-2.22,3.26s-4.45,1.48-4.45,1.48v3.7l-3-.74V372l-.59,2.07-3.26-.74a17.17,17.17,0,0,0,0,3.85c.29.89,1.48,2.39.59,2.53s-4,2.37-4,3.11-.78,7.57-.78,7.57l-1.55-3.73-1.78,6.23-2.67,1.33-.59,5.19-5,2.37-3.18,3.25,8.67-1.77,3.85-5.78,3.74-2.67,4.85.6,4.44-3.26"/></g><g id="titemontagne"><path class="cls-17" d="M1394.33,420.56c-.59.3-3.85.44-2.66,5s-1.93,1.92-1.19,3.7,5,3.41,5,3.41,4,2.81,1.48,3.41,2.67-2.37,4.3-2.37,10.07,3.4,12-.89,2.22-1.93-2.37-7.71-4.74-6.14-1.63-7.07,8.29,1,9.92-1.22,5.78-.3,6.37,0,1.48-3.11-1.63-5.63-7.7,1-7.7,1l-4.89-2.66-3.1,2.22s-2.83,1.48-3.27,1.33.3-1,1.93-3.55-1.49-5.34-2.23-3.11a29.15,29.15,0,0,0-1.63,7.4c0,1.93-2.66.89-3.26-.74s.3-4,1.34-6.52-6.22-.29-6.22-.29-4.83-3.11-4.56.29,3.07,5.63,2.93,7.86-3.26,3-1.93,3.59A10.77,10.77,0,0,1,1394.33,420.56Z"/></g></g></svg>