<svg xmlns="http://www.w3.org/2000/svg" viewBox="0 0 47.43 47.43"><defs><style>.cls-1{fill:#9c9b9b;}.cls-2{fill:#fff;}</style></defs><g id="Calque_2" data-name="Calque 2"><g id="Capa_1" data-name="Capa 1"><rect class="cls-1" width="47.43" height="47.43" rx="8.47"/><path class="cls-2" d="M41.9,14.52a4.76,4.76,0,0,0-3.36-3.38c-3-.8-14.83-.8-14.83-.8s-11.87,0-14.83.8a4.75,4.75,0,0,0-3.35,3.38c-.8,3-.8,9.19-.8,9.19s0,6.22.8,9.2a4.77,4.77,0,0,0,3.35,3.38c3,.79,14.83.79,14.83.79s11.87,0,14.83-.79a4.78,4.78,0,0,0,3.36-3.38c.79-3,.79-9.2.79-9.2S42.69,17.5,41.9,14.52Z"/><polygon class="cls-1" points="19.83 29.36 19.83 18.07 29.75 23.71 19.83 29.36"/></g></g></svg>