<svg xmlns="http://www.w3.org/2000/svg" xmlns:xlink="http://www.w3.org/1999/xlink" viewBox="0 0 680.89 567.07"><defs><style>.cls-1{fill:none;}.cls-2{clip-path:url(#clip-path);}.cls-3{fill:#9cc0f9;}.cls-4{fill:#4c4c4c;}.cls-5{fill:#fcbe7a;}.cls-6{fill:#fff;}.cls-7{fill:#579660;}.cls-8{font-size:48.44px;}.cls-19,.cls-20,.cls-8{fill:#605a38;}.cls-11,.cls-13,.cls-15,.cls-17,.cls-19,.cls-20,.cls-8{font-family:Helvetica-Bold, Helvetica;font-weight:700;}.cls-9{letter-spacing:-0.07em;}.cls-10{fill:#a55050;}.cls-11{font-size:17.58px;}.cls-12,.cls-14{fill:#ffcc94;}.cls-13{font-size:15.82px;}.cls-14{letter-spacing:0em;}.cls-15{font-size:13.58px;}.cls-16,.cls-18{fill:#94dbff;}.cls-16{letter-spacing:0em;}.cls-17{font-size:11.7px;}.cls-19{font-size:6.42px;}.cls-20{font-size:12.91px;}.cls-21{fill:#ff4848;}.cls-22{fill:#fbc727;}.cls-23{fill:#1c3462;}</style><clipPath id="clip-path"><rect class="cls-1" width="680.89" height="567.07"/></clipPath></defs><g id="Calque_2" data-name="Calque 2"><g id="commerces"><g class="cls-2"><path class="cls-3" d="M423.59,645.77v24.31H-94.08V330.81h20V317.76h27.84v6.54h14.8l3.48-6.54v13.05l-5.23,15.44s1.44-.21,3.61-.45c5.93-.67,17.34-1.62,19.88.45,3.48,2.84,24.36,0,24.36,0l7.84-19.78,6.09-17.4,7-10.66,18.26,15s4.38,10.91,5.11,16.1a8.24,8.24,0,0,1,.12,1.29c0,4.37-4.36,20-5.23,23.5s-4.34,18.27-4.34,18.27-.88,11.31-.88,15.66a5.28,5.28,0,0,0,1.54,3.23c2.91,3.34,8.91,6.34,8.91,6.34s4.39,1.64,6.2,1a1,1,0,0,0,.76-1,2.21,2.21,0,0,0-.09-.62c-.64-2.51-4.74-5.53.09-6.34a7,7,0,0,0,4.64-2.42A8.6,8.6,0,0,0,72.09,383v-8.7l7.84-.87v12.19L70.36,399,68,402.05l-.83.29-4.94,1.78-.64-1.75s-.5.61-1,1.31c-.69.93-1.44,2-1.26,2.29.34.43-1.19,5-1.19,5l-28.6,22.5,1.08,3,30-23.34,5-3.88L72.44,404,170,328.2s43.51,13.93,60,27.85,32.62,25.23,32.62,25.23l53.94,60.78,32.2,32.75L367,506.57l27.85,45.24,23.5,53.07.45,3.58Z"/><path class="cls-4" d="M684.88,287.8V635.52H423.38l-3.54-27.7-1-2.29-22.48-50.79L368.5,509.51l-18.27-31.76L318,445,264.1,384.21S248,372.91,231.47,359s-60-27.85-60-27.85l-115,89.37L32,439.46l-1.09-3,22.48-17.69,6.12-4.81s.72-2.18,1.06-3.67a2.69,2.69,0,0,0,.13-1.34c-.32-.44,2.29-3.6,2.29-3.6l.65,1.75,1.92-.69L69.43,405l2.39-3.08.62-.87,9-12.46V376.39l-1.46.16-6.38.71V386a8.56,8.56,0,0,1-1.43,5.4,7.1,7.1,0,0,1-4.64,2.43,5.18,5.18,0,0,0-1.56.47,1.26,1.26,0,0,0-.68,1.64c.28,1,1.34,2.31,1.88,3.51a3.17,3.17,0,0,1,.36,1.34c0,2.61-7,0-7,0s-10.46-5.22-10.46-9.58c0-.72,0-1.63.08-2.64.19-5.12.8-13,.8-13s3.48-14.8,4.35-18.28,5.23-19.13,5.23-23.49a29.2,29.2,0,0,0-1.59-7.16c-1.53-5-3.64-10.23-3.64-10.23L37,301.35l-7,10.66L24,329.41l-7.84,19.77s-20.87,2.85-24.35,0-23.5,0-23.5,0l2.15-6.31,3.08-9.12V320.7L-28,323.46l-2,3.77h-14.8V320.7H-72.6v13.05h-19V287.8Z"/><path class="cls-5" d="M1124.84-128.13V670.08H423.59V645.77l-4.76-37.31-.45-3.58-23.5-53.07L367,506.57l-18.26-31.76-32.2-32.75-53.94-60.78S246.54,370,230,356.05s-60-27.85-60-27.85L72.44,404l-6.86,5.33-5,3.88-30,23.34-1.08-3L58.07,411s1.53-4.58,1.19-5c-.18-.25.57-1.36,1.26-2.29.53-.7,1-1.31,1-1.31l.64,1.75,4.94-1.78.83-.29,2.4-3.08,9.57-13.33V373.45l-7.84.87V383a8.6,8.6,0,0,1-1.44,5.41A7,7,0,0,1,66,390.85c-4.83.81-.73,3.83-.09,6.34a2.21,2.21,0,0,1,.09.62,1,1,0,0,1-.76,1c-1.81.61-6.2-1-6.2-1s-6-3-8.91-6.34a5.28,5.28,0,0,1-1.54-3.23c0-4.35.88-15.66.88-15.66s3.48-14.79,4.34-18.27,5.23-19.13,5.23-23.5a8.24,8.24,0,0,0-.12-1.29c-.73-5.19-5.11-16.1-5.11-16.1l-18.26-15-7,10.66-6.09,17.4-7.84,19.78s-20.88,2.84-24.36,0c-2.54-2.07-13.95-1.12-19.88-.45-2.17.24-3.61.45-3.61.45l5.23-15.44V317.76l-3.48,6.54h-14.8v-6.54H-74.07v13.05H-92.61V-128.13Z"/><path class="cls-6" d="M353.1,464.6a9.27,9.27,0,0,1-4.84-1.21c-3.62-2.13-4.39-6.27-5.14-10.28a34.29,34.29,0,0,0-1.24-5.15c-2.16-6-11.14-16.71-14.43-20.34l-.13-.16L219.44,290l4.62-3.63L331.88,423.76C333,425,344.5,437.92,347.4,446a37.38,37.38,0,0,1,1.49,6.06c.53,2.84,1,5.52,2.35,6.3.68.4,2.5.85,7.05-.67,13.4-4.46,203.13-68.22,225.75-75.82-1.5-17.9-5.16-65.38-2.4-71.77,2.47-5.7,14.08-36.73,16.63-43.56l-53.64-89.27,5-3,55.11,91.7-.5,1.32c-.59,1.58-14.41,38.65-17.24,45.17-1.55,4,.33,39.35,3.06,71.23l.2,2.3-2.19.73c-2.14.72-213.76,71.84-228,76.57A22.89,22.89,0,0,1,353.1,464.6Z"/><polygon class="cls-6" points="463.91 671.11 394.04 484.16 385.1 448.2 324.23 257.32 292.25 158.14 235.49 -13.23 241.07 -15.08 297.84 156.32 329.82 255.53 390.78 446.69 399.65 482.42 469.42 669.06 463.91 671.11"/><path class="cls-6" d="M280.37,9.22l-1.94-5.54L651.29-127c.69-.48,2.45-1.71,4.88-3.46l3.43,4.77c-3.23,2.32-5.29,3.74-5.29,3.74l-.33.23-.37.13Z"/><rect class="cls-6" x="372.93" y="109.77" width="5.87" height="117.25" transform="translate(-32.99 118.74) rotate(-17.21)"/><polygon class="cls-6" points="135.87 130.21 134.96 124.41 230.14 109.54 529.42 -2.76 657.82 -130.21 661.96 -126.04 532.67 2.29 434.85 39 231.64 115.25 135.87 130.21"/><rect class="cls-6" x="106.04" y="33.31" width="180.38" height="5.87" transform="translate(-0.96 66.85) rotate(-19.29)"/><polygon class="cls-6" points="102.58 34.19 100.73 28.62 275.64 -29.56 352.14 -56.94 499.14 -111.63 553.06 -130.89 555.04 -125.36 501.16 -106.11 354.15 -51.42 277.55 -24.01 102.58 34.19"/><polygon class="cls-6" points="227.69 160.06 226.03 154.43 252.69 146.62 287.45 134.46 357.34 109.7 384.9 95.12 430.88 64.48 430.88 36.25 436.75 36.25 436.75 67.62 387.78 100.24 359.5 115.17 289.4 140 254.42 152.23 227.69 160.06"/><polygon class="cls-6" points="611.04 278.08 599.63 268.46 603.41 263.97 613.15 272.18 844.17 269.11 875.06 231.83 879.58 235.58 846.96 274.95 845.61 274.97 611.04 278.08"/><polygon class="cls-6" points="542.97 168.85 527.27 132.75 516.89 109.39 507.6 92.54 500.6 79.53 491.84 65.04 478.11 54.31 461.64 38.43 453.01 31.04 427.14 21.07 422.45 13.21 401.89 4.95 390.12 -4.29 372.06 -24.87 376.47 -28.75 394.35 -8.38 404.85 -0.19 426.48 8.5 431.14 16.32 456.06 25.92 465.66 34.14 482.08 49.97 496.3 61.08 505.74 76.68 512.75 89.73 522.2 106.89 532.64 130.38 548.36 166.51 542.97 168.85"/><path class="cls-6" d="M517.2,102.9l-3.71-4.55c.65-.55,5-3.68,26.62-11,10.75-3.63,12.8-7.3,13.18-8.71a3.7,3.7,0,0,0-.72-3.19l-.42-.48-.22-.67-9.09-31.65-12-44.92,5.68-1.51,12,44.87,8.92,31A9.6,9.6,0,0,1,559,80c-1.31,5.18-7,9.52-17,12.89C521.37,99.9,517.36,102.78,517.2,102.9Z"/><polygon class="cls-6" points="1121.63 458.4 1085.55 434.89 730.24 105.28 219.44 290 114.46 100.71 91.01 14.71 64.35 -29.74 146.33 -61.47 121.89 -126.05 132.87 -130.21 161.44 -54.72 81.59 -23.82 101.91 10.05 125.44 96.33 224.51 280.89 732.93 91.75 1092.8 425.59 1128.5 448.86 1128.89 449.23 1124.81 453.53 1121.63 458.4"/><rect class="cls-6" x="165.4" y="162.6" width="62.83" height="6" transform="translate(-36.95 58.31) rotate(-15.42)"/><polygon class="cls-7" points="152.3 248.16 189.27 306.89 217.12 286.01 184.71 228.15 152.3 248.16"/><polygon class="cls-7" points="329.63 147.49 340.07 172.9 366.18 163.44 357.91 137.23 329.63 147.49"/><polygon class="cls-7" points="523.22 348.22 536.27 384.76 576.29 371.27 563.24 334.3 523.22 348.22"/><text class="cls-8" transform="translate(149.16 98.16)"><tspan class="cls-9">T</tspan><tspan x="26.02" y="0">uléar centre</tspan></text><rect class="cls-10" x="369.08" y="215.07" width="48.25" height="20.37"/><text class="cls-11" transform="translate(375.67 231.63)">RN<tspan class="cls-12" x="25.39" y="0">7</tspan></text><rect class="cls-10" x="629.03" y="119.23" width="43.41" height="18.33"/><text class="cls-13" transform="translate(634.96 134.13)">RN<tspan class="cls-14" x="22.84" y="0">7</tspan></text><rect class="cls-10" x="154.67" y="192.08" width="37.78" height="15.95"/><text class="cls-15" transform="translate(160.13 205.07)">RN<tspan class="cls-16" x="19.62" y="0">9</tspan></text><rect class="cls-10" x="91.13" y="60.02" width="33.76" height="14.25"/><text class="cls-17" transform="translate(96.45 71.47)">RN<tspan class="cls-18" x="16.9" y="0">9</tspan></text><text class="cls-19" transform="matrix(0.61, 0.79, -0.79, 0.61, 252.2, 311.5)">Rue Marius Japtop</text><text class="cls-20" transform="translate(217.12 400.08)">Manatane</text><path class="cls-21" d="M237.62,291.29a10.81,10.81,0,0,0-10.81,10.81v.07a2.72,2.72,0,0,0,0,.28,2.28,2.28,0,0,0,0,.26c.64,6.6,10.78,25.21,10.78,25.21.1-.19,10-18.29,10.77-25a1.94,1.94,0,0,0,0-.24,4.15,4.15,0,0,0,0-.49v-.07A10.81,10.81,0,0,0,237.62,291.29Zm.51,7.86a3.5,3.5,0,0,0,.07-.45,1.94,1.94,0,0,1,.55-1.06l2.71-2.71,0-.05.54.54L240,297.51l.56.56,2.09-2.08.55.55-2.1,2.1.55.54,2.08-2.09.59.59a.37.37,0,0,0-.1.06c-.83.83-1.67,1.66-2.5,2.5a2.25,2.25,0,0,1-1.52.75h0c-.21.11-.32,0-.46-.16l-1.49-1.49A.17.17,0,0,1,238.13,299.15Zm-1.54,5.07L233,307.78a1.23,1.23,0,0,1-.86.41l-.06,0h0l-.16,0a1.17,1.17,0,0,1-.76-1.83,1.63,1.63,0,0,1,.17-.2l3.61-3.6a.46.46,0,0,1,.07-.07l1.66,1.65Zm7.71,2.92a.14.14,0,0,0,0,.06,1,1,0,0,1-.44.75,2.85,2.85,0,0,1-.56.26H243a1.55,1.55,0,0,1-.94-.6c-1.35-1.53-2.72-3-4.08-4.57l-.09-.1-.62.63-.12-.11-4.56-4.56a2.93,2.93,0,0,1-.86-2.55,4.81,4.81,0,0,1,.36-1.4.14.14,0,0,1,.14-.1.72.72,0,0,1,.64.26q5.41,5.44,10.85,10.86a1.74,1.74,0,0,1,.59,1Z"/><path class="cls-21" d="M289.93,363.68a10.81,10.81,0,0,0-10.81,10.81v.07a2.72,2.72,0,0,0,0,.28,2.28,2.28,0,0,0,0,.26c.63,6.6,10.78,25.21,10.78,25.21.1-.19,10-18.29,10.76-25a2,2,0,0,0,0-.24,4.15,4.15,0,0,0,0-.49v-.07A10.81,10.81,0,0,0,289.93,363.68Zm-3,8.3a.84.84,0,0,1,.84-.8l.25,0h7.79a1.1,1.1,0,0,1,.86.3.8.8,0,0,1,.25.53c0,.61,0,1.22,0,1.85H287C287,373.21,286.92,372.59,287,372Zm-2.06-.88a1.41,1.41,0,1,1-1.4,1.4A1.42,1.42,0,0,1,284.9,371.1Zm12.75,8.11h-1v-2.52c0-.13,0-.16-.16-.16H283.38c-.12,0-.16,0-.16.16,0,.78,0,1.55,0,2.33v.21h-1V368.8h1v5.38h14.42Z"/><path class="cls-21" d="M335.55,179.93a10.81,10.81,0,0,0-10.81,10.81v.07a2.72,2.72,0,0,0,0,.28,2.46,2.46,0,0,0,0,.26c.64,6.6,10.78,25.21,10.78,25.21.1-.19,10-18.29,10.77-25a1.94,1.94,0,0,0,0-.24,4.15,4.15,0,0,0,0-.49v-.07A10.81,10.81,0,0,0,335.55,179.93Zm5.66,11.27c0,.08,0,.15,0,.22a3,3,0,0,1-.08.45,5.67,5.67,0,0,1-11.2-.53l0-.46c0-.19,0-.4,0-.6a4,4,0,0,1,.06-.5,3.65,3.65,0,0,1,.14-.57,4.42,4.42,0,0,1,.42-1.06,3.25,3.25,0,0,1,.25-.45,5.83,5.83,0,0,1,1.89-1.84l.37-.2a5.6,5.6,0,0,1,1.08-.41l.47-.1a4.43,4.43,0,0,1,.51-.06,5.65,5.65,0,0,1,3.1.63h0l.24.14a4.42,4.42,0,0,1,.67.46,6.14,6.14,0,0,1,.47.42,6,6,0,0,1,.64.78l.18.28a2.89,2.89,0,0,1,.19.35,5,5,0,0,1,.4,1c0,.13.07.26.1.39h0A5.71,5.71,0,0,1,341.21,191.2Z"/><text class="cls-20" transform="translate(154.67 327.68)">Marina blue</text><text class="cls-20" transform="translate(286.31 216.33)">Score</text><path class="cls-22" d="M371.69,376.65c-.07.36-.32.78-.46,1.3-.05.2-.24.66-.3.86h0c-5.69,16.89-40.78,58.15-41.14,58.58,0,0-16.09-53.33-14.18-70.65h-.05l.11-.67c.05-.36.13-.71.2-1.07a28.51,28.51,0,1,1,55.82,11.66Z"/><path class="cls-23" d="M329.4,439.4l-.56-1.72c-.65-2.15-15.62-52-14.3-70.15l-.06,0,.2-1.61c.06-.37.13-.73.21-1.1a29.51,29.51,0,1,1,57.78,12.06h0a4.71,4.71,0,0,1-.25.75,4.18,4.18,0,0,0-.22.6c0,.11-.11.32-.18.52s0,.13-.07.19l-.07,1-.26,0c-6.19,16.76-37.44,53.9-41,58.14Zm-12.77-73,0,.49c-1.68,15.15,10.86,59.08,13.62,68.47,6.29-7.51,34.51-41.72,39.69-56.62l.07-1h.26s0,0,0-.05a6.37,6.37,0,0,1,.31-.85,3.45,3.45,0,0,0,.15-.4,27.52,27.52,0,0,0-53.87-11.26c-.07.35-.14.68-.2,1Z"/><path class="cls-23" d="M336.73,357.42c-2.72-.42-6.54-.64-6.54-.64,1.26.25,5,1.34,5,1.34l-.2.09c-3.53-.63-9-1.14-9-1.14,2,.4,7.52,1.85,7.64,1.89l-.29.18c-4.09-.81-11.66-1.77-11.66-1.77s6,1.35,10.55,2.53c-2.52,1.91-2.56,3.38-2.56,3.38a6.05,6.05,0,0,0,.38,3.23,8,8,0,0,0,.83,1.61,10.07,10.07,0,0,1-2.58,1.06,6,6,0,0,1-2.44.15c-2.46-.4-5.86-1.06-5.86-1.06l2-3.39,4.78,1,.25-1.2-4.31-.89,2-3.15s3.49,0,5.27,1.05l.57-1.1a18.81,18.81,0,0,0-3.79-1c-1.93-.26-2.47-.35-2.47-.35L318.15,369l5.45,1.14a21.7,21.7,0,0,0,4.06.53,2.91,2.91,0,0,0,1.15-.21l2.63-1.22,1.23,2,1.21-.63-1.12-1.9,3.38-2-.65-1.06-3.28,1.86a9.19,9.19,0,0,1-1.18-2.11,4.28,4.28,0,0,1-.3-1.22,2.24,2.24,0,0,1,.21-1.16,7.11,7.11,0,0,1,2.54-2.83c1.32.36,2.46.68,3.12.95a4.35,4.35,0,0,1,.65.33c2.07,1.36.68,4.31.68,4.31l.94.4,4-5.57,4.56-6.34A54.79,54.79,0,0,0,336.73,357.42Zm4.81,3.25-2.13,3a2.71,2.71,0,0,0-1-2.48,8.37,8.37,0,0,0-3.12-1.61,4.71,4.71,0,0,0-.48-.13A41.13,41.13,0,0,1,345,355.89Z"/><path class="cls-23" d="M343.89,367.49l-1.14-.24s3.39-3.49,1.27-3.46-3.26,3-3.26,3l-1.15-.24s2.67-4.53,5.17-3.75S345.21,365.88,343.89,367.49Z"/><path class="cls-23" d="M352.41,364.28a7.49,7.49,0,0,0-5.25.24c-2.75,1.21-2.28,3.28-.76,3.66a8.94,8.94,0,0,0,3.07.17l3-4,0,0Zm-3.51,3.07s-2,.24-2.54-.77,3.41-1.88,4.17-1.39Z"/><path class="cls-23" d="M357.26,366.63a3.89,3.89,0,0,0-1.64,1.24,1.5,1.5,0,0,0,.88,2.42l.43.09a9.57,9.57,0,0,0,2.65.08l3-4A7.57,7.57,0,0,0,357.26,366.63Zm1.73,2.83s-2,.24-2.51-.77,3.41-1.88,4.16-1.39Z"/><polygon class="cls-23" points="354.29 364.21 354.94 369.2 353.55 369.68 352.93 363.79 357.18 357.66 358.44 357.92 355.03 362.74 360.26 360.32 360.74 361.28 354.29 364.21"/><path class="cls-23" d="M366.3,367.44c-1.12-1.47-3.78.11-3.78.11-.88.56-1.74,1.31-1.53,2.52s1.9,1.5,3.28,1S367.4,368.91,366.3,367.44Zm-4,2.58c-.65-.85.73-1.61.73-1.61s1.95-1.2,2.41,0S363,370.88,362.34,370Z"/><path class="cls-23" d="M340.7,370.91c-1.9,1.2-5.38.69-5.38.69L332.67,375l-1.24-.26,3.62-4.37a5.38,5.38,0,0,0,4.55,0c1.95-.78,1.21-1.35.64-1.61a2.54,2.54,0,0,0-.61-.19L337,368l.77-.93S345.69,367.76,340.7,370.91Z"/><path class="cls-23" d="M347.69,369.15l-.59.79a4.34,4.34,0,0,0-2.7.58,7.31,7.31,0,0,0-2.26,2.4l-1.19-.25S344,367.61,347.69,369.15Z"/><path class="cls-23" d="M347.88,372.23l4.36.91c2.64-1.85,1.35-4.09-2.69-2.93s-3.09,3.91-3.09,3.91l1.15-.28C347.18,372.59,347.88,372.23,347.88,372.23Zm4-.16-2.66-.64C353.72,370.26,351.84,372.07,351.84,372.07Z"/><path class="cls-23" d="M358.86,371.53l-.81.83c-3.19-.54-2.16.6-2.56,1.82a1.65,1.65,0,0,1-1.17,1,3.09,3.09,0,0,1-1.57.07l-1.8-.38.76-.93c2.68.65,2.57,0,2.79-1.32a1.64,1.64,0,0,1,1.16-1.15,3.84,3.84,0,0,1,2.2-.16Z"/><path class="cls-23" d="M363.86,372.57l-.81.84c-3.19-.55-2.15.6-2.55,1.81a1.68,1.68,0,0,1-1.17,1,3.1,3.1,0,0,1-1.57.06l-1.8-.37.75-.93c2.69.64,2.58,0,2.8-1.33a1.61,1.61,0,0,1,1.16-1.14,3.93,3.93,0,0,1,2.2-.17Z"/></g></g></g></svg>