<svg xmlns="http://www.w3.org/2000/svg" xmlns:xlink="http://www.w3.org/1999/xlink" viewBox="0 0 664 436.1"><defs><style>.cls-1{fill:none;}.cls-2{clip-path:url(#clip-path);}.cls-3{fill:#9cc0f9;}.cls-4{fill:#4c4c4c;}.cls-5{fill:#ffefe1;}.cls-6{fill:#c17c4d;}.cls-7{fill:#f29657;}.cls-8{fill:#579660;}.cls-9{font-size:32.34px;fill:#2b210d;font-family:LobsterTwo, Lobster Two;}.cls-10{letter-spacing:-0.15em;}.cls-11{fill:#a55050;}.cls-12{font-size:16.38px;}.cls-12,.cls-14,.cls-19{font-family:Helvetica-Bold, Helvetica;font-weight:700;}.cls-13{fill:#ffcc94;}.cls-14{font-size:14.16px;}.cls-15{fill:#94dbff;letter-spacing:0em;}.cls-16{fill:#ff4848;}.cls-17{fill:#fbc727;}.cls-18{fill:#1c3462;}.cls-19{font-size:8.8px;fill:#605a38;}.cls-20{letter-spacing:-0.04em;}</style><clipPath id="clip-path"><rect class="cls-1" width="664" height="436.1"/></clipPath></defs><g id="Calque_2" data-name="Calque 2"><g id="Villes"><g class="cls-2"><path class="cls-3" d="M330.22,481.15v16.56H-22.37V266.63H-8.74v-8.89h19v4.45H20.3l2.37-4.45v8.89l-3.56,10.51s1-.14,2.46-.3c4-.46,11.81-1.11,13.54.3,2.37,1.94,16.59,0,16.59,0L57,263.67l4.15-11.85,4.74-7.26,12.44,10.22s3,7.43,3.48,11a6.09,6.09,0,0,1,.08.88c0,3-3,13.63-3.56,16s-3,12.45-3,12.45-.6,7.7-.6,10.66a3.59,3.59,0,0,0,1,2.2c2,2.28,6.07,4.32,6.07,4.32s3,1.12,4.22.7a.71.71,0,0,0,.52-.7,1.52,1.52,0,0,0-.06-.42c-.44-1.71-3.23-3.77.06-4.32a4.81,4.81,0,0,0,3.16-1.65,5.83,5.83,0,0,0,1-3.68v-5.93l5.34-.59V304l-6.52,9.08L88,315.15l-.57.2-3.36,1.21-.44-1.19s-.34.41-.7.89-1,1.39-.86,1.56-.81,3.41-.81,3.41L61.78,336.56l.74,2.07L83,322.73l3.4-2.64,4.67-3.63,66.43-51.61s29.63,9.49,40.89,19S220.59,301,220.59,301l36.74,41.4,21.93,22.31,12.44,21.63,19,30.81,16,36.15.31,2.44Z"/><path class="cls-4" d="M508.18,237.33V474.17H330.07l-2.41-18.87-.69-1.56-15.31-34.59-19-30.81-12.44-21.63L258.32,344.4,221.58,303s-11-7.7-22.22-17.18-40.89-19-40.89-19L80.13,327.72,63.51,340.63l-.74-2.07,15.31-12.05,4.17-3.28s.49-1.48.72-2.5a1.79,1.79,0,0,0,.09-.91c-.22-.3,1.56-2.45,1.56-2.45l.44,1.19,1.31-.47,2.62-.94,1.63-2.1.42-.59,6.1-8.49v-8.3l-1,.11-4.34.48v5.93a5.83,5.83,0,0,1-1,3.68,4.81,4.81,0,0,1-3.16,1.65,3.62,3.62,0,0,0-1.06.32.86.86,0,0,0-.46,1.12,22.92,22.92,0,0,0,1.28,2.39,2.13,2.13,0,0,1,.24.91c0,1.78-4.74,0-4.74,0s-7.12-3.55-7.12-6.52c0-.49,0-1.11,0-1.8.13-3.49.55-8.86.55-8.86s2.37-10.08,3-12.45,3.56-13,3.56-16a20,20,0,0,0-1.08-4.88c-1-3.38-2.48-7-2.48-7L66.92,246.56l-4.74,7.26L58,265.67l-5.34,13.47s-14.22,1.94-16.59,0-16,0-16,0l1.46-4.3,2.1-6.21v-8.89l-1,1.88-1.37,2.57H11.21v-4.45h-19v8.89h-13v-31.3Z"/><path class="cls-5" d="M807.85-46V497.71H330.22V481.15L327,455.74l-.31-2.44-16-36.15-19-30.81-12.44-21.63L257.33,342.4,220.59,301s-11-7.7-22.22-17.18-40.89-19-40.89-19L91.05,316.46l-4.67,3.63L83,322.73l-20.46,15.9-.74-2.07,19.48-15.33s1-3.12.81-3.41.39-.93.86-1.56.7-.89.7-.89l.44,1.19,3.36-1.21.57-.2,1.63-2.1L96.15,304v-8.3l-5.34.59v5.93a5.83,5.83,0,0,1-1,3.68,4.81,4.81,0,0,1-3.16,1.65c-3.29.55-.5,2.61-.06,4.32a1.52,1.52,0,0,1,.06.42.71.71,0,0,1-.52.7c-1.23.42-4.22-.7-4.22-.7s-4.09-2-6.07-4.32a3.59,3.59,0,0,1-1-2.2c0-3,.6-10.66.6-10.66s2.37-10.08,3-12.45,3.56-13,3.56-16a6.09,6.09,0,0,0-.08-.88c-.5-3.54-3.48-11-3.48-11L65.93,244.56l-4.74,7.26L57,263.67,51.7,277.14s-14.22,1.94-16.59,0c-1.73-1.41-9.5-.76-13.54-.3-1.48.16-2.46.3-2.46.3l3.56-10.51v-8.89l-2.37,4.45H10.22v-4.45h-19v8.89H-21.37V-46Z"/><path class="cls-6" d="M282.2,357.75a6.3,6.3,0,0,1-3.29-.82c-2.47-1.45-3-4.28-3.5-7a23.39,23.39,0,0,0-.85-3.51c-1.46-4.07-7.59-11.38-9.82-13.86l-.09-.1-73.48-93.63,3.14-2.47,73.44,93.57c.76.85,8.6,9.65,10.58,15.13a27.23,27.23,0,0,1,1,4.13c.36,1.93.7,3.76,1.6,4.29.47.27,1.7.58,4.8-.45,9.13-3,138.35-46.47,153.76-51.65-1-12.19-3.52-44.53-1.63-48.88,1.68-3.88,9.59-25,11.33-29.67L412.66,162l3.42-2.06,37.54,62.45-.34.91c-.4,1.07-9.82,26.32-11.74,30.76-1.06,2.72.23,26.8,2.08,48.52l.14,1.56-1.49.5c-1.46.49-145.6,48.93-155.27,52.15A15.43,15.43,0,0,1,282.2,357.75Z"/><polygon class="cls-6" points="357.68 498.41 310.09 371.07 304 346.58 262.54 216.57 240.76 149.02 202.1 32.29 205.9 31.04 244.56 147.78 266.35 215.35 307.87 345.55 313.91 369.89 361.43 497.01 357.68 498.41"/><path class="cls-6" d="M232.67,47.59l-1.33-3.78,254-89c.47-.33,1.66-1.16,3.32-2.36L491-44.34c-2.2,1.58-3.6,2.55-3.6,2.55l-.22.16-.25.08Z"/><rect class="cls-6" x="295.71" y="116.07" width="4" height="79.86" transform="translate(-32.83 95.06) rotate(-17.21)"/><polygon class="cls-6" points="134.24 129.99 133.63 126.04 198.46 115.91 402.3 39.43 489.76 -47.38 492.57 -44.54 404.51 42.87 337.89 67.87 199.48 119.8 134.24 129.99"/><rect class="cls-6" x="113.93" y="64" width="122.86" height="4" transform="translate(-11.96 61.63) rotate(-19.29)"/><rect class="cls-6" x="142.4" y="-24.11" width="142.24" height="4" transform="translate(19.79 70.34) rotate(-19.6)"/><polygon class="cls-6" points="111.58 64.6 110.31 60.8 229.44 21.17 281.55 2.52 381.68 -34.73 418.4 -47.84 419.75 -44.08 383.05 -30.97 282.92 6.28 230.75 24.95 111.58 64.6"/><polygon class="cls-6" points="196.78 150.32 195.66 146.49 213.82 141.17 237.49 132.89 285.09 116.03 303.86 106.09 335.18 85.22 335.18 66 339.18 66 339.18 87.36 305.82 109.58 286.56 119.75 238.82 136.66 214.99 144.99 196.78 150.32"/><polygon class="cls-6" points="402.15 316.71 398.15 316.71 398.15 313.98 396.07 305.38 396.07 298.09 393.26 290.2 387.69 278.04 383.1 269.63 381.91 260.67 378.36 252.92 376.22 244.82 376.22 235.9 377.82 234.23 376.22 226.59 376.22 217.95 379.06 210.84 384.23 208.91 386.19 206.94 387.63 201.13 392.21 195.45 396.07 190.93 396.07 183.48 393.62 177.76 390.89 173.16 387.62 165.16 391.32 163.65 394.54 171.51 397.25 176.06 400.07 182.66 400.07 192.4 395.29 198 391.3 202.95 389.81 208.98 386.44 212.35 382.12 213.97 380.22 218.72 380.22 226.38 382.18 235.46 380.22 237.51 380.22 244.3 382.19 251.73 385.79 259.55 386.97 268.37 391.3 276.31 396.99 288.77 400.07 297.39 400.07 304.91 402.15 313.5 402.15 316.71"/><polygon class="cls-6" points="350.54 282.45 344.83 280.36 346.21 276.6 350.2 278.07 361.11 272.04 366.11 272.04 384.52 267.07 399.6 262.76 419.22 257.87 438.9 252.53 439.95 256.39 420.23 261.74 400.63 266.63 385.59 270.92 366.64 276.04 362.15 276.04 350.54 282.45"/><rect class="cls-6" x="379.63" y="231.15" width="9.55" height="4"/><polygon class="cls-6" points="457.89 230.71 450.12 224.16 452.7 221.1 459.33 226.69 616.68 224.6 637.72 199.21 640.8 201.76 618.58 228.58 617.66 228.59 457.89 230.71"/><rect class="cls-6" x="283.22" y="4" width="4" height="22.4" transform="translate(6.32 76.82) rotate(-15.51)"/><polygon class="cls-6" points="411.53 156.31 400.83 131.72 393.76 115.81 387.43 104.33 382.67 95.47 376.7 85.61 367.35 78.3 356.14 67.48 350.25 62.45 332.64 55.65 329.44 50.31 315.44 44.67 307.42 38.38 295.12 24.36 298.12 21.73 310.3 35.6 317.45 41.17 332.19 47.1 335.36 52.42 352.33 58.96 358.87 64.56 370.05 75.34 379.74 82.91 386.17 93.53 390.95 102.42 397.38 114.11 404.49 130.11 415.2 154.72 411.53 156.31"/><polygon class="cls-6" points="371.43 171 366.91 156.35 361.41 147.5 361.41 122.86 357.63 113.24 355.48 105.49 355.53 95.39 357.74 85.22 361.41 82.02 361.41 76.28 363.71 72.58 367.11 74.7 365.41 77.43 365.41 83.83 361.37 87.36 359.48 96.03 359.48 104.95 361.45 112.07 365.41 122.1 365.41 146.35 370.58 154.68 375.25 169.82 371.43 171"/><path class="cls-6" d="M394,111.39l-2.53-3.1c.44-.37,3.41-2.5,18.13-7.48,7.32-2.48,8.72-5,9-5.93a2.49,2.49,0,0,0-.49-2.17l-.29-.34-.15-.45-6.19-21.55-8.15-30.6,3.86-1,8.14,30.56,6.08,21.13a6.56,6.56,0,0,1,1.08,5.39c-.9,3.53-4.79,6.48-11.59,8.78C396.82,109.35,394.09,111.31,394,111.39Z"/><polygon class="cls-7" points="805.66 353.53 781.09 337.51 539.08 113.02 190.87 242.55 119.67 109.9 103.69 51.32 85.53 21.05 141.37 -0.56 124.72 -44.55 132.21 -47.38 151.66 4.04 97.28 25.08 111.12 48.15 127.14 106.92 194.62 232.62 540.91 103.8 786.03 331.18 810.34 347.03 810.6 347.28 807.82 350.21 805.66 353.53"/><polygon class="cls-8" points="144.15 210.33 169.33 250.33 188.3 236.11 166.22 196.7 144.15 210.33"/><polygon class="cls-8" points="266.22 141.76 273.33 159.07 291.11 152.63 285.48 134.78 266.22 141.76"/><polygon class="cls-8" points="398.07 278.48 406.96 303.37 434.22 294.18 425.33 269 398.07 278.48"/><path class="cls-8" d="M440.67-4.74,460-23.63l16.56,8.44L471.33-.52S452.78,7.15,445,7.15Z"/><text class="cls-9" transform="translate(168.33 107.2)"><tspan class="cls-10">T</tspan><tspan x="16.82" y="0">uléar centre</tspan></text><rect class="cls-11" x="287.05" y="184.66" width="44.95" height="18.98"/><text class="cls-12" transform="translate(293.19 200.08)">RN<tspan class="cls-13" x="23.66" y="0">7</tspan></text><rect class="cls-11" x="462.45" y="118.53" width="44.95" height="18.98"/><text class="cls-12" transform="translate(468.59 133.95)">RN<tspan class="cls-13" x="23.66" y="0">7</tspan></text><rect class="cls-11" x="161.5" y="197.12" width="39.39" height="16.63"/><text class="cls-14" transform="translate(167.2 210.66)">RN<tspan class="cls-15" x="20.46" y="0">9</tspan></text><rect class="cls-11" x="94.84" y="77.67" width="40.86" height="17.25"/><text class="cls-14" transform="translate(101.28 91.52)">RN<tspan class="cls-15" x="20.46" y="0">9</tspan></text><path class="cls-16" d="M246.13,255.45c-.46-.08-1.23-.14-2.13-.19a4.61,4.61,0,0,0-1.25,2.15,1.47,1.47,0,0,0,0,.78,3,3,0,0,0,.36.74,10.49,10.49,0,0,1,3.46-3.36A2.56,2.56,0,0,0,246.13,255.45Zm0,0c-.46-.08-1.23-.14-2.13-.19a4.61,4.61,0,0,0-1.25,2.15,1.47,1.47,0,0,0,0,.78,3,3,0,0,0,.36.74,10.49,10.49,0,0,1,3.46-3.36A2.56,2.56,0,0,0,246.13,255.45Zm0,0c-.46-.08-1.23-.14-2.13-.19a4.61,4.61,0,0,0-1.25,2.15,1.47,1.47,0,0,0,0,.78,3,3,0,0,0,.36.74,10.49,10.49,0,0,1,3.46-3.36A2.56,2.56,0,0,0,246.13,255.45Zm5.73-10.71a19.74,19.74,0,0,0-19.74,19.74v.13c0,.16,0,.33,0,.51s0,.31,0,.47c1.16,12.05,19.68,46,19.68,46,.18-.34,18.18-33.38,19.65-45.67,0-.15,0-.3.05-.44,0-.31.05-.61.05-.89v-.13A19.74,19.74,0,0,0,251.86,244.74Zm.85,30.06a10.34,10.34,0,0,1-11.14-9.22q0-.42-.06-.84a10.17,10.17,0,0,1,0-1.1,10,10,0,0,1,.36-1.95,9.1,9.1,0,0,1,.77-1.95,8,8,0,0,1,.46-.81,10.49,10.49,0,0,1,3.46-3.36c.22-.13.44-.25.67-.36a9.54,9.54,0,0,1,2-.75l.85-.19c.31-.05.62-.09.94-.11a10.36,10.36,0,0,1,5.66,1.16h0l.45.25a10.12,10.12,0,0,1,1.21.85,10.24,10.24,0,0,1,.85.76,10.8,10.8,0,0,1,1.18,1.43c.12.16.22.33.33.5s.24.42.35.64a9.85,9.85,0,0,1,.72,1.82,4.35,4.35,0,0,1,.18.71h0a10.51,10.51,0,0,1,.2,3c0,.14,0,.27,0,.41a7.39,7.39,0,0,1-.14.82A10.4,10.4,0,0,1,252.71,274.8Zm-6.58-19.35c-.46-.08-1.23-.14-2.13-.19a4.61,4.61,0,0,0-1.25,2.15,1.47,1.47,0,0,0,0,.78,3,3,0,0,0,.36.74,10.49,10.49,0,0,1,3.46-3.36A2.56,2.56,0,0,0,246.13,255.45Zm0,0c-.46-.08-1.23-.14-2.13-.19a4.61,4.61,0,0,0-1.25,2.15,1.47,1.47,0,0,0,0,.78,3,3,0,0,0,.36.74,10.49,10.49,0,0,1,3.46-3.36A2.56,2.56,0,0,0,246.13,255.45Zm0,0c-.46-.08-1.23-.14-2.13-.19a4.61,4.61,0,0,0-1.25,2.15,1.47,1.47,0,0,0,0,.78,3,3,0,0,0,.36.74,10.49,10.49,0,0,1,3.46-3.36A2.56,2.56,0,0,0,246.13,255.45Z"/><path class="cls-17" d="M271.72,264.36c0,.38,0,.75,0,1.12l0,.43-.18,0L271,266c-2.16.27-4.34.43-6.52.49s-4.36.06-6.54,0l-3.26-.15-3.27-.21c-4.32-.36-8.64-.58-13-.63-2,0-4,0-5.95.07h-.36l0-.47c0-.25,0-.5,0-.76a19.81,19.81,0,0,1,39.62,0Z"/><path class="cls-18" d="M245.71,253c-1.8.09-4.28.47-4.28.47.84,0,3.39.18,3.39.18l-.11.09c-2.35.07-5.91.47-5.91.47,1.3,0,5.07.18,5.15.19l-.16.15c-2.73,0-7.71.43-7.71.43s4,.06,7.1.21c-1.36,1.56-1.19,2.51-1.19,2.51a4,4,0,0,0,.68,2,5.33,5.33,0,0,0,.74.92,6.43,6.43,0,0,1-1.51,1,4.09,4.09,0,0,1-1.54.42c-1.63.07-3.9.1-3.9.1l.84-2.44h3.2V259h-2.88l.83-2.28a9,9,0,0,1,3.52,0l.22-.78a12.2,12.2,0,0,0-2.56-.11l-1.63.11-2.66,7.05H239a13.91,13.91,0,0,0,2.67-.21,2,2,0,0,0,.72-.28l1.52-1.14,1.06,1.14.69-.57-1-1.07,1.9-1.72-.56-.59-1.85,1.63a5.8,5.8,0,0,1-1-1.19,3,3,0,0,1-.36-.74,1.47,1.47,0,0,1,0-.78,4.61,4.61,0,0,1,1.25-2.15c.9.05,1.67.11,2.13.19a2.56,2.56,0,0,1,.46.12c1.51.6,1,2.68,1,2.68l.66.13,1.82-4.11,2.07-4.68A35.9,35.9,0,0,0,245.71,253Zm3.52,1.44-1,2.2a1.77,1.77,0,0,0-1-1.45,5.42,5.42,0,0,0-2.21-.61l-.33,0a27.2,27.2,0,0,1,6.06-3.65Z"/><path class="cls-18" d="M251.64,258.51h-.76s1.71-2.69.35-2.38-1.68,2.38-1.68,2.38h-.77s1.11-3.26,2.81-3.1S252.28,257.31,251.64,258.51Z"/><path class="cls-18" d="M256.68,255.32a4.87,4.87,0,0,0-3.33.86c-1.6,1.14-1,2.4,0,2.44a5.82,5.82,0,0,0,2-.3l1.37-3h0Zm-1.84,2.44s-1.25.42-1.73-.16,1.94-1.66,2.49-1.45Z"/><path class="cls-18" d="M260.11,256.18a2.5,2.5,0,0,0-.89,1,1,1,0,0,0,.89,1.43h.29a6.14,6.14,0,0,0,1.71-.3l1.38-3A4.94,4.94,0,0,0,260.11,256.18Zm1.49,1.58s-1.24.42-1.72-.16,1.94-1.66,2.48-1.45Z"/><polygon class="cls-18" points="257.87 255.02 258.96 258.13 258.13 258.63 256.94 254.93 258.85 250.43 259.69 250.43 258.15 253.98 261.18 251.72 261.62 252.28 257.87 255.02"/><path class="cls-18" d="M266,255.48c-.91-.79-2.41.58-2.41.58a1.66,1.66,0,0,0-.64,1.82c.31.75,1.42.71,2.24.22S266.92,256.28,266,255.48Zm-2.19,2.19c-.53-.46.25-1.13.25-1.13s1.09-1,1.55-.32S264.35,258.13,263.82,257.67Z"/><path class="cls-18" d="M250.06,261.14a6.41,6.41,0,0,1-3.36,1.16l-1.25,2.51h-.83l1.74-3.29a3.52,3.52,0,0,0,2.92-.59c1.14-.76.59-1,.2-1.12a2,2,0,0,0-.42,0h-1.8l.37-.7S252.83,258.45,250.06,261.14Z"/><path class="cls-18" d="M254.31,259.07l-.28.59a2.85,2.85,0,0,0-1.65.73,4.88,4.88,0,0,0-1.13,1.84h-.8S251.7,258.59,254.31,259.07Z"/><path class="cls-18" d="M254.84,261h2.92c1.45-1.54.32-2.8-2.12-1.52s-1.46,2.92-1.46,2.92l.7-.33C254.44,261.35,254.84,261,254.84,261Zm2.52-.63-1.79-.06C258.32,259,257.36,260.39,257.36,260.39Z"/><path class="cls-18" d="M261.78,259.1l-.41.64c-2.11.08-1.3.68-1.39,1.51a1.09,1.09,0,0,1-.61.81,2.06,2.06,0,0,1-1,.25h-1.21l.36-.7c1.81.06,1.66-.34,1.62-1.22a1,1,0,0,1,.59-.89,2.51,2.51,0,0,1,1.39-.4Z"/><path class="cls-18" d="M265.13,259.1l-.4.64c-2.12.08-1.31.68-1.4,1.51a1.09,1.09,0,0,1-.61.81,2.06,2.06,0,0,1-1,.25h-1.21l.36-.7c1.81.06,1.66-.34,1.62-1.22a1,1,0,0,1,.59-.89,2.53,2.53,0,0,1,1.39-.4Z"/><path class="cls-18" d="M277.41,264.66a21.57,21.57,0,0,1-3.16.82c-.86.16-1.73.31-2.59.43l-.18,0L271,266c-2.16.27-4.34.43-6.52.49s-4.36.06-6.54,0l-3.26-.15-3.27-.21c-4.32-.36-8.64-.58-13-.63-2,0-4,0-5.95.07H232a50,50,0,0,0-6.47.61,26.54,26.54,0,0,1,3.19-.66c1.08-.17,2.16-.3,3.24-.41l.19,0,.32,0c2-.19,4-.29,6-.32s4.12,0,6.17,0h.3c2.2.07,4.4.21,6.59.38,4.32.35,8.65.57,13,.56,2.17,0,4.34-.06,6.49-.22l.59,0h.13A38.08,38.08,0,0,0,277.41,264.66Z"/><text class="cls-19" transform="translate(202.43 268.76) rotate(51.17)">Boulevard <tspan class="cls-20" x="45.46" y="0">L</tspan><tspan x="50.51" y="0">yautey</tspan></text></g></g></g></svg>