<svg xmlns="http://www.w3.org/2000/svg" viewBox="0 0 1222.97 802"><defs><style>.cls-1{fill:#9cc0f9;}.cls-2{fill:#4c4c4c;}.cls-3{fill:#fcbe7a;}.cls-20,.cls-21,.cls-24,.cls-4{fill:#445061;}.cls-5{fill:#579660;}.cls-6{font-size:7.16px;}.cls-18,.cls-6{fill:#fcfcfc;}.cls-10,.cls-12,.cls-14,.cls-16,.cls-20,.cls-21,.cls-24,.cls-6,.cls-7{font-family:Helvetica-Bold, Helvetica;font-weight:700;}.cls-7{font-size:48.44px;}.cls-19,.cls-7{fill:#fff;}.cls-8{letter-spacing:-0.07em;}.cls-9{fill:#a55050;}.cls-10{font-size:17.58px;}.cls-11,.cls-13{fill:#ffcc94;}.cls-12{font-size:15.82px;}.cls-13{letter-spacing:0em;}.cls-14{font-size:13.58px;}.cls-15,.cls-17{fill:#94dbff;}.cls-15{letter-spacing:0em;}.cls-16{font-size:11.7px;}.cls-20{font-size:14.55px;}.cls-21{font-size:18.27px;}.cls-22{fill:#fbc727;stroke:#1c3462;stroke-miterlimit:10;stroke-width:3px;}.cls-23{fill:#1c3462;}.cls-24{font-size:14.04px;}</style></defs><g id="Calque_2" data-name="Calque 2"><g id="eau"><path class="cls-1" d="M517.67,776.66V801H0V461.71H20V448.65H47.85v6.54h14.8l3.48-6.54v13.06L60.9,477.14s1.44-.21,3.61-.44c5.93-.68,17.34-1.63,19.88.44,3.48,2.85,24.36,0,24.36,0l7.84-19.78,6.09-17.4,7-10.66,18.27,15s4.37,10.91,5.1,16.11a8,8,0,0,1,.12,1.29c0,4.36-4.36,20-5.22,23.49s-4.35,18.28-4.35,18.28-.88,11.3-.88,15.65a5.29,5.29,0,0,0,1.54,3.23c2.91,3.35,8.91,6.34,8.91,6.34s4.39,1.65,6.2,1a1,1,0,0,0,.76-1,2.27,2.27,0,0,0-.09-.62c-.64-2.51-4.74-5.53.09-6.34a7,7,0,0,0,4.64-2.42,8.52,8.52,0,0,0,1.44-5.4v-8.71l7.84-.87v12.19l-9.57,13.33-2.4,3.08-.83.3L156.27,535l-.64-1.74s-.5.6-1,1.3c-.69.93-1.44,2-1.26,2.29.34.43-1.19,5-1.19,5l-28.6,22.51,1.08,3,30-23.35,5-3.87,6.85-5.33,97.53-75.78s43.51,13.94,60,27.86,32.62,25.22,32.62,25.22L410.65,573l32.2,32.76,18.26,31.75L489,682.7l23.49,53.07.45,3.59Z"/></g><g id="terre"><path class="cls-2" d="M779,418.69V766.42H517.46l-3.54-27.71-1-2.29-22.48-50.78L462.58,640.4l-18.27-31.75-32.19-32.76-53.94-60.78s-16.1-11.31-32.63-25.23-60-27.85-60-27.85l-115,89.37-24.4,19-1.09-3,22.48-17.7,6.12-4.81s.72-2.17,1.06-3.67c.16-.68.24-1.21.13-1.34-.32-.44,2.29-3.59,2.29-3.59l.65,1.74,1.92-.69,3.85-1.38,2.39-3.08.62-.87,8.95-12.46V507.28l-1.46.16-6.38.71v8.7a8.59,8.59,0,0,1-1.43,5.41,7.07,7.07,0,0,1-4.64,2.42,5.49,5.49,0,0,0-1.56.47,1.26,1.26,0,0,0-.68,1.64c.28,1.05,1.34,2.31,1.88,3.51a3.17,3.17,0,0,1,.36,1.34c0,2.61-7,0-7,0s-10.46-5.21-10.46-9.57c0-.72,0-1.63.08-2.65.19-5.12.8-13,.8-13s3.48-14.8,4.35-18.28,5.23-19.13,5.23-23.49a29.16,29.16,0,0,0-1.59-7.17c-1.53-5-3.64-10.23-3.64-10.23l-18.26-15-7,10.66-6.1,17.4-7.84,19.78s-20.87,2.84-24.35,0-23.49,0-23.49,0l2.14-6.32,3.08-9.11V451.59l-1.47,2.76-2,3.78H49.31v-6.54H21.48v13.06h-19v-46Z"/><path class="cls-3" d="M1218.92,2.77V801H517.67V776.66l-4.76-37.3-.45-3.59L489,682.7l-27.86-45.24-18.26-31.75L410.65,573l-53.94-60.78S340.62,500.86,324.09,487s-60-27.86-60-27.86l-97.53,75.78-6.85,5.33-5,3.87-30,23.35-1.08-3,28.6-22.51s1.53-4.58,1.19-5c-.18-.25.57-1.36,1.26-2.29.53-.7,1-1.3,1-1.3l.64,1.74,4.94-1.77.83-.3,2.4-3.08L174,516.53V504.34l-7.84.87v8.71a8.52,8.52,0,0,1-1.44,5.4,7,7,0,0,1-4.64,2.42c-4.83.81-.73,3.83-.09,6.34a2.27,2.27,0,0,1,.09.62,1,1,0,0,1-.76,1c-1.81.62-6.2-1-6.2-1s-6-3-8.91-6.34a5.29,5.29,0,0,1-1.54-3.23c0-4.35.88-15.65.88-15.65s3.48-14.8,4.35-18.28,5.22-19.13,5.22-23.49a8,8,0,0,0-.12-1.29c-.73-5.2-5.1-16.11-5.1-16.11l-18.27-15-7,10.66-6.09,17.4-7.84,19.78s-20.88,2.85-24.36,0c-2.54-2.07-14-1.12-19.88-.44-2.17.23-3.61.44-3.61.44l5.23-15.43V448.65l-3.48,6.54H47.85v-6.54H20v13.06H1.47V2.77Z"/></g><g id="routes"><path class="cls-4" d="M447.18,595.49a9.31,9.31,0,0,1-4.83-1.2c-3.63-2.14-4.4-6.28-5.15-10.29a33.87,33.87,0,0,0-1.24-5.14c-2.15-6-11.14-16.72-14.42-20.35l-.13-.15L313.52,420.89l4.62-3.63L426,554.65c1.11,1.24,12.62,14.16,15.53,22.21a38.65,38.65,0,0,1,1.48,6.06c.53,2.84,1,5.53,2.36,6.31.68.4,2.49.84,7-.67,13.41-4.47,203.13-68.22,225.75-75.83-1.5-17.89-5.16-65.38-2.4-71.77,2.47-5.7,14.09-36.73,16.64-43.55l-53.65-89.27,5-3,55.11,91.7-.5,1.32c-.58,1.58-14.41,38.65-17.24,45.17-1.55,4,.33,39.35,3.06,71.23l.2,2.3-2.19.73c-2.14.72-213.76,71.84-228,76.57A22.59,22.59,0,0,1,447.18,595.49Z"/><polygon class="cls-4" points="558 802 488.12 615.05 479.18 579.1 418.31 388.21 386.34 289.04 329.57 117.66 335.15 115.81 391.92 287.21 423.9 386.42 484.86 577.59 493.74 613.31 563.5 799.95 558 802"/><path class="cls-4" d="M374.45,140.11l-1.94-5.54L745.37,3.84c.69-.48,2.45-1.71,4.88-3.46l3.43,4.77c-3.23,2.32-5.29,3.75-5.29,3.75l-.33.22-.37.13Z"/><rect class="cls-4" x="467.01" y="240.67" width="5.87" height="117.25" transform="translate(-67.51 152.43) rotate(-17.21)"/><polygon class="cls-4" points="229.95 261.1 229.04 255.3 324.22 240.43 623.5 128.13 751.9 0.68 756.04 4.85 626.75 133.19 528.93 169.89 325.72 246.14 229.95 261.1"/><rect class="cls-4" x="200.12" y="164.21" width="180.38" height="5.87" transform="matrix(0.94, -0.33, 0.33, 0.94, -38.92, 105.28)"/><rect class="cls-4" x="241.92" y="34.85" width="208.83" height="5.87" transform="translate(7.39 118.36) rotate(-19.6)"/><polygon class="cls-4" points="196.67 165.09 194.81 159.51 369.72 101.33 446.22 73.95 593.23 19.26 647.14 0 649.12 5.53 595.24 24.78 448.23 79.47 371.63 106.88 196.67 165.09"/><polygon class="cls-4" points="321.77 290.95 320.12 285.32 346.77 277.51 381.53 265.35 451.42 240.59 478.98 226.01 524.96 195.37 524.96 167.14 530.83 167.14 530.83 198.51 481.86 231.13 453.58 246.06 383.48 270.89 348.5 283.12 321.77 290.95"/><polygon class="cls-4" points="705.12 408.98 693.71 399.35 697.49 394.86 707.23 403.07 938.25 400 969.14 362.72 973.66 366.47 941.04 405.84 939.68 405.86 705.12 408.98"/><rect class="cls-4" x="448.67" y="76.12" width="5.87" height="32.89" transform="translate(-8.31 124.12) rotate(-15.51)"/><polygon class="cls-4" points="637.05 299.75 621.35 263.64 610.97 240.29 601.68 223.43 594.68 210.42 585.92 195.94 572.19 185.2 555.73 169.32 547.09 161.93 521.22 151.96 516.53 144.11 495.97 135.84 484.2 126.6 466.14 106.02 470.55 102.15 488.43 122.52 498.93 130.7 520.56 139.4 525.23 147.21 550.14 156.81 559.74 165.03 576.16 180.87 590.38 191.97 599.82 207.57 606.83 220.62 616.28 237.79 626.72 261.28 642.44 297.4 637.05 299.75"/><path class="cls-4" d="M611.28,233.79l-3.71-4.55c.65-.55,5-3.68,26.62-11,10.75-3.63,12.8-7.3,13.18-8.7a3.65,3.65,0,0,0-.72-3.19l-.42-.49-.22-.66-9.09-31.65-12-44.93,5.68-1.51,12,44.87,8.92,31a9.62,9.62,0,0,1,1.58,7.92c-1.31,5.18-7,9.51-17,12.89C615.46,230.79,611.44,233.67,611.28,233.79Z"/><polygon class="cls-4" points="1215.71 589.29 1179.63 565.78 824.32 236.18 313.52 420.89 208.54 231.6 185.09 145.6 158.43 101.16 240.41 69.43 215.97 4.84 226.96 0.69 255.52 76.17 175.68 107.07 195.99 140.94 219.52 227.22 318.59 411.78 827.01 222.65 1186.88 556.49 1222.58 579.75 1222.97 580.12 1218.89 584.42 1215.71 589.29"/><rect class="cls-4" x="259.48" y="293.49" width="62.83" height="6" transform="translate(-68.37 88.04) rotate(-15.42)"/></g><g id="terrain"><polygon class="cls-5" points="246.38 379.05 283.36 437.78 311.2 416.9 278.79 359.04 246.38 379.05"/><polygon class="cls-5" points="423.71 278.38 434.15 303.8 460.26 294.34 451.99 268.13 423.71 278.38"/><polygon class="cls-5" points="617.3 479.11 630.35 515.65 670.37 502.17 657.32 465.19 617.3 479.11"/><path class="cls-5" d="M498.1,15s20.07-9.14,26.43-8.48,13.05.81,13.05,10.44-5.71,10.27-17,14.35-29,10.44-32.79,2.29S487.83,17.93,498.1,15Z"/><path class="cls-5" d="M679.83,63.29l28.39-27.74L732.52,48l-7.66,21.53s-27.25,11.26-38.67,11.26Z"/><text class="cls-6" transform="matrix(0.64, 0.77, -0.77, 0.64, 342.02, 437.99)">Rue Marius Japtop</text></g><g id="villes_noms" data-name="villes/noms"><text class="cls-7" transform="translate(243.24 229.05)"><tspan class="cls-8">T</tspan><tspan x="26.02" y="0">uléar centre</tspan></text><rect class="cls-9" x="463.16" y="345.96" width="48.25" height="20.37"/><text class="cls-10" transform="translate(469.75 362.52)">RN<tspan class="cls-11" x="25.39" y="0">7</tspan></text><rect class="cls-9" x="723.11" y="250.12" width="43.41" height="18.33"/><text class="cls-12" transform="translate(729.04 265.02)">RN<tspan class="cls-13" x="22.84" y="0">7</tspan></text><rect class="cls-9" x="248.75" y="322.98" width="37.78" height="15.95"/><text class="cls-14" transform="translate(254.21 335.97)">RN<tspan class="cls-15" x="19.62" y="0">9</tspan></text><rect class="cls-9" x="185.21" y="190.91" width="33.76" height="14.25"/><text class="cls-16" transform="translate(190.53 202.36)">RN<tspan class="cls-17" x="16.9" y="0">9</tspan></text><path class="cls-3" d="M338.36,428.57a.37.37,0,0,0-.1.06l-2.5,2.5a2.25,2.25,0,0,1-1.52.75h0c-.21.11-.32,0-.46-.16l-1.49-1.49a.17.17,0,0,1-.05-.19,3.5,3.5,0,0,0,.07-.45,1.94,1.94,0,0,1,.55-1.06l2.71-2.71s0,0,0-.05l.54.54L334,428.4l.56.56,2.09-2.08.55.55-2.1,2.1.55.54,2.08-2.09Z"/><path class="cls-3" d="M330.76,435l-.09.09-3.55,3.56a1.23,1.23,0,0,1-.86.41l-.06,0h0l-.16,0a1.17,1.17,0,0,1-.76-1.83,1.63,1.63,0,0,1,.17-.2l3.61-3.6.07-.07Z"/><path class="cls-18" d="M327.23,420.58a11.12,11.12,0,0,0-11.12,11.12v.07c0,.09,0,.19,0,.29a2.45,2.45,0,0,0,0,.27c.66,6.79,11.09,25.93,11.09,25.93.1-.19,10.24-18.81,11.08-25.74a1.94,1.94,0,0,0,0-.24,4.49,4.49,0,0,0,0-.51v-.07A11.12,11.12,0,0,0,327.23,420.58Zm.52,8.09a3.81,3.81,0,0,0,.07-.47,2.06,2.06,0,0,1,.57-1.09l2.79-2.79s0,0,.05-.05c.19.2.37.37.56.56L329.64,427l.57.57,2.15-2.14.57.57-2.16,2.16.56.56,2.14-2.15.61.6a.37.37,0,0,0-.1.06c-.86.86-1.72,1.71-2.57,2.58a2.34,2.34,0,0,1-1.57.77h0c-.22.11-.33,0-.47-.17-.51-.51-1-1-1.54-1.53A.17.17,0,0,1,327.75,428.67Zm-1.58,5.21-3.65,3.66a1.28,1.28,0,0,1-.89.43l-.06,0h0l-.17,0a1.22,1.22,0,0,1-.78-1.89,1.71,1.71,0,0,1,.18-.2l3.71-3.71a.46.46,0,0,1,.07-.07l1.71,1.7Zm7.93,3a.14.14,0,0,0,0,.06,1.1,1.1,0,0,1-.45.77,3.83,3.83,0,0,1-.58.27h-.3a1.59,1.59,0,0,1-1-.62c-1.39-1.58-2.8-3.13-4.2-4.7a.53.53,0,0,1-.09-.11l-.64.65-.13-.11c-1.56-1.56-3.11-3.13-4.69-4.69a3,3,0,0,1-.88-2.63,4.85,4.85,0,0,1,.37-1.44.14.14,0,0,1,.14-.1.73.73,0,0,1,.66.27l11.16,11.17a1.79,1.79,0,0,1,.61,1Z"/><path class="cls-3" d="M334.1,436.67v.22a.14.14,0,0,0,0,.06,1.1,1.1,0,0,1-.45.77,3.83,3.83,0,0,1-.58.27h-.3a1.59,1.59,0,0,1-1-.62c-1.39-1.58-2.8-3.13-4.2-4.7a.53.53,0,0,1-.09-.11l-.64.65-.13-.11c-1.56-1.56-3.11-3.13-4.69-4.69a3,3,0,0,1-.88-2.63,4.85,4.85,0,0,1,.37-1.44.14.14,0,0,1,.14-.1.73.73,0,0,1,.66.27l11.16,11.17A1.79,1.79,0,0,1,334.1,436.67Z"/><path class="cls-18" d="M383,490.65A11.34,11.34,0,0,0,371.7,502v.07c0,.1,0,.19,0,.3s0,.17,0,.27c.66,6.92,11.3,26.45,11.3,26.45.11-.2,10.45-19.19,11.29-26.25a2.42,2.42,0,0,0,0-.25,3.12,3.12,0,0,0,0-.52V502A11.35,11.35,0,0,0,383,490.65Zm-3.11,8.7a.87.87,0,0,1,.88-.83l.26,0h8.18a1.17,1.17,0,0,1,.9.32.89.89,0,0,1,.26.56c0,.64,0,1.28,0,1.94h-10.5C379.92,500.65,379.89,500,379.93,499.35Zm-2.16-.92a1.48,1.48,0,1,1-1.47,1.47A1.49,1.49,0,0,1,377.77,498.43Zm13.37,8.51h-1V504.3c0-.14,0-.17-.17-.17H376.17c-.12,0-.16,0-.16.17,0,.81,0,1.62,0,2.44V507H375V496H376v5.64h15.12Z"/><path class="cls-3" d="M391.14,501.66v5.28h-1V504.3c0-.14,0-.17-.17-.17H376.17c-.12,0-.16,0-.16.17,0,.81,0,1.62,0,2.44V507H375V496H376v5.64Z"/><path class="cls-3" d="M379.25,499.91a1.48,1.48,0,1,1-1.48-1.48A1.48,1.48,0,0,1,379.25,499.91Z"/><path class="cls-3" d="M390.42,501.31h-10.5c0-.66,0-1.32,0-2a.87.87,0,0,1,.88-.83l.26,0h8.18a1.17,1.17,0,0,1,.9.32.89.89,0,0,1,.26.56C390.43,500,390.42,500.65,390.42,501.31Z"/><path class="cls-18" d="M432.57,312.19a12.42,12.42,0,0,0-12.42,12.43v.08c0,.1,0,.21,0,.32a1.6,1.6,0,0,0,0,.3c.72,7.58,12.38,29,12.38,29,.11-.21,11.45-21,12.37-28.74,0-.1,0-.19,0-.28s0-.38,0-.56v-.08A12.43,12.43,0,0,0,432.57,312.19Zm6.51,13,0,.25a4.34,4.34,0,0,1-.09.52,6.52,6.52,0,0,1-12.87-.61c0-.18,0-.35,0-.53a5.3,5.3,0,0,1,0-.69,5.41,5.41,0,0,1,.07-.58,4.72,4.72,0,0,1,.15-.65,6,6,0,0,1,.49-1.23,4.4,4.4,0,0,1,.29-.51,6.54,6.54,0,0,1,2.17-2.11,4.5,4.5,0,0,1,.43-.23,5.77,5.77,0,0,1,1.24-.47c.17-.05.35-.08.53-.12a5.93,5.93,0,0,1,.59-.07,6.59,6.59,0,0,1,3.57.73h0l.29.15a6.56,6.56,0,0,1,.76.54,6.17,6.17,0,0,1,.54.48,6.44,6.44,0,0,1,.74.9l.2.31c.08.13.16.27.23.41a5.64,5.64,0,0,1,.45,1.14,2.46,2.46,0,0,1,.11.45h0A7.09,7.09,0,0,1,439.08,325.15Z"/><rect class="cls-19" x="223.65" y="446.08" width="89.41" height="22.29"/><text class="cls-20" transform="translate(227.44 462.36)">Marina blue</text><rect class="cls-19" x="353.69" y="335.97" width="60.65" height="28"/><text class="cls-21" transform="translate(358.44 356.42)">Score</text><path class="cls-22" d="M465.78,507.55c-.08.35-.33.77-.47,1.29-.05.2-.24.66-.3.86h0c-5.69,16.89-40.78,58.16-41.13,58.58,0,0-16.1-53.33-14.18-70.65h-.06l.11-.67c.05-.36.13-.71.2-1.07a28.52,28.52,0,0,1,55.83,11.67Z"/><path class="cls-23" d="M430.81,488.31c-2.71-.42-6.54-.63-6.54-.63,1.26.25,5,1.33,5,1.33l-.2.1c-3.53-.64-9-1.15-9-1.15,1.95.4,7.52,1.85,7.64,1.9-.11.05-.2.12-.29.17-4.09-.81-11.66-1.77-11.66-1.77s6,1.35,10.55,2.54c-2.52,1.9-2.56,3.37-2.56,3.37a6.09,6.09,0,0,0,.38,3.24A7.92,7.92,0,0,0,425,499a10.3,10.3,0,0,1-2.58,1.07,6.2,6.2,0,0,1-2.44.15c-2.46-.41-5.86-1.07-5.86-1.07l2-3.39,4.78,1,.25-1.19-4.31-.9,2-3.15s3.49,0,5.27,1.06l.57-1.11a18.83,18.83,0,0,0-3.78-1l-2.48-.34-6.17,9.7,5.45,1.14a21,21,0,0,0,4.06.53,3,3,0,0,0,1.16-.21l2.62-1.22,1.23,2,1.21-.63-1.11-1.9,3.37-2-.65-1.06-3.28,1.86a9.26,9.26,0,0,1-1.18-2.1,4.36,4.36,0,0,1-.3-1.22A2.28,2.28,0,0,1,425,494a7.11,7.11,0,0,1,2.54-2.83c1.32.37,2.46.69,3.12.95a4.35,4.35,0,0,1,.65.33c2.07,1.37.68,4.32.68,4.32l.95.4,4-5.57,4.56-6.35A54.79,54.79,0,0,0,430.81,488.31Zm4.81,3.26-2.13,3a2.69,2.69,0,0,0-1-2.48,8.52,8.52,0,0,0-3.12-1.61l-.48-.13A41.13,41.13,0,0,1,439,486.78Z"/><path class="cls-23" d="M438,498.38l-1.13-.24s3.38-3.49,1.26-3.46-3.26,3.05-3.26,3.05l-1.15-.24s2.68-4.54,5.17-3.76S439.29,496.78,438,498.38Z"/><path class="cls-23" d="M446.49,495.17a7.45,7.45,0,0,0-5.25.25c-2.74,1.21-2.28,3.27-.76,3.65a8.94,8.94,0,0,0,3.07.17l3-4h0ZM443,498.24s-2,.24-2.54-.77,3.41-1.88,4.17-1.39Z"/><path class="cls-23" d="M451.34,497.53a3.74,3.74,0,0,0-1.64,1.24,1.49,1.49,0,0,0,.88,2.41l.43.09a9.36,9.36,0,0,0,2.65.09l3-4.06A7.63,7.63,0,0,0,451.34,497.53Zm1.74,2.82s-2,.25-2.52-.77,3.41-1.88,4.16-1.39Z"/><polygon class="cls-23" points="448.37 495.1 449.02 500.09 447.63 500.57 447.01 494.68 451.26 488.55 452.52 488.81 449.11 493.63 454.34 491.21 454.82 492.17 448.37 495.1"/><path class="cls-23" d="M460.38,498.33c-1.12-1.46-3.78.11-3.78.11-.87.57-1.74,1.31-1.53,2.52s1.9,1.5,3.28,1S461.48,499.8,460.38,498.33Zm-4,2.58c-.65-.84.73-1.61.73-1.61s2-1.19,2.41,0S457.07,501.77,456.42,500.91Z"/><path class="cls-23" d="M434.78,501.81c-1.9,1.2-5.38.68-5.38.68l-2.65,3.37-1.24-.26,3.62-4.38a5.34,5.34,0,0,0,4.55,0c1.95-.77,1.21-1.34.64-1.6a2.64,2.64,0,0,0-.6-.2l-2.69-.56.77-.93S439.77,498.65,434.78,501.81Z"/><path class="cls-23" d="M441.77,500.05l-.59.79a4.34,4.34,0,0,0-2.7.57,7.16,7.16,0,0,0-2.25,2.4l-1.2-.25S438,498.5,441.77,500.05Z"/><path class="cls-23" d="M442,503.12l4.36.91c2.65-1.85,1.35-4.08-2.69-2.93s-3.09,3.91-3.09,3.91l1.15-.28C441.26,503.48,442,503.12,442,503.12Zm4-.16-2.66-.64C447.8,501.15,445.92,503,445.92,503Z"/><path class="cls-23" d="M452.94,502.42l-.81.83c-3.19-.54-2.16.6-2.56,1.82a1.66,1.66,0,0,1-1.17,1,3.09,3.09,0,0,1-1.57.06l-1.8-.37.76-.93c2.68.64,2.58,0,2.79-1.33a1.66,1.66,0,0,1,1.16-1.15,3.93,3.93,0,0,1,2.2-.16Z"/><path class="cls-23" d="M457.94,503.46l-.81.84c-3.19-.54-2.15.6-2.55,1.82a1.69,1.69,0,0,1-1.17,1,3.1,3.1,0,0,1-1.57.07l-1.8-.38.75-.93c2.69.64,2.58,0,2.8-1.32a1.61,1.61,0,0,1,1.16-1.15,3.84,3.84,0,0,1,2.2-.16Z"/><rect class="cls-19" x="281.41" y="518.79" width="86.24" height="21.51"/><text class="cls-24" transform="translate(291.69 534.47)">Manatane</text></g></g></svg>