<?xml version="1.0" encoding="utf-8"?>
<!-- Generator: Adobe Illustrator 26.3.1, SVG Export Plug-In . SVG Version: 6.00 Build 0)  -->
<svg version="1.1" xmlns="http://www.w3.org/2000/svg" xmlns:xlink="http://www.w3.org/1999/xlink" x="0px" y="0px"
	 viewBox="0 0 1217.5 798.2" style="enable-background:new 0 0 1217.5 798.2;" xml:space="preserve">
<style type="text/css">
	.st0{fill:#9CC0F9;}
	.st1{fill:#445061;}
	.st2{fill:#FFF1CC;}
	.st3{fill:#579660;}
	.st4{font-family:'Helvetica-Bold';}
	.st5{font-size:7.1575px;}
	.st6{fill:#A55050;}
	.st7{font-size:17.5797px;}
	.st8{fill:#FFCC94;}
	.st9{font-size:15.8163px;}
	.st10{font-size:13.5844px;}
	.st11{fill:#94DBFF;}
	.st12{font-size:11.7012px;}
	.st13{fill:#FCBE7A;}
	.st14{fill:#FCFCFC;}
	.st15{fill:#FBC727;}
	.st16{fill:#1C3462;}
	.st17{fill:#FFFFFF;}
	.st18{font-size:14.5501px;}
	.st19{font-size:18.2729px;}
	.st20{fill:#FBC727;stroke:#1C3462;stroke-width:3;stroke-miterlimit:10;}
	.st21{font-size:14.0352px;}
	.st22{font-size:48.4356px;}
</style>
<g id="photo_de_base">
	
		<image style="overflow:visible;" width="1076" height="783" xlink:href="3B2E617.jpg"  transform="matrix(1 0 0 1 -2174.2056 -109.0233)">
	</image>
</g>
<g id="eau">
	<path class="st0" d="M516.2,773.9v24.3H0V458.9h20v-13.1h27.8v6.5h14.8l3.5-6.5v13.1l-5.2,15.4c0,0,1.4-0.2,3.6-0.4
		c5.9-0.7,17.3-1.6,19.8,0.4c3.5,2.8,24.3,0,24.3,0l7.8-19.8l6.1-17.4l6.9-10.7l18.2,15c0,0,4.4,10.9,5.1,16.1
		c0.1,0.5,0.1,0.9,0.1,1.3c0,4.4-4.3,20-5.2,23.5c-0.9,3.5-4.3,18.3-4.3,18.3s-0.9,11.3-0.9,15.7c0,1.1,0.6,2.2,1.5,3.2
		c2.9,3.3,8.9,6.3,8.9,6.3s4.4,1.6,6.2,1c0.5-0.2,0.8-0.5,0.8-1c0-0.2,0-0.4-0.1-0.6c-0.6-2.5-4.7-5.5,0.1-6.3
		c2.3-0.4,3.7-1.3,4.6-2.4c1.2-1.5,1.4-3.5,1.4-5.4c0-3.5,0-8.7,0-8.7l7.8-0.9v12.2l-9.5,13.3l-2.4,3.1l-0.8,0.3l-4.9,1.8l-0.6-1.7
		c0,0-0.5,0.6-1,1.3c-0.7,0.9-1.4,2-1.3,2.3c0.3,0.4-1.2,5-1.2,5l-28.5,22.5l1.1,3l30-23.3l5-3.9l6.8-5.3l97.3-75.8
		c0,0,43.4,13.9,59.9,27.9c16.5,13.9,32.5,25.2,32.5,25.2l53.8,60.8l32.1,32.8l18.2,31.8l27.8,45.2L511,733l0.5,3.6L516.2,773.9z"/>
</g>
<g id="terre">
	<path class="st1" d="M777.5,415.9v347.7H516l-3.5-27.7l-1-2.3L489,682.9l-27.9-45.2l-18.3-31.8l-32.2-32.8l-53.9-60.8
		c0,0-16.1-11.3-32.6-25.2c-16.5-13.9-60-27.9-60-27.9l-115,89.4l-24.4,19l-1.1-3l22.5-17.7l6.1-4.8c0,0,0.7-2.2,1.1-3.7
		c0.2-0.7,0.2-1.2,0.1-1.3c-0.3-0.4,2.3-3.6,2.3-3.6l0.6,1.7l1.9-0.7l3.8-1.4l2.4-3.1l0.6-0.9l9-12.5v-12.2l-1.5,0.2l-6.4,0.7
		c0,0,0,5.2,0,8.7c0,2-0.3,3.9-1.4,5.4c-0.9,1.2-2.4,2-4.6,2.4c-0.7,0.1-1.2,0.3-1.6,0.5c-0.7,0.4-0.9,1-0.7,1.6
		c0.3,1,1.3,2.3,1.9,3.5c0.2,0.5,0.4,0.9,0.4,1.3c0,2.6-7,0-7,0s-10.5-5.2-10.5-9.6c0-0.7,0-1.6,0.1-2.6c0.2-5.1,0.8-13,0.8-13
		s3.5-14.8,4.3-18.3c0.9-3.5,5.2-19.1,5.2-23.5c0-1.6-0.7-4.3-1.6-7.2c-1.5-5-3.6-10.2-3.6-10.2l-18.3-15l-7,10.7l-6.1,17.4
		l-7.8,19.8c0,0-20.9,2.8-24.4,0c-3.5-2.8-23.5,0-23.5,0L63,471l3.1-9.1v-13.1l-1.5,2.8l-2,3.8H47.8v-6.5H20v13.1H1v-46H777.5z"/>
	<path class="st2" d="M1217.5,0v798.2H516.2v-24.3l-4.8-37.3L511,733l-23.5-53.1l-27.9-45.2l-18.3-31.8l-32.2-32.8l-53.9-60.8
		c0,0-16.1-11.3-32.6-25.2c-16.5-13.9-60-27.8-60-27.8l-97.5,75.8l-6.8,5.3l-5,3.9l-30,23.3l-1.1-3l28.6-22.5c0,0,1.5-4.6,1.2-5
		c-0.2-0.2,0.6-1.4,1.3-2.3c0.5-0.7,1-1.3,1-1.3l0.6,1.8l4.9-1.8l0.8-0.3l2.4-3.1l9.6-13.3v-12.2l-7.8,0.9c0,0,0,5.2,0,8.7
		c0,1.9-0.3,3.9-1.4,5.4c-0.9,1.2-2.4,2-4.6,2.4c-4.8,0.8-0.7,3.8-0.1,6.3c0.1,0.2,0.1,0.4,0.1,0.6c0,0.5-0.3,0.9-0.8,1
		c-1.8,0.6-6.2-1-6.2-1s-6-3-8.9-6.3c-0.9-1.1-1.5-2.2-1.5-3.2c0-4.3,0.9-15.6,0.9-15.6s3.5-14.8,4.3-18.3
		c0.9-3.5,5.2-19.1,5.2-23.5c0-0.4,0-0.8-0.1-1.3c-0.7-5.2-5.1-16.1-5.1-16.1l-18.3-15l-7,10.7l-6.1,17.4l-7.8,19.8
		c0,0-20.9,2.8-24.4,0c-2.5-2.1-14-1.1-19.9-0.4c-2.2,0.2-3.6,0.4-3.6,0.4l5.2-15.4v-13l-3.5,6.5H46.4v-6.5H18.5v13H0V0H1217.5z"/>
</g>
<g id="routes">
	<g>
		<g>
			<path class="st1" d="M445.7,592.7c-1.9,0-3.5-0.4-4.8-1.2c-3.6-2.1-4.4-6.3-5.1-10.3c-0.3-1.8-0.7-3.6-1.2-5.1
				c-2.2-6-11.1-16.7-14.4-20.3l-0.1-0.2L312.1,418.1l4.6-3.6l107.8,137.4c1.1,1.2,12.6,14.2,15.5,22.2c0.7,2,1.1,4.2,1.5,6.1
				c0.5,2.8,1,5.5,2.4,6.3c0.7,0.4,2.5,0.8,7-0.7c13.4-4.5,203.1-68.2,225.8-75.8c-1.5-17.9-5.2-65.4-2.4-71.8
				c2.5-5.7,14.1-36.7,16.6-43.6l-53.6-89.3l5-3l55.1,91.7l-0.5,1.3c-0.6,1.6-14.4,38.6-17.2,45.2c-1.6,4,0.3,39.4,3.1,71.2l0.2,2.3
				l-2.2,0.7c-2.1,0.7-213.8,71.8-228,76.6C450,592.3,447.7,592.7,445.7,592.7z"/>
		</g>
	</g>
	<g>
		<g>
			<polygon class="st1" points="562,797.2 559.3,798.2 556.1,798.2 486.7,612.3 477.7,576.3 416.8,385.5 384.9,286.3 328.1,114.9 
				333.7,113.1 390.5,284.5 422.4,383.7 483.4,574.8 492.3,610.5 			"/>
		</g>
	</g>
	<g>
		<g>
			<path class="st1" d="M752.2,2.4c-3.2,2.3-5.3,3.8-5.3,3.8l-0.3,0.2l-0.4,0.1l-6.8,2.4L373,137.3l-1.9-5.5l79.9-28l5.6-1.9
				L743.9,1.1c0.3-0.2,0.8-0.6,1.5-1.1h5.1L752.2,2.4z"/>
		</g>
	</g>
	<g>
		<g>
			
				<rect x="465.5" y="237.9" transform="matrix(0.9552 -0.2958 0.2958 0.9552 -66.7549 151.8718)" class="st1" width="5.9" height="117.2"/>
		</g>
	</g>
	<g>
		<g>
			<polygon class="st1" points="754.6,2.1 717.9,38.5 683,73.2 625.3,130.4 527.5,167.1 324.3,243.4 235.6,257.2 228.5,258.3 
				227.6,252.5 232.7,251.7 322.8,237.7 622,125.4 680.8,67.1 712.4,35.7 739.4,8.9 748.3,0 752.5,0 			"/>
		</g>
	</g>
	<g>
		<g>
			
				<rect x="198.6" y="161.4" transform="matrix(0.9439 -0.3303 0.3303 0.9439 -38.0849 104.6381)" class="st1" width="180.4" height="5.9"/>
		</g>
	</g>
	<g>
		<g>
			<polygon class="st1" points="444.2,2.8 253.1,70.8 247.5,72.8 245.5,67.3 251,65.3 434.5,0 443.2,0 			"/>
		</g>
	</g>
	<g>
		<g>
			<polygon class="st1" points="647.7,2.8 593.8,22 449.3,75.8 446.8,76.7 443.8,77.8 370.2,104.1 200.6,160.5 195.2,162.3 
				193.3,156.8 199.1,154.9 368.3,98.6 444.8,71.2 591.8,16.5 637.9,0 646.7,0 			"/>
		</g>
	</g>
	<g>
		<g>
			<polygon class="st1" points="320.3,288.2 318.6,282.6 345.3,274.7 380.1,262.6 449.9,237.8 477.5,223.2 523.5,192.6 523.5,164.4 
				529.4,164.4 529.4,195.7 480.4,228.4 452.1,243.3 382,268.1 347,280.4 			"/>
		</g>
	</g>
	<g>
		<g>
			<polygon class="st1" points="703.7,406.2 692.2,396.6 696,392.1 705.8,400.3 936.8,397.2 967.7,360 972.2,363.7 939.6,403.1 
				938.2,403.1 			"/>
		</g>
	</g>
	<g>
		<g>
			
				<rect x="447.2" y="73.4" transform="matrix(0.9636 -0.2674 0.2674 0.9636 -7.621 123.6285)" class="st1" width="5.9" height="32.9"/>
		</g>
	</g>
	<g>
		<g>
			<polygon class="st1" points="635.6,297 619.9,260.9 609.5,237.5 600.2,220.7 593.2,207.7 584.5,193.2 570.7,182.4 554.3,166.6 
				545.6,159.2 519.8,149.2 515.1,141.3 494.5,133.1 482.7,123.8 464.7,103.3 469.1,99.4 487,119.8 497.5,127.9 519.1,136.6 
				523.8,144.4 548.7,154 558.3,162.3 574.7,178.1 588.9,189.2 598.4,204.8 605.4,217.9 614.8,235 625.3,258.5 641,294.6 			"/>
		</g>
	</g>
	<g>
		<g>
			<path class="st1" d="M609.8,231l-3.7-4.5c0.7-0.6,5-3.7,26.6-11c10.7-3.6,12.8-7.3,13.2-8.7c0.5-1.8-0.7-3.1-0.7-3.2l-0.4-0.5
				l-0.2-0.7l-9.1-31.6l-12-44.9l5.7-1.5l12,44.9l8.9,31c1.2,1.6,2.4,4.5,1.6,7.9c-1.3,5.2-7,9.5-17,12.9
				C614,228,610,230.9,609.8,231z"/>
		</g>
	</g>
	<g>
		<g>
			<polygon class="st1" points="1217.5,574.6 1217.5,581.6 1217.4,581.7 1214.2,586.5 1178.2,563 822.9,233.4 312.1,418.1 
				207.1,228.8 183.6,142.8 157,98.4 238.9,66.7 214.5,2.1 220,0 226.3,0 251,65.3 253.1,70.8 254.1,73.4 174.2,104.3 194.5,138.2 
				199.1,154.9 200.6,160.5 218.1,224.5 232.7,251.7 235.6,257.2 317.1,409 825.5,219.9 1185.4,553.7 			"/>
		</g>
	</g>
	<g>
		<rect x="258" y="290.7" transform="matrix(0.964 -0.2659 0.2659 0.964 -67.6898 87.5483)" class="st1" width="62.8" height="6"/>
	</g>
</g>
<g id="terrain">
	<polygon class="st3" points="244.9,376.3 281.9,435 309.7,414.1 277.3,356.3 	"/>
	<polygon class="st3" points="422.2,275.6 432.7,301 458.8,291.6 450.5,265.4 	"/>
	<polygon class="st3" points="615.8,476.3 628.9,512.9 668.9,499.4 655.9,462.4 	"/>
	<path class="st3" d="M496.6,12.2c0,0,20.1-9.1,26.4-8.5c6.4,0.7,13.1,0.8,13.1,10.4s-5.7,10.3-17,14.4c-11.3,4.1-29,10.4-32.8,2.3
		S486.4,15.2,496.6,12.2z"/>
	<path class="st3" d="M678.4,60.5l28.4-27.7l24.3,12.4l-7.7,21.5c0,0-27.2,11.3-38.7,11.3L678.4,60.5z"/>
	<text transform="matrix(0.6372 0.7707 -0.7707 0.6372 340.5497 435.2206)" class="st1 st4 st5">Rue Marius Japtop</text>
</g>
<g id="villes_x2F_noms">
	<g>
		<rect x="461.7" y="343.2" class="st6" width="48.3" height="20.4"/>
		<text transform="matrix(1 0 0 1 468.2847 359.7521)"><tspan x="0" y="0" class="st4 st7">RN</tspan><tspan x="25.4" y="0" class="st8 st4 st7">7</tspan></text>
	</g>
	<g>
		<rect x="721.6" y="247.4" class="st6" width="43.4" height="18.3"/>
		<text transform="matrix(1 0 0 1 727.5738 262.2536)"><tspan x="0" y="0" class="st4 st9">RN</tspan><tspan x="22.8" y="0" class="st8 st4 st9">7</tspan></text>
	</g>
	<g>
		<rect x="247.3" y="320.2" class="st6" width="37.8" height="15.9"/>
		<text transform="matrix(1 0 0 1 252.7466 333.1994)"><tspan x="0" y="0" class="st4 st10">RN</tspan><tspan x="19.6" y="0" class="st11 st4 st10">9</tspan></text>
	</g>
	<g>
		<rect x="183.7" y="188.1" class="st6" width="33.8" height="14.2"/>
		<text transform="matrix(1 0 0 1 189.063 199.5939)"><tspan x="0" y="0" class="st4 st12">RN</tspan><tspan x="16.9" y="0" class="st11 st4 st12">9</tspan></text>
	</g>
	<path class="st13" d="M336.9,425.8c0,0-0.1,0-0.1,0.1c-0.8,0.8-1.7,1.7-2.5,2.5c-0.4,0.4-0.9,0.7-1.5,0.8h0c-0.2,0.1-0.3,0-0.5-0.2
		c-0.5-0.5-1-1-1.5-1.5c-0.1-0.1-0.1-0.1,0-0.2c0-0.2,0-0.3,0.1-0.5c0.1-0.4,0.2-0.8,0.5-1.1c0.9-0.9,1.8-1.8,2.7-2.7c0,0,0,0,0,0
		c0.2,0.2,0.4,0.4,0.5,0.5c-0.7,0.7-1.4,1.4-2.1,2.1l0.6,0.6c0.7-0.7,1.4-1.4,2.1-2.1c0.2,0.2,0.4,0.4,0.6,0.5l-2.1,2.1
		c0.2,0.2,0.4,0.4,0.5,0.5c0.7-0.7,1.4-1.4,2.1-2.1C336.5,425.4,336.7,425.6,336.9,425.8z"/>
	<path class="st13" d="M329.3,432.3C329.3,432.3,329.2,432.3,329.3,432.3c-1.3,1.3-2.5,2.5-3.6,3.7c-0.2,0.2-0.5,0.4-0.9,0.4
		c0,0,0,0-0.1,0h0c0,0-0.1,0-0.2,0c-0.8-0.1-1.3-1.2-0.8-1.8c0-0.1,0.1-0.1,0.2-0.2c1.2-1.2,2.4-2.4,3.6-3.6c0,0,0,0,0.1-0.1
		C328.2,431.2,328.7,431.7,329.3,432.3z"/>
	<path class="st14" d="M332.6,433.9v0.2c0,0,0,0,0,0.1c0,0.3-0.2,0.6-0.5,0.8c-0.2,0.1-0.4,0.2-0.6,0.3h-0.3c-0.4-0.1-0.7-0.3-1-0.6
		c-1.4-1.6-2.8-3.1-4.2-4.7c0,0-0.1-0.1-0.1-0.1c-0.2,0.2-0.4,0.4-0.6,0.7c0,0-0.1-0.1-0.1-0.1c-1.6-1.6-3.1-3.1-4.7-4.7
		c-0.8-0.7-1-1.6-0.9-2.6c0-0.5,0.2-1,0.4-1.4c0-0.1,0.1-0.1,0.1-0.1c0.3,0,0.5,0.1,0.7,0.3c3.7,3.7,7.4,7.5,11.2,11.2
		C332.3,433.2,332.6,433.5,332.6,433.9z"/>
	<path class="st1" d="M325.8,417.8c-6.1,0-11.1,5-11.1,11.1v0.1c0,0.1,0,0.2,0,0.3c0,0.1,0,0.2,0,0.3c0.7,6.8,11.1,25.9,11.1,25.9
		c0.1-0.2,10.2-18.8,11.1-25.7c0-0.1,0-0.2,0-0.2c0-0.2,0-0.3,0-0.5v-0.1C336.9,422.8,331.9,417.8,325.8,417.8z M326.3,425.9
		c0-0.2,0-0.3,0.1-0.5c0.1-0.4,0.2-0.8,0.6-1.1c0.9-0.9,1.9-1.9,2.8-2.8c0,0,0,0,0,0c0.2,0.2,0.4,0.4,0.6,0.5
		c-0.7,0.7-1.4,1.4-2.2,2.2l0.6,0.6c0.7-0.7,1.4-1.4,2.2-2.1c0.2,0.2,0.4,0.4,0.6,0.6l-2.2,2.2c0.2,0.2,0.4,0.4,0.6,0.6
		c0.7-0.7,1.4-1.4,2.1-2.2c0.2,0.2,0.4,0.4,0.6,0.6c0,0-0.1,0-0.1,0.1c-0.9,0.8-1.7,1.7-2.6,2.6c-0.4,0.4-0.9,0.7-1.6,0.8h0
		c-0.2,0.1-0.3,0-0.5-0.2c-0.5-0.5-1-1-1.5-1.5C326.3,426,326.3,426,326.3,425.9z M324.7,431.1c-1.2,1.2-2.4,2.4-3.7,3.7
		c-0.2,0.2-0.5,0.4-0.9,0.4c0,0,0,0-0.1,0h0c0,0-0.1,0-0.2,0c-0.9-0.1-1.3-1.2-0.8-1.9c0-0.1,0.1-0.2,0.2-0.2
		c1.2-1.2,2.5-2.5,3.7-3.7c0,0,0-0.1,0.1-0.1C323.7,429.9,324.2,430.5,324.7,431.1C324.8,431,324.7,431.1,324.7,431.1z M332.6,434.1
		C332.6,434.1,332.6,434.2,332.6,434.1c-0.1,0.4-0.2,0.7-0.5,0.8c-0.2,0.1-0.4,0.2-0.6,0.3h-0.3c-0.4-0.1-0.7-0.3-1-0.6
		c-1.4-1.6-2.8-3.1-4.2-4.7c0,0-0.1-0.1-0.1-0.1c-0.2,0.2-0.4,0.4-0.6,0.7c0,0-0.1-0.1-0.1-0.1c-1.6-1.6-3.1-3.1-4.7-4.7
		c-0.8-0.7-1-1.6-0.9-2.6c0-0.5,0.2-1,0.4-1.4c0-0.1,0.1-0.1,0.1-0.1c0.3,0,0.5,0.1,0.7,0.3c3.7,3.7,7.4,7.5,11.2,11.2
		c0.3,0.3,0.5,0.6,0.6,1V434.1z"/>
	<g>
		<path class="st14" d="M332.6,424.4C332.6,424.4,332.5,424.4,332.6,424.4c-1,0.9-1.8,1.8-2.7,2.6c-0.4,0.4-0.9,0.7-1.6,0.8h0
			c-0.2,0.1-0.3,0-0.5-0.2c-0.5-0.5-1-1-1.5-1.5c-0.1-0.1-0.1-0.1,0-0.2c0-0.2,0-0.3,0.1-0.5c0.1-0.4,0.2-0.8,0.6-1.1
			c0.9-0.9,1.9-1.9,2.8-2.8c0,0,0,0,0,0c0.2,0.2,0.4,0.4,0.6,0.5c-0.7,0.7-1.4,1.4-2.2,2.2l0.6,0.6c0.7-0.7,1.4-1.4,2.2-2.1
			c0.2,0.2,0.4,0.4,0.6,0.6l-2.2,2.2c0.2,0.2,0.4,0.4,0.6,0.6c0.7-0.7,1.4-1.4,2.1-2.2C332.2,424,332.4,424.2,332.6,424.4z"/>
		<path class="st14" d="M324.8,431C324.8,431,324.7,431.1,324.8,431c-1.3,1.3-2.5,2.5-3.7,3.8c-0.2,0.2-0.5,0.4-0.9,0.4
			c0,0,0,0-0.1,0h0c0,0-0.1,0-0.2,0c-0.9-0.1-1.3-1.2-0.8-1.9c0-0.1,0.1-0.2,0.2-0.2c1.2-1.2,2.5-2.5,3.7-3.7c0,0,0-0.1,0.1-0.1
			C323.7,429.9,324.2,430.5,324.8,431z"/>
		<path class="st14" d="M332.6,433.9v0.2c0,0,0,0,0,0.1c-0.1,0.3-0.2,0.6-0.5,0.8c-0.2,0.1-0.4,0.2-0.6,0.3h-0.3
			c-0.4-0.1-0.7-0.3-1-0.6c-1.4-1.6-2.8-3.1-4.2-4.7c0,0-0.1-0.1-0.1-0.1c-0.2,0.2-0.4,0.4-0.6,0.6c-0.1,0-0.1-0.1-0.1-0.1
			c-1.6-1.6-3.1-3.1-4.7-4.7c-0.8-0.7-1-1.6-0.9-2.6c0-0.5,0.2-1,0.4-1.4c0-0.1,0.1-0.1,0.1-0.1c0.3,0,0.5,0.1,0.7,0.3
			c3.7,3.7,7.4,7.4,11.2,11.2C332.3,433.2,332.6,433.5,332.6,433.9z"/>
	</g>
	<path class="st1" d="M381.6,487.9c-6.3,0-11.3,5.1-11.3,11.3v0.1c0,0.1,0,0.2,0,0.3c0,0.1,0,0.2,0,0.3c0.7,6.9,11.3,26.4,11.3,26.4
		c0.1-0.2,10.4-19.2,11.3-26.2c0-0.1,0-0.2,0-0.3c0-0.2,0-0.3,0-0.5v-0.1C392.9,493,387.9,487.9,381.6,487.9z M378.5,496.6
		c0-0.5,0.4-0.8,0.9-0.8c0.1,0,0.2,0,0.3,0h8.2c0.3,0,0.7,0.1,0.9,0.3c0.2,0.2,0.3,0.3,0.3,0.6c0,0.6,0,1.3,0,1.9h-10.5
		C378.5,497.9,378.4,497.2,378.5,496.6z M376.3,495.7c0.8,0,1.5,0.7,1.5,1.5c0,0.8-0.7,1.5-1.5,1.5c-0.8,0-1.5-0.7-1.5-1.5
		S375.5,495.7,376.3,495.7z M389.7,504.2h-1v-2.6c0-0.1,0-0.2-0.2-0.2h-13.8c-0.1,0-0.2,0-0.2,0.2c0,0.8,0,1.6,0,2.4v0.2h-1.1v-10.9
		h1.1v5.6h15.1V504.2z"/>
	<g>
		<path class="st14" d="M389.7,498.9v5.3h-1v-2.6c0-0.1,0-0.2-0.2-0.2h-13.8c-0.1,0-0.2,0-0.2,0.2c0,0.8,0,1.6,0,2.4v0.2h-1.1v-10.9
			h1.1v5.6H389.7z"/>
		<path class="st14" d="M377.8,497.1c0,0.8-0.7,1.5-1.5,1.5c-0.8,0-1.5-0.7-1.5-1.5s0.7-1.5,1.5-1.5
			C377.1,495.7,377.8,496.3,377.8,497.1z"/>
		<path class="st14" d="M389,498.5h-10.5c0-0.7,0-1.3,0-2c0-0.5,0.4-0.8,0.9-0.8c0.1,0,0.2,0,0.3,0h8.2c0.3,0,0.7,0.1,0.9,0.3
			c0.2,0.2,0.3,0.3,0.3,0.6C389,497.2,389,497.9,389,498.5z"/>
	</g>
	<path class="st1" d="M431.1,309.4c-6.9,0-12.4,5.6-12.4,12.4v0.1c0,0.1,0,0.2,0,0.3c0,0.1,0,0.2,0,0.3c0.7,7.6,12.4,29,12.4,29
		c0.1-0.2,11.4-21,12.4-28.7c0-0.1,0-0.2,0-0.3c0-0.2,0-0.4,0-0.6v-0.1C443.5,315,438,309.4,431.1,309.4z M437.6,322.4
		c0,0.1,0,0.2,0,0.3c0,0.2-0.1,0.3-0.1,0.5c-0.6,2.8-3,5-5.9,5.2c-3.6,0.3-6.7-2.4-7-5.8c0-0.2,0-0.4,0-0.5c0-0.2,0-0.5,0-0.7
		c0-0.2,0-0.4,0.1-0.6c0-0.2,0.1-0.4,0.2-0.6c0.1-0.4,0.3-0.8,0.5-1.2c0.1-0.2,0.2-0.3,0.3-0.5c0.5-0.9,1.3-1.6,2.2-2.1
		c0.1-0.1,0.3-0.2,0.4-0.2c0.4-0.2,0.8-0.4,1.2-0.5c0.2,0,0.4-0.1,0.5-0.1c0.2,0,0.4-0.1,0.6-0.1c1.3-0.1,2.5,0.2,3.6,0.7
		c0,0,0,0,0,0c0.1,0.1,0.2,0.1,0.3,0.2c0.3,0.2,0.5,0.3,0.8,0.5c0.2,0.2,0.4,0.3,0.5,0.5c0.3,0.3,0.5,0.6,0.7,0.9
		c0.1,0.1,0.1,0.2,0.2,0.3c0.1,0.1,0.2,0.3,0.2,0.4c0.2,0.4,0.3,0.7,0.5,1.1c0.1,0.1,0.1,0.3,0.1,0.4c0,0,0,0,0,0
		C437.6,321.1,437.7,321.7,437.6,322.4z"/>
	<g>
		<path class="st15" d="M-1430.7,975.1c0,0.6,0,1.1,0,1.6c0,0.2,0,0.4,0,0.6c-0.1,0-0.2,0-0.3,0c-0.2,0-0.5,0.1-0.7,0.1
			c-3.2,0.4-6.4,0.6-9.6,0.7c-3.2,0.1-6.4,0.1-9.6,0l-4.8-0.2l-4.8-0.3c-6.3-0.5-12.7-0.8-19.1-0.9c-2.9,0-5.8,0-8.7,0.1
			c-0.2,0-0.4,0-0.5,0c0-0.2,0-0.5,0-0.7c0-0.4,0-0.7,0-1.1c0-16.1,13-29.1,29.1-29.1S-1430.7,959.1-1430.7,975.1z"/>
		<g>
			<path class="st16" d="M-1468.9,958.5c-2.6,0.1-6.3,0.7-6.3,0.7c1.2,0,5,0.3,5,0.3l-0.2,0.1c-3.5,0.1-8.7,0.7-8.7,0.7
				c1.9,0,7.4,0.3,7.6,0.3c-0.1,0.1-0.2,0.1-0.2,0.2c-4,0-11.3,0.6-11.3,0.6s5.9,0.1,10.4,0.3c-2,2.3-1.7,3.7-1.7,3.7s0,1.4,1,3
				c0.3,0.4,0.6,0.9,1.1,1.4c0,0-0.9,0.9-2.2,1.5c-0.7,0.3-1.4,0.6-2.3,0.6c-2.4,0.1-5.7,0.1-5.7,0.1l1.2-3.6h4.7v-1.2h-4.2l1.2-3.3
				c0,0,3.3-0.7,5.2,0l0.3-1.1c0,0-1.9-0.3-3.8-0.2c-1.9,0.1-2.4,0.2-2.4,0.2l-3.9,10.4h5.4c0,0,2.4,0,3.9-0.3
				c0.5-0.1,0.8-0.2,1.1-0.4c1-0.8,2.2-1.7,2.2-1.7l1.6,1.7l1-0.8l-1.4-1.6l2.8-2.5l-0.8-0.9l-2.7,2.4c0,0-0.9-0.7-1.5-1.7
				c-0.2-0.3-0.4-0.7-0.5-1.1c-0.1-0.4-0.1-0.8,0-1.1c0.2-1.1,0.9-2.2,1.8-3.2c1.3,0.1,2.5,0.2,3.1,0.3c0.2,0,0.5,0.1,0.7,0.2
				c2.2,0.9,1.5,3.9,1.5,3.9l1,0.2l2.7-6l3-6.9C-1463.7,955.3-1466.7,957-1468.9,958.5z M-1463.7,960.6l-1.4,3.2
				c0-0.9-0.6-1.6-1.5-2.1c-0.8-0.5-1.9-0.8-3.2-0.9c-0.1,0-0.3,0-0.5,0c3.5-3,8.7-5.3,8.9-5.4L-1463.7,960.6z"/>
			<path class="st16" d="M-1460.2,966.5h-1.1c0,0,2.5-4,0.5-3.5c-2,0.4-2.5,3.5-2.5,3.5h-1.1c0,0,1.6-4.8,4.1-4.6
				C-1457.7,962.2-1459.2,964.8-1460.2,966.5z"/>
			<path class="st16" d="M-1452.8,961.9c-0.4-0.1-2.7-0.3-4.9,1.3c-2.3,1.7-1.5,3.5,0,3.6c1.5,0.1,2.9-0.4,2.9-0.4L-1452.8,961.9
				L-1452.8,961.9C-1452.7,961.9-1452.7,961.9-1452.8,961.9z M-1455.5,965.4c0,0-1.8,0.6-2.5-0.2c-0.7-0.9,2.8-2.4,3.7-2.1
				L-1455.5,965.4z"/>
			<path class="st16" d="M-1447.8,963.1c-0.7,0.5-1.1,1-1.3,1.5c-0.5,1.1,0.2,2.1,1.3,2.1c0.1,0,0.3,0,0.4,0c1.4,0,2.5-0.4,2.5-0.4
				l2-4.4C-1442.8,961.9-1445.4,961.4-1447.8,963.1z M-1445.6,965.4c0,0-1.8,0.6-2.5-0.2c-0.7-0.9,2.8-2.4,3.6-2.1L-1445.6,965.4z"
				/>
			<polygon class="st16" points="-1451,961.4 -1449.4,966 -1450.7,966.7 -1452.4,961.3 -1449.6,954.7 -1448.4,954.7 -1450.6,959.9 
				-1446.2,956.6 -1445.5,957.4 			"/>
			<path class="st16" d="M-1439.1,962.1c-1.3-1.2-3.5,0.9-3.5,0.9c-0.7,0.7-1.4,1.6-0.9,2.7c0.5,1.1,2.1,1,3.3,0.3
				C-1439.1,965.2-1437.8,963.3-1439.1,962.1z M-1442.3,965.3c-0.8-0.7,0.4-1.7,0.4-1.7s1.6-1.5,2.3-0.5
				C-1439,964.2-1441.5,966-1442.3,965.3z"/>
			<path class="st16" d="M-1462.5,970.4c-1.6,1.5-4.9,1.7-4.9,1.7l-1.8,3.7h-1.2l2.6-4.8c0,0,2,0.7,4.3-0.9c1.7-1.1,0.9-1.5,0.3-1.6
				c-0.2,0-0.4-0.1-0.6-0.1h-2.6l0.5-1C-1466.1,967.4-1458.4,966.4-1462.5,970.4z"/>
			<path class="st16" d="M-1456.3,967.4l-0.4,0.9c-0.9,0.1-1.8,0.5-2.4,1.1c-0.9,0.8-1.4,1.9-1.7,2.7h-1.2
				C-1461.9,972-1460.1,966.7-1456.3,967.4z"/>
			<path class="st16" d="M-1455.5,970.2h4.3c2.1-2.3,0.5-4.1-3.1-2.2c-3.6,1.9-2.1,4.3-2.1,4.3l1-0.5
				C-1456.1,970.7-1455.5,970.2-1455.5,970.2z M-1451.8,969.3l-2.6-0.1C-1450.4,967.2-1451.8,969.3-1451.8,969.3z"/>
			<path class="st16" d="M-1445.3,967.4l-0.6,0.9c-3.1,0.1-1.9,1-2,2.2c-0.1,0.6-0.5,0.9-0.9,1.2c-0.4,0.3-1,0.4-1.5,0.4h-1.8l0.5-1
				c2.7,0.1,2.4-0.5,2.4-1.8c0-0.6,0.4-1,0.9-1.3c0.6-0.4,1.3-0.6,2-0.6H-1445.3z"/>
			<path class="st16" d="M-1440.4,967.4l-0.6,0.9c-3.1,0.1-1.9,1-2,2.2c-0.1,0.6-0.5,0.9-0.9,1.2c-0.4,0.3-1,0.4-1.5,0.4h-1.8l0.5-1
				c2.7,0.1,2.4-0.5,2.4-1.8c0-0.6,0.4-1,0.9-1.3c0.6-0.4,1.3-0.6,2-0.6H-1440.4z"/>
		</g>
		<path class="st16" d="M-1422.3,975.6c-1.5,0.5-3.1,0.9-4.6,1.2c-1.3,0.2-2.5,0.5-3.8,0.6c-0.1,0-0.2,0-0.3,0
			c-0.2,0-0.5,0.1-0.7,0.1c-3.2,0.4-6.4,0.6-9.6,0.7c-3.2,0.1-6.4,0.1-9.6,0l-4.8-0.2l-4.8-0.3c-6.3-0.5-12.7-0.8-19.1-0.9
			c-2.9,0-5.8,0-8.7,0.1c-0.2,0-0.4,0-0.5,0c-0.1,0-0.2,0-0.3,0c-3.2,0.1-6.4,0.4-9.5,0.9c1.5-0.4,3.1-0.7,4.7-1
			c1.6-0.2,3.2-0.4,4.8-0.6c0.1,0,0.2,0,0.3,0c0.2,0,0.3,0,0.5,0c2.9-0.3,5.9-0.4,8.8-0.5c3-0.1,6,0,9.1,0.1c0.1,0,0.3,0,0.4,0
			c3.2,0.1,6.5,0.3,9.7,0.6c6.3,0.5,12.7,0.8,19,0.8c3.2,0,6.4-0.1,9.5-0.3c0.3,0,0.6,0,0.9-0.1c0.1,0,0.1,0,0.2,0
			C-1427.9,976.6-1425.1,976.2-1422.3,975.6z"/>
	</g>
	<g>
		<rect x="222.2" y="443.3" class="st17" width="89.4" height="22.3"/>
		<text transform="matrix(1 0 0 1 225.9715 459.5972)" class="st1 st4 st18">Marina blue</text>
	</g>
	<rect x="352.2" y="333.2" class="st17" width="60.6" height="28"/>
	<rect x="236.6" y="188.4" class="st17" width="325.1" height="49"/>
	<text transform="matrix(1 0 0 1 356.9754 353.6487)" class="st1 st4 st19">Score</text>
	<path class="st20" d="M464.3,504.8c-0.1,0.4-0.3,0.8-0.5,1.3c-0.1,0.2-0.2,0.7-0.3,0.9c-0.1,0,0.1,0,0,0
		c-5.7,16.9-40.8,58.2-41.1,58.6c0,0-16.1-53.3-14.2-70.7l-0.1,0c0-0.2,0.1-0.4,0.1-0.7c0.1-0.4,0.1-0.7,0.2-1.1
		c3.2-15.4,18.3-25.3,33.7-22.1C457.6,474.3,467.5,489.4,464.3,504.8z"/>
	<g>
		<path class="st16" d="M429.3,485.5c-2.7-0.4-6.5-0.6-6.5-0.6c1.3,0.3,5,1.3,5,1.3l-0.2,0.1c-3.5-0.6-9-1.1-9-1.1
			c1.9,0.4,7.5,1.8,7.6,1.9c-0.1,0.1-0.2,0.1-0.3,0.2c-4.1-0.8-11.7-1.8-11.7-1.8s6,1.3,10.5,2.5c-2.5,1.9-2.6,3.4-2.6,3.4
			s-0.3,1.4,0.4,3.2c0.2,0.5,0.4,1,0.8,1.6c0,0-1.1,0.7-2.6,1.1c-0.8,0.2-1.6,0.3-2.4,0.2c-2.5-0.4-5.9-1.1-5.9-1.1l2-3.4l4.8,1
			l0.2-1.2l-4.3-0.9l2-3.1c0,0,3.5,0,5.3,1.1l0.6-1.1c0,0-1.8-0.7-3.8-1c-1.9-0.3-2.5-0.3-2.5-0.3l-6.2,9.7l5.5,1.1
			c0,0,2.4,0.6,4.1,0.5c0.5,0,0.9-0.1,1.2-0.2c1.2-0.6,2.6-1.2,2.6-1.2l1.2,2l1.2-0.6l-1.1-1.9l3.4-2l-0.6-1.1l-3.3,1.9
			c0,0-0.7-1-1.2-2.1c-0.2-0.4-0.3-0.8-0.3-1.2c0-0.4,0-0.8,0.2-1.2c0.5-1.1,1.4-2,2.5-2.8c1.3,0.4,2.5,0.7,3.1,1
			c0.2,0.1,0.5,0.2,0.6,0.3c2.1,1.4,0.7,4.3,0.7,4.3l0.9,0.4l4-5.6l4.6-6.3C435.3,483.4,431.9,484.5,429.3,485.5z M434.2,488.8
			l-2.1,3c0.2-0.9-0.2-1.7-1-2.5c-0.7-0.7-1.8-1.2-3.1-1.6c-0.1,0-0.3-0.1-0.5-0.1c4.2-2.3,10-3.5,10.2-3.6L434.2,488.8z"/>
		<path class="st16" d="M436.5,495.6l-1.1-0.2c0,0,3.4-3.5,1.3-3.5c-2.1,0-3.3,3-3.3,3l-1.1-0.2c0,0,2.7-4.5,5.2-3.8
			C439.9,491.7,437.8,494,436.5,495.6z"/>
		<path class="st16" d="M445,492.4c-0.4-0.1-2.7-0.9-5.2,0.2c-2.7,1.2-2.3,3.3-0.8,3.7c1.5,0.4,3.1,0.2,3.1,0.2L445,492.4L445,492.4
			C445.1,492.4,445.1,492.4,445,492.4z M441.5,495.5c0,0-2,0.2-2.5-0.8c-0.5-1,3.4-1.9,4.2-1.4L441.5,495.5z"/>
		<path class="st16" d="M449.9,494.8c-0.8,0.4-1.3,0.8-1.6,1.2c-0.7,1-0.2,2.1,0.9,2.4c0.2,0,0.3,0.1,0.4,0.1
			c1.4,0.3,2.6,0.1,2.6,0.1l3-4.1C455.2,494.5,452.6,493.5,449.9,494.8z M451.6,497.6c0,0-2,0.2-2.5-0.8c-0.6-1,3.4-1.9,4.2-1.4
			L451.6,497.6z"/>
		<polygon class="st16" points="446.9,492.3 447.6,497.3 446.2,497.8 445.5,491.9 449.8,485.8 451,486 447.6,490.9 452.9,488.4 
			453.3,489.4 		"/>
		<path class="st16" d="M458.9,495.6c-1.1-1.5-3.8,0.1-3.8,0.1c-0.9,0.6-1.7,1.3-1.5,2.5c0.2,1.2,1.9,1.5,3.3,1
			C458.3,498.7,460,497,458.9,495.6z M455,498.1c-0.7-0.8,0.7-1.6,0.7-1.6s1.9-1.2,2.4,0C458.6,497.7,455.6,499,455,498.1z"/>
		<path class="st16" d="M433.3,499c-1.9,1.2-5.4,0.7-5.4,0.7l-2.7,3.4l-1.2-0.3l3.6-4.4c0,0,1.8,1.1,4.6,0c1.9-0.8,1.2-1.3,0.6-1.6
			c-0.2-0.1-0.4-0.2-0.6-0.2l-2.7-0.6l0.8-0.9C430.3,495.2,438.3,495.9,433.3,499z"/>
		<path class="st16" d="M440.3,497.3l-0.6,0.8c-1-0.1-2,0.1-2.7,0.6c-1.1,0.7-1.8,1.7-2.3,2.4l-1.2-0.3
			C433.6,500.8,436.6,495.7,440.3,497.3z"/>
		<path class="st16" d="M440.5,500.4l4.4,0.9c2.6-1.8,1.4-4.1-2.7-2.9c-4,1.1-3.1,3.9-3.1,3.9l1.2-0.3
			C439.8,500.7,440.5,500.4,440.5,500.4z M444.5,500.2l-2.7-0.6C446.3,498.4,444.5,500.2,444.5,500.2z"/>
		<path class="st16" d="M451.5,499.7l-0.8,0.8c-3.2-0.5-2.2,0.6-2.6,1.8c-0.2,0.6-0.7,0.9-1.2,1c-0.5,0.2-1.1,0.2-1.6,0.1l-1.8-0.4
			l0.8-0.9c2.7,0.6,2.6,0,2.8-1.3c0.1-0.6,0.6-0.9,1.2-1.1c0.7-0.3,1.5-0.3,2.2-0.2L451.5,499.7z"/>
		<path class="st16" d="M456.5,500.7l-0.8,0.8c-3.2-0.5-2.2,0.6-2.6,1.8c-0.2,0.6-0.7,0.9-1.2,1c-0.5,0.2-1.1,0.2-1.6,0.1l-1.8-0.4
			l0.8-0.9c2.7,0.6,2.6,0,2.8-1.3c0.1-0.6,0.6-0.9,1.2-1.1c0.7-0.3,1.5-0.3,2.2-0.2L456.5,500.7z"/>
	</g>
	<g>
		<rect x="279.9" y="516" class="st17" width="86.2" height="21.5"/>
		<text transform="matrix(1 0 0 1 290.2242 531.7063)" class="st1 st4 st21">Manatane</text>
	</g>
	<rect x="1926.2" y="-86.9" class="st1" width="94.7" height="94.7"/>
	<rect x="1926.2" y="30.8" class="st2" width="94.7" height="94.7"/>
	<text transform="matrix(1 0 0 1 245.5113 231.0235)" class="st1 st4 st22">Tuléar centre</text>
</g>
<g id="commerces">
</g>
</svg>
