<svg xmlns="http://www.w3.org/2000/svg" xmlns:xlink="http://www.w3.org/1999/xlink" viewBox="0 0 566.67 487.32"><defs><style>.cls-1,.cls-9{fill:none;}.cls-2{clip-path:url(#clip-path);}.cls-3{fill:#a3d3d3;}.cls-4{fill:#fff;}.cls-5{fill:#cc4747;}.cls-6{fill:#ffefe1;stroke:#684f2a;}.cls-6,.cls-8,.cls-9{stroke-miterlimit:10;stroke-width:0.75px;}.cls-7,.cls-8{fill:#fdfedb;}.cls-8{stroke:#0b6277;}.cls-9{stroke:#bf824b;}.cls-10,.cls-13{font-size:12px;}.cls-10,.cls-11,.cls-13{fill:#353535;font-family:LobsterTwo, Lobster Two;}.cls-11{font-size:21px;}.cls-12{letter-spacing:-0.17em;}.cls-13{letter-spacing:-0.17em;}.cls-14{letter-spacing:0em;}</style><clipPath id="clip-path"><rect class="cls-1" width="566.67" height="487.32"/></clipPath></defs><g id="Calque_2" data-name="Calque 2"><g id="ecretage"><g class="cls-2"><path class="cls-3" d="M988.48,319.6V289.94c-8.29-.46-4.16-3.76-15.44-4.43s-15.12,5.78-15.12,5.78c-15.77-1.11-4.88,1.11-20,1.11-5.67,0-9.52.34-12.62,1.31-5.15,1.62-8.21,5-14,11.36-9.34,10.22-7.56,21.55-20,21.33s-12-10.67-8.45-18,2.89-12.45-4-12.89-10.44-16.44-28.44-9.78S823.92,316.18,821,319.07s-4,7.77-11.34,13.54-35.78,5.79-43.11-2-1.78-21.11-1.78-21.11l-2.22-7s-2.89,1.44-32,7-31.11,9.33-29.33-10.22-8.89-20.45-18-21.11-19.56,9.55-38.45,15.33-24-10.22-21.77-20.44-18.45-34.89-20.23-32-32,4.66-35.33,4.66-8.89,6.89-26.22,13.11a35.25,35.25,0,0,1-10.32,2.34c-7.9.33-9.52-4.5-13-6.34-4.66-2.44-4.66-6.89-11.11-15.33-3.48-4.56-3.46-6.4-3.12-7l-.43.13c-2.67.67-2.67-1.78-8.22-12.67s-3.56-8.22-11.78-14.88a17.36,17.36,0,0,0-8.94-3.8h-.12l-1.83-.14a20.11,20.11,0,0,0-7.11,1.06s-23.11-1.34-31.11.22-10.67,2.44-19.78,1.33-7.56-.44-12.22-2.89-8.67.45-14.67,1.78-9.78,15.78-10,21.33,2.83,9.67,2.33,11.34a62.09,62.09,0,0,0-1.22,11.78c.17,2.5,2.56,13.94,5.67,17s2.44,7.38,2.33,10.83-.11,11-.11,11-6.78-.45-7.22,3.67-1.89,4.05-2.95,5.5-9.22,5.61-9.83,7.16-6.22,1.61-5.44,7.56-2.23,4.89-4.34,5.11-3.66-1.78-4.94-2.67-3.28,1-6.22,1.61-3.23-.83-3.23-.83c-.22,2.33-1.05,5.17-5.89,8.67s-3.61-4.73-7.38,2.39-12.78,9.22-12.78,9.22c-17.89,2.11-16.45-1.11-16.67-6.11s-.22-5.23-3.44-5.67-9.89-.33-11.56-4.67-4.78-4.11-7.67-6.33-1.88-9.78-1.88-9.78C253.26,276.51,263.48,262,263.48,262s2.11,13.89,4.67,20.67,7.66,7.56,7.66,7.56c-.66-7.34,4.78-6.56,4.78-6.56s-2.44-.78-.22-4.55,3.44-7.78,6.22-11.89-.15-14.63,5.78-21.45-3.56-11,1.18-23.55,1.19-12.6,1.19-12.6c-3.56-23.26-31.7-36.59-34.67-37.92s-5.48-1.93-11.85-15.11-9.18-4-9-9.93-4.59-12-4.59-12c-6.22,3.26-3.41-7.11-8.89-.15s-4.89,1.34-7.41-1-.59-5.49-1.77-5.49-1.63-1.63-2.37-4.14-10.23-8.6-12.3-10.67-5-4-3.26-5.63-.44-2.67-.89-3.56-3-4.74-2.52-3.4-3.7,1.63-3.7,1.63,4.3-2.08-2.67-.26-.66-6.52-4.77-2-7.67-.44-7.78,1-.11.56-3.78,1a12.35,12.35,0,0,1-9.78-2.77c-2.78-2.34-2.22-7.56-5.33-10.34s-1.89-6.55-2.78-7.77-2.44-5.45-1.89-10.23-2.11-7.77-3-10-8.22-9.55-8.22-9.55,1.78-4.11-.44-5.56c-1.52-1-1.23-3-.89-4.18,0-.13.07-.24.11-.34a2.56,2.56,0,0,1,.09-.26c0-.13.08-.22.1-.27s0,0,0,.06a.15.15,0,0,0,0,.07c-.05.37.19,1,3.49-1.3,4.23-2.89,11.12,1,16.67.33s4.56,0,10.33,1.45,12.56-4,12.56-4,7.44-6.89,9-7.67,6.78-.44,6.78-.44,4.33-5.67,13.66-6.78,17.78,7.22,19.34,8.22S244,29.4,253.7,29.4s4.42-8.45,9-2.67,11.24,6.11,14.24,2.45,8.78-4.11,8.78-4.11,1.78-5.56,9.89-7,6.56-2.12,11.78-3.89,26.22,7.44,33.67,7.66,15.33-3.66,25.88-7.66,7.89-12.56,7.89-12.56S372.37-2,373.59-14.71s12-15,12-15,6.52-2.37,9.63-5,4.3-8.89,10.37-13.34,10.67-5.48,10.67-5.48l-1.33-.86-1.19-.77-6.07,4.3s-8.74,2.81-11.11,9-7.71,10.37-12.3,11.4-9.33,8.74-9.33,8.74L371-15s-2.23,4.45-.45,7.56,1.93,11.85-1.48,17.18-14.52,5.48-14.52,5.48L358,8.27c-.26.4-4.39,6.86-7.55,8.72S336.22,20.7,326,14.92,306.44,9,305.55,9.29s-2.07,3.55-5,5.33-5.63-2.07-12.15,1.48-8.45,7.85-9.56,5.41-13.55-3.78-16.44-2-7.56,1.78-8.45,1.78-4.22-5.78-8.66-.45-9.78,7.11-11.11,6.23S222.59,20.4,212.81,20a26.49,26.49,0,0,0-10.4,1.95c-5.66,2.12-10.47,5.27-13.15,5.83-4.22.89-9.78,9.11-13.34,10.67s-4.44-.22-9.33-1.56-24.22,0-24.22,0-1.56-16.66-2.22-26.22-8-30.89-8-30.89,1.33-17.33,6-26.22,4,.67,2.89,3.33-.67,8.45-.67,8.45l-1.11,6,5.52-2.89-3.08,4.67,3.08,4.66V-9.82s2-3.56,1.59,2.22,4.44,14.22,4.44,14.22l3.11-2,4.23,6L159,5.07l1.11,6,2.44,2c3.56-6.67-1.33-20.89-3.55-23.34A26.32,26.32,0,0,1,155.26-16l-3.34-4.88s-2.66,5.33-2.44,2.66-2.67-12.89-2.67-12.89a66.89,66.89,0,0,0-1.22-9c-.06-.25-.09-.4-.09-.4a10.45,10.45,0,0,0-1.58-3.94c-2.22-2.67,1.34-29.33,1.34-29.33S143-80,141.48-95.38c0-.3-.06-.6-.1-.89-1.71-14.68-8-20.8-11.23-27.78s2.66-4.44,4.66-8.66,1.34-11.34-3.33-18.67c-3.7-5.81-5.34-16.53-5.78-20.11H-637.52v948h825s4.67-14.78.89-30.33-2-19.78,5.33-22.89,8.89,5.33,2-34.22-7.33-19.34-17.33-38.89,10.89-12.89,10.22-29.34-12-24-12-24a30.46,30.46,0,0,0-6.89-19.77c0-24.23-8.66-16.23-8-23.34.65-6.9-5-11.28-5.31-11.54l3.76.88.44-2.67,4.89.22,2.22,1.11-2.22,4.67,1.33-1.78,1.11,3.78,1.12-1.78,2.88-2,3.56,2-1.56-5.11-4.44,2s9.78-13.78.22-23.78-4-8.22,1.34-20.44-7.56-20.22-7.56-20.22,15.33-12.23,8.89-23.34-14.22-3.11-14.22-3.11,3.77-11.78,12.22-18.67,5.55-21.55,7.55-35.55,5.34-16.45,37.56-29.11,38.67-.22,40.44-5.78,6.67-8.89,11.34-11.33a10.55,10.55,0,0,1,8.44-.89s-.22-10.89,9.11-13.34,6.45,8.45,19.34,6.23,6.66-4.67,20.66-4.89,23.56-9.78,23.56-9.78c6.44-12.67,13.78-12.22,15.33-15.33s2.78-11.95,15.56-17.56,11.33-13.78,11.33-13.78l5.56,1.56s.66-29.56,1.11-34.22,0-28.67,2.22-34.67,8.44-9.33,12.67-6.89,9.77,4.45,23.11,5.11A122.12,122.12,0,0,1,459,217.29l-3.12-2.22c16.67-10.45,14.45-2.67,24.45.66s12.22,19.56,12.22,19.56A25.41,25.41,0,0,1,489.7,244c-2.44,4.45-.22,16.67-.22,16.67l-5.56-1.11-1.33,2,2.22,3.56,3.78-.67s2.22,8.22,4.45,15.11,11.11,7.56,15.11,8.67,7.77,5.11,8.66,2,8.89-3.11,8.89-3.11c-.22-3.34,3.11-12.67,6-12.23s.22,3.56,20.22-3.33-7.11,4.89,8.67-1.11-.19-20.94,37.33-10.67,1.34,42.67,32.23,45.34,15.77-10.67,42.44-18.45,25.78,1.33,19.56,16.95,10,20.38,15.77,15.94,53.56-11.78,53.56-11.78-5.78,8.89-6.22,13.78c-.31,3.36,5.48,13.13,15,18.76a29,29,0,0,0,10.11,3.78,25.53,25.53,0,0,0,4.91.35c8.72-.22,15.66,3.16,21.82,4.33,5.87,1.12,11,.23,16.33-7.73h0c.61-.92,1.22-1.93,1.84-3.05,11.33-20.48,20.31-20,20.65-20-.12,0-2.21-.22,5.35-15.44,7.78-15.67,16.89-9.22,24-5.89s3.55,14.22-.89,18.45a14,14,0,0,0-4.45,9.33l3.12-1.33-2.89,5.11s6.44-3.34,2,2.66-2,14.23-2,14.23l2.66-3.93.67-3.41,2.44,3.41.23-4.3,2.22,3.34,2.89-1.11-3.11-3.56h3.11l-4.67-5.78s7.78.45,12.89,2.45,8.22,1.11,15.78-4.45,11.78-.89,11.78-.89,7.55-2.44,6.88.45,6,5.33,6,5.33l.45,6.22s1.33-4.89,7.11.45,6.22-2.57,6.22-2.57,8.67,9.23,19.56-2.1,9.78-11.11,15.11-9.33,3.33,0,6.89,1.55c2.26,1,3,.18,3.22-.53v-5.72c-1,.32-3.74.47-9.67.17-16-.81-23.11,4.53-23.11,4.53s-5.11,4.44-13.78,0-12.44-6.22-12.44-6.22a13.22,13.22,0,0,0,9.33-5.34c3.78-5.11,13.34-8.44,27.11-9.33s21.34,0,21.34,0v14.67A7.71,7.71,0,0,1,988.48,319.6Zm-719-289.83-.89-1.11,3-.74Zm-2.26-4.07,2.26-.32L268.59,27Zm6.41,4.59-2-.3L274,27.92l1.67,1Zm-.45-2.56c-1.4-.33-2.59-2.35-2.59-2.35l6-.8S274.59,28.07,273.18,27.73Zm2.15-5.18-.66.4-3.08-2.11Zm-8.07-2.15,5.85,2.89-9.7-.74Zm-13.78,4.18h2.74l-2.74,1.6h-2.16Zm-3.41-1.88c2.82,1,0,2,0,2s-.15,1,.15,1-1.26.89-1.63.89H245l-.29-.89S247.26,21.73,250.07,22.7Zm21.41,296.92,2.39-6.55,1.55.88Zm14.83,9.78s-.27-8.33-.22-8.5c0,0,.78-.17,1.11,1.33S286.31,329.4,286.31,329.4Zm27.73,10a3,3,0,0,1-2.89-.72,12.73,12.73,0,0,1,3.11-1.45C315.09,337.18,315.76,338.9,314,339.4Zm29.61-7.56-1.73-.33,2.95-1.72Zm10.44-13.72c-3,2.67-5.72,5.45-6.61,7.72s-.94,2.23-3.72,2.67-3.34,2.94-5.06,3-5.61-2.72-9.61-1.78c-.38.09,2.22-5.28,4.83-5.55a24,24,0,0,0,5.5-1.45,44.75,44.75,0,0,0,3.06-4.83c.17-.72,1.61-1.95,3.44-2.06s2.39-2,3.67-1.5,1,2.34,2.56,2.17S357.09,315.45,354.09,318.12Zm585.39-11.41c-8,6.36-10.3,10.13-14,11.91s-7.74,4.89-18.85,1.56c-.77-.23,8.22-6.89,9.56-11.34s14.22-11.77,21.33-10S947.48,300.35,939.48,306.71Z"/><path class="cls-4" d="M128.81,425.44a5.94,5.94,0,0,1-.14,5.92s-7-5.63-7.26-11S127.18,421.88,128.81,425.44Z"/><path class="cls-4" d="M250.07,24.7s-.15,1,.15,1-1.26.89-1.63.89H245l-.29-.89s2.59-4,5.4-3S250.07,24.7,250.07,24.7Z"/><polygon class="cls-4" points="256.22 24.58 253.48 26.18 251.32 26.18 253.48 24.58 256.22 24.58"/><polygon class="cls-4" points="269.48 25.38 268.59 26.95 267.22 25.7 269.48 25.38"/><polygon class="cls-4" points="269.48 29.77 268.59 28.66 271.59 27.92 269.48 29.77"/><polygon class="cls-4" points="267.26 20.4 273.11 23.29 263.41 22.55 267.26 20.4"/><polygon class="cls-4" points="271.59 20.84 275.33 22.55 274.67 22.95 271.59 20.84"/><polygon class="cls-4" points="275.42 313.95 271.48 319.62 273.87 313.07 275.42 313.95"/><polygon class="cls-4" points="273.63 30.29 271.59 29.99 274 27.92 275.67 28.95 273.63 30.29"/><path class="cls-4" d="M276.59,24.58s-2,3.49-3.41,3.15-2.59-2.35-2.59-2.35Z"/><path class="cls-4" d="M286.31,329.4s-.27-8.33-.22-8.5c0,0,.78-.17,1.11,1.33S286.31,329.4,286.31,329.4Z"/><path class="cls-4" d="M314,339.4a3,3,0,0,1-2.89-.72,12.73,12.73,0,0,1,3.11-1.45C315.09,337.18,315.76,338.9,314,339.4Z"/><polygon class="cls-4" points="341.92 331.51 344.87 329.79 343.65 331.84 341.92 331.51"/><path class="cls-4" d="M343.76,328.51c-2.78.44-3.34,2.94-5.06,3s-5.61-2.72-9.61-1.78c-.38.09,2.22-5.28,4.83-5.55a24,24,0,0,0,5.5-1.45,44.75,44.75,0,0,0,3.06-4.83c.17-.72,1.61-1.95,3.44-2.06s2.39-2,3.67-1.5,1,2.34,2.56,2.17,4.94-1.06,1.94,1.61-5.72,5.45-6.61,7.72S346.54,328.07,343.76,328.51Z"/><path class="cls-5" d="M178.09,112.27,175,117.71l-1.51,2.7-1.42,2.75c-1,1.84-1.88,3.64-2.78,5.47l-2.57,5.54q-1.2-3.34-2.35-6.74L162,129.5l-1.16,1.05-.3.25-2,1.95-.17.16-.1.11a106.66,106.66,0,0,0-21,32.63,147.14,147.14,0,0,0-10.29,40.55,247.53,247.53,0,0,0-.73,42.28c.85,14.14,2.47,28.31,4.25,42.45s3.89,28.2,6.73,42.11a331.77,331.77,0,0,0,10.82,41l1.7,5,1.87,4.95,1,2.64.15.37.6,1.44,1.2,2.89c1.68-1.71,3.35-3.38,5.05-5l-.11,6.1c0,2,.07,4.07.11,6.13l.08,3.1.18,3.09.43,6.25L155.48,407l-2.42-2.08-2.34-2.15c-1.55-1.46-3.15-2.92-4.69-4.42l-4.56-4.58c2.42.07,4.82.11,7.21.14l-1.23-3-.62-1.48-.16-.37-1-2.71-1.91-5.08L142,376.12a341.5,341.5,0,0,1-11-41.83c-2.88-14.11-5-28.33-6.8-42.56s-3.42-28.47-4.29-42.88a253.41,253.41,0,0,1,.76-43.36,153.87,153.87,0,0,1,10.74-42.3,114.31,114.31,0,0,1,20.2-32.33c.75-.83,1.51-1.64,2.29-2.45l.3-.28,1.51-1.43.59-.57.29-.27,1.21-1.07,2.4-2.13c-2.17-1-4.34-2-6.54-3l6.11-2.14c2-.68,4.1-1.3,6.14-1.92l3-.92,3.07-.82Z"/><path class="cls-6" d="M988.48-171.49V289.94c-8.29-.46-4.16-3.76-15.44-4.43s-15.12,5.78-15.12,5.78c-15.77-1.11-4.88,1.11-20,1.11-5.67,0-9.52.34-12.62,1.31-5.15,1.62-8.21,5-14,11.36-9.34,10.22-7.56,21.55-20,21.33s-12-10.67-8.45-18,2.89-12.45-4-12.89-10.44-16.44-28.44-9.78S823.92,316.18,821,319.07s-4,7.77-11.34,13.54-35.78,5.79-43.11-2-1.78-21.11-1.78-21.11l-2.22-7s-2.89,1.44-32,7-31.11,9.33-29.33-10.22-8.89-20.45-18-21.11-19.56,9.55-38.45,15.33-24-10.22-21.77-20.44-18.45-34.89-20.23-32-32,4.66-35.33,4.66-8.89,6.89-26.22,13.11a35.25,35.25,0,0,1-10.32,2.34c-7.9.33-9.52-4.5-13-6.34-4.66-2.44-4.66-6.89-11.11-15.33-3.48-4.56-3.46-6.4-3.12-7,.65-.26.24-.45,0,0l-.43.13c-2.67.67-2.67-1.78-8.22-12.67s-3.56-8.22-11.78-14.88a17.36,17.36,0,0,0-8.94-3.8h-.12a14.65,14.65,0,0,0-1.83-.14,20.11,20.11,0,0,0-7.11,1.06s-23.11-1.34-31.11.22-10.67,2.44-19.78,1.33-7.56-.44-12.22-2.89-8.67.45-14.67,1.78-9.78,15.78-10,21.33,2.83,9.67,2.33,11.34a62.09,62.09,0,0,0-1.22,11.78c.17,2.5,2.56,13.94,5.67,17s2.44,7.38,2.33,10.83-.11,11-.11,11-6.78-.45-7.22,3.67-1.89,4.05-2.95,5.5-9.22,5.61-9.83,7.16-6.22,1.61-5.44,7.56-2.23,4.89-4.34,5.11-3.66-1.78-4.94-2.67-3.28,1-6.22,1.61-3.23-.83-3.23-.83c-.22,2.33-1.05,5.17-5.89,8.67s-3.61-4.73-7.38,2.39-12.78,9.22-12.78,9.22c-17.89,2.11-16.45-1.11-16.67-6.11s-.22-5.23-3.44-5.67-9.89-.33-11.56-4.67-4.78-4.11-7.67-6.33-1.88-9.78-1.88-9.78C253.26,276.51,263.48,262,263.48,262s2.11,13.89,4.67,20.67,7.66,7.56,7.66,7.56c-.66-7.34,4.78-6.56,4.78-6.56s-2.44-.78-.22-4.55,3.44-7.78,6.22-11.89-.15-14.63,5.78-21.45-3.56-11,1.18-23.55,1.19-12.6,1.19-12.6c-3.56-23.26-31.7-36.59-34.67-37.92s-5.48-1.93-11.85-15.11-9.18-4-9-9.93-4.59-12-4.59-12c-6.22,3.26-3.41-7.11-8.89-.15s-4.89,1.34-7.41-1-.59-5.49-1.77-5.49-1.63-1.63-2.37-4.14-10.23-8.6-12.3-10.67-5-4-3.26-5.63-.44-2.67-.89-3.56-3-4.74-2.52-3.4-3.7,1.63-3.7,1.63,4.3-2.08-2.67-.26-.66-6.52-4.77-2-7.67-.44-7.78,1-.11.56-3.78,1a12.35,12.35,0,0,1-9.78-2.77c-2.78-2.34-2.22-7.56-5.33-10.34s-1.89-6.55-2.78-7.77-2.44-5.45-1.89-10.23-2.11-7.77-3-10-8.22-9.55-8.22-9.55,1.78-4.11-.44-5.56c-1.52-1-1.23-3-.89-4.18,0-.13.07-.24.11-.34a2.56,2.56,0,0,1,.09-.26c0-.13.08-.22.1-.27s0,0,0,.06a.15.15,0,0,0,0,.07c-.05.37.19,1,3.49-1.3,4.23-2.89,11.12,1,16.67.33s4.56,0,10.33,1.45,12.56-4,12.56-4,7.44-6.89,9-7.67,6.78-.44,6.78-.44,4.33-5.67,13.66-6.78,17.78,7.22,19.34,8.22S244,29.4,253.7,29.4s4.42-8.45,9-2.67,11.24,6.11,14.24,2.45,8.78-4.11,8.78-4.11,1.78-5.56,9.89-7,6.56-2.12,11.78-3.89,26.22,7.44,33.67,7.66,15.33-3.66,25.88-7.66,7.89-12.56,7.89-12.56S372.37-2,373.59-14.71s12-15,12-15,6.52-2.37,9.63-5,4.3-8.89,10.37-13.34,10.67-5.48,10.67-5.48l-1.33-.86-1.19-.77-6.07,4.3s-8.74,2.81-11.11,9-7.71,10.37-12.3,11.4-9.33,8.74-9.33,8.74L371-15s-2.23,4.45-.45,7.56,1.93,11.85-1.48,17.18-14.52,5.48-14.52,5.48L358,8.27c-.26.4-4.39,6.86-7.55,8.72S336.22,20.7,326,14.92,306.44,9,305.55,9.29s-2.07,3.55-5,5.33-5.63-2.07-12.15,1.48-8.45,7.85-9.56,5.41-13.55-3.78-16.44-2-7.56,1.78-8.45,1.78-4.22-5.78-8.66-.45-9.78,7.11-11.11,6.23S222.59,20.4,212.81,20a26.49,26.49,0,0,0-10.4,1.95c-5.66,2.12-10.47,5.27-13.15,5.83-4.22.89-9.78,9.11-13.34,10.67s-4.44-.22-9.33-1.56-24.22,0-24.22,0-1.56-16.66-2.22-26.22-8-30.89-8-30.89,1.33-17.33,6-26.22,4,.67,2.89,3.33-.67,8.45-.67,8.45l-1.11,6,5.52-2.89-3.08,4.67,3.08,4.66V-9.82s2-3.56,1.59,2.22,4.44,14.22,4.44,14.22l3.11-2,4.23,6L159,5.07l1.11,6,2.44,2c3.56-6.67-1.33-20.89-3.55-23.34A26.32,26.32,0,0,1,155.26-16l-3.34-4.88s-2.66,5.33-2.44,2.66-2.67-12.89-2.67-12.89a66.89,66.89,0,0,0-1.22-9c-.06-.25-.09-.4-.09-.4a10.45,10.45,0,0,0-1.58-3.94c-2.22-2.67,1.34-29.33,1.34-29.33S143-80,141.48-95.38c0-.3-.06-.6-.1-.89-1.71-14.68-8-20.8-11.23-27.78s2.66-4.44,4.66-8.66,1.34-11.34-3.33-18.67c-3.7-5.81-5.17-15-5.61-18.62-.12-.94-.17-1.49-.17-1.49Z"/><path class="cls-6" d="M988.48,326.31v450.2h-801s4.67-14.78.89-30.33-2-19.78,5.33-22.89,8.89,5.33,2-34.22-7.33-19.34-17.33-38.89,10.89-12.89,10.22-29.34-12-24-12-24a30.46,30.46,0,0,0-6.89-19.77c0-24.23-8.66-16.23-8-23.34.65-6.9-5-11.28-5.31-11.54l3.76.88.44-2.67,4.89.22,2.22,1.11-2.22,4.67,1.33-1.78,1.11,3.78,1.12-1.78,2.88-2,3.56,2-1.56-5.11-4.44,2s9.78-13.78.22-23.78-4-8.22,1.34-20.44-7.56-20.22-7.56-20.22,15.33-12.23,8.89-23.34-14.22-3.11-14.22-3.11,3.77-11.78,12.22-18.67,5.55-21.55,7.55-35.55,5.34-16.45,37.56-29.11,38.67-.22,40.44-5.78,6.67-8.89,11.34-11.33a10.55,10.55,0,0,1,8.44-.89s-.22-10.89,9.11-13.34,6.45,8.45,19.34,6.23,6.66-4.67,20.66-4.89,23.56-9.78,23.56-9.78c6.44-12.67,13.78-12.22,15.33-15.33s2.78-11.95,15.56-17.56,11.33-13.78,11.33-13.78l5.56,1.56s.66-29.56,1.11-34.22,0-28.67,2.22-34.67,8.44-9.33,12.67-6.89,9.77,4.45,23.11,5.11A122.12,122.12,0,0,1,459,217.29l-3.12-2.22c16.67-10.45,14.45-2.67,24.45.66s12.22,19.56,12.22,19.56A25.41,25.41,0,0,1,489.7,244c-2.44,4.45-.22,16.67-.22,16.67l-5.56-1.11-1.33,2,2.22,3.56,3.78-.67s2.22,8.22,4.45,15.11,11.11,7.56,15.11,8.67,7.77,5.11,8.66,2,8.89-3.11,8.89-3.11c-.22-3.34,3.11-12.67,6-12.23s.22,3.56,20.22-3.33-7.11,4.89,8.67-1.11-.19-20.94,37.33-10.67,1.34,42.67,32.23,45.34,15.77-10.67,42.44-18.45,25.78,1.33,19.56,16.95,10,20.38,15.77,15.94,53.56-11.78,53.56-11.78-5.78,8.89-6.22,13.78c-.31,3.36,5.48,13.13,15,18.76a29,29,0,0,0,10.11,3.78,25.53,25.53,0,0,0,4.91.35c8.72-.22,15.66,3.16,21.82,4.33,5.87,1.12,11,.23,16.33-7.73h0c.61-.92,1.22-1.93,1.84-3.05,11.33-20.48,20.31-20,20.65-20-.12,0-2.21-.22,5.35-15.44,7.78-15.67,16.89-9.22,24-5.89s3.55,14.22-.89,18.45a14,14,0,0,0-4.45,9.33l3.12-1.33-2.89,5.11s6.44-3.34,2,2.66-2,14.23-2,14.23l2.66-3.93.67-3.41,2.44,3.41.23-4.3,2.22,3.34,2.89-1.11-3.11-3.56h3.11l-4.67-5.78s7.78.45,12.89,2.45,8.22,1.11,15.78-4.45,11.78-.89,11.78-.89,7.55-2.44,6.88.45,6,5.33,6,5.33l.45,6.22s1.33-4.89,7.11.45,6.22-2.57,6.22-2.57,8.67,9.23,19.56-2.1,9.78-11.11,15.11-9.33,3.33,0,6.89,1.55C987.52,327.83,988.25,327,988.48,326.31Z"/><path class="cls-7" d="M503.69,232.49c.24-.45.65-.26,0,0Z"/><polygon class="cls-7" points="344.87 329.79 343.65 331.84 341.92 331.51 344.87 329.79"/><path class="cls-7" d="M503.69,232.49c.24-.45.65-.26,0,0Z"/><path class="cls-8" d="M250.07,24.7s-.15,1,.15,1-1.26.89-1.63.89H245l-.29-.89s2.59-4,5.4-3S250.07,24.7,250.07,24.7Z"/><polygon class="cls-8" points="256.22 24.58 253.48 26.18 251.32 26.18 253.48 24.58 256.22 24.58"/><polygon class="cls-8" points="273.11 23.29 263.41 22.55 267.26 20.4 273.11 23.29"/><polygon class="cls-8" points="275.33 22.55 274.67 22.95 271.59 20.84 275.33 22.55"/><path class="cls-8" d="M276.59,24.58s-2,3.49-3.41,3.15-2.59-2.35-2.59-2.35Z"/><polygon class="cls-8" points="269.48 25.38 268.59 26.95 267.22 25.7 269.48 25.38"/><polygon class="cls-8" points="271.59 27.92 269.48 29.77 268.59 28.66 271.59 27.92"/><polygon class="cls-8" points="275.67 28.95 273.63 30.29 271.59 29.99 274 27.92 275.67 28.95"/><path class="cls-8" d="M354.09,318.12c-3,2.67-5.72,5.45-6.61,7.72s-.94,2.23-3.72,2.67-3.34,2.94-5.06,3-5.61-2.72-9.61-1.78c-.38.09,2.22-5.28,4.83-5.55a24,24,0,0,0,5.5-1.45,44.75,44.75,0,0,0,3.06-4.83c.17-.72,1.61-1.95,3.44-2.06s2.39-2,3.67-1.5,1,2.34,2.56,2.17S357.09,315.45,354.09,318.12Z"/><path class="cls-8" d="M314,339.4a3,3,0,0,1-2.89-.72,12.73,12.73,0,0,1,3.11-1.45C315.09,337.18,315.76,338.9,314,339.4Z"/><path class="cls-8" d="M286.31,329.4s-.27-8.33-.22-8.5c0,0,.78-.17,1.11,1.33S286.31,329.4,286.31,329.4Z"/><polygon class="cls-8" points="275.42 313.95 271.48 319.62 273.87 313.07 275.42 313.95"/><path class="cls-8" d="M129.49,432.81s-8-6.5-8.38-12.64,6.66,1.71,8.54,5.81S129.49,432.81,129.49,432.81Z"/><path class="cls-8" d="M117.69,414.36s-3.24-3.94.17-3.24S117.69,414.36,117.69,414.36Z"/><path class="cls-9" d="M162.59,13.07s-4.88,6.73-1.62,9.48,8.57,3.32,16.58,4.8"/><path class="cls-9" d="M202.41,21.9a24.84,24.84,0,0,1,.39-5.34c.53-2.78,1.72-5.79,4.39-6.68a108,108,0,0,0,11.81-5"/><path class="cls-9" d="M219,10.77s-.85-1.78-6.48,1.48a43,43,0,0,1-9.72,4.31"/><path class="cls-9" d="M716.52-171.49s-58.67,44.78-62.52,43.3-8.59-3-19,1.78-13,5.62-16.59,9.77-3.56,0-3.56,0l-3.26,3.7-4.44-1.33s-8,2.08-8.59,3.56.88,5.63-1.49,7.41-3.26,7.11-3.26,7.11a42.73,42.73,0,0,1-1.48,12.44c-1.77,5.93-6.22,11.85-6.22,11.85s-4.15,1.78-7.41,9.49S572.52-47.3,566-39.3,549.11-10,549.11-10a16.93,16.93,0,0,1-11.26,6.52C530.45-2.56,527.78.7,527.78.7s-3.56,1.48-11,3.85S509.11,8.4,504.37,12,489,20.25,489,20.25s-.3,11.85-9.49,18.67-4.74,8.59-9.18,13.33-25.78,23.41-25.78,23.41L431.78,78s-4.13-4.15-7.55-4.15-6.08-3.26-8.75,0-30.22,18.46-35.85,25.38-11.55,14-10.66,14-18.67,19.85-18.67,19.85-1.19,13-5,15.7-12.44,5-12.44,5-14.82-1.48-16.6,0A71,71,0,0,1,310,158l-2.66-3.56-3.56.89s-21.93-3.26-24.59-4.44-15-13.93-17-13.93-13.11,2.67-14.22,2.37-6.15-8.59-6.15-8.59-3.55-12.74-5-14.22S221.62,102,219,101.44"/><path class="cls-9" d="M203.19,101.88c.44.59,3.55,5.48,3.55,5.48l7.26-.59"/><path class="cls-9" d="M212.22,104.62s9.34-2.44,10.08-2.15"/><line class="cls-9" x1="222.3" y1="99.14" x2="222.3" y2="109.73"/><line class="cls-9" x1="240.67" y1="112.1" x2="232.62" y2="112.57"/><path class="cls-9" d="M288.67,100l-1.33,1.92s-8.45-.59-9.93-1-9.15-11.63-9.15-11.63l-6.11-3.41s-38.37-13-39.85-13.63l2.07-4-2.81,4.15L214,74.92l-10.81,9.33L194,88.1l1.63,1.19,5.93-2.22-1.11-4.45h2.35L204.52,88"/><path class="cls-9" d="M185.11,36.89s-1.63,5.29-1,8.55.45,23.55.45,23.55l3.4,2.82H194l4.6-6.08"/><polyline class="cls-9" points="180.52 78.03 180.52 80.7 183.95 82.62"/><polyline class="cls-9" points="184.53 68.99 184.53 74.47 187.19 80.32"/><polyline class="cls-9" points="194 80.32 193.26 76.7 194.77 70.79"/><path class="cls-9" d="M184.53,73.84l8.73,2.86,5.34.37.66,2.33S211,69.18,213.37,66s5.7-10.45,6.74-11.34,26.6-11.16,26.6-11.16"/><polygon class="cls-9" points="196.37 84.07 199.26 79.4 200.46 82.62 196.37 84.07"/><path class="cls-9" d="M269,142.2l5.24-1.8,7.22-7.28,2.34-5.33h4.94l4.5-1.89a32.71,32.71,0,0,1,2.5,5.06,19.47,19.47,0,0,0,1.89,3.88"/><path class="cls-9" d="M332.82,153.88l4.44,12.74L335,186l10.67,34-4.89,11.33s-5.78,2.27-5.78,7.14-.44,21.08-.44,21.08-1.56,5.07,2,5.2,10,.53,10.88,0a10.17,10.17,0,0,1,6.89-.67c3.11.8,8.89,8.36,8.89,8.36a33.61,33.61,0,0,0,9.11,3.93c4.89,1.18,4.23.14,6.45,0a61.71,61.71,0,0,1,7.73.56"/><path class="cls-9" d="M337.26,166.62l11.34,5.11.88,2.6L354.6,172l3.11,2.37,4.12,2.29,2.77,1.56h3.55l2.79,2h3.88l4.22,1.33,1.11,2.22,4.89-1.11h4.67L392.6,188s1.51,2.47,4,1.9,5.19-1,5.19-1"/><path class="cls-9" d="M474.32,201.27c3.82.27,12.33.8,16.72.46,5.77-.44,12.65,10.67,12.65,10.67l3.79,15.11s3.55,15.43,7.94,20.87,15.09,12.52,15.52,12.8h0"/><text class="cls-10" transform="translate(237.74 43.46)">Miary</text><text class="cls-10" transform="translate(136.09 35.4)">Belalanda</text><text class="cls-11" transform="translate(171.71 99.14)"><tspan class="cls-12">T</tspan><tspan x="10.46" y="0">oliaria</tspan></text><text class="cls-10" transform="translate(473.91 301.09)">Manorofify</text><text class="cls-13" transform="translate(474.59 246.22)">T<tspan class="cls-14" x="6" y="0">anandava</tspan></text><text class="cls-10" transform="translate(371.17 198.76)">Ambohimahavelona </text><text class="cls-11" transform="translate(146.3 443.1)">Anakao</text><text class="cls-11" transform="translate(265.94 305.67)">St Augustin</text></g></g></g></svg>