<svg xmlns="http://www.w3.org/2000/svg" viewBox="0 0 145.83 145.83"><defs><style>.cls-1{fill:#fff1cc;}.cls-2{fill:#445061;}</style></defs><g id="Calque_2" data-name="Calque 2"><g id="Calque_1-2" data-name="Calque 1"><rect class="cls-1" x="1.5" y="1.5" width="142.83" height="142.83"/><path class="cls-2" d="M142.83,3V142.83H3V3H142.83m3-3H0V145.83H145.83V0Z"/><path class="cls-2" d="M115.7,71.93a42.57,42.57,0,0,0-5.23-19.54c-.32-.58-.65-1.16-1-1.72A43,43,0,0,0,95.17,36.36q-.84-.51-1.71-1a42.62,42.62,0,0,0-19.55-5.24h-2a42.62,42.62,0,0,0-19.55,5.24q-.87.48-1.71,1A43.13,43.13,0,0,0,36.36,50.67c-.34.56-.67,1.14-1,1.72a42.55,42.55,0,0,0-5.24,19.54v2a42.61,42.61,0,0,0,5.23,19.55c.31.58.65,1.15,1,1.71a42.94,42.94,0,0,0,14.31,14.31q.84.51,1.71,1a42.57,42.57,0,0,0,19.54,5.23h2a42.57,42.57,0,0,0,19.54-5.23c.58-.32,1.16-.65,1.72-1a42.91,42.91,0,0,0,14.3-14.31c.35-.56.68-1.13,1-1.71a42.6,42.6,0,0,0,5.22-19.55v-1C115.68,72.59,115.71,72.25,115.7,71.93ZM71.93,32.11h2a40.57,40.57,0,0,1,18.55,5L83.37,52.85a22.49,22.49,0,0,0-9.46-2.53h-2a22.49,22.49,0,0,0-9.46,2.53L53.39,37.1A40.4,40.4,0,0,1,71.93,32.11ZM93.56,71.93v2a20.63,20.63,0,0,1-2.27,8.46c-.3.59-.64,1.16-1,1.71a21.06,21.06,0,0,1-6.2,6.2,18.1,18.1,0,0,1-1.71,1,20.43,20.43,0,0,1-8.48,2.29h-2a20.47,20.47,0,0,1-8.46-2.27,18.1,18.1,0,0,1-1.71-1,20.91,20.91,0,0,1-6.19-6.2c-.36-.55-.69-1.12-1-1.71a20.63,20.63,0,0,1-2.27-8.46V72a20.63,20.63,0,0,1,2.27-8.46c.31-.58.64-1.16,1-1.71a20.76,20.76,0,0,1,6.19-6.19,18.1,18.1,0,0,1,1.71-1,20.48,20.48,0,0,1,8.46-2.28h2a20.48,20.48,0,0,1,8.46,2.28,18.1,18.1,0,0,1,1.71,1,20.91,20.91,0,0,1,6.2,6.19,19.45,19.45,0,0,1,1,1.71A20.6,20.6,0,0,1,93.56,71.93ZM37.1,92.46a40.44,40.44,0,0,1-5-18.55v-2a40.37,40.37,0,0,1,5-18.54l15.75,9.09a22.41,22.41,0,0,0-2.53,9.45v2a22.49,22.49,0,0,0,2.53,9.46Zm36.81,21.26h-2a40.62,40.62,0,0,1-18.54-5L62.47,93a22.49,22.49,0,0,0,9.46,2.53l1,0c.33,0,.67,0,1,0A22.49,22.49,0,0,0,83.37,93l9.09,15.75a40.69,40.69,0,0,1-18.55,5Zm39.81-39.81a40.69,40.69,0,0,1-5,18.55L93,83.37a22.48,22.48,0,0,0,2.52-9.46c0-.32,0-.66,0-1s0-.66,0-1A22.4,22.4,0,0,0,93,62.48l15.75-9.09a40.62,40.62,0,0,1,5,18.54v1c0,.33,0,.67,0,1Z"/></g></g></svg>