<svg xmlns="http://www.w3.org/2000/svg" viewBox="0 0 145.83 145.83"><defs><style>.cls-1{fill:#fff1cc;}.cls-2{fill:#445061;}</style></defs><g id="Calque_2" data-name="Calque 2"><g id="Calque_1-2" data-name="Calque 1"><rect class="cls-1" x="1.5" y="1.5" width="142.83" height="142.83"/><path class="cls-2" d="M142.83,3V142.83H3V3H142.83m3-3H0V145.83H145.83V0Z"/><path class="cls-2" d="M99,78.5v24.41a12.61,12.61,0,0,1-24.36,4.63,13.57,13.57,0,0,1-.88-4.81V69.4a10,10,0,0,1,2.47-6.81c1.35-1.58,2.76-3.17,4-4.75a9.67,9.67,0,1,0-14.91-.06c1.29,1.64,2.7,3.17,4,4.75A10.32,10.32,0,0,1,72,69.34c0,11.21.06,22.42,0,33.63A12.59,12.59,0,0,1,59.54,115.7h-.3A12.63,12.63,0,0,1,46.8,102.79V56.26c0-13.62,10.62-25.18,23.88-26.06A26,26,0,0,1,98.73,52.56,35.07,35.07,0,0,1,99,56.9C99,64.06,99,71.28,99,78.5Z"/></g></g></svg>