<svg xmlns="http://www.w3.org/2000/svg" viewBox="0 0 145.83 145.83"><defs><style>.cls-1{fill:#fff1cc;}.cls-2{fill:#445061;}</style></defs><g id="Calque_2" data-name="Calque 2"><g id="Calque_1-2" data-name="Calque 1"><rect class="cls-1" x="1.5" y="1.5" width="142.83" height="142.83"/><path class="cls-2" d="M142.83,3V142.83H3V3H142.83m3-3H0V145.83H145.83V0Z"/><path class="cls-2" d="M73,30.11c22.66,0,39.49,23.37,30.34,44.62a124.17,124.17,0,0,1-26.76,38.66c-1.66,1.67-3.33,3.71-6.08,1-12.87-12.61-23.68-26.7-29.25-44C36,53.67,48,34.78,65.73,31.07,68.1,30.56,70.54,30.43,73,30.11Zm-.13,23.24A10,10,0,1,0,83,63.14a9.87,9.87,0,0,0-10-9.73.06.06,0,0,0-.06-.06Z"/></g></g></svg>