<svg xmlns="http://www.w3.org/2000/svg" viewBox="0 0 218.44 92.53"><defs><style>.cls-1{fill:#fdb913;}.cls-2{fill:#1b3562;}</style></defs><title>logo_1</title><g id="Calque_2" data-name="Calque 2"><g id="Calque_2-2" data-name="Calque 2"><path class="cls-1" d="M194.49,83.33c0,1.58,0,3.15-.13,4.71,0,.6-.07,1.19-.12,1.79l-.73.1c-.65.1-1.31.19-2,.27-9.1,1.14-18.26,1.82-27.43,2.09s-18.34.22-27.51,0l-13.73-.63-13.72-.92q-27.25-2.25-54.6-2.65c-8.35-.09-16.69,0-25,.3L28,88.49c0-.66-.08-1.32-.1-2,0-1-.06-2.11-.06-3.17a83.33,83.33,0,1,1,166.66,0Z"/><path class="cls-2" d="M85.06,35.59c-7.58.37-18,2-18,2,3.53,0,14.25.77,14.25.77l-.47.37C71,39,56,40.69,56,40.69c5.5,0,21.35.77,21.67.79l-.67.63c-11.46.12-32.42,1.82-32.42,1.82s16.9.26,29.84.89c-5.7,6.57-5,10.55-5,10.55s-.12,6.23,6,12.35c0,0-6,5.84-12.85,6.12s-16.39.42-16.39.42L49.7,64H63.15V60.61H51L54.52,51s9.41-1.88,14.83-.11l.89-3.27a52,52,0,0,0-10.74-.5l-6.87.5L41.45,77.28H56.79s11.29.21,14.28-2.05l6.37-4.82,4.48,4.82,2.88-2.39-4.09-4.53,8-7.2-2.39-2.5L78.6,65.48S74,61.64,72.68,57.33a6.32,6.32,0,0,1-.09-3.26A19.6,19.6,0,0,1,77.88,45c3.79.22,7,.49,9,.79C95.55,47.17,93,57.58,93,57.58l2.77.56,16.39-37C100,26.37,91.3,31.24,85.06,35.59Zm-2.79,6.64c-.41,0-.86-.06-1.37-.08,10-8.71,25-15.15,25.5-15.34L95.8,50.91C95.68,46.18,90.32,42.94,82.27,42.23Z"/><path class="cls-2" d="M110,58.72h-3.2s7.18-11.33,1.46-10-7.06,10-7.06,10H98s4.65-13.74,11.83-13S112.7,53.65,110,58.72Z"/><path class="cls-2" d="M117.19,48.88c-6.73,4.81-4.32,10.09,0,10.29a24.24,24.24,0,0,0,8.39-1.28l5.81-12.63A20.85,20.85,0,0,0,117.19,48.88Zm6.27,6.64s-5.23,1.79-7.27-.66,8.18-7,10.47-6.11Z"/><path class="cls-2" d="M145.65,48.88c-6.73,4.81-4.32,10.09,0,10.29A24.24,24.24,0,0,0,154,57.89l5.81-12.63A20.85,20.85,0,0,0,145.65,48.88Zm6.27,6.64s-5.23,1.79-7.26-.66,8.18-7,10.46-6.11Z"/><polygon class="cls-2" points="136.25 44.02 140.82 57.1 137.33 59.19 132.35 43.65 140.36 24.71 143.89 24.71 137.41 39.64 150.16 30.15 151.99 32.47 136.25 44.02"/><path class="cls-2" d="M170.47,46c-3.82-3.35-10.16,2.43-10.16,2.43-2,2-4,4.49-2.66,7.64s6,3,9.39.92S174.29,49.31,170.47,46Zm-9.22,9.21c-2.24-1.93,1-4.78,1-4.78s4.57-4.32,6.53-1.33S163.49,57.11,161.25,55.17Z"/><path class="cls-2" d="M103.36,69.76c-4.44,4.3-14.12,4.87-14.12,4.87L84,85.21H80.49L87.8,71.37s5.59,1.94,12.29-2.49c4.82-3.18,2.51-4.31.83-4.69A7.79,7.79,0,0,0,99.17,64H91.62l1.55-2.93S115,58.44,103.36,69.76Z"/><path class="cls-2" d="M121.25,61.07l-1.17,2.47a12,12,0,0,0-6.94,3.07,20,20,0,0,0-4.73,7.75H105S110.28,59,121.25,61.07Z"/><path class="cls-2" d="M123.46,69.27h12.29c6.09-6.48,1.33-11.8-8.91-6.43s-6.15,12.29-6.15,12.29l2.94-1.38C121.8,70.65,123.46,69.27,123.46,69.27Zm10.63-2.66-7.53-.28C138.13,60.68,134.09,66.61,134.09,66.61Z"/><path class="cls-2" d="M152.7,61.18,151,63.89c-8.91.33-5.48,2.83-5.87,6.34a4.6,4.6,0,0,1-2.58,3.4,8.55,8.55,0,0,1-4.21,1.06h-5.06l1.51-2.93c7.61.22,7-1.44,6.79-5.15-.07-1.62,1.12-2.87,2.48-3.75a10.72,10.72,0,0,1,5.85-1.68Z"/><path class="cls-2" d="M166.79,61.18l-1.71,2.71c-8.92.33-5.48,2.83-5.87,6.34a4.6,4.6,0,0,1-2.58,3.4,8.56,8.56,0,0,1-4.21,1.06h-5.07l1.51-2.93c7.6.22,7-1.44,6.79-5.15-.07-1.62,1.12-2.87,2.48-3.75A10.72,10.72,0,0,1,164,61.18Z"/><path class="cls-2" d="M218.44,84.59A95.1,95.1,0,0,1,205.14,88q-5.43,1-10.9,1.81l-.73.1c-.65.1-1.31.19-2,.27-9.1,1.14-18.26,1.82-27.43,2.09s-18.34.22-27.51,0l-13.73-.63-13.72-.92q-27.25-2.25-54.6-2.65c-8.35-.09-16.69,0-25,.3L28,88.49l-.76,0A214.74,214.74,0,0,0,0,91.09a111.9,111.9,0,0,1,13.46-2.76c4.52-.71,9.07-1.27,13.63-1.75l.8-.08,1.31-.12c8.43-.78,16.89-1.2,25.35-1.36q13-.29,26,.15l1.24,0c9.26.31,18.5.86,27.73,1.58,18.17,1.49,36.37,2.41,54.58,2.38,9.11,0,18.22-.26,27.3-.92l2.48-.17.52,0A160.55,160.55,0,0,0,218.44,84.59Z"/></g></g></svg>