<svg xmlns="http://www.w3.org/2000/svg" viewBox="0 0 406.53 73"><defs><style>.cls-1{fill:#1c3462;}</style></defs><title>logosansfond</title><g id="Calque_2" data-name="Calque 2"><g id="Calque_1-2" data-name="Calque 1"><path class="cls-1" d="M65.21,23.24c-12.21.6-29,3.21-29,3.21,5.69-.06,22.95,1.25,22.95,1.25l-.75.59c-15.91.44-40,3.18-40,3.18,8.86-.06,34.37,1.24,34.88,1.26l-1.07,1C33.75,33.94,0,36.68,0,36.68s27.22.41,48,1.43c-9.17,10.57-8,17-8,17l4.24.18c.65-5.8,4.27-11.53,9.38-16.85,6.11.36,11.27.79,14.42,1.28,14,2.2,9.94,19,9.94,19l4.46.89L108.84,0C89.27,8.4,75.25,16.24,65.21,23.24Zm-4.5,10.7c-.65-.06-1.38-.1-2.19-.13C74.93,19.56,99.57,9.09,99.57,9.09L82.5,47.91C82.3,40.29,73.67,35.07,60.7,33.94Z"/><path class="cls-1" d="M105.43,60.48h-5.15s11.55-18.24,2.34-16.18S91.25,60.48,91.25,60.48H86s7.49-22.13,19.05-21S109.71,52.32,105.43,60.48Z"/><path class="cls-1" d="M116.93,44.63c-10.83,7.76-7,16.25,0,16.58a39,39,0,0,0,13.51-2.07l9.36-20.32A33.57,33.57,0,0,0,116.93,44.63ZM127,55.33s-8.42,2.88-11.7-1.07S128.49,43,132.17,44.43Z"/><path class="cls-1" d="M162.75,44.63c-10.83,7.76-7,16.25,0,16.58a38.93,38.93,0,0,0,13.5-2.07l9.36-20.32A33.55,33.55,0,0,0,162.75,44.63Zm10.1,10.7s-8.42,2.88-11.7-1.07S174.32,43,178,44.43Z"/><polygon class="cls-1" points="147.61 36.81 154.97 57.87 149.35 61.24 141.33 36.21 154.24 5.73 159.91 5.73 149.49 29.77 170.01 14.48 172.95 18.23 147.61 36.81"/><path class="cls-1" d="M202.7,39.93c-6.15-5.39-16.36,3.93-16.36,3.93-3.21,3.21-6.38,7.22-4.28,12.3s9.58,4.86,15.11,1.47S208.85,45.33,202.7,39.93ZM187.86,54.77c-3.61-3.12,1.7-7.71,1.7-7.71s7.35-7,10.51-2.14S191.47,57.9,187.86,54.77Z"/><path class="cls-1" d="M269.29,45.19l6.59,7.31-4.63,3.85L264,48.58s-5.44,4.1-10.25,7.76-23,3.3-23,3.3H206.09l18-47.69,11.05-.8a84.1,84.1,0,0,1,17.29.8L251,17.2c-8.73-2.85-23.89.18-23.89.18L221.51,32.8H241v5.45H219.37l-5.71,16.52S229,54.55,240,54.1s20.68-9.85,20.68-9.85c-9.8-9.85-10.25-19-10.25-19l5.88.09c.45,8,9.54,15.33,9.54,15.33l12.48-11.05,3.83,4Z"/><path class="cls-1" d="M304.41,48.14C297.26,55.06,281.68,56,281.68,56l-8.47,17h-5.62l11.77-22.29s9,3.12,19.79-4c7.76-5.12,4-6.94,1.34-7.55a12.54,12.54,0,0,0-2.82-.3H285.51l2.5-4.72S323.22,29.9,304.41,48.14Z"/><path class="cls-1" d="M333.2,34.14l-1.88,4a19.34,19.34,0,0,0-11.18,4.94c-4,3.79-6.36,8.92-7.62,12.48h-5.43S315.55,30.84,333.2,34.14Z"/><line class="cls-1" x1="313.08" y1="55.53" x2="312.52" y2="55.53"/><line class="cls-1" x1="331.32" y1="38.11" x2="331.22" y2="38.32"/><path class="cls-1" d="M336.77,47.33h19.79c9.8-10.43,2.14-19-14.35-10.34s-9.89,19.79-9.89,19.79L337,54.55C334.09,49.56,336.77,47.33,336.77,47.33Zm17.11-4.28-12.12-.45C360.39,33.51,353.88,43.05,353.88,43.05Z"/><path class="cls-1" d="M383.83,34.31l-2.77,4.36c-14.35.53-8.82,4.55-9.45,10.21-.29,2.63-2.19,4.36-4.15,5.47a13.76,13.76,0,0,1-6.77,1.71h-8.15L355,51.34c12.25.35,11.2-2.32,10.94-8.29-.12-2.62,1.8-4.62,4-6a17.26,17.26,0,0,1,9.41-2.71Z"/><path class="cls-1" d="M406.53,34.31l-2.76,4.36c-14.35.53-8.82,4.55-9.45,10.21-.29,2.63-2.19,4.36-4.15,5.47a13.77,13.77,0,0,1-6.77,1.71h-8.16l2.44-4.72c12.24.35,11.2-2.32,10.93-8.29-.11-2.62,1.8-4.62,4-6A17.26,17.26,0,0,1,402,34.31Z"/></g></g></svg>